<?xml version="1.0" encoding="UTF-8" standalone="no"?>
<!-- Created with Inkscape (http://www.inkscape.org/) -->

<svg
   version="1.1"
   id="svg2"
   xml:space="preserve"
   width="908"
   height="577.33331"
   viewBox="0 0 908 577.33331"
   sodipodi:docname="CI555_biestable.eps"
   xmlns:inkscape="http://www.inkscape.org/namespaces/inkscape"
   xmlns:sodipodi="http://sodipodi.sourceforge.net/DTD/sodipodi-0.dtd"
   xmlns="http://www.w3.org/2000/svg"
   xmlns:svg="http://www.w3.org/2000/svg"><defs
     id="defs6" /><sodipodi:namedview
     id="namedview4"
     pagecolor="#ffffff"
     bordercolor="#666666"
     borderopacity="1.0"
     inkscape:pageshadow="2"
     inkscape:pageopacity="0.0"
     inkscape:pagecheckerboard="0" /><g
     id="g8"
     inkscape:groupmode="layer"
     inkscape:label="ink_ext_XXXXXX"
     transform="matrix(1.3333333,0,0,-1.3333333,0,577.33333)"><g
       id="g10"
       transform="scale(0.1)"><path
         d="m 5200,1457.5 h 60"
         style="fill:none;stroke:#000000;stroke-width:9.75;stroke-linecap:round;stroke-linejoin:miter;stroke-miterlimit:6;stroke-dasharray:none;stroke-opacity:1"
         id="path12" /><path
         d="m 5740,2537.5 h 60"
         style="fill:none;stroke:#000000;stroke-width:9.75;stroke-linecap:round;stroke-linejoin:miter;stroke-miterlimit:6;stroke-dasharray:none;stroke-opacity:1"
         id="path14" /><path
         d="m 5800,2357.5 v 360"
         style="fill:none;stroke:#000000;stroke-width:9.75;stroke-linecap:round;stroke-linejoin:miter;stroke-miterlimit:6;stroke-dasharray:none;stroke-opacity:1"
         id="path16" /><path
         d="m 5800,2620 180,97.5"
         style="fill:none;stroke:#000000;stroke-width:9.75;stroke-linecap:round;stroke-linejoin:miter;stroke-miterlimit:6;stroke-dasharray:none;stroke-opacity:1"
         id="path18" /><path
         d="m 5980,2777.5 v -60"
         style="fill:none;stroke:#000000;stroke-width:9.75;stroke-linecap:round;stroke-linejoin:miter;stroke-miterlimit:6;stroke-dasharray:none;stroke-opacity:1"
         id="path20" /><path
         d="m 5800,2455 180,-97.5"
         style="fill:none;stroke:#000000;stroke-width:9.75;stroke-linecap:round;stroke-linejoin:miter;stroke-miterlimit:6;stroke-dasharray:none;stroke-opacity:1"
         id="path22" /><path
         d="m 5980,2297.5 v 60"
         style="fill:none;stroke:#000000;stroke-width:9.75;stroke-linecap:round;stroke-linejoin:miter;stroke-miterlimit:6;stroke-dasharray:none;stroke-opacity:1"
         id="path24" /><path
         d="m 5874.07,2384.02 c 41.85,-2.51 51.59,-8.14 105.93,-26.52 -43.09,37.87 -52.83,43.49 -75.93,78.48 -4.76,-23.23 -12.26,-36.23 -30,-51.96"
         style="fill:#000000;fill-opacity:1;fill-rule:evenodd;stroke:none"
         id="path26" /><path
         d="m 5980,2177.5 v 120"
         style="fill:none;stroke:#000000;stroke-width:9.75;stroke-linecap:round;stroke-linejoin:miter;stroke-miterlimit:6;stroke-dasharray:none;stroke-opacity:1"
         id="path28" /><path
         d="M 6100,2177.5 H 5860"
         style="fill:none;stroke:#000000;stroke-width:9.75;stroke-linecap:round;stroke-linejoin:miter;stroke-miterlimit:6;stroke-dasharray:none;stroke-opacity:1"
         id="path30" /><path
         d="m 6047.5,2125 h -135"
         style="fill:none;stroke:#000000;stroke-width:9.75;stroke-linecap:round;stroke-linejoin:miter;stroke-miterlimit:6;stroke-dasharray:none;stroke-opacity:1"
         id="path32" /><path
         d="m 5995,2072.5 h -30"
         style="fill:none;stroke:#000000;stroke-width:9.75;stroke-linecap:round;stroke-linejoin:miter;stroke-miterlimit:6;stroke-dasharray:none;stroke-opacity:1"
         id="path34" /><path
         d="m 5770,1457.5 h -90"
         style="fill:none;stroke:#000000;stroke-width:9.75;stroke-linecap:round;stroke-linejoin:miter;stroke-miterlimit:6;stroke-dasharray:none;stroke-opacity:1"
         id="path36" /><path
         d="m 5770,1337.5 v 240"
         style="fill:none;stroke:#000000;stroke-width:9.75;stroke-linecap:round;stroke-linejoin:miter;stroke-miterlimit:6;stroke-dasharray:none;stroke-opacity:1"
         id="path38" /><path
         d="m 5770,1337.5 150,120 -150,120"
         style="fill:none;stroke:#000000;stroke-width:9.75;stroke-linecap:round;stroke-linejoin:miter;stroke-miterlimit:6;stroke-dasharray:none;stroke-opacity:1"
         id="path40" /><path
         d="m 5980,1457.5 c 0,16.57 -13.43,30 -30,30 -16.57,0 -30,-13.43 -30,-30 0,-16.57 13.43,-30 30,-30 16.57,0 30,13.43 30,30"
         style="fill:none;stroke:#000000;stroke-width:9.75;stroke-linecap:round;stroke-linejoin:miter;stroke-miterlimit:6;stroke-dasharray:none;stroke-opacity:1"
         id="path42" /><path
         d="m 6040,1457.5 h -60"
         style="fill:none;stroke:#000000;stroke-width:9.75;stroke-linecap:round;stroke-linejoin:miter;stroke-miterlimit:6;stroke-dasharray:none;stroke-opacity:1"
         id="path44" /><path
         d="M 5740,1457.5 H 5260"
         style="fill:none;stroke:#000000;stroke-width:9.75;stroke-linecap:round;stroke-linejoin:miter;stroke-miterlimit:6;stroke-dasharray:none;stroke-opacity:1"
         id="path46" /><path
         d="m 5440,2537.5 v -1080"
         style="fill:none;stroke:#000000;stroke-width:9.75;stroke-linecap:round;stroke-linejoin:miter;stroke-miterlimit:6;stroke-dasharray:none;stroke-opacity:1"
         id="path48" /><path
         d="m 5440,2537.5 h 300"
         style="fill:none;stroke:#000000;stroke-width:9.75;stroke-linecap:round;stroke-linejoin:miter;stroke-miterlimit:6;stroke-dasharray:none;stroke-opacity:1"
         id="path50" /><path
         d="m 5462.5,1457.5 c 0,12.43 -10.07,22.5 -22.5,22.5 -12.43,0 -22.5,-10.07 -22.5,-22.5 0,-12.43 10.07,-22.5 22.5,-22.5 12.43,0 22.5,10.07 22.5,22.5"
         style="fill:#000000;fill-opacity:1;fill-rule:evenodd;stroke:none"
         id="path52" /><path
         d="M 6400,1457.5 H 6040"
         style="fill:none;stroke:#000000;stroke-width:9.75;stroke-linecap:round;stroke-linejoin:miter;stroke-miterlimit:6;stroke-dasharray:none;stroke-opacity:1"
         id="path54" /><path
         d="m 6422.5,1457.5 c 0,12.43 -10.07,22.5 -22.5,22.5 -12.43,0 -22.5,-10.07 -22.5,-22.5 0,-12.43 10.07,-22.5 22.5,-22.5 12.43,0 22.5,10.07 22.5,22.5"
         style="fill:#000000;fill-opacity:1;fill-rule:evenodd;stroke:none"
         id="path56" /><g
         id="g58"
         transform="scale(10)"><text
           transform="matrix(1,0,0,-1,645.056,139.451)"
           style="font-variant:normal;font-weight:normal;font-size:15px;font-family:Helvetica;-inkscape-font-specification:Helvetica;writing-mode:lr-tb;fill:#000000;fill-opacity:1;fill-rule:nonzero;stroke:none"
           id="text66"><tspan
             x="0 11.67 22.5"
             y="0"
             sodipodi:role="line"
             id="tspan60">OUT</tspan><tspan
             x="-79.443398 -68.613403 -65.283401 -57.783401 -50.283401 -41.943401 -33.603401 -28.6084 -20.2684"
             y="-164.549"
             sodipodi:role="line"
             id="tspan62">Discharge</tspan><tspan
             x="-424.6824 -413.85239 -405.51239 -397.17239 -393.00241 -388.00739 -379.66739 -376.3374 -372.16739 -362.16241 -353.82239 -350.4924 -346.32239 -337.98239 -329.6424"
             y="-158.549"
             sodipodi:role="line"
             id="tspan64">Control Voltage</tspan></text></g><path
         d="m 4420,1217.5 h 600 v 960 h -600 z"
         style="fill:none;stroke:#000000;stroke-width:9.75;stroke-linecap:round;stroke-linejoin:miter;stroke-miterlimit:6;stroke-dasharray:none;stroke-opacity:1"
         id="path68" /><path
         d="m 4300,1937.5 h 120"
         style="fill:none;stroke:#000000;stroke-width:9.75;stroke-linecap:round;stroke-linejoin:miter;stroke-miterlimit:6;stroke-dasharray:none;stroke-opacity:1"
         id="path70" /><path
         d="m 4300,1457.5 h 120"
         style="fill:none;stroke:#000000;stroke-width:9.75;stroke-linecap:round;stroke-linejoin:miter;stroke-miterlimit:6;stroke-dasharray:none;stroke-opacity:1"
         id="path72" /><path
         d="m 5027.5,1457.5 c 0,-12.43 10.07,-22.5 22.5,-22.5 12.43,0 22.5,10.07 22.5,22.5 0,12.43 -10.07,22.5 -22.5,22.5 -12.43,0 -22.5,-10.07 -22.5,-22.5"
         style="fill:none;stroke:#000000;stroke-width:9.75;stroke-linecap:round;stroke-linejoin:miter;stroke-miterlimit:6;stroke-dasharray:none;stroke-opacity:1"
         id="path74" /><path
         d="M 5072.5,1457.5 H 5110"
         style="fill:none;stroke:#000000;stroke-width:9.75;stroke-linecap:round;stroke-linejoin:miter;stroke-miterlimit:6;stroke-dasharray:none;stroke-opacity:1"
         id="path76" /><path
         d="M 5245,1457.5 H 5110"
         style="fill:none;stroke:#000000;stroke-width:9.75;stroke-linecap:round;stroke-linejoin:miter;stroke-miterlimit:6;stroke-dasharray:none;stroke-opacity:1"
         id="path78" /><path
         d="m 5200,1457.5 h 60"
         style="fill:none;stroke:#000000;stroke-width:9.75;stroke-linecap:round;stroke-linejoin:miter;stroke-miterlimit:6;stroke-dasharray:none;stroke-opacity:1"
         id="path80" /><g
         id="g82"
         transform="scale(10)"><text
           transform="matrix(1,0,0,-1,446.156,139.826)"
           style="font-variant:normal;font-weight:normal;font-size:15px;font-family:Helvetica;-inkscape-font-specification:Helvetica;writing-mode:lr-tb;fill:#000000;fill-opacity:1;fill-rule:nonzero;stroke:none"
           id="text88"><tspan
             x="0"
             y="0"
             id="tspan84">S</tspan><tspan
             x="-0.29843801"
             y="-48.089802"
             id="tspan86">R</tspan></text></g><path
         d="m 4731.25,2185 c 12.43,0 22.5,10.07 22.5,22.5 0,12.43 -10.07,22.5 -22.5,22.5 -12.43,0 -22.5,-10.07 -22.5,-22.5 0,-12.43 10.07,-22.5 22.5,-22.5"
         style="fill:none;stroke:#000000;stroke-width:9.75;stroke-linecap:round;stroke-linejoin:miter;stroke-miterlimit:6;stroke-dasharray:none;stroke-opacity:1"
         id="path90" /><path
         d="m 4731.25,2230 v 37.5"
         style="fill:none;stroke:#000000;stroke-width:9.75;stroke-linecap:round;stroke-linejoin:miter;stroke-miterlimit:6;stroke-dasharray:none;stroke-opacity:1"
         id="path92" /><g
         id="g94"
         transform="scale(10)"><text
           transform="matrix(1,0,0,-1,484.888,188.201)"
           style="font-variant:normal;font-weight:normal;font-size:15px;font-family:Helvetica;-inkscape-font-specification:Helvetica;writing-mode:lr-tb;fill:#000000;fill-opacity:1;fill-rule:nonzero;stroke:none"
           id="text98"><tspan
             x="0"
             y="0"
             id="tspan96">Q</tspan></text></g><path
         d="m 4848.88,1539.7 h 116.69"
         style="fill:none;stroke:#000000;stroke-width:7.50589;stroke-linecap:round;stroke-linejoin:miter;stroke-miterlimit:6;stroke-dasharray:none;stroke-opacity:1"
         id="path100" /><g
         id="g102"
         transform="scale(10)"><text
           transform="matrix(1,0,0,-1,484.888,140.201)"
           style="font-variant:normal;font-weight:normal;font-size:15px;font-family:Helvetica;-inkscape-font-specification:Helvetica;writing-mode:lr-tb;fill:#000000;fill-opacity:1;fill-rule:nonzero;stroke:none"
           id="text106"><tspan
             x="0"
             y="0"
             id="tspan104">Q</tspan></text></g><path
         d="m 4622.71,2161.43 h 235.08"
         style="fill:none;stroke:#000000;stroke-width:4.50005;stroke-linecap:round;stroke-linejoin:miter;stroke-miterlimit:6;stroke-dasharray:none;stroke-opacity:1"
         id="path108" /><g
         id="g110"
         transform="scale(10)"><text
           transform="matrix(1,0,0,-1,462.271,208)"
           style="font-variant:normal;font-weight:normal;font-size:9px;font-family:Helvetica;-inkscape-font-specification:Helvetica;writing-mode:lr-tb;fill:#000000;fill-opacity:1;fill-rule:nonzero;stroke:none"
           id="text114"><tspan
             x="0 6.4980001 11.502 16.002001 21.006001"
             y="0"
             sodipodi:role="line"
             id="tspan112">Reset</tspan></text></g><path
         d="m 4300,1457.5 v -240 h -480"
         style="fill:none;stroke:#000000;stroke-width:9.75;stroke-linecap:round;stroke-linejoin:miter;stroke-miterlimit:6;stroke-dasharray:none;stroke-opacity:1"
         id="path116" /><path
         d="m 1900,1832.5 v 105"
         style="fill:none;stroke:#000000;stroke-width:9.75;stroke-linecap:round;stroke-linejoin:miter;stroke-miterlimit:6;stroke-dasharray:none;stroke-opacity:1"
         id="path118" /><path
         d="m 1900,1562.5 v -105"
         style="fill:none;stroke:#000000;stroke-width:9.75;stroke-linecap:round;stroke-linejoin:miter;stroke-miterlimit:6;stroke-dasharray:none;stroke-opacity:1"
         id="path120" /><path
         d="m 1900,1832.5 -52.5,-22.5 105,-45 -105,-45 105,-45 -105,-45 105,-45 -52.5,-22.5"
         style="fill:none;stroke:#000000;stroke-width:9.75;stroke-linecap:round;stroke-linejoin:miter;stroke-miterlimit:6;stroke-dasharray:none;stroke-opacity:1"
         id="path122" /><g
         id="g124"
         transform="scale(10)"><text
           transform="matrix(1,0,0,-1,201.52,164.598)"
           style="font-variant:normal;font-weight:normal;font-size:15px;font-family:'Times New Roman';-inkscape-font-specification:Times-Roman;writing-mode:lr-tb;fill:#000000;fill-opacity:1;fill-rule:nonzero;stroke:none"
           id="text128"><tspan
             x="0 7.5 11.25 20.625"
             y="0"
             sodipodi:role="line"
             id="tspan126">5.0k</tspan></text><text
           transform="matrix(1,0,0,-1,229.645,164.598)"
           style="font-variant:normal;font-weight:normal;font-size:15px;font-family:Symbol;-inkscape-font-specification:Symbol;writing-mode:lr-tb;fill:#000000;fill-opacity:1;fill-rule:nonzero;stroke:none"
           id="text132"><tspan
             x="0"
             y="0"
             id="tspan130">Ω</tspan></text></g><path
         d="m 1900,1052.5 v 105"
         style="fill:none;stroke:#000000;stroke-width:9.75;stroke-linecap:round;stroke-linejoin:miter;stroke-miterlimit:6;stroke-dasharray:none;stroke-opacity:1"
         id="path134" /><path
         d="m 1900,782.5 v -105"
         style="fill:none;stroke:#000000;stroke-width:9.75;stroke-linecap:round;stroke-linejoin:miter;stroke-miterlimit:6;stroke-dasharray:none;stroke-opacity:1"
         id="path136" /><path
         d="m 1900,1052.5 -52.5,-22.5 105,-45 -105,-45 105,-45 -105,-45 105,-45 -52.5,-22.5"
         style="fill:none;stroke:#000000;stroke-width:9.75;stroke-linecap:round;stroke-linejoin:miter;stroke-miterlimit:6;stroke-dasharray:none;stroke-opacity:1"
         id="path138" /><g
         id="g140"
         transform="scale(10)"><text
           transform="matrix(1,0,0,-1,201.52,86.5977)"
           style="font-variant:normal;font-weight:normal;font-size:15px;font-family:'Times New Roman';-inkscape-font-specification:Times-Roman;writing-mode:lr-tb;fill:#000000;fill-opacity:1;fill-rule:nonzero;stroke:none"
           id="text144"><tspan
             x="0 7.5 11.25 20.625"
             y="0"
             sodipodi:role="line"
             id="tspan142">5.0k</tspan></text><text
           transform="matrix(1,0,0,-1,229.645,86.5977)"
           style="font-variant:normal;font-weight:normal;font-size:15px;font-family:Symbol;-inkscape-font-specification:Symbol;writing-mode:lr-tb;fill:#000000;fill-opacity:1;fill-rule:nonzero;stroke:none"
           id="text148"><tspan
             x="0"
             y="0"
             id="tspan146">Ω</tspan></text></g><path
         d="m 1900,2552.5 v 105"
         style="fill:none;stroke:#000000;stroke-width:9.75;stroke-linecap:round;stroke-linejoin:miter;stroke-miterlimit:6;stroke-dasharray:none;stroke-opacity:1"
         id="path150" /><path
         d="m 1900,2282.5 v -105"
         style="fill:none;stroke:#000000;stroke-width:9.75;stroke-linecap:round;stroke-linejoin:miter;stroke-miterlimit:6;stroke-dasharray:none;stroke-opacity:1"
         id="path152" /><path
         d="m 1900,2552.5 -52.5,-22.5 105,-45 -105,-45 105,-45 -105,-45 105,-45 -52.5,-22.5"
         style="fill:none;stroke:#000000;stroke-width:9.75;stroke-linecap:round;stroke-linejoin:miter;stroke-miterlimit:6;stroke-dasharray:none;stroke-opacity:1"
         id="path154" /><g
         id="g156"
         transform="scale(10)"><text
           transform="matrix(1,0,0,-1,201.52,236.598)"
           style="font-variant:normal;font-weight:normal;font-size:15px;font-family:'Times New Roman';-inkscape-font-specification:Times-Roman;writing-mode:lr-tb;fill:#000000;fill-opacity:1;fill-rule:nonzero;stroke:none"
           id="text160"><tspan
             x="0 7.5 11.25 20.625"
             y="0"
             sodipodi:role="line"
             id="tspan158">5.0k</tspan></text><text
           transform="matrix(1,0,0,-1,229.645,236.598)"
           style="font-variant:normal;font-weight:normal;font-size:15px;font-family:Symbol;-inkscape-font-specification:Symbol;writing-mode:lr-tb;fill:#000000;fill-opacity:1;fill-rule:nonzero;stroke:none"
           id="text164"><tspan
             x="0"
             y="0"
             id="tspan162">Ω</tspan></text></g><path
         d="m 1900,2957.5 v -300"
         style="fill:none;stroke:#000000;stroke-width:9.75;stroke-linecap:round;stroke-linejoin:miter;stroke-miterlimit:6;stroke-dasharray:none;stroke-opacity:1"
         id="path166" /><path
         d="m 1922.5,2957.5 c 0,12.43 -10.07,22.5 -22.5,22.5 -12.43,0 -22.5,-10.07 -22.5,-22.5 0,-12.43 10.07,-22.5 22.5,-22.5 12.43,0 22.5,10.07 22.5,22.5"
         style="fill:#000000;fill-opacity:1;fill-rule:evenodd;stroke:none"
         id="path168" /><g
         id="g170"
         transform="scale(10)"><text
           transform="matrix(1,0,0,-1,177.901,301.75)"
           style="font-variant:normal;font-weight:normal;font-size:15px;font-family:Helvetica;-inkscape-font-specification:Helvetica;writing-mode:lr-tb;fill:#000000;fill-opacity:1;fill-rule:nonzero;stroke:none"
           id="text174"><tspan
             x="0 10.005 17.504999"
             y="0"
             sodipodi:role="line"
             id="tspan172">Vcc</tspan></text></g><path
         d="m 1900,437.5 v 240"
         style="fill:none;stroke:#000000;stroke-width:9.75;stroke-linecap:round;stroke-linejoin:miter;stroke-miterlimit:6;stroke-dasharray:none;stroke-opacity:1"
         id="path176" /><path
         d="m 1900,317.5 v 120"
         style="fill:none;stroke:#000000;stroke-width:9.75;stroke-linecap:round;stroke-linejoin:miter;stroke-miterlimit:6;stroke-dasharray:none;stroke-opacity:1"
         id="path178" /><path
         d="M 2020,317.5 H 1780"
         style="fill:none;stroke:#000000;stroke-width:9.75;stroke-linecap:round;stroke-linejoin:miter;stroke-miterlimit:6;stroke-dasharray:none;stroke-opacity:1"
         id="path180" /><path
         d="m 1967.5,265 h -135"
         style="fill:none;stroke:#000000;stroke-width:9.75;stroke-linecap:round;stroke-linejoin:miter;stroke-miterlimit:6;stroke-dasharray:none;stroke-opacity:1"
         id="path182" /><path
         d="m 1915,212.5 h -30"
         style="fill:none;stroke:#000000;stroke-width:9.75;stroke-linecap:round;stroke-linejoin:miter;stroke-miterlimit:6;stroke-dasharray:none;stroke-opacity:1"
         id="path184" /><g
         id="g186"
         transform="scale(10)"><text
           transform="matrix(1,0,0,-1,174.085,2.65156)"
           style="font-variant:normal;font-weight:normal;font-size:15px;font-family:Helvetica;-inkscape-font-specification:Helvetica;writing-mode:lr-tb;fill:#000000;fill-opacity:1;fill-rule:nonzero;stroke:none"
           id="text190"><tspan
             x="0 11.67 22.5"
             y="0"
             sodipodi:role="line"
             id="tspan188">GND</tspan></text></g><g
         id="g192"
         transform="scale(10)"><text
           transform="matrix(1,0,0,-1,138.295,189.405)"
           style="font-variant:normal;font-weight:normal;font-size:12px;font-family:Helvetica;-inkscape-font-specification:Helvetica;writing-mode:lr-tb;fill:#2e8b57;fill-opacity:1;fill-rule:nonzero;stroke:none"
           id="text196"><tspan
             x="0 6.6719999 10.008 16.68 20.016001 28.02 34.02"
             y="0"
             sodipodi:role="line"
             id="tspan194">2/3 Vcc</tspan></text><text
           transform="matrix(1,0,0,-1,136.81258,134.9042)"
           style="font-variant:normal;font-weight:normal;font-size:13.35px;font-family:Helvetica;-inkscape-font-specification:Helvetica;writing-mode:lr-tb;fill:#2e8b57;fill-opacity:1;fill-rule:nonzero;stroke:none"
           id="text200"><tspan
             x="0 7.4225998 11.1339 18.556499 22.267799 31.172251 37.847252"
             y="0"
             sodipodi:role="line"
             id="tspan198">1/3 Vcc</tspan></text></g><path
         d="m 3820,1217.5 -600,-300 v 600 z"
         style="fill:none;stroke:#000000;stroke-width:9.75;stroke-linecap:round;stroke-linejoin:miter;stroke-miterlimit:6;stroke-dasharray:none;stroke-opacity:1"
         id="path202" /><g
         id="g204"
         transform="scale(10)"><text
           transform="translate(325.201,105.202)"
           style="font-variant:normal;font-weight:normal;font-size:15px;font-family:Symbol;-inkscape-font-specification:Symbol;writing-mode:lr-tb;fill:#000000;fill-opacity:1;fill-rule:nonzero;stroke:none"
           id="text210"><tspan
             x="0"
             y="0"
             id="tspan206">−</tspan><tspan
             x="-0.036718801"
             y="37.789799"
             id="tspan208">+</tspan></text></g><path
         d="M 3220,1937.5 H 1900"
         style="fill:none;stroke:#000000;stroke-width:9.75;stroke-linecap:round;stroke-linejoin:miter;stroke-miterlimit:6;stroke-dasharray:none;stroke-opacity:1"
         id="path212" /><path
         d="m 1922.5,1937.5 c 0,12.43 -10.07,22.5 -22.5,22.5 -12.43,0 -22.5,-10.07 -22.5,-22.5 0,-12.43 10.07,-22.5 22.5,-22.5 12.43,0 22.5,10.07 22.5,22.5"
         style="fill:#000000;fill-opacity:1;fill-rule:evenodd;stroke:none"
         id="path214" /><path
         d="m 1900,1937.5 v 240"
         style="fill:none;stroke:#000000;stroke-width:9.75;stroke-linecap:round;stroke-linejoin:miter;stroke-miterlimit:6;stroke-dasharray:none;stroke-opacity:1"
         id="path216" /><path
         d="M 1180,2177.5 H 3220"
         style="fill:none;stroke:#000000;stroke-width:9.75;stroke-linecap:round;stroke-linejoin:miter;stroke-miterlimit:6;stroke-dasharray:none;stroke-opacity:1"
         id="path218" /><path
         d="M 3220,1397.5 H 1900"
         style="fill:none;stroke:#000000;stroke-width:9.75;stroke-linecap:round;stroke-linejoin:miter;stroke-miterlimit:6;stroke-dasharray:none;stroke-opacity:1"
         id="path220" /><path
         d="m 1900,1457.5 v -300"
         style="fill:none;stroke:#000000;stroke-width:9.75;stroke-linecap:round;stroke-linejoin:miter;stroke-miterlimit:6;stroke-dasharray:none;stroke-opacity:1"
         id="path222" /><path
         d="M 1180,1097.5 H 3220"
         style="fill:none;stroke:#000000;stroke-width:9.75;stroke-linecap:round;stroke-linejoin:miter;stroke-miterlimit:6;stroke-dasharray:none;stroke-opacity:1"
         id="path224" /><g
         id="g226"
         transform="scale(10)"><text
           transform="matrix(1,0,0,-1,46.2371,212.291)"
           style="font-variant:normal;font-weight:normal;font-size:15px;font-family:Helvetica;-inkscape-font-specification:Helvetica;writing-mode:lr-tb;fill:#000000;fill-opacity:1;fill-rule:nonzero;stroke:none"
           id="text232"><tspan
             x="0 9.165 17.504999 22.5 30.84 38.34 46.68 55.02 58.349998"
             y="0"
             sodipodi:role="line"
             id="tspan228">Threshold</tspan><tspan
             x="9.4460897 18.61109 23.606091 26.93609 35.276089 43.616089 51.956089"
             y="96"
             sodipodi:role="line"
             id="tspan230">Trigger</tspan></text></g><path
         d="m 3820,2057.5 -600,-300 v 600 z"
         style="fill:none;stroke:#000000;stroke-width:9.75;stroke-linecap:round;stroke-linejoin:miter;stroke-miterlimit:6;stroke-dasharray:none;stroke-opacity:1"
         id="path234" /><g
         id="g236"
         transform="scale(10)"><text
           transform="translate(325.201,189.202)"
           style="font-variant:normal;font-weight:normal;font-size:15px;font-family:Symbol;-inkscape-font-specification:Symbol;writing-mode:lr-tb;fill:#000000;fill-opacity:1;fill-rule:nonzero;stroke:none"
           id="text242"><tspan
             x="0"
             y="0"
             id="tspan238">−</tspan><tspan
             x="-0.036718801"
             y="37.789799"
             id="tspan240">+</tspan></text></g><path
         d="m 1202.5,1097.5 c 0,12.43 -10.07,22.5 -22.5,22.5 -12.43,0 -22.5,-10.07 -22.5,-22.5 0,-12.43 10.07,-22.5 22.5,-22.5 12.43,0 22.5,10.07 22.5,22.5"
         style="fill:#000000;fill-opacity:1;fill-rule:evenodd;stroke:none"
         id="path244" /><path
         d="m 1922.5,1397.5 c 0,12.43 -10.07,22.5 -22.5,22.5 -12.43,0 -22.5,-10.07 -22.5,-22.5 0,-12.43 10.07,-22.5 22.5,-22.5 12.43,0 22.5,10.07 22.5,22.5"
         style="fill:#000000;fill-opacity:1;fill-rule:evenodd;stroke:none"
         id="path246" /><path
         d="m 1202.5,2177.5 c 0,12.43 -10.07,22.5 -22.5,22.5 -12.43,0 -22.5,-10.07 -22.5,-22.5 0,-12.43 10.07,-22.5 22.5,-22.5 12.43,0 22.5,10.07 22.5,22.5"
         style="fill:#000000;fill-opacity:1;fill-rule:evenodd;stroke:none"
         id="path248" /><path
         d="m 4300,1937.5 v 120 h -480"
         style="fill:none;stroke:#000000;stroke-width:9.75;stroke-linecap:round;stroke-linejoin:miter;stroke-miterlimit:6;stroke-dasharray:none;stroke-opacity:1"
         id="path250" /><path
         d="m 4731.25,2983.75 v -720"
         style="fill:none;stroke:#000000;stroke-width:9.75;stroke-linecap:round;stroke-linejoin:miter;stroke-miterlimit:6;stroke-dasharray:none;stroke-opacity:1"
         id="path252" /><path
         d="m 4753.75,2983.75 c 0,12.43 -10.07,22.5 -22.5,22.5 -12.43,0 -22.5,-10.07 -22.5,-22.5 0,-12.43 10.07,-22.5 22.5,-22.5 12.43,0 22.5,10.07 22.5,22.5"
         style="fill:#000000;fill-opacity:1;fill-rule:evenodd;stroke:none"
         id="path254" /><path
         d="m 2736.25,1937.5 c 0,12.43 -10.07,22.5 -22.5,22.5 -12.43,0 -22.5,-10.07 -22.5,-22.5 0,-12.43 10.07,-22.5 22.5,-22.5 12.43,0 22.5,10.07 22.5,22.5"
         style="fill:#000000;fill-opacity:1;fill-rule:evenodd;stroke:none"
         id="path256" /><path
         d="M 2713.75,2942.5 V 1930"
         style="fill:none;stroke:#000000;stroke-width:9.75;stroke-linecap:round;stroke-linejoin:miter;stroke-miterlimit:6;stroke-dasharray:none;stroke-opacity:1"
         id="path258" /><path
         d="m 2736.25,2942.5 c 0,12.43 -10.07,22.5 -22.5,22.5 -12.43,0 -22.5,-10.07 -22.5,-22.5 0,-12.43 10.07,-22.5 22.5,-22.5 12.43,0 22.5,10.07 22.5,22.5"
         style="fill:#000000;fill-opacity:1;fill-rule:evenodd;stroke:none"
         id="path260" /><path
         d="m 4544.14,3183.39 h 391.8"
         style="fill:none;stroke:#000000;stroke-width:7.50584;stroke-linecap:round;stroke-linejoin:miter;stroke-miterlimit:6;stroke-dasharray:none;stroke-opacity:1"
         id="path262" /><g
         id="g264"
         transform="scale(10)"><text
           transform="matrix(1,0,0,-1,454.414,304.75)"
           style="font-variant:normal;font-weight:normal;font-size:15px;font-family:Helvetica;-inkscape-font-specification:Helvetica;writing-mode:lr-tb;fill:#000000;fill-opacity:1;fill-rule:nonzero;stroke:none"
           id="text268"><tspan
             x="0 10.83 19.17 26.67 35.009998"
             y="0"
             sodipodi:role="line"
             id="tspan266">Reset</tspan></text></g><path
         d="m 1322.5,546.25 h 4901.25 v 2280 H 1322.5 Z"
         style="fill:none;stroke:#ff0000;stroke-width:9.75;stroke-linecap:round;stroke-linejoin:miter;stroke-miterlimit:6;stroke-dasharray:39, 39;stroke-dashoffset:0;stroke-opacity:1"
         id="path270" /><path
         d="M 5980,2980 V 2751.25"
         style="fill:none;stroke:#000000;stroke-width:9.75;stroke-linecap:round;stroke-linejoin:miter;stroke-miterlimit:6;stroke-dasharray:none;stroke-opacity:1"
         id="path272" /><path
         d="m 6002.5,2980 c 0,12.43 -10.07,22.5 -22.5,22.5 -12.43,0 -22.5,-10.07 -22.5,-22.5 0,-12.43 10.07,-22.5 22.5,-22.5 12.43,0 22.5,10.07 22.5,22.5"
         style="fill:#000000;fill-opacity:1;fill-rule:evenodd;stroke:none"
         id="path274" /><path
         d="M 227.5,636.25 340,917.5"
         style="fill:none;stroke:#000000;stroke-width:12.675;stroke-linecap:round;stroke-linejoin:miter;stroke-miterlimit:6;stroke-dasharray:none;stroke-opacity:1"
         id="path276" /><path
         d="M 360.234,778.82 C 321.34,812.629 271.535,831.25 220,831.25"
         style="fill:none;stroke:#000000;stroke-width:5.85;stroke-linecap:round;stroke-linejoin:miter;stroke-miterlimit:6;stroke-dasharray:none;stroke-opacity:1"
         id="path278" /><path
         d="m 220,640 c 12.426,0 22.5,-10.074 22.5,-22.5 0,-12.426 -10.074,-22.5 -22.5,-22.5 -12.426,0 -22.5,10.074 -22.5,22.5 0,12.426 10.074,22.5 22.5,22.5"
         style="fill:none;stroke:#000000;stroke-width:9.75;stroke-linecap:round;stroke-linejoin:miter;stroke-miterlimit:6;stroke-dasharray:none;stroke-opacity:1"
         id="path280" /><path
         d="M 220,595 V 557.5"
         style="fill:none;stroke:#000000;stroke-width:9.75;stroke-linecap:round;stroke-linejoin:miter;stroke-miterlimit:6;stroke-dasharray:none;stroke-opacity:1"
         id="path282" /><path
         d="m 238,845.5 c -22.5,-11.25 -29.25,-11.25 -63,-18 33.75,-6.75 40.5,-6.75 63,-18 -4.5,13.5 -4.5,22.5 0,36"
         style="fill:#000000;fill-opacity:1;fill-rule:evenodd;stroke:none"
         id="path284" /><path
         d="m 220,895 c 12.426,0 22.5,10.074 22.5,22.5 0,12.426 -10.074,22.5 -22.5,22.5 -12.426,0 -22.5,-10.074 -22.5,-22.5 0,-12.426 10.074,-22.5 22.5,-22.5"
         style="fill:none;stroke:#000000;stroke-width:9.75;stroke-linecap:round;stroke-linejoin:miter;stroke-miterlimit:6;stroke-dasharray:none;stroke-opacity:1"
         id="path286" /><path
         d="m 220,940 v 37.5"
         style="fill:none;stroke:#000000;stroke-width:9.75;stroke-linecap:round;stroke-linejoin:miter;stroke-miterlimit:6;stroke-dasharray:none;stroke-opacity:1"
         id="path288" /><path
         d="m 220,347.5 v 120"
         style="fill:none;stroke:#000000;stroke-width:9.75;stroke-linecap:round;stroke-linejoin:miter;stroke-miterlimit:6;stroke-dasharray:none;stroke-opacity:1"
         id="path290" /><path
         d="M 340,347.5 H 100"
         style="fill:none;stroke:#000000;stroke-width:9.75;stroke-linecap:round;stroke-linejoin:miter;stroke-miterlimit:6;stroke-dasharray:none;stroke-opacity:1"
         id="path292" /><path
         d="m 287.5,295 h -135"
         style="fill:none;stroke:#000000;stroke-width:9.75;stroke-linecap:round;stroke-linejoin:miter;stroke-miterlimit:6;stroke-dasharray:none;stroke-opacity:1"
         id="path294" /><path
         d="M 235,242.5 H 205"
         style="fill:none;stroke:#000000;stroke-width:9.75;stroke-linecap:round;stroke-linejoin:miter;stroke-miterlimit:6;stroke-dasharray:none;stroke-opacity:1"
         id="path296" /><path
         d="m 220,1757.5 v -120"
         style="fill:none;stroke:#000000;stroke-width:9.75;stroke-linecap:round;stroke-linejoin:miter;stroke-miterlimit:6;stroke-dasharray:none;stroke-opacity:1"
         id="path298" /><path
         d="M 340,1757.5 H 100"
         style="fill:none;stroke:#000000;stroke-width:9.75;stroke-linecap:round;stroke-linejoin:miter;stroke-miterlimit:6;stroke-dasharray:none;stroke-opacity:1"
         id="path300" /><g
         id="g302"
         transform="scale(10)"><text
           transform="matrix(1,0,0,-1,10.5578,178)"
           style="font-variant:normal;font-weight:normal;font-size:13.5px;font-family:'Times New Roman';-inkscape-font-specification:Times-Roman;writing-mode:lr-tb;fill:#000000;fill-opacity:1;fill-rule:nonzero;stroke:none"
           id="text306"><tspan
             x="0 9.7469997 16.497"
             y="0"
             sodipodi:role="line"
             id="tspan304">Vdd</tspan></text></g><path
         d="m 220,1532.5 v 105"
         style="fill:none;stroke:#000000;stroke-width:9.75;stroke-linecap:round;stroke-linejoin:miter;stroke-miterlimit:6;stroke-dasharray:none;stroke-opacity:1"
         id="path308" /><path
         d="m 220,1262.5 v -105"
         style="fill:none;stroke:#000000;stroke-width:9.75;stroke-linecap:round;stroke-linejoin:miter;stroke-miterlimit:6;stroke-dasharray:none;stroke-opacity:1"
         id="path310" /><path
         d="m 220,1532.5 -52.5,-22.5 105,-45 -105,-45 105,-45 -105,-45 105,-45 -52.5,-22.5"
         style="fill:none;stroke:#000000;stroke-width:9.75;stroke-linecap:round;stroke-linejoin:miter;stroke-miterlimit:6;stroke-dasharray:none;stroke-opacity:1"
         id="path312" /><path
         d="m 220,437.5 v 120"
         style="fill:none;stroke:#000000;stroke-width:9.75;stroke-linecap:round;stroke-linejoin:miter;stroke-miterlimit:6;stroke-dasharray:none;stroke-opacity:1"
         id="path314" /><path
         d="m 220,1097.5 h 960"
         style="fill:none;stroke:#000000;stroke-width:9.75;stroke-linecap:round;stroke-linejoin:miter;stroke-miterlimit:6;stroke-dasharray:none;stroke-opacity:1"
         id="path316" /><path
         d="m 242.5,1097.5 c 0,12.43 -10.074,22.5 -22.5,22.5 -12.426,0 -22.5,-10.07 -22.5,-22.5 0,-12.43 10.074,-22.5 22.5,-22.5 12.426,0 22.5,10.07 22.5,22.5"
         style="fill:#000000;fill-opacity:1;fill-rule:evenodd;stroke:none"
         id="path318" /><path
         d="m 220,977.5 v 210"
         style="fill:none;stroke:#000000;stroke-width:9.75;stroke-linecap:round;stroke-linejoin:miter;stroke-miterlimit:6;stroke-dasharray:none;stroke-opacity:1"
         id="path320" /><path
         d="M 167.5,3066.25 280,3347.5"
         style="fill:none;stroke:#000000;stroke-width:12.675;stroke-linecap:round;stroke-linejoin:miter;stroke-miterlimit:6;stroke-dasharray:none;stroke-opacity:1"
         id="path322" /><path
         d="M 300.234,3208.82 C 261.34,3242.63 211.535,3261.25 160,3261.25"
         style="fill:none;stroke:#000000;stroke-width:5.85;stroke-linecap:round;stroke-linejoin:miter;stroke-miterlimit:6;stroke-dasharray:none;stroke-opacity:1"
         id="path324" /><path
         d="m 160,3070 c 12.426,0 22.5,-10.07 22.5,-22.5 0,-12.43 -10.074,-22.5 -22.5,-22.5 -12.426,0 -22.5,10.07 -22.5,22.5 0,12.43 10.074,22.5 22.5,22.5"
         style="fill:none;stroke:#000000;stroke-width:9.75;stroke-linecap:round;stroke-linejoin:miter;stroke-miterlimit:6;stroke-dasharray:none;stroke-opacity:1"
         id="path326" /><path
         d="m 160,3025 v -37.5"
         style="fill:none;stroke:#000000;stroke-width:9.75;stroke-linecap:round;stroke-linejoin:miter;stroke-miterlimit:6;stroke-dasharray:none;stroke-opacity:1"
         id="path328" /><path
         d="m 178,3275.5 c -22.5,-11.25 -29.25,-11.25 -63,-18 33.75,-6.75 40.5,-6.75 63,-18 -4.5,13.5 -4.5,22.5 0,36"
         style="fill:#000000;fill-opacity:1;fill-rule:evenodd;stroke:none"
         id="path330" /><path
         d="m 160,3325 c 12.426,0 22.5,10.07 22.5,22.5 0,12.43 -10.074,22.5 -22.5,22.5 -12.426,0 -22.5,-10.07 -22.5,-22.5 0,-12.43 10.074,-22.5 22.5,-22.5"
         style="fill:none;stroke:#000000;stroke-width:9.75;stroke-linecap:round;stroke-linejoin:miter;stroke-miterlimit:6;stroke-dasharray:none;stroke-opacity:1"
         id="path332" /><path
         d="m 160,3370 v 37.5"
         style="fill:none;stroke:#000000;stroke-width:9.75;stroke-linecap:round;stroke-linejoin:miter;stroke-miterlimit:6;stroke-dasharray:none;stroke-opacity:1"
         id="path334" /><path
         d="m 160,2777.5 v 120"
         style="fill:none;stroke:#000000;stroke-width:9.75;stroke-linecap:round;stroke-linejoin:miter;stroke-miterlimit:6;stroke-dasharray:none;stroke-opacity:1"
         id="path336" /><path
         d="M 280,2777.5 H 40"
         style="fill:none;stroke:#000000;stroke-width:9.75;stroke-linecap:round;stroke-linejoin:miter;stroke-miterlimit:6;stroke-dasharray:none;stroke-opacity:1"
         id="path338" /><path
         d="M 227.5,2725 H 92.5"
         style="fill:none;stroke:#000000;stroke-width:9.75;stroke-linecap:round;stroke-linejoin:miter;stroke-miterlimit:6;stroke-dasharray:none;stroke-opacity:1"
         id="path340" /><path
         d="M 175,2672.5 H 145"
         style="fill:none;stroke:#000000;stroke-width:9.75;stroke-linecap:round;stroke-linejoin:miter;stroke-miterlimit:6;stroke-dasharray:none;stroke-opacity:1"
         id="path342" /><path
         d="m 160,4187.5 v -120"
         style="fill:none;stroke:#000000;stroke-width:9.75;stroke-linecap:round;stroke-linejoin:miter;stroke-miterlimit:6;stroke-dasharray:none;stroke-opacity:1"
         id="path344" /><path
         d="M 280,4187.5 H 40"
         style="fill:none;stroke:#000000;stroke-width:9.75;stroke-linecap:round;stroke-linejoin:miter;stroke-miterlimit:6;stroke-dasharray:none;stroke-opacity:1"
         id="path346" /><g
         id="g348"
         transform="scale(10)"><text
           transform="matrix(1,0,0,-1,4.55781,421)"
           style="font-variant:normal;font-weight:normal;font-size:13.5px;font-family:'Times New Roman';-inkscape-font-specification:Times-Roman;writing-mode:lr-tb;fill:#000000;fill-opacity:1;fill-rule:nonzero;stroke:none"
           id="text352"><tspan
             x="0 9.7469997 16.497"
             y="0"
             sodipodi:role="line"
             id="tspan350">Vdd</tspan></text></g><path
         d="m 160,3962.5 v 105"
         style="fill:none;stroke:#000000;stroke-width:9.75;stroke-linecap:round;stroke-linejoin:miter;stroke-miterlimit:6;stroke-dasharray:none;stroke-opacity:1"
         id="path354" /><path
         d="m 160,3692.5 v -105"
         style="fill:none;stroke:#000000;stroke-width:9.75;stroke-linecap:round;stroke-linejoin:miter;stroke-miterlimit:6;stroke-dasharray:none;stroke-opacity:1"
         id="path356" /><path
         d="m 160,3962.5 -52.5,-22.5 105,-45 -105,-45 105,-45 -105,-45 105,-45 -52.5,-22.5"
         style="fill:none;stroke:#000000;stroke-width:9.75;stroke-linecap:round;stroke-linejoin:miter;stroke-miterlimit:6;stroke-dasharray:none;stroke-opacity:1"
         id="path358" /><path
         d="m 160,2867.5 v 120"
         style="fill:none;stroke:#000000;stroke-width:9.75;stroke-linecap:round;stroke-linejoin:miter;stroke-miterlimit:6;stroke-dasharray:none;stroke-opacity:1"
         id="path360" /><path
         d="m 160,3527.5 h 960"
         style="fill:none;stroke:#000000;stroke-width:9.75;stroke-linecap:round;stroke-linejoin:miter;stroke-miterlimit:6;stroke-dasharray:none;stroke-opacity:1"
         id="path362" /><path
         d="m 182.5,3527.5 c 0,12.43 -10.074,22.5 -22.5,22.5 -12.426,0 -22.5,-10.07 -22.5,-22.5 0,-12.43 10.074,-22.5 22.5,-22.5 12.426,0 22.5,10.07 22.5,22.5"
         style="fill:#000000;fill-opacity:1;fill-rule:evenodd;stroke:none"
         id="path364" /><path
         d="m 160,3407.5 v 210"
         style="fill:none;stroke:#000000;stroke-width:9.75;stroke-linecap:round;stroke-linejoin:miter;stroke-miterlimit:6;stroke-dasharray:none;stroke-opacity:1"
         id="path366" /><path
         d="m 1199.14,3629.64 h 391.8"
         style="fill:none;stroke:#000000;stroke-width:7.50584;stroke-linecap:round;stroke-linejoin:miter;stroke-miterlimit:6;stroke-dasharray:none;stroke-opacity:1"
         id="path368" /><g
         id="g370"
         transform="scale(10)"><text
           transform="matrix(1,0,0,-1,119.914,349.375)"
           style="font-variant:normal;font-weight:normal;font-size:15px;font-family:Helvetica;-inkscape-font-specification:Helvetica;writing-mode:lr-tb;fill:#000000;fill-opacity:1;fill-rule:nonzero;stroke:none"
           id="text374"><tspan
             x="0 10.83 19.17 26.67 35.009998"
             y="0"
             sodipodi:role="line"
             id="tspan372">Reset</tspan></text></g><path
         d="m 1146.25,3527.5 c 0,12.43 -10.07,22.5 -22.5,22.5 -12.43,0 -22.5,-10.07 -22.5,-22.5 0,-12.43 10.07,-22.5 22.5,-22.5 12.43,0 22.5,10.07 22.5,22.5"
         style="fill:#000000;fill-opacity:1;fill-rule:evenodd;stroke:none"
         id="path376" /><path
         d="m 1168.75,1933.75 v 120"
         style="fill:none;stroke:#000000;stroke-width:9.75;stroke-linecap:round;stroke-linejoin:miter;stroke-miterlimit:6;stroke-dasharray:none;stroke-opacity:1"
         id="path378" /><path
         d="m 1288.75,1933.75 h -240"
         style="fill:none;stroke:#000000;stroke-width:9.75;stroke-linecap:round;stroke-linejoin:miter;stroke-miterlimit:6;stroke-dasharray:none;stroke-opacity:1"
         id="path380" /><path
         d="m 1236.25,1881.25 h -135"
         style="fill:none;stroke:#000000;stroke-width:9.75;stroke-linecap:round;stroke-linejoin:miter;stroke-miterlimit:6;stroke-dasharray:none;stroke-opacity:1"
         id="path382" /><path
         d="m 1183.75,1828.75 h -30"
         style="fill:none;stroke:#000000;stroke-width:9.75;stroke-linecap:round;stroke-linejoin:miter;stroke-miterlimit:6;stroke-dasharray:none;stroke-opacity:1"
         id="path384" /><path
         d="M 1168.75,2173.75 V 2050"
         style="fill:none;stroke:#000000;stroke-width:9.75;stroke-linecap:round;stroke-linejoin:miter;stroke-miterlimit:6;stroke-dasharray:none;stroke-opacity:1"
         id="path386" /></g></g></svg>
