<?xml version="1.0" encoding="UTF-8" standalone="no"?>
<!-- Created with Inkscape (http://www.inkscape.org/) -->

<svg
   width="285.43512mm"
   height="63.425915mm"
   viewBox="0 0 285.43512 63.425916"
   version="1.1"
   id="svg5"
   inkscape:version="1.1 (c68e22c387, 2021-05-23)"
   sodipodi:docname="detector_flancos.svg"
   xmlns:inkscape="http://www.inkscape.org/namespaces/inkscape"
   xmlns:sodipodi="http://sodipodi.sourceforge.net/DTD/sodipodi-0.dtd"
   xmlns="http://www.w3.org/2000/svg"
   xmlns:svg="http://www.w3.org/2000/svg">
  <sodipodi:namedview
     id="namedview7"
     pagecolor="#ffffff"
     bordercolor="#666666"
     borderopacity="1.0"
     inkscape:pageshadow="2"
     inkscape:pageopacity="0.0"
     inkscape:pagecheckerboard="0"
     inkscape:document-units="mm"
     showgrid="false"
     inkscape:zoom="0.62003367"
     inkscape:cx="315.30546"
     inkscape:cy="259.66332"
     inkscape:window-width="1920"
     inkscape:window-height="1057"
     inkscape:window-x="-8"
     inkscape:window-y="-8"
     inkscape:window-maximized="1"
     inkscape:current-layer="layer1" />
  <defs
     id="defs2">
    <clipPath
       clipPathUnits="userSpaceOnUse"
       id="clipPath838">
      <path
         d="M 0,803.58 H 594.174 V 38.681 H 0 Z"
         id="path836" />
    </clipPath>
    <clipPath
       clipPathUnits="userSpaceOnUse"
       id="clipPath942">
      <path
         d="m 171.526,737.826 h 306.693 v -65.98 H 171.526 v 65.98"
         id="path940" />
    </clipPath>
    <clipPath
       clipPathUnits="userSpaceOnUse"
       id="clipPath956">
      <path
         d="m 171.526,737.826 h 306.693 v -65.98 H 171.526 v 65.98"
         id="path954" />
    </clipPath>
    <clipPath
       clipPathUnits="userSpaceOnUse"
       id="clipPath968">
      <path
         d="m 171.526,737.826 h 306.693 v -65.98 H 171.526 v 65.98"
         id="path966" />
    </clipPath>
    <clipPath
       clipPathUnits="userSpaceOnUse"
       id="clipPath1042">
      <path
         d="M 171.526,737.824 H 478.219 V 671.846 H 171.526 v 65.978"
         id="path1040" />
    </clipPath>
    <clipPath
       clipPathUnits="userSpaceOnUse"
       id="clipPath3234">
      <path
         d="m 171.527,419.747 h 349.26 V 237.804 h -349.26 v 181.943"
         id="path3232" />
    </clipPath>
    <clipPath
       clipPathUnits="userSpaceOnUse"
       id="clipPath3380">
      <path
         d="M 171.526,419.747 V 237.804 H 546.858 V 419.747 H 171.526"
         clip-rule="evenodd"
         id="path3378" />
    </clipPath>
    <clipPath
       clipPathUnits="userSpaceOnUse"
       id="clipPath3388">
      <path
         d="M 595.021,804.65 H 0 V 37.489 h 595.021 z"
         id="path3386" />
    </clipPath>
    <clipPath
       clipPathUnits="userSpaceOnUse"
       id="clipPath3574">
      <path
         d="M 53.729,683.857 H 90.833 V 643.514 H 53.729 Z"
         id="path3572" />
    </clipPath>
    <clipPath
       clipPathUnits="userSpaceOnUse"
       id="clipPath7602">
      <path
         d="M 0,803.58 H 594.174 V 38.681 H 0 Z"
         id="path7600" />
    </clipPath>
    <clipPath
       clipPathUnits="userSpaceOnUse"
       id="clipPath10002">
      <path
         d="M 165.53,387.699 V 227.608 h 307.273 v 160.091"
         id="path10000" />
    </clipPath>
    <clipPath
       clipPathUnits="userSpaceOnUse"
       id="clipPath14354">
      <path
         d="M 0,803.58 H 594.174 V 38.681 H 0 Z"
         id="path14352" />
    </clipPath>
  </defs>
  <g
     inkscape:label="Capa 1"
     inkscape:groupmode="layer"
     id="layer1"
     transform="translate(-21.865481,-11.450233)">
    <g
       id="g14338"
       transform="translate(83.211207,-82.188228)">
      <path
         d="M 3.6126562,141.66104 H 37.687108 V 97.929649 H 3.6126562 Z"
         style="fill:#f8eacb;fill-opacity:1;fill-rule:nonzero;stroke:none;stroke-width:0.352778"
         id="path9928" />
      <path
         d="M 3.6126562,97.929296 H 37.687108 V 141.66069 H 3.6126562 Z"
         style="fill:none;stroke:#f8eacb;stroke-width:0.246944;stroke-linecap:butt;stroke-linejoin:miter;stroke-miterlimit:4;stroke-dasharray:none;stroke-opacity:1"
         id="path9930" />
      <path
         d="M 14.55547,102.35419 H -13.352074"
         style="fill:none;stroke:#231f20;stroke-width:0.388056;stroke-linecap:butt;stroke-linejoin:miter;stroke-miterlimit:4;stroke-dasharray:none;stroke-opacity:1"
         id="path9934" />
      <path
         d="M 30.598744,105.61985 H 42.55156"
         style="fill:none;stroke:#231f20;stroke-width:0.388056;stroke-linecap:butt;stroke-linejoin:miter;stroke-miterlimit:4;stroke-dasharray:none;stroke-opacity:1"
         id="path9938" />
      <path
         d="M 30.621679,132.94425 H 42.551565"
         style="fill:none;stroke:#231f20;stroke-width:0.388056;stroke-linecap:butt;stroke-linejoin:miter;stroke-miterlimit:4;stroke-dasharray:none;stroke-opacity:1"
         id="path9942" />
      <path
         d="M 14.599567,108.83295 H 8.4072588 v 4.45382 l 26.7140962,10.57275 v 8.99301"
         style="fill:none;stroke:#231f20;stroke-width:0.388056;stroke-linecap:butt;stroke-linejoin:miter;stroke-miterlimit:4;stroke-dasharray:none;stroke-opacity:1"
         id="path9946" />
      <path
         d="M 14.473625,129.72375 H 9.3276557 v -5.86422 l 25.8289773,-10.5724 v -7.58261"
         style="fill:none;stroke:#231f20;stroke-width:0.388056;stroke-linecap:butt;stroke-linejoin:miter;stroke-miterlimit:4;stroke-dasharray:none;stroke-opacity:1"
         id="path9950" />
      <path
         d="m 35.160161,106.49968 c 0.483306,0 0.874536,-0.39052 0.874536,-0.87242 0,-0.4826 -0.39123,-0.87277 -0.874536,-0.87277 -0.484364,0 -0.875947,0.39017 -0.875947,0.87277 0,0.4819 0.391583,0.87242 0.875947,0.87242"
         style="fill:#231f20;fill-opacity:1;fill-rule:nonzero;stroke:none;stroke-width:0.352778"
         id="path9954" />
      <path
         d="m 35.160161,106.49968 c 0.483306,0 0.874536,-0.39052 0.874536,-0.87242 0,-0.4826 -0.39123,-0.87277 -0.874536,-0.87277 -0.484364,0 -0.875947,0.39017 -0.875947,0.87277 0,0.4819 0.391583,0.87242 0.875947,0.87242 z"
         style="fill:none;stroke:#231f20;stroke-width:0.123472;stroke-linecap:butt;stroke-linejoin:miter;stroke-miterlimit:4;stroke-dasharray:none;stroke-opacity:1"
         id="path9958" />
      <path
         d="m 35.12453,133.82796 c 0.483306,0 0.875594,-0.39194 0.875594,-0.87312 0,-0.48225 -0.392288,-0.87278 -0.875594,-0.87278 -0.484011,0 -0.875594,0.39053 -0.875594,0.87278 0,0.48118 0.391583,0.87312 0.875594,0.87312"
         style="fill:#231f20;fill-opacity:1;fill-rule:nonzero;stroke:none;stroke-width:0.352778"
         id="path9962" />
      <path
         d="m 35.12453,133.82796 c 0.483306,0 0.875594,-0.39194 0.875594,-0.87312 0,-0.48225 -0.392288,-0.87278 -0.875594,-0.87278 -0.484011,0 -0.875594,0.39053 -0.875594,0.87278 0,0.48118 0.391583,0.87312 0.875594,0.87312 z"
         style="fill:none;stroke:#231f20;stroke-width:0.123472;stroke-linecap:butt;stroke-linejoin:miter;stroke-miterlimit:4;stroke-dasharray:none;stroke-opacity:1"
         id="path9966" />
      <path
         d="m 15.81489,103.64183 c 0.692856,0 1.255536,-0.56021 1.255536,-1.25095 0,-0.69074 -0.56268,-1.25095 -1.255536,-1.25095 -0.693208,0 -1.254831,0.56021 -1.254831,1.25095 0,0.69074 0.561623,1.25095 1.254831,1.25095 z"
         style="fill:none;stroke:#231f20;stroke-width:0.176389;stroke-linecap:butt;stroke-linejoin:miter;stroke-miterlimit:4;stroke-dasharray:none;stroke-opacity:1"
         id="path9970" />
      <path
         d="m 15.757384,130.99621 c 0.693208,0 1.254831,-0.56021 1.254831,-1.25095 0,-0.69074 -0.561623,-1.25024 -1.254831,-1.25024 -0.692856,0 -1.254831,0.5595 -1.254831,1.25024 0,0.69074 0.561975,1.25095 1.254831,1.25095 z"
         style="fill:none;stroke:#231f20;stroke-width:0.176389;stroke-linecap:butt;stroke-linejoin:miter;stroke-miterlimit:4;stroke-dasharray:none;stroke-opacity:1"
         id="path9974" />
      <path
         d="m 15.779252,137.43229 c 0.693208,0 1.255183,-0.55986 1.255183,-1.25024 0,-0.69074 -0.561975,-1.25025 -1.255183,-1.25025 -0.692503,0 -1.254478,0.55951 -1.254478,1.25025 0,0.69038 0.561975,1.25024 1.254478,1.25024 z"
         style="fill:none;stroke:#231f20;stroke-width:0.176389;stroke-linecap:butt;stroke-linejoin:miter;stroke-miterlimit:4;stroke-dasharray:none;stroke-opacity:1"
         id="path9978" />
      <path
         d="M 14.524775,136.18205 H -4.4687801"
         style="fill:none;stroke:#231f20;stroke-width:0.388056;stroke-linecap:butt;stroke-linejoin:miter;stroke-miterlimit:4;stroke-dasharray:none;stroke-opacity:1"
         id="path9982" />
      <path
         d="m 13.032528,138.4042 h 0.687917 v 1.78329 h 0.274814 v -1.78329 h 0.687916 v -0.24236 h -1.650647 z m -0.254353,1.54093 h -1.225903 v -0.67768 h 1.112309 v -0.24271 h -1.112309 v -0.62054 h 1.205795 v -0.24236 h -1.479903 v 2.02565 h 1.500011 z m -2.00413,-1.19097 c -0.01129,-0.22261 -0.0822,-0.64629 -0.7926919,-0.64629 -0.4924778,0 -0.6992056,0.31079 -0.6992056,0.62653 0,0.35242 0.3002139,0.44591 0.4332111,0.47696 l 0.4162774,0.0959 c 0.333728,0.079 0.432859,0.14676 0.432859,0.35807 0,0.29034 -0.334081,0.34149 -0.531989,0.34149 -0.2607029,0 -0.560564,-0.10725 -0.560564,-0.47378 H 9.2140614 c 0,0.18873 0.034219,0.35807 0.2067278,0.51329 0.090664,0.0818 0.238125,0.19473 0.6145388,0.19473 0.348192,0 0.795161,-0.13335 0.795161,-0.61207 0,-0.32173 -0.197908,-0.47977 -0.461433,-0.54222 l -0.5799668,-0.13229 c -0.1192389,-0.0279 -0.2405945,-0.0847 -0.2405945,-0.25682 0,-0.30727 0.2917473,-0.35595 0.4642553,-0.35595 0.228953,0 0.489656,0.0991 0.503767,0.4124 z m -1.9134669,1.19097 h -1.22555 v -0.67768 h 1.1123083 v -0.24271 H 7.6350281 v -0.62054 h 1.2057944 v -0.24236 H 7.3602142 v 2.02565 H 8.8605781 Z M 5.5261226,138.39609 H 6.211217 c 0.1358195,0 0.365125,0.025 0.365125,0.33831 0,0.29916 -0.2123722,0.3496 -0.4134555,0.3496 H 5.5261226 Z m 0,0.92216 h 0.6653389 c 0.3284361,0 0.3623028,0.19508 0.3623028,0.36159 0,0.0758 0.00847,0.38383 0.047978,0.50765 h 0.33655 v -0.0455 c -0.084667,-0.0473 -0.098778,-0.09 -0.1012472,-0.20284 l -0.017286,-0.36654 c -0.011289,-0.28293 -0.1273528,-0.33302 -0.2434167,-0.38135 0.130175,-0.0762 0.2829278,-0.18592 0.2829278,-0.48472 0,-0.42898 -0.3340805,-0.54469 -0.6678083,-0.54469 h -0.9398 v 2.02565 H 5.526123 v -0.86924"
         style="fill:#231f20;fill-opacity:1;fill-rule:nonzero;stroke:none;stroke-width:0.352778"
         id="path9986" />
      <path
         d="m 46.926354,133.73306 -0.277283,-0.21519 c 0.214841,-0.21696 0.294569,-0.53552 0.294569,-0.79164 0,-0.43779 -0.23248,-1.06715 -0.990953,-1.06715 -0.758472,0 -0.990247,0.62936 -0.990247,1.06715 0,0.43674 0.231775,1.0661 0.990247,1.0661 0.215548,0 0.390878,-0.0512 0.523523,-0.13582 l 0.311502,0.23989 z m -0.885825,-0.41204 0.212372,0.16298 c -0.08467,0.0427 -0.186972,0.0656 -0.300214,0.0656 -0.441677,0 -0.708025,-0.34714 -0.708025,-0.82339 0,-0.47766 0.266348,-0.82373 0.708025,-0.82373 0.441325,0 0.707673,0.34607 0.707673,0.82373 0,0.25894 -0.07937,0.4819 -0.223662,0.62548 l -0.257175,-0.20038 -0.138994,0.16969"
         style="fill:#231f20;fill-opacity:1;fill-rule:nonzero;stroke:none;stroke-width:0.352778"
         id="path9990" />
      <path
         d="m 10.304145,99.465291 h 0.687917 v 1.783649 h 0.274814 v -1.783649 h 0.687916 v -0.242358 h -1.650647 z m -0.254706,1.540929 H 8.8238895 v -0.67698 h 1.1123083 v -0.24235 H 8.8238895 V 99.465291 H 10.029684 V 99.222933 H 8.5497811 v 2.026007 H 10.049439 Z M 8.0456617,99.815599 C 8.0343728,99.592997 7.9634645,99.16931 7.2533228,99.16931 c -0.4928305,0 -0.6995583,0.310798 -0.6995583,0.626887 0,0.352423 0.3002139,0.445203 0.4332111,0.476253 l 0.4162778,0.0956 c 0.3337278,0.0797 0.4328583,0.14746 0.4328583,0.35877 0,0.29069 -0.3340805,0.34185 -0.5319889,0.34185 -0.2607027,0 -0.5609166,-0.10795 -0.5609166,-0.47414 H 6.4856784 c 0,0.18874 0.034219,0.35842 0.2067278,0.51329 0.090664,0.0819 0.238125,0.19438 0.6145389,0.19438 0.3478388,0 0.7951611,-0.13264 0.7951611,-0.61171 0,-0.32244 -0.1982611,-0.47978 -0.4614334,-0.54187 l -0.5799666,-0.133 C 6.9418201,99.987755 6.819759,99.93131 6.819759,99.759155 c 0,-0.30727 0.2917472,-0.3556 0.4646083,-0.3556 0.2289528,0 0.4893028,0.09913 0.5034139,0.412044 h 0.2578805"
         style="fill:#231f20;fill-opacity:1;fill-rule:nonzero;stroke:none;stroke-width:0.352778"
         id="path9994" />
      <path
         d="m -61.345726,119.53023 h 2.91853 v -5.06836 h 4.776964 v 5.06836 h 2.5654"
         style="fill:none;stroke:#9e0034;stroke-width:0.388056;stroke-linecap:butt;stroke-linejoin:miter;stroke-miterlimit:4;stroke-dasharray:none;stroke-opacity:1"
         id="path10006" />
      <path
         d="m 22.83975,105.65195 c 0.03704,0 0.07655,-0.002 0.113242,-0.002 0.170039,0 0.464255,0.0307 0.464255,0.36371 0,0.2286 -0.178153,0.38312 -0.433211,0.38312 -0.371122,0 -0.415925,-0.25012 -0.424744,-0.43709 h -0.257528 c 0.01693,0.22895 0.0762,0.4572 0.297039,0.57291 0.09666,0.0508 0.220839,0.0878 0.3683,0.0878 0.506589,0 0.716139,-0.31362 0.716139,-0.63782 0,-0.26529 -0.138995,-0.40076 -0.330906,-0.4632 v -0.005 c 0.107245,-0.0335 0.254353,-0.15522 0.254353,-0.40922 0,-0.30127 -0.228953,-0.52176 -0.613833,-0.52176 -0.524228,0 -0.643114,0.35878 -0.643114,0.64876 h 0.243769 c 0.01129,-0.13794 0.03387,-0.42545 0.387703,-0.42545 0.297392,0 0.367947,0.19473 0.367947,0.31291 0,0.24801 -0.186619,0.32456 -0.379236,0.32456 -0.04233,0 -0.08784,-0.003 -0.130175,-0.007 v 0.21519"
         style="fill:#231f20;fill-opacity:1;fill-rule:nonzero;stroke:none;stroke-width:0.352778"
         id="path10010" />
      <path
         d="m 22.874675,131.86052 h 0.0053 v 0.89923 h -0.639234 z m 0.546453,1.11442 v -0.21519 h -0.2921 v -1.28623 H 22.9223 l -0.911225,1.25836 v 0.24306 h 0.868892 v 0.4826 h 0.249061 v -0.4826 h 0.2921"
         style="fill:#231f20;fill-opacity:1;fill-rule:nonzero;stroke:none;stroke-width:0.352778"
         id="path10014" />
      <path
         d="m -15.137479,119.53023 h 4.622447 v -5.06836 h 0.773289 v 5.06836 h 4.3342277"
         style="fill:none;stroke:#9e0034;stroke-width:0.388056;stroke-linecap:butt;stroke-linejoin:miter;stroke-miterlimit:4;stroke-dasharray:none;stroke-opacity:1"
         id="path10018" />
      <path
         d="m -0.73673743,103.60266 c 0.69250276,0 1.25483053,-0.55951 1.25483053,-1.25095 0,-0.69039 -0.56232777,-1.25024 -1.25483053,-1.25024 -0.69320827,0 -1.25483057,0.55985 -1.25483057,1.25024 0,0.69144 0.5616223,1.25095 1.25483057,1.25095"
         style="fill:#f8eacb;fill-opacity:1;fill-rule:nonzero;stroke:none;stroke-width:0.352778"
         id="path10022" />
      <path
         d="m -0.73673743,103.60266 c 0.69250276,0 1.25483053,-0.55951 1.25483053,-1.25095 0,-0.69039 -0.56232777,-1.25024 -1.25483053,-1.25024 -0.69320827,0 -1.25483057,0.55985 -1.25483057,1.25024 0,0.69144 0.5616223,1.25095 1.25483057,1.25095 z"
         style="fill:none;stroke:#231f20;stroke-width:0.176389;stroke-linecap:butt;stroke-linejoin:miter;stroke-miterlimit:4;stroke-dasharray:none;stroke-opacity:1"
         id="path10026" />
      <path
         d="m -0.73673743,103.60266 c 0.69250276,0 1.25483053,-0.55951 1.25483053,-1.25095 0,-0.69039 -0.56232777,-1.25024 -1.25483053,-1.25024 -0.69320827,0 -1.25483057,0.55985 -1.25483057,1.25024 0,0.69144 0.5616223,1.25095 1.25483057,1.25095 z"
         style="fill:none;stroke:#231f20;stroke-width:0.176389;stroke-linecap:butt;stroke-linejoin:miter;stroke-miterlimit:4;stroke-dasharray:none;stroke-opacity:1"
         id="path10030" />
      <path
         d="m -0.76002429,137.43582 c 0.69320832,0 1.25518331,-0.55986 1.25518331,-1.25095 0,-0.69074 -0.56197499,-1.25024 -1.25518331,-1.25024 -0.69320831,0 -1.25483051,0.5595 -1.25483051,1.25024 0,0.69109 0.5616222,1.25095 1.25483051,1.25095"
         style="fill:#f8eacb;fill-opacity:1;fill-rule:nonzero;stroke:none;stroke-width:0.352778"
         id="path10034" />
      <path
         d="m -0.76002429,137.43582 c 0.69320832,0 1.25518331,-0.55986 1.25518331,-1.25095 0,-0.69074 -0.56197499,-1.25024 -1.25518331,-1.25024 -0.69285551,0 -1.25483051,0.5595 -1.25483051,1.25024 0,0.69109 0.561975,1.25095 1.25483051,1.25095 z"
         style="fill:none;stroke:#231f20;stroke-width:0.176389;stroke-linecap:butt;stroke-linejoin:miter;stroke-miterlimit:4;stroke-dasharray:none;stroke-opacity:1"
         id="path10038" />
      <path
         d="m -0.76002429,137.43582 c 0.69320832,0 1.25518331,-0.55986 1.25518331,-1.25095 0,-0.69074 -0.56197499,-1.25024 -1.25518331,-1.25024 -0.69285551,0 -1.25483051,0.5595 -1.25483051,1.25024 0,0.69109 0.561975,1.25095 1.25483051,1.25095 z"
         style="fill:none;stroke:#231f20;stroke-width:0.176389;stroke-linecap:butt;stroke-linejoin:miter;stroke-miterlimit:4;stroke-dasharray:none;stroke-opacity:1"
         id="path10042" />
      <path
         d="m -39.853798,124.55555 h 14.861116 v -9.34579 h -14.861116 z"
         style="fill:#f8eacb;fill-opacity:1;fill-rule:nonzero;stroke:none;stroke-width:0.352778"
         id="path10044" />
      <path
         d="m -39.853798,115.20976 h 14.861116 v 9.34579 h -14.861116 z"
         style="fill:none;stroke:#f8eacb;stroke-width:0.105833;stroke-linecap:butt;stroke-linejoin:miter;stroke-miterlimit:4;stroke-dasharray:none;stroke-opacity:1"
         id="path10046" />
      <path
         d="M -12.786218,99.163309 H -46.399237"
         style="fill:none;stroke:#231f20;stroke-width:0.388056;stroke-linecap:butt;stroke-linejoin:miter;stroke-miterlimit:4;stroke-dasharray:none;stroke-opacity:1"
         id="path10050" />
      <path
         d="M -12.786218,139.45195 H -46.399237"
         style="fill:none;stroke:#231f20;stroke-width:0.388056;stroke-linecap:butt;stroke-linejoin:miter;stroke-miterlimit:4;stroke-dasharray:none;stroke-opacity:1"
         id="path10054" />
      <path
         d="m -39.676708,119.9705 h -6.899628"
         style="fill:none;stroke:#231f20;stroke-width:0.388056;stroke-linecap:butt;stroke-linejoin:miter;stroke-miterlimit:4;stroke-dasharray:none;stroke-opacity:1"
         id="path10058" />
      <path
         d="m -20.569904,119.9705 h -4.246033"
         style="fill:none;stroke:#231f20;stroke-width:0.388056;stroke-linecap:butt;stroke-linejoin:miter;stroke-miterlimit:4;stroke-dasharray:none;stroke-opacity:1"
         id="path10062" />
      <path
         d="m -12.43203,105.59586 h -8.137878 v 27.39284 h 7.076722"
         style="fill:none;stroke:#231f20;stroke-width:0.388056;stroke-linecap:butt;stroke-linejoin:miter;stroke-miterlimit:4;stroke-dasharray:none;stroke-opacity:1"
         id="path10066" />
      <path
         d="m 42.731478,133.84101 c 0.483306,0 0.875947,-0.39088 0.875947,-0.87277 0,-0.48225 -0.392641,-0.87313 -0.875947,-0.87313 -0.483658,0 -0.875594,0.39088 -0.875594,0.87313 0,0.48189 0.391936,0.87277 0.875594,0.87277"
         style="fill:#231f20;fill-opacity:1;fill-rule:nonzero;stroke:none;stroke-width:0.352778"
         id="path10070" />
      <path
         d="m 42.731478,133.84101 c 0.483306,0 0.875947,-0.39088 0.875947,-0.87277 0,-0.48225 -0.392641,-0.87313 -0.875947,-0.87313 -0.483658,0 -0.875594,0.39088 -0.875594,0.87313 0,0.48189 0.391936,0.87277 0.875594,0.87277 z"
         style="fill:none;stroke:#231f20;stroke-width:0.123472;stroke-linecap:butt;stroke-linejoin:miter;stroke-miterlimit:4;stroke-dasharray:none;stroke-opacity:1"
         id="path10074" />
      <path
         d="m 42.731478,106.47992 c 0.483306,0 0.875947,-0.39158 0.875947,-0.87312 0,-0.4819 -0.392641,-0.87242 -0.875947,-0.87242 -0.483658,0 -0.875594,0.39052 -0.875594,0.87242 0,0.48154 0.391936,0.87312 0.875594,0.87312"
         style="fill:#231f20;fill-opacity:1;fill-rule:nonzero;stroke:none;stroke-width:0.352778"
         id="path10078" />
      <path
         d="m 42.731478,106.47992 c 0.483306,0 0.875947,-0.39158 0.875947,-0.87312 0,-0.4819 -0.392641,-0.87242 -0.875947,-0.87242 -0.483658,0 -0.875594,0.39052 -0.875594,0.87242 0,0.48154 0.391936,0.87312 0.875594,0.87312 z"
         style="fill:none;stroke:#231f20;stroke-width:0.123472;stroke-linecap:butt;stroke-linejoin:miter;stroke-miterlimit:4;stroke-dasharray:none;stroke-opacity:1"
         id="path10082" />
      <path
         d="m -39.853798,115.20976 h 14.861116 v 9.34579 h -14.861116 z"
         style="fill:none;stroke:#231f20;stroke-width:0.246944;stroke-linecap:butt;stroke-linejoin:miter;stroke-miterlimit:4;stroke-dasharray:none;stroke-opacity:1"
         id="path10084" />
      <path
         d="m 29.004189,148.06431 h 0.512939 c 0.373239,0 0.608189,0.25682 0.608189,0.76659 0,0.51117 -0.232128,0.79092 -0.588786,0.79092 h -0.532342 z m -0.274461,1.79141 h 0.8128 c 0.667455,0 0.866069,-0.58667 0.866069,-1.0414 0,-0.5835 -0.325614,-0.98425 -0.855133,-0.98425 h -0.823736 z m -0.78105,-0.38912 h -0.0056 l -1.016,-1.63653 h -0.325966 v 2.02565 h 0.266347 v -1.63689 h 0.0056 l 1.032934,1.63689 h 0.30868 v -2.02565 h -0.265994 z m -2.901244,-0.44344 0.325613,-0.89147 h 0.0053 l 0.300214,0.89147 z m 0.73025,0.24271 0.20073,0.58985 h 0.300214 l -0.735894,-2.02565 h -0.311503 l -0.764117,2.02565 h 0.282928 l 0.212725,-0.58985 z m -1.901825,0.20073 h -0.006 l -1.016352,-1.63653 h -0.325262 v 2.02565 h 0.265642 v -1.63689 h 0.006 l 1.032934,1.63689 h 0.308327 v -2.02565 H 23.87586 Z m -2.675114,-0.61524 c 0,-0.42051 -0.288925,-0.51365 -0.518231,-0.51365 -0.237419,0 -0.362303,0.14676 -0.432858,0.23989 h -0.0056 v -0.74753 H 19.99495 v 2.02565 h 0.249061 v -0.80399 c 0,-0.37253 0.209198,-0.49106 0.413103,-0.49106 0.23742,0 0.294217,0.12911 0.294217,0.32985 v 0.9652 h 0.249414 z m -1.526117,0.0254 c -0.0194,-0.25683 -0.166864,-0.53905 -0.554567,-0.53905 -0.490008,0 -0.710847,0.36407 -0.710847,0.82092 0,0.4265 0.246592,0.73907 0.662517,0.73907 0.433211,0 0.577497,-0.32985 0.602897,-0.5641 h -0.240594 c -0.04198,0.22613 -0.18662,0.34996 -0.353484,0.34996 -0.342547,0 -0.404989,-0.31327 -0.404989,-0.56691 0,-0.26247 0.09948,-0.55598 0.407812,-0.55598 0.20955,0 0.319616,0.11853 0.350661,0.31609 z m -1.479903,-0.29034 V 148.3804 H 17.9566 v -0.41205 h -0.249061 v 0.41205 h -0.201083 v 0.20602 h 0.201083 v 0.97331 c 0,0.1778 0.05397,0.31574 0.300214,0.31574 0.0254,0 0.09631,-0.012 0.186972,-0.0198 v -0.19509 h -0.08784 c -0.0508,0 -0.150284,0 -0.150284,-0.11571 v -0.9585 z m -1.285169,0.75883 c 0,0.1972 -0.226483,0.34678 -0.458611,0.34678 -0.186972,0 -0.26917,-0.096 -0.26917,-0.25647 0,-0.18662 0.195439,-0.22331 0.3175,-0.24024 0.308328,-0.0399 0.370417,-0.0621 0.410281,-0.0931 z m -0.682625,-0.51647 c 0.01729,-0.1136 0.0568,-0.28505 0.340078,-0.28505 0.23495,0 0.348191,0.0843 0.348191,0.23919 0,0.14711 -0.07091,0.16968 -0.130175,0.17498 l -0.410633,0.0512 c -0.413103,0.0508 -0.449792,0.33902 -0.449792,0.4632 0,0.25364 0.192264,0.42545 0.463903,0.42545 0.288572,0 0.438856,-0.13512 0.535164,-0.23989 0.0085,0.11359 0.04269,0.22577 0.263172,0.22577 0.05645,0 0.09313,-0.0169 0.135467,-0.0279 v -0.18027 c -0.02822,0.006 -0.05927,0.0109 -0.08185,0.0109 -0.0508,0 -0.08184,-0.0258 -0.08184,-0.0875 v -0.84949 c 0,-0.37817 -0.430389,-0.41169 -0.549275,-0.41169 -0.365125,0 -0.600075,0.13864 -0.611011,0.49107 z m -1.559278,-0.99871 h -0.274461 v 2.02565 h 1.304925 v -0.24236 h -1.030464 v -1.78329"
         style="fill:#231f20;fill-opacity:1;fill-rule:nonzero;stroke:none;stroke-width:0.352778"
         id="path10088" />
      <path
         d="m -13.444502,148.17861 c -0.03951,-0.33902 -0.311503,-0.66322 -0.834672,-0.66322 -0.591961,0 -0.948267,0.4318 -0.948267,1.05516 0,0.77893 0.452614,1.07808 0.914047,1.07808 0.153106,0 0.775759,-0.0339 0.889,-0.79904 h -0.266347 c -0.09349,0.47167 -0.401814,0.55633 -0.579967,0.55633 -0.504119,0 -0.674158,-0.36724 -0.674158,-0.84384 0,-0.5334 0.297392,-0.80398 0.665692,-0.80398 0.195439,0 0.492478,0.0649 0.568678,0.42051 h 0.265994"
         style="fill:#231f20;fill-opacity:1;fill-rule:nonzero;stroke:none;stroke-width:0.352778"
         id="path10092" />
      <path
         d="m -3.9784159,148.85242 c 0,-0.18944 0.019756,-0.55245 0.4049889,-0.55245 0.3591277,0 0.3986389,0.38594 0.3986389,0.62547 0,0.39265 -0.2458861,0.49707 -0.4046361,0.49707 -0.2719917,0 -0.3989917,-0.24518 -0.3989917,-0.57009 z m 1.0555111,-1.28411 h -0.2490611 v 0.73907 l -0.00564,0.0205 c -0.059267,-0.0843 -0.1728611,-0.25153 -0.441325,-0.25153 -0.3936999,0 -0.6170083,0.32138 -0.6170083,0.7373 0,0.35172 0.1471084,0.82374 0.650875,0.82374 0.1442861,0 0.3139722,-0.0455 0.4219222,-0.24589 h 0.00529 v 0.20285 h 0.23495 z m -3.5581166,1.28728 c 0,-0.19826 0.073731,-0.56444 0.4303889,-0.56444 0.3570111,0 0.4303889,0.36618 0.4303889,0.56444 0,0.19756 -0.073378,0.5641 -0.4303889,0.5641 -0.3566583,0 -0.4303889,-0.36654 -0.4303889,-0.5641 z m -0.2575278,0 c 0,0.381 0.2151945,0.77823 0.6879167,0.77823 0.4727222,0 0.6879166,-0.39723 0.6879166,-0.77823 0,-0.38099 -0.2151944,-0.77928 -0.6879166,-0.77928 -0.4727222,0 -0.6879167,0.39829 -0.6879167,0.77928 z m -0.2289527,-0.53057 v -0.20567 h -0.2377723 v -0.41205 h -0.2490611 v 0.41205 h -0.2014361 v 0.20567 h 0.2014361 v 0.97366 c 0,0.17745 0.053622,0.31574 0.2998611,0.31574 0.0254,0 0.096308,-0.012 0.1869723,-0.0201 v -0.19473 h -0.087842 c -0.0508,0 -0.1499306,0 -0.1499306,-0.11465 v -0.95991 z m -1.2368389,-0.47378 h 0.2490611 v -0.28258 h -0.2490611 z m 0.2490611,0 z m 0,0.26811 h -0.2490611 v 1.47567 h 0.2490611 z m -0.6995583,1.47496 v -1.47496 h -0.2490611 v 0.8128 c 0,0.21413 -0.093133,0.49036 -0.4074583,0.49036 -0.1612195,0 -0.2861028,-0.0818 -0.2861028,-0.32491 v -0.97825 h -0.2490611 v 1.06045 c 0,0.35278 0.263525,0.45755 0.4815416,0.45755 0.2377722,0 0.3647722,-0.091 0.4695472,-0.26247 l 0.00564,0.006 v 0.21378 z m -1.519767,-0.97896 c -0.01975,-0.25647 -0.166864,-0.53904 -0.554566,-0.53904 -0.490009,0 -0.710495,0.36442 -0.710495,0.82127 0,0.42615 0.245886,0.73977 0.662164,0.73977 0.432858,0 0.577497,-0.33055 0.602897,-0.5648 h -0.240594 c -0.04233,0.22613 -0.18662,0.34996 -0.353836,0.34996 -0.342547,0 -0.404989,-0.31292 -0.404989,-0.56692 0,-0.26246 0.09913,-0.55562 0.407811,-0.55562 0.20955,0 0.319969,0.11818 0.351014,0.31538 z m -1.896533,0.12136 c 0,-0.21414 0.147108,-0.39511 0.379236,-0.39511 h 0.09384 v -0.25612 c -0.02011,-0.006 -0.03422,-0.009 -0.06526,-0.009 -0.186972,0 -0.317147,0.11571 -0.41663,0.28787 h -0.0053 v -0.24483 h -0.23495 v 1.47496 h 0.249061 z m -0.976489,-0.88547 h 0.249061 v -0.28258 h -0.249061 z m 0.249061,0 z m 0,0.26811 h -0.249061 v 1.47496 h 0.249061 v -1.47496"
         style="fill:#231f20;fill-opacity:1;fill-rule:nonzero;stroke:none;stroke-width:0.352778"
         id="path10096" />
      <path
         d="m -2.3097735,148.73988 c 0,-0.22931 0.180975,-0.44027 0.4106333,-0.44027 0.3023306,0 0.3982861,0.21096 0.41275,0.44027 z m 0.8120944,0.39158 c -0.00847,0.11078 -0.1474611,0.29069 -0.3820583,0.29069 -0.28575,0 -0.4300361,-0.1778 -0.4300361,-0.48471 h 1.0809111 c 0,-0.52247 -0.20955,-0.86113 -0.6367639,-0.86113 -0.4896555,0 -0.7104944,0.36441 -0.7104944,0.82126 0,0.4258 0.2462389,0.73978 0.6625166,0.73978 0.2374195,0 0.3337278,-0.0568 0.4018139,-0.10196 0.1866195,-0.12417 0.2547056,-0.33302 0.2631722,-0.40393 h -0.2490611"
         style="fill:#231f20;fill-opacity:1;fill-rule:nonzero;stroke:none;stroke-width:0.352778"
         id="path10100" />
      <path
         d="m 4.0867895,152.24085 c 0,-0.19791 0.073378,-0.56374 0.4303889,-0.56374 0.3563055,0 0.4300361,0.36583 0.4300361,0.56374 0,0.19756 -0.073731,0.56409 -0.4300361,0.56409 -0.3570111,0 -0.4303889,-0.36653 -0.4303889,-0.56409 z m -0.2575278,0 c 0,0.38135 0.2148417,0.77893 0.6879167,0.77893 0.4723694,0 0.6875639,-0.39758 0.6875639,-0.77893 0,-0.381 -0.2151945,-0.77823 -0.6875639,-0.77823 -0.473075,0 -0.6879167,0.39723 -0.6879167,0.77823 z m -0.3199694,-0.31609 c 0,-0.0734 -0.036689,-0.46214 -0.5662083,-0.46214 -0.2913945,0 -0.5605639,0.14676 -0.5605639,0.47096 0,0.20285 0.1358194,0.30727 0.3425472,0.35807 l 0.288925,0.0706 c 0.2123722,0.054 0.2942167,0.0928 0.2942167,0.21166 0,0.16404 -0.1612195,0.23389 -0.339725,0.23389 -0.3510139,0 -0.3848806,-0.18556 -0.3933472,-0.30162 H 2.3345423 c 0.00882,0.1778 0.0508,0.51647 0.6367639,0.51647 0.3340805,0 0.5859639,-0.1838 0.5859639,-0.4886 0,-0.20003 -0.1072445,-0.31292 -0.415925,-0.38912 l -0.2494139,-0.0617 c -0.1922639,-0.0483 -0.2688167,-0.0765 -0.2688167,-0.19756 0,-0.18344 0.2180167,-0.20849 0.2945695,-0.20849 0.3139722,0 0.3481916,0.15417 0.3510139,0.24765 z M 1.9835284,150.95427 H 1.7344673 v 2.02565 h 0.2490611 z m -0.6992055,2.0253 v -1.47461 H 1.0356146 v 0.81209 c 0,0.21484 -0.0938389,0.49071 -0.40781113,0.49071 -0.16121945,0 -0.28610278,-0.0815 -0.28610278,-0.3242 v -0.9786 h -0.2490611 v 1.06045 c 0,0.35242 0.26317221,0.4572 0.48118888,0.4572 0.23777221,0 0.36512499,-0.0903 0.46990003,-0.26212 l 0.006,0.006 v 0.21343 z m -2.8642027,0.58455 h 0.2490611 v -0.73907 h 0.00564 c 0.064911,0.10442 0.1950861,0.19756 0.39334724,0.19756 0.50376666,0 0.65087499,-0.47096 0.65087499,-0.82374 0,-0.41522 -0.22330833,-0.73625 -0.6173611,-0.73625 -0.26811113,0 -0.38170553,0.16616 -0.44097223,0.25047 h -0.00564 v -0.20813 h -0.23495 z m 0.2377722,-1.25236 c 0,-0.24024 0.039511,-0.62724 0.39899166,-0.62724 0.38452776,0 0.4046361,0.36477 0.4046361,0.55386 0,0.32456 -0.12735278,0.56938 -0.39934444,0.56938 -0.15804442,0 -0.40428332,-0.10371 -0.40428332,-0.496 z m -2.5251833,-0.18662 c 0,-0.2286 0.1813278,-0.44062 0.4106333,-0.44062 0.3026834,0 0.3986389,0.21202 0.41275,0.44062 z m 0.8124472,0.39299 c -0.00847,0.10936 -0.1474611,0.28963 -0.3820583,0.28963 -0.28575,0 -0.4303889,-0.1778 -0.4303889,-0.48507 h 1.0812639 c 0,-0.52246 -0.20955,-0.86007 -0.6367639,-0.86007 -0.4896555,0 -0.7104944,0.36336 -0.7104944,0.82092 0,0.42615 0.2462389,0.73907 0.6625166,0.73907 0.2374195,0 0.3337278,-0.0564 0.4014611,-0.10196 0.1869723,-0.12382 0.2550584,-0.33231 0.263525,-0.40252 z m -2.4793221,-0.27975 c 0,-0.18909 0.019403,-0.55386 0.4042833,-0.55386 0.3598333,0 0.3993444,0.387 0.3993444,0.62724 0,0.39229 -0.2462389,0.496 -0.4046361,0.496 -0.2719916,0 -0.3989916,-0.24482 -0.3989916,-0.56938 z m 1.055511,-1.28411 h -0.2490611 v 0.73942 l -0.00564,0.0194 c -0.059267,-0.0843 -0.1728611,-0.25047 -0.4416778,-0.25047 -0.3937,0 -0.6170083,0.32103 -0.6170083,0.73625 0,0.35278 0.1471083,0.82374 0.650875,0.82374 0.1442861,0 0.314325,-0.0455 0.4219222,-0.24589 h 0.00564 v 0.20285 h 0.23495 z m -2.5248305,1.02129 c 0,-0.4198 -0.2885722,-0.51294 -0.5182305,-0.51294 -0.2547055,0 -0.3929944,0.17251 -0.4466167,0.25047 h -0.006 v -0.20813 h -0.23495 v 1.47461 h 0.2490611 v -0.80363 c 0,-0.40076 0.2490611,-0.49142 0.3901722,-0.49142 0.2437695,0 0.3175,0.13017 0.3175,0.387 v 0.90805 h 0.2490611 z m -1.8146888,-1.06645 h -0.3055056 l -0.2518833,0.39794 h 0.1894417 z m -0.8632472,1.33174 c 0,-0.19791 0.07373,-0.56374 0.4303889,-0.56374 0.3566583,0 0.4303889,0.36583 0.4303889,0.56374 0,0.19756 -0.073731,0.56409 -0.4303889,0.56409 -0.3566584,0 -0.4303889,-0.36653 -0.4303889,-0.56409 z m -0.2575278,0 c 0,0.38135 0.2151945,0.77893 0.6879167,0.77893 0.4727222,0 0.6879166,-0.39758 0.6879166,-0.77893 0,-0.381 -0.2151944,-0.77823 -0.6879166,-0.77823 -0.4727222,0 -0.6879167,0.39723 -0.6879167,0.77823 z m -0.6085419,-1.00401 h 0.249414 v -0.28257 h -0.249414 z m 0.249414,0 z m 0,0.26812 h -0.249414 v 1.47531 h 0.249414 z m -0.575028,0.49635 c -0.0194,-0.25717 -0.166863,-0.53869 -0.554566,-0.53869 -0.490009,0 -0.710847,0.36336 -0.710847,0.82092 0,0.42615 0.246591,0.73907 0.662516,0.73907 0.433211,0 0.577497,-0.3302 0.602897,-0.56374 h -0.240594 c -0.04233,0.22507 -0.186619,0.34889 -0.353483,0.34889 -0.342548,0 -0.404989,-0.31256 -0.404989,-0.56691 0,-0.26247 0.09948,-0.55633 0.407811,-0.55633 0.20955,0 0.319617,0.11889 0.350661,0.31679 z m -1.4859,0 c -0.0194,-0.25717 -0.166863,-0.53869 -0.554919,-0.53869 -0.489656,0 -0.710142,0.36336 -0.710142,0.82092 0,0.42615 0.245886,0.73907 0.662164,0.73907 0.433211,0 0.577497,-0.3302 0.602897,-0.56374 h -0.240241 c -0.04269,0.22507 -0.187325,0.34889 -0.354189,0.34889 -0.342547,0 -0.404989,-0.31256 -0.404989,-0.56691 0,-0.26247 0.09948,-0.55633 0.407811,-0.55633 0.20955,0 0.31997,0.11889 0.351367,0.31679 z m -1.61043,0.97826 v -1.47461 h -0.249414 v 0.81209 c 0,0.21484 -0.09349,0.49071 -0.407106,0.49071 -0.161572,0 -0.286102,-0.0815 -0.286102,-0.3242 v -0.9786 h -0.249061 v 1.06045 c 0,0.35242 0.263172,0.4572 0.481188,0.4572 0.23742,0 0.365125,-0.0903 0.469548,-0.26212 l 0.006,0.006 v 0.21343 z m -2.672292,-0.74119 c 0,-0.18909 0.01976,-0.55386 0.404989,-0.55386 0.359481,0 0.398992,0.387 0.398992,0.62724 0,0.39229 -0.246239,0.496 -0.404636,0.496 -0.271992,0 -0.399345,-0.24482 -0.399345,-0.56938 z m 1.055864,-1.28411 h -0.249061 v 0.73942 l -0.0056,0.0194 c -0.05927,-0.0843 -0.172509,-0.25047 -0.441678,-0.25047 -0.393347,0 -0.617008,0.32103 -0.617008,0.73625 0,0.35278 0.147108,0.82374 0.651227,0.82374 0.144286,0 0.314325,-0.0455 0.42157,-0.24589 h 0.0056 v 0.20285 h 0.23495 z m -1.667228,1.02129 c 0,-0.4198 -0.288572,-0.51294 -0.517877,-0.51294 -0.254706,0 -0.393348,0.17251 -0.447323,0.25047 h -0.0053 v -0.20813 h -0.235303 v 1.47461 h 0.249414 v -0.80363 c 0,-0.40076 0.248708,-0.49142 0.390172,-0.49142 0.243417,0 0.317147,0.13017 0.317147,0.387 v 0.90805 h 0.249061 z m -2.677583,0.26529 c 0,-0.19791 0.07338,-0.56374 0.430036,-0.56374 0.357011,0 0.430036,0.36583 0.430036,0.56374 0,0.19756 -0.07302,0.56409 -0.430036,0.56409 -0.356658,0 -0.430036,-0.36653 -0.430036,-0.56409 z m -0.25788,0 c 0,0.38135 0.215194,0.77893 0.687916,0.77893 0.472722,0 0.687917,-0.39758 0.687917,-0.77893 0,-0.381 -0.215195,-0.77823 -0.687917,-0.77823 -0.472722,0 -0.687916,0.39723 -0.687916,0.77823 z m -0.234598,-0.23954 c -0.01975,-0.25717 -0.166864,-0.53869 -0.554919,-0.53869 -0.489656,0 -0.710494,0.36336 -0.710494,0.82092 0,0.42615 0.246591,0.73907 0.662163,0.73907 0.433211,0 0.577498,-0.3302 0.60325,-0.56374 h -0.240594 c -0.04269,0.22507 -0.186972,0.34889 -0.353836,0.34889 -0.3429,0 -0.404636,-0.31256 -0.404636,-0.56691 0,-0.26247 0.09843,-0.55633 0.407105,-0.55633 0.20955,0 0.31997,0.11889 0.351367,0.31679 h 0.240594"
         style="fill:#231f20;fill-opacity:1;fill-rule:nonzero;stroke:none;stroke-width:0.352778"
         id="path10104" />
      <path
         d="m -8.9423519,122.16583 0.3199694,-0.30515 0.7104945,1.01564 h 0.3566583 l -0.8688917,-1.2072 0.8463139,-0.81809 h -0.3795889 l -0.9849555,0.98143 v -0.98143 H -9.216813 v 2.02529 h 0.2744611 z m -1.6446501,-1.3148 h -0.274108 v 2.02529 h 1.3049248 v -0.24271 h -1.0308168 z m -0.696383,0.6096 c -0.03951,-0.33902 -0.311503,-0.66358 -0.834672,-0.66358 -0.591961,0 -0.947914,0.43216 -0.947914,1.05481 0,0.77893 0.452614,1.07844 0.913694,1.07844 0.153106,0 0.775758,-0.0346 0.889,-0.79904 h -0.266347 c -0.09349,0.47131 -0.401814,0.55633 -0.579967,0.55633 -0.503766,0 -0.674158,-0.36654 -0.674158,-0.84349 0,-0.53376 0.297392,-0.80434 0.665692,-0.80434 0.195438,0 0.492125,0.0646 0.568677,0.42087 h 0.265995"
         style="fill:#231f20;fill-opacity:1;fill-rule:nonzero;stroke:none;stroke-width:0.352778"
         id="path10108" />
      <path
         d="m -7.0786269,121.91395 0.3055055,0.096 -0.1897944,0.25964 0.1389944,0.0956 0.1837973,-0.26458 0.18415,0.26458 0.1382888,-0.0956 -0.1894416,-0.25964 0.3055055,-0.096 -0.056444,-0.15452 -0.2970389,0.10654 v -0.30974 h -0.1696861 v 0.30974 l -0.2973917,-0.10654 -0.056444,0.15452"
         style="fill:#231f20;fill-opacity:1;fill-rule:nonzero;stroke:none;stroke-width:0.352778"
         id="path10112" />
      <path
         d="m -54.507132,122.42936 0.319969,-0.30409 0.710495,1.01564 h 0.356658 l -0.868891,-1.2072 0.846313,-0.81809 h -0.379588 l -0.984956,0.98142 v -0.98142 h -0.274814 v 2.02529 h 0.274814 z m -1.64465,-1.31374 h -0.274461 v 2.02529 h 1.304925 v -0.24271 h -1.030464 z m -0.696383,0.60854 c -0.03951,-0.33796 -0.31115,-0.66252 -0.834672,-0.66252 -0.591962,0 -0.948267,0.43215 -0.948267,1.05481 0,0.77893 0.452614,1.07773 0.9144,1.07773 0.152753,0 0.775053,-0.0339 0.888647,-0.79833 h -0.266347 c -0.09349,0.47131 -0.401461,0.55633 -0.579967,0.55633 -0.504119,0 -0.673805,-0.36654 -0.673805,-0.84349 0,-0.53376 0.297039,-0.80434 0.665339,-0.80434 0.195438,0 0.492125,0.0646 0.568677,0.41981 h 0.265995"
         style="fill:#231f20;fill-opacity:1;fill-rule:nonzero;stroke:none;stroke-width:0.352778"
         id="path10116" />
      <path
         d="m -27.258923,117.99318 c 0,-0.21414 0.147461,-0.39476 0.379589,-0.39476 h 0.09349 v -0.25682 c -0.01976,-0.006 -0.03422,-0.008 -0.06526,-0.008 -0.186972,0 -0.317147,0.11571 -0.416278,0.28787 h -0.0056 v -0.24553 h -0.23495 v 1.47567 h 0.249061 z m -1.754717,0.11853 c 0,-0.1972 0.07338,-0.56479 0.430036,-0.56479 0.356659,0 0.430389,0.36759 0.430389,0.56479 0,0.19791 -0.07373,0.5648 -0.430389,0.5648 -0.356658,0 -0.430036,-0.36689 -0.430036,-0.5648 z m -0.257527,0 c 0,0.38065 0.215194,0.77858 0.687563,0.77858 0.472723,0 0.68827,-0.39793 0.68827,-0.77858 0,-0.38029 -0.215547,-0.77858 -0.68827,-0.77858 -0.472369,0 -0.687563,0.39829 -0.687563,0.77858 z m -0.229306,-0.53057 v -0.20567 h -0.237772 v -0.4124 h -0.249414 v 0.4124 h -0.200731 v 0.20567 h 0.200731 v 0.97401 c 0,0.17745 0.05398,0.31539 0.300214,0.31539 0.0254,0 0.09631,-0.0109 0.186972,-0.0194 v -0.19474 h -0.08784 c -0.05115,0 -0.14993,0 -0.14993,-0.11536 v -0.9599 z m -0.863247,0.29068 c -0.01976,-0.25611 -0.167217,-0.53869 -0.555272,-0.53869 -0.489303,0 -0.710142,0.36372 -0.710142,0.82127 0,0.4258 0.246592,0.73907 0.662164,0.73907 0.433211,0 0.577497,-0.32985 0.60325,-0.56409 h -0.240595 c -0.04269,0.22577 -0.186972,0.3496 -0.354188,0.3496 -0.342195,0 -0.404284,-0.31291 -0.404284,-0.56727 0,-0.26176 0.09878,-0.55527 0.407106,-0.55527 0.20955,0 0.319969,0.11818 0.351366,0.31538 z m -2.615495,0.12489 c 0,-0.22931 0.180975,-0.44027 0.410281,-0.44027 0.302683,0 0.398992,0.21096 0.413103,0.44027 z m 0.812095,0.39193 c -0.0085,0.11042 -0.147461,0.29034 -0.382058,0.29034 -0.28575,0 -0.430037,-0.17709 -0.430037,-0.48578 h 1.081264 c 0,-0.52175 -0.209902,-0.86007 -0.637116,-0.86007 -0.489656,0 -0.710495,0.36372 -0.710495,0.82127 0,0.4258 0.246592,0.73907 0.662517,0.73907 0.238125,0 0.333728,-0.0564 0.401814,-0.10125 0.186972,-0.12523 0.254705,-0.33337 0.263172,-0.40358 z m -1.321506,-0.8075 v -0.20567 h -0.237772 v -0.4124 h -0.249414 v 0.4124 h -0.20073 v 0.20567 h 0.20073 v 0.97401 c 0,0.17745 0.05398,0.31539 0.300214,0.31539 0.0254,0 0.09631,-0.0109 0.186972,-0.0194 v -0.19474 h -0.08784 c -0.0508,0 -0.149931,0 -0.149931,-0.11536 v -0.9599 z m -1.993194,0.41557 c 0,-0.22931 0.181328,-0.44027 0.410633,-0.44027 0.303036,0 0.399345,0.21096 0.413456,0.44027 z m 0.8128,0.39193 c -0.0085,0.11042 -0.147108,0.29034 -0.382411,0.29034 -0.28575,0 -0.430389,-0.17709 -0.430389,-0.48578 h 1.081264 c 0,-0.52175 -0.208845,-0.86007 -0.636411,-0.86007 -0.490009,0 -0.710495,0.36372 -0.710495,0.82127 0,0.4258 0.245886,0.73907 0.662164,0.73907 0.237772,0 0.334081,-0.0564 0.402167,-0.10125 0.186266,-0.12523 0.254353,-0.33337 0.262819,-0.40358 z m -2.802467,-1.32856 h 0.512586 c 0.373239,0 0.608542,0.25577 0.608542,0.76694 0,0.51082 -0.23248,0.79022 -0.588786,0.79022 h -0.532342 z m -0.274461,1.79106 h 0.812447 c 0.667809,0 0.86607,-0.58667 0.86607,-1.0414 0,-0.58385 -0.325614,-0.9839 -0.854781,-0.9839 h -0.823736 v 2.0253"
         style="fill:#231f20;fill-opacity:1;fill-rule:nonzero;stroke:none;stroke-width:0.352778"
         id="path10120" />
      <path
         d="m -25.759974,121.18123 c 0,-0.0734 -0.03669,-0.46249 -0.565856,-0.46249 -0.291747,0 -0.560563,0.14675 -0.560563,0.47131 0,0.2032 0.135819,0.30762 0.342547,0.35807 l 0.288572,0.0709 c 0.212372,0.0536 0.294569,0.0931 0.294569,0.21131 0,0.16404 -0.161572,0.23389 -0.340077,0.23389 -0.350661,0 -0.384528,-0.18556 -0.393348,-0.30127 h -0.240594 c 0.0088,0.17745 0.05115,0.51576 0.636764,0.51576 0.33408,0 0.586317,-0.18344 0.586317,-0.48754 0,-0.20038 -0.10795,-0.31362 -0.416278,-0.38982 l -0.249061,-0.0621 c -0.192264,-0.0473 -0.268817,-0.0755 -0.268817,-0.1972 0,-0.18415 0.218017,-0.2092 0.294217,-0.2092 0.314325,0 0.348191,0.15558 0.351014,0.24836 z m -2.553053,0.31644 c 0,-0.19755 0.07338,-0.5648 0.430389,-0.5648 0.356658,0 0.430389,0.36725 0.430389,0.5648 0,0.1972 -0.07373,0.56409 -0.430389,0.56409 -0.357011,0 -0.430389,-0.36689 -0.430389,-0.56409 z m -0.25788,0 c 0,0.381 0.215194,0.77823 0.688269,0.77823 0.47237,0 0.687564,-0.39723 0.687564,-0.77823 0,-0.38065 -0.215194,-0.77893 -0.687564,-0.77893 -0.473075,0 -0.688269,0.39828 -0.688269,0.77893 z m -0.234597,-0.23953 c -0.01976,-0.25753 -0.167217,-0.5394 -0.55492,-0.5394 -0.489655,0 -0.710494,0.36442 -0.710494,0.82126 0,0.42616 0.246239,0.73872 0.662516,0.73872 0.432859,0 0.577498,-0.3302 0.602898,-0.56374 h -0.240595 c -0.04269,0.22543 -0.186972,0.34925 -0.353836,0.34925 -0.342547,0 -0.404636,-0.31326 -0.404636,-0.56656 0,-0.26247 0.09878,-0.55633 0.407105,-0.55633 0.209903,0 0.320323,0.11889 0.351367,0.3168 z m -1.605139,-0.0254 c 0,-0.42122 -0.288925,-0.514 -0.517878,-0.514 -0.254706,0 -0.393347,0.1718 -0.44697,0.25153 h -0.006 v -0.20885 h -0.23495 v 1.47532 h 0.249061 v -0.80433 c 0,-0.4004 0.249414,-0.49107 0.390878,-0.49107 0.243064,0 0.316795,0.13018 0.316795,0.387 v 0.9084 h 0.249061 z m -1.947334,0.49283 c 0,0.1979 -0.226483,0.34713 -0.458611,0.34713 -0.186972,0 -0.269169,-0.0956 -0.269169,-0.25647 0,-0.18627 0.195439,-0.22296 0.317147,-0.23989 0.308681,-0.0392 0.371122,-0.0621 0.410633,-0.0928 z m -0.682272,-0.51577 c 0.01693,-0.11288 0.05645,-0.28504 0.339725,-0.28504 0.23495,0 0.348192,0.0847 0.348192,0.23954 0,0.14675 -0.07056,0.16933 -0.130175,0.17497 l -0.410634,0.0512 c -0.413102,0.0508 -0.449791,0.33866 -0.449791,0.46249 0,0.25365 0.192616,0.4258 0.463903,0.4258 0.288925,0 0.438855,-0.13511 0.535163,-0.23953 0.0085,0.11288 0.04269,0.22577 0.263525,0.22577 0.05644,0 0.09349,-0.0169 0.135467,-0.0282 v -0.18027 c -0.02822,0.005 -0.05927,0.0109 -0.08184,0.0109 -0.0508,0 -0.0822,-0.0258 -0.0822,-0.0875 v -0.84914 c 0,-0.37853 -0.430036,-0.41204 -0.549275,-0.41204 -0.365125,0 -0.599722,0.13829 -0.611011,0.49106 z m -0.664986,-0.99871 h -0.249061 v 2.02565 h 0.249061 z m -0.554567,0.756 v -0.20567 h -0.249413 v -0.18379 c 0,-0.11854 0.03986,-0.17145 0.147461,-0.17145 0.03104,0 0.07055,0.003 0.101952,0.006 v -0.22331 c -0.03951,-0.003 -0.07655,-0.006 -0.113241,-0.006 -0.243417,0 -0.385234,0.10125 -0.385234,0.3242 v 0.25435 h -0.203905 v 0.20567 h 0.203905 v 1.26965 h 0.249062 v -1.26965 z m -2.864908,0.41487 c 0,-0.22895 0.181328,-0.44062 0.410633,-0.44062 0.302684,0 0.398992,0.21167 0.413103,0.44062 z m 0.812095,0.39194 c -0.0081,0.10971 -0.146756,0.29033 -0.381706,0.29033 -0.286103,0 -0.430389,-0.17744 -0.430389,-0.48507 h 1.081264 c 0,-0.5214 -0.20955,-0.86042 -0.636411,-0.86042 -0.490008,0 -0.710847,0.36442 -0.710847,0.82126 0,0.42616 0.246239,0.73872 0.662516,0.73872 0.237773,0 0.333728,-0.0564 0.401461,-0.10125 0.186973,-0.12382 0.255059,-0.33337 0.263525,-0.40357 z m -2.47897,-0.2787 c 0,-0.18944 0.01976,-0.55386 0.404636,-0.55386 0.359481,0 0.398992,0.387 0.398992,0.62689 0,0.39158 -0.246239,0.496 -0.404636,0.496 -0.271992,0 -0.398992,-0.24483 -0.398992,-0.56903 z m 1.055511,-1.28411 h -0.249061 v 0.73907 l -0.0056,0.0201 c -0.05927,-0.085 -0.172861,-0.25153 -0.441678,-0.25153 -0.392994,0 -0.617008,0.32173 -0.617008,0.73625 0,0.35242 0.147461,0.82373 0.650875,0.82373 0.144638,0 0.314325,-0.0448 0.421922,-0.24518 h 0.0056 v 0.2032 h 0.23495 v -2.02565"
         style="fill:#231f20;fill-opacity:1;fill-rule:nonzero;stroke:none;stroke-width:0.352778"
         id="path10124" />
      <path
         d="m -48.445345,98.696235 c -0.01129,-0.222603 -0.08184,-0.645936 -0.792339,-0.645936 -0.492478,0 -0.699205,0.310444 -0.699205,0.62618 0,0.352778 0.299861,0.446264 0.433211,0.477309 l 0.415925,0.0956 c 0.33408,0.07902 0.432858,0.146755 0.432858,0.358069 0,0.290689 -0.334081,0.341842 -0.531636,0.341842 -0.260703,0 -0.560917,-0.107598 -0.560917,-0.474134 h -0.257528 c 0,0.188736 0.03387,0.35807 0.206728,0.513292 0.09066,0.0822 0.237772,0.195093 0.614186,0.195093 0.348192,0 0.795514,-0.133 0.795514,-0.612429 0,-0.321733 -0.198261,-0.479425 -0.461433,-0.541867 l -0.58032,-0.132291 c -0.118886,-0.02822 -0.240594,-0.08502 -0.240594,-0.257175 0,-0.307623 0.291747,-0.355953 0.464256,-0.355953 0.228952,0 0.489655,0.09913 0.503766,0.412397 h 0.257528"
         style="fill:#231f20;fill-opacity:1;fill-rule:nonzero;stroke:none;stroke-width:0.352778"
         id="path10128" />
      <path
         d="m -49.699473,138.62645 h 0.684742 c 0.135819,0 0.365125,0.0257 0.365125,0.33902 0,0.2988 -0.212373,0.34995 -0.413103,0.34995 h -0.636764 z m 0,0.92322 h 0.664986 c 0.328436,0 0.362303,0.19403 0.362303,0.36089 0,0.0762 0.0085,0.38382 0.04798,0.50765 h 0.336902 v -0.0448 c -0.08467,-0.0487 -0.09878,-0.09 -0.1016,-0.20285 l -0.01729,-0.36724 c -0.01129,-0.28223 -0.127352,-0.33303 -0.243416,-0.38136 0.130527,-0.0755 0.28328,-0.18591 0.28328,-0.48436 0,-0.42933 -0.33408,-0.54504 -0.668161,-0.54504 h -0.9398 v 2.02565 h 0.274814 v -0.86854"
         style="fill:#231f20;fill-opacity:1;fill-rule:nonzero;stroke:none;stroke-width:0.352778"
         id="path10132" />
      <path
         d="m -46.586209,100.04667 c 0.483306,0 0.875242,-0.391583 0.875242,-0.872419 0,-0.482248 -0.391936,-0.872773 -0.875242,-0.872773 -0.483658,0 -0.875594,0.390525 -0.875594,0.872773 0,0.480836 0.391936,0.872419 0.875594,0.872419"
         style="fill:#231f20;fill-opacity:1;fill-rule:nonzero;stroke:none;stroke-width:0.352778"
         id="path10136" />
      <path
         d="m -46.586209,100.04667 c 0.483306,0 0.875242,-0.391583 0.875242,-0.872419 0,-0.482248 -0.391936,-0.872773 -0.875242,-0.872773 -0.483658,0 -0.875594,0.390525 -0.875594,0.872773 0,0.480836 0.391936,0.872419 0.875594,0.872419 z"
         style="fill:none;stroke:#231f20;stroke-width:0.123472;stroke-linecap:butt;stroke-linejoin:miter;stroke-miterlimit:4;stroke-dasharray:none;stroke-opacity:1"
         id="path10140" />
      <path
         d="m -46.569982,120.83763 c 0.483306,0 0.874889,-0.39052 0.874889,-0.87171 0,-0.48225 -0.391583,-0.87278 -0.874889,-0.87278 -0.484364,0 -0.875947,0.39053 -0.875947,0.87278 0,0.48119 0.391583,0.87171 0.875947,0.87171"
         style="fill:#231f20;fill-opacity:1;fill-rule:nonzero;stroke:none;stroke-width:0.352778"
         id="path10144" />
      <path
         d="m -46.569982,120.83763 c 0.483306,0 0.874889,-0.39052 0.874889,-0.87171 0,-0.48225 -0.391583,-0.87278 -0.874889,-0.87278 -0.484364,0 -0.875947,0.39053 -0.875947,0.87278 0,0.48119 0.391583,0.87171 0.875947,0.87171 z"
         style="fill:none;stroke:#231f20;stroke-width:0.123472;stroke-linecap:butt;stroke-linejoin:miter;stroke-miterlimit:4;stroke-dasharray:none;stroke-opacity:1"
         id="path10148" />
      <path
         d="m -46.569982,140.32825 c 0.483306,0 0.874889,-0.39052 0.874889,-0.87136 0,-0.48225 -0.391583,-0.87383 -0.874889,-0.87383 -0.484364,0 -0.875947,0.39158 -0.875947,0.87383 0,0.48084 0.391583,0.87136 0.875947,0.87136"
         style="fill:#231f20;fill-opacity:1;fill-rule:nonzero;stroke:none;stroke-width:0.352778"
         id="path10152" />
      <path
         d="m -46.569982,140.32825 c 0.483306,0 0.874889,-0.39052 0.874889,-0.87136 0,-0.48225 -0.391583,-0.87383 -0.874889,-0.87383 -0.484364,0 -0.875947,0.39158 -0.875947,0.87383 0,0.48084 0.391583,0.87136 0.875947,0.87136 z"
         style="fill:none;stroke:#231f20;stroke-width:0.123472;stroke-linecap:butt;stroke-linejoin:miter;stroke-miterlimit:4;stroke-dasharray:none;stroke-opacity:1"
         id="path10156" />
      <path
         d="m -20.56391,120.83763 c 0.483306,0 0.875242,-0.39052 0.875242,-0.87171 0,-0.48225 -0.391936,-0.87278 -0.875242,-0.87278 -0.484011,0 -0.875947,0.39053 -0.875947,0.87278 0,0.48119 0.391936,0.87171 0.875947,0.87171"
         style="fill:#231f20;fill-opacity:1;fill-rule:nonzero;stroke:none;stroke-width:0.352778"
         id="path10160" />
      <path
         d="m -20.56391,120.83763 c 0.483306,0 0.875242,-0.39052 0.875242,-0.87171 0,-0.48225 -0.391936,-0.87278 -0.875242,-0.87278 -0.484011,0 -0.875947,0.39053 -0.875947,0.87278 0,0.48119 0.391936,0.87171 0.875947,0.87171 z"
         style="fill:none;stroke:#231f20;stroke-width:0.123472;stroke-linecap:butt;stroke-linejoin:miter;stroke-miterlimit:4;stroke-dasharray:none;stroke-opacity:1"
         id="path10164" />
      <path
         d="m 46.926354,106.37903 -0.277636,-0.21414 c 0.215194,-0.21695 0.294569,-0.53587 0.294569,-0.79269 0,-0.43744 -0.232127,-1.06609 -0.9906,-1.06609 -0.758472,0 -0.9906,0.62865 -0.9906,1.06609 0,0.43709 0.232128,1.06574 0.9906,1.06574 0.214842,0 0.390878,-0.0504 0.523523,-0.1344 l 0.31115,0.23953 z m -0.886178,-0.4124 0.212725,0.1644 c -0.08537,0.042 -0.187325,0.0646 -0.300214,0.0646 -0.441677,0 -0.708025,-0.34678 -0.708025,-0.82339 0,-0.47695 0.266348,-0.82409 0.708025,-0.82409 0.441325,0 0.70732,0.34714 0.70732,0.82409 0,0.25965 -0.07937,0.48154 -0.223661,0.62583 l -0.257175,-0.20002 -0.138995,0.16862"
         style="fill:#231f20;fill-opacity:1;fill-rule:nonzero;stroke:none;stroke-width:0.352778"
         id="path10168" />
      <path
         d="m -7.2680686,107.49592 c 2.8370388,0 5.0955221,-2.28847 5.0955221,-5.11634 0,-2.828568 -2.2447249,-5.11739 -5.0821165,-5.11739 l -8.596136,0.0042 v 10.23479 l 8.5827304,-0.005"
         style="fill:#f8eacb;fill-opacity:1;fill-rule:nonzero;stroke:none;stroke-width:0.352778"
         id="path10172" />
      <path
         d="m -7.2680686,107.49592 c 2.8370388,0 5.0955221,-2.28847 5.0955221,-5.11634 0,-2.828568 -2.2447249,-5.11739 -5.0821165,-5.11739 l -8.596136,0.0042 v 10.23479 z"
         style="fill:none;stroke:#231f20;stroke-width:0.246944;stroke-linecap:butt;stroke-linejoin:miter;stroke-miterlimit:4;stroke-dasharray:none;stroke-opacity:1"
         id="path10176" />
      <path
         d="m -7.2680686,107.49592 c 2.8370388,0 5.0955221,-2.28847 5.0955221,-5.11634 0,-2.828568 -2.2447249,-5.11739 -5.0821165,-5.11739 l -8.596136,0.0042 v 10.23479 z"
         style="fill:none;stroke:#231f20;stroke-width:0.246944;stroke-linecap:butt;stroke-linejoin:miter;stroke-miterlimit:4;stroke-dasharray:none;stroke-opacity:1"
         id="path10180" />
      <path
         d="m -7.2680686,141.35271 c 2.8370388,0 5.0955221,-2.28917 5.0955221,-5.11775 0,-2.82822 -2.2447249,-5.11669 -5.0821165,-5.11669 l -8.596136,0.004 v 10.23479 l 8.5827304,-0.005"
         style="fill:#ffffff;fill-opacity:1;fill-rule:nonzero;stroke:none;stroke-width:0.352778"
         id="path10184" />
      <path
         d="m -7.2680686,141.35271 c 2.8370388,0 5.0955221,-2.28917 5.0955221,-5.11775 0,-2.82822 -2.2447249,-5.11669 -5.0821165,-5.11669 l -8.596136,0.004 v 10.23479 l 8.5827304,-0.005"
         style="fill:#f8eacb;fill-opacity:1;fill-rule:nonzero;stroke:none;stroke-width:0.352778"
         id="path10188" />
      <path
         d="m -7.2680686,141.35271 c 2.8370388,0 5.0955221,-2.28917 5.0955221,-5.11775 0,-2.82822 -2.2447249,-5.11669 -5.0821165,-5.11669 l -8.596136,0.004 v 10.23479 z"
         style="fill:none;stroke:#231f20;stroke-width:0.246944;stroke-linecap:butt;stroke-linejoin:miter;stroke-miterlimit:4;stroke-dasharray:none;stroke-opacity:1"
         id="path10192" />
      <path
         d="m 9.3283616,143.15893 c 0,1.82386 1.1585224,1.73037 1.7335504,1.79776 h 8.845902 c 1.23825,0.0878 1.804106,0.93556 1.804106,1.72896 0,-0.7934 0.566208,-1.64112 1.804458,-1.72896 h 8.845903 c 0.574675,-0.0674 1.733902,0.0261 1.733902,-1.79776"
         style="fill:none;stroke:#231f20;stroke-width:0.141111;stroke-linecap:butt;stroke-linejoin:miter;stroke-miterlimit:4;stroke-dasharray:none;stroke-opacity:1"
         id="path10196" />
      <path
         d="m -18.093411,143.15893 c 0,1.82386 1.158875,1.73037 1.73355,1.79776 h 6.015214 c 1.2382497,0.0878 1.8048108,0.93556 1.8048108,1.72896 0,-0.7934 0.5658555,-1.64112 1.8044583,-1.72896 h 6.01486096 c 0.57467499,-0.0674 1.73354994,0.0261 1.73354994,-1.79776"
         style="fill:none;stroke:#231f20;stroke-width:0.141111;stroke-linecap:butt;stroke-linejoin:miter;stroke-miterlimit:4;stroke-dasharray:none;stroke-opacity:1"
         id="path10200" />
      <path
         d="m 17.763278,105.61915 c -0.04445,-2.92559 -1.313392,-5.12727 -1.313392,-5.12727 h 6.766278 c 0,0 4.490508,0.3235 7.4041,5.12727 -2.913592,4.80377 -7.4041,5.12762 -7.4041,5.12762 h -6.766278 c 0,0 1.268942,-2.20309 1.313392,-5.12762 z"
         style="fill:none;stroke:#231f20;stroke-width:0.246944;stroke-linecap:butt;stroke-linejoin:miter;stroke-miterlimit:4;stroke-dasharray:none;stroke-opacity:1"
         id="path10204" />
      <path
         d="m 17.763278,132.94284 c -0.04445,-2.92523 -1.313392,-5.12727 -1.313392,-5.12727 h 6.766278 c 0,0 4.490508,0.3242 7.4041,5.12798 -2.913592,4.80377 -7.4041,5.12727 -7.4041,5.12727 h -6.766278 c 0,0 1.268942,-2.20275 1.313392,-5.12798 z"
         style="fill:none;stroke:#231f20;stroke-width:0.246944;stroke-linecap:butt;stroke-linejoin:miter;stroke-miterlimit:4;stroke-dasharray:none;stroke-opacity:1"
         id="path10208" />
      <path
         d="M 11.840492,98.659546 H 6.6222032"
         style="fill:none;stroke:#231f20;stroke-width:0.105833;stroke-linecap:butt;stroke-linejoin:miter;stroke-miterlimit:3.864;stroke-dasharray:none;stroke-opacity:1"
         id="path10212" />
      <path
         d="M 14.67153,137.6228 H 5.350083"
         style="fill:none;stroke:#231f20;stroke-width:0.105833;stroke-linecap:butt;stroke-linejoin:miter;stroke-miterlimit:3.864;stroke-dasharray:none;stroke-opacity:1"
         id="path10216" />
      <path
         d="m -9.1543713,101.1431 h -0.1950861 c -0.079375,0.32491 -0.212725,0.35595 -0.5351639,0.37853 v 0.19756 h 0.4639028 v 1.40758 h 0.2663472 v -1.98367"
         style="fill:#231f20;fill-opacity:1;fill-rule:nonzero;stroke:none;stroke-width:0.352778"
         id="path10220" />
      <path
         d="m -9.6782463,135.88713 c 0.00847,-0.13794 0.0254,-0.48789 0.4021667,-0.48789 0.2913944,0 0.3933472,0.20038 0.3933472,0.35807 0,0.25999 -0.1531056,0.34149 -0.365125,0.46319 l -0.2631722,0.15205 c -0.2659945,0.15452 -0.4533195,0.37536 -0.4674306,0.7874 h 1.3617222 v -0.23424 h -1.0812639 c 0.011642,-0.0766 0.070556,-0.23178 0.3425473,-0.381 l 0.2067277,-0.11289 c 0.2970389,-0.15769 0.5319889,-0.30727 0.5319889,-0.66287 0,-0.36971 -0.2772833,-0.59267 -0.6226528,-0.59267 -0.2151944,0 -0.6879166,0.0653 -0.6879166,0.71085 h 0.2490611"
         style="fill:#231f20;fill-opacity:1;fill-rule:nonzero;stroke:none;stroke-width:0.352778"
         id="path10224" />
      <path
         d="m 15.814534,110.10436 c 0.693208,0 1.255536,-0.56021 1.255536,-1.25095 0,-0.69074 -0.562328,-1.25024 -1.255536,-1.25024 -0.692856,0 -1.254831,0.5595 -1.254831,1.25024 0,0.69074 0.561975,1.25095 1.254831,1.25095"
         style="fill:#f8eacb;fill-opacity:1;fill-rule:nonzero;stroke:none;stroke-width:0.352778"
         id="path10228" />
      <path
         d="m 15.814534,110.10436 c 0.693208,0 1.255536,-0.56021 1.255536,-1.25095 0,-0.69074 -0.562328,-1.25024 -1.255536,-1.25024 -0.692856,0 -1.254831,0.5595 -1.254831,1.25024 0,0.69074 0.561975,1.25095 1.254831,1.25095 z"
         style="fill:none;stroke:#231f20;stroke-width:0.176389;stroke-linecap:butt;stroke-linejoin:miter;stroke-miterlimit:4;stroke-dasharray:none;stroke-opacity:1"
         id="path10232" />
      <path
         d="M 46.831814,131.10452 H 44.987492"
         style="fill:none;stroke:#231f20;stroke-width:0.105833;stroke-linecap:butt;stroke-linejoin:miter;stroke-miterlimit:3.864;stroke-dasharray:none;stroke-opacity:1"
         id="path10236" />
    </g>
    <g
       id="g14360"
       transform="matrix(0.35277777,0,0,-0.35277777,163.8947,214.51289)">
      <path
         d="M 0,0 H 443.861"
         style="fill:none;stroke:#27aa6c;stroke-width:0.5;stroke-linecap:butt;stroke-linejoin:miter;stroke-miterlimit:4;stroke-dasharray:none;stroke-opacity:1"
         id="path14362" />
    </g>
    <g
       id="g14364"
       transform="matrix(0.35277777,0,0,-0.35277777,168.12663,212.99664)">
      <path
         d="M 0,0 H 431.865"
         style="fill:none;stroke:#27aa6c;stroke-width:0.5;stroke-linecap:butt;stroke-linejoin:miter;stroke-miterlimit:4;stroke-dasharray:none;stroke-opacity:1"
         id="path14366" />
    </g>
    <g
       id="g20352"
       transform="translate(-9.8117625,31.427674)">
      <path
         d="m 157.70486,-3.155233 h 48.139 v -16.752005 h -48.139 z"
         style="fill:#f8eacb;fill-opacity:1;fill-rule:nonzero;stroke:none;stroke-width:0.352778"
         id="path14436" />
      <path
         d="m 157.70486,-19.906885 h 48.139 v 16.7520048 h -48.139 z"
         style="fill:none;stroke:#f8eacb;stroke-width:0.141111;stroke-linecap:butt;stroke-linejoin:miter;stroke-miterlimit:4;stroke-dasharray:none;stroke-opacity:1"
         id="path14438" />
      <path
         d="M 176.13821,10.775256 V 29.378992"
         style="fill:none;stroke:#231f20;stroke-width:0.141111;stroke-linecap:butt;stroke-linejoin:miter;stroke-miterlimit:4;stroke-dasharray:1.76318, 1.05798;stroke-dashoffset:0;stroke-opacity:1"
         id="path14442" />
      <path
         d="M 190.59751,10.775256 V 37.075897"
         style="fill:none;stroke:#231f20;stroke-width:0.141111;stroke-linecap:butt;stroke-linejoin:miter;stroke-miterlimit:4;stroke-dasharray:1.76318, 1.05798;stroke-dashoffset:0;stroke-opacity:1"
         id="path14446" />
      <path
         d="m 176.13115,37.408919 h 1.80481 V 2.6638364 h -1.80481 z"
         style="fill:#f8eacb;fill-opacity:1;fill-rule:nonzero;stroke:none;stroke-width:0.352778"
         id="path14448" />
      <path
         d="m 176.13115,2.6638364 h 1.80481 V 37.408919 h -1.80481 z"
         style="fill:none;stroke:#f8eacb;stroke-width:0.141111;stroke-linecap:butt;stroke-linejoin:miter;stroke-miterlimit:4;stroke-dasharray:none;stroke-opacity:1"
         id="path14450" />
      <path
         d="m 157.09456,10.246445 h 19.04012 V 2.6641924 h 14.46636 v 7.5857806 h 19.21686"
         style="fill:none;stroke:#231f20;stroke-width:0.388056;stroke-linecap:butt;stroke-linejoin:miter;stroke-miterlimit:4;stroke-dasharray:none;stroke-opacity:1"
         id="path14454" />
      <path
         d="m 157.23179,17.132664 h 20.65055 v 7.582253 h 14.46671 v -7.585781 h 17.60644"
         style="fill:none;stroke:#231f20;stroke-width:0.388056;stroke-linecap:butt;stroke-linejoin:miter;stroke-miterlimit:4;stroke-dasharray:none;stroke-opacity:1"
         id="path14458" />
      <path
         d="m 157.09456,37.408915 h 19.03659 v -7.589308 h 1.75013 v 7.582252 h 32.11336"
         style="fill:none;stroke:#9e0034;stroke-width:0.388056;stroke-linecap:butt;stroke-linejoin:miter;stroke-miterlimit:4;stroke-dasharray:none;stroke-opacity:1"
         id="path14462" />
      <path
         d="m 150.90013,9.1866938 h -0.27376 v 2.0256502 h 1.3007 v -0.242711 h -1.02694 z m -0.69356,0.6092472 c -0.0399,-0.3383139 -0.31045,-0.6628694 -0.83256,-0.6628694 -0.58984,0 -0.94544,0.4318 -0.94544,1.0551584 0,0.778933 0.45191,1.077736 0.91122,1.077736 0.15276,0 0.77329,-0.03387 0.88653,-0.798336 h -0.26564 c -0.0928,0.470958 -0.40075,0.555625 -0.5782,0.555625 -0.502,0 -0.67169,-0.366183 -0.67169,-0.843492 0,-0.533047 0.29669,-0.8039803 0.66322,-0.8039803 0.19438,0 0.49107,0.064911 0.56727,0.4201583 h 0.26529"
         style="fill:#231f20;fill-opacity:1;fill-rule:nonzero;stroke:none;stroke-width:0.352778"
         id="path14490" />
      <path
         d="m 152.54055,10.5015 0.31856,-0.3048 0.70838,1.015647 h 0.3556 l -0.86607,-1.207558 0.84349,-0.8180917 h -0.37818 l -0.98178,0.9817807 V 9.1866973 h -0.27376 v 2.0256497 h 0.27376 V 10.5015"
         style="fill:#231f20;fill-opacity:1;fill-rule:nonzero;stroke:none;stroke-width:0.352778"
         id="path14494" />
      <path
         d="m 150.98833,16.063747 h -0.27376 v 2.025297 h 1.3007 v -0.242711 h -1.02694 z m -0.69356,0.609247 c -0.0399,-0.338666 -0.31045,-0.663222 -0.83256,-0.663222 -0.58984,0 -0.94544,0.4318 -0.94544,1.055511 0,0.778581 0.45191,1.077383 0.91122,1.077383 0.15276,0 0.77329,-0.03387 0.88653,-0.797983 h -0.26564 c -0.0928,0.470606 -0.40075,0.555625 -0.5782,0.555625 -0.502,0 -0.67169,-0.366536 -0.67169,-0.843492 0,-0.5334 0.29669,-0.804333 0.66322,-0.804333 0.19438,0 0.49107,0.06491 0.56727,0.420511 h 0.26529"
         style="fill:#231f20;fill-opacity:1;fill-rule:nonzero;stroke:none;stroke-width:0.352778"
         id="path14498" />
      <path
         d="m 152.62839,17.378197 0.31856,-0.3048 0.70838,1.015647 h 0.3556 l -0.86607,-1.207205 0.84349,-0.818092 h -0.37818 l -0.98178,0.981428 v -0.981428 h -0.27376 v 2.025297 h 0.27376 v -0.710847"
         style="fill:#231f20;fill-opacity:1;fill-rule:nonzero;stroke:none;stroke-width:0.352778"
         id="path14502" />
      <path
         d="m 150.92765,36.254277 h -0.27376 v 2.025297 h 1.3007 v -0.242711 h -1.02694 z m -0.69391,0.608894 c -0.0395,-0.338313 -0.31045,-0.662869 -0.83256,-0.662869 -0.58949,0 -0.94509,0.4318 -0.94509,1.055511 0,0.778581 0.45155,1.077383 0.91122,1.077383 0.1524,0 0.77329,-0.03387 0.88618,-0.797983 h -0.26529 c -0.0931,0.470606 -0.40075,0.555625 -0.57855,0.555625 -0.50201,0 -0.67134,-0.366536 -0.67134,-0.843492 0,-0.5334 0.29633,-0.804333 0.66287,-0.804333 0.19473,0 0.49107,0.06491 0.56727,0.420158 h 0.26529"
         style="fill:#231f20;fill-opacity:1;fill-rule:nonzero;stroke:none;stroke-width:0.352778"
         id="path14506" />
      <path
         d="m 154.56514,36.611997 0.3048,0.09631 -0.18909,0.259645 0.13829,0.09595 0.18344,-0.265289 0.1831,0.265289 0.13828,-0.09595 -0.18908,-0.259645 0.3048,-0.09631 -0.0565,-0.155222 -0.29598,0.107597 v -0.310444 h -0.16933 v 0.310444 l -0.29634,-0.107597 z m -1.99743,0.956381 0.31856,-0.3048 0.70838,1.016 h 0.3556 l -0.86642,-1.207206 0.84384,-0.818444 h -0.37818 l -0.98178,0.981427 v -0.981427 h -0.27375 v 2.02565 h 0.27375 v -0.7112"
         style="fill:#231f20;fill-opacity:1;fill-rule:nonzero;stroke:none;stroke-width:0.352778"
         id="path14510" />
      <path
         d="m 175.11162,-12.072397 c 0.70273,0 1.27282,-0.569736 1.27282,-1.272469 0,-0.703087 -0.57009,-1.27247 -1.27282,-1.27247 -0.70273,0 -1.27247,0.569383 -1.27247,1.27247 0,0.702733 0.56974,1.272469 1.27247,1.272469 z"
         style="fill:none;stroke:#231f20;stroke-width:0.176389;stroke-linecap:butt;stroke-linejoin:miter;stroke-miterlimit:4;stroke-dasharray:none;stroke-opacity:1"
         id="path14538" />
      <path
         d="m 173.65183,-13.336403 -8.78558,4.9498249 v -9.9000029 z"
         style="fill:none;stroke:#231f20;stroke-width:0.246944;stroke-linecap:butt;stroke-linejoin:miter;stroke-miterlimit:4;stroke-dasharray:none;stroke-opacity:1"
         id="path14542" />
      <path
         d="m 197.45516,-4.9893246 c 2.82787,0 5.07859,-2.2888222 5.07859,-5.1170414 0,-2.827867 -2.23697,-5.116689 -5.06518,-5.116689 l -8.56827,0.0039 v 10.2351411 z"
         style="fill:none;stroke:#231f20;stroke-width:0.246944;stroke-linecap:butt;stroke-linejoin:miter;stroke-miterlimit:4;stroke-dasharray:none;stroke-opacity:1"
         id="path14546" />
      <path
         d="M 188.91582,-13.336752 H 176.39609"
         style="fill:none;stroke:#231f20;stroke-width:0.388056;stroke-linecap:butt;stroke-linejoin:miter;stroke-miterlimit:4;stroke-dasharray:none;stroke-opacity:1"
         id="path14550" />
      <path
         d="M 164.84614,-13.336752 H 153.9767"
         style="fill:none;stroke:#231f20;stroke-width:0.388056;stroke-linecap:butt;stroke-linejoin:miter;stroke-miterlimit:4;stroke-dasharray:none;stroke-opacity:1"
         id="path14554" />
      <path
         d="M 188.91582,-6.8583412 H 159.55624 V -13.294419"
         style="fill:none;stroke:#231f20;stroke-width:0.388056;stroke-linecap:butt;stroke-linejoin:miter;stroke-miterlimit:4;stroke-dasharray:none;stroke-opacity:1"
         id="path14558" />
      <path
         d="m 158.67324,-13.324405 c 0,-0.482247 0.39088,-0.872419 0.87242,-0.872419 0.48225,0 0.87277,0.390172 0.87277,0.872419 0,0.482247 -0.39052,0.872772 -0.87277,0.872772 -0.48154,0 -0.87242,-0.390525 -0.87242,-0.872772"
         style="fill:#231f20;fill-opacity:1;fill-rule:nonzero;stroke:none;stroke-width:0.352778"
         id="path14562" />
      <path
         d="m 158.67324,-13.324405 c 0,-0.482247 0.39088,-0.872419 0.87242,-0.872419 0.48225,0 0.87277,0.390172 0.87277,0.872419 0,0.482247 -0.39052,0.872772 -0.87277,0.872772 -0.48154,0 -0.87242,-0.390525 -0.87242,-0.872772 z"
         style="fill:none;stroke:#231f20;stroke-width:0.123472;stroke-linecap:butt;stroke-linejoin:miter;stroke-miterlimit:4;stroke-dasharray:none;stroke-opacity:1"
         id="path14566" />
      <path
         d="m 209.34695,-10.084847 c 0,-0.482247 0.39088,-0.872419 0.87277,-0.872419 0.4826,0 0.87313,0.390172 0.87313,0.872419 0,0.4822472 -0.39053,0.8727722 -0.87313,0.8727722 -0.48189,0 -0.87277,-0.390525 -0.87277,-0.8727722"
         style="fill:#231f20;fill-opacity:1;fill-rule:nonzero;stroke:none;stroke-width:0.352778"
         id="path14570" />
      <path
         d="m 209.34695,-10.084847 c 0,-0.482247 0.39088,-0.872419 0.87277,-0.872419 0.4826,0 0.87313,0.390172 0.87313,0.872419 0,0.4822472 -0.39053,0.8727722 -0.87313,0.8727722 -0.48189,0 -0.87277,-0.390525 -0.87277,-0.8727722 z"
         style="fill:none;stroke:#231f20;stroke-width:0.123472;stroke-linecap:butt;stroke-linejoin:miter;stroke-miterlimit:4;stroke-dasharray:none;stroke-opacity:1"
         id="path14574" />
      <path
         d="m 202.53375,-10.10601 h 7.43232"
         style="fill:none;stroke:#231f20;stroke-width:0.388056;stroke-linecap:butt;stroke-linejoin:miter;stroke-miterlimit:4;stroke-dasharray:none;stroke-opacity:1"
         id="path14578" />
      <path
         d="m 214.93071,-11.355901 h -0.27411 v 2.02565 h 1.30069 v -0.2427112 h -1.02658 z m -0.69427,0.609247 c -0.0391,-0.338314 -0.31044,-0.662869 -0.8322,-0.662869 -0.58949,0 -0.94544,0.4318 -0.94544,1.055158 0,0.7785806 0.45155,1.0777362 0.91122,1.0777362 0.15275,0 0.77329,-0.033867 0.88653,-0.7983362 h -0.26529 c -0.0935,0.4709584 -0.40111,0.5556251 -0.57891,0.5556251 -0.502,0 -0.67098,-0.3665361 -0.67098,-0.8434921 0,-0.533047 0.29633,-0.80398 0.66287,-0.80398 0.19438,0 0.49071,0.06526 0.56691,0.420158 h 0.26529"
         style="fill:#231f20;fill-opacity:1;fill-rule:nonzero;stroke:none;stroke-width:0.352778"
         id="path14582" />
      <path
         d="m 218.56785,-10.997832 0.30515,0.09596 -0.18944,0.259644 0.13864,0.09596 0.18345,-0.265289 0.18309,0.265289 0.13829,-0.09596 -0.18909,-0.259644 0.3048,-0.09596 -0.0564,-0.155222 -0.29633,0.107244 v -0.310444 h -0.16933 v 0.310444 l -0.29634,-0.107244 z m -1.99743,0.956381 0.31891,-0.3048 0.70803,1.0159995 h 0.3556 l -0.86642,-1.2075585 0.84419,-0.818444 h -0.37853 l -0.98178,0.98178 v -0.98178 h -0.2734 v 2.0260025 h 0.2734 v -0.7111995"
         style="fill:#231f20;fill-opacity:1;fill-rule:nonzero;stroke:none;stroke-width:0.352778"
         id="path14586" />
      <path
         d="m 182.36933,-17.08678 h -0.27376 v 2.02565 h 1.3007 v -0.242711 h -1.02694 z m -0.69391,0.609247 c -0.0392,-0.338314 -0.3101,-0.662869 -0.83221,-0.662869 -0.58949,0 -0.94544,0.4318 -0.94544,1.055158 0,0.778581 0.45191,1.077736 0.91122,1.077736 0.15276,0 0.77329,-0.03387 0.88653,-0.798336 h -0.26528 c -0.0935,0.470958 -0.40111,0.555625 -0.57891,0.555625 -0.50165,0 -0.67099,-0.366536 -0.67099,-0.843492 0,-0.533047 0.29634,-0.80398 0.66287,-0.80398 0.19438,0 0.49107,0.06491 0.56692,0.420158 h 0.26529"
         style="fill:#231f20;fill-opacity:1;fill-rule:nonzero;stroke:none;stroke-width:0.352778"
         id="path14590" />
      <path
         d="m 184.00974,-15.771977 0.31891,-0.3048 0.70803,1.015647 h 0.3556 l -0.86607,-1.207558 0.84349,-0.818092 h -0.37818 l -0.98178,0.981781 v -0.981781 h -0.27376 v 2.02565 h 0.27376 v -0.710847"
         style="fill:#231f20;fill-opacity:1;fill-rule:nonzero;stroke:none;stroke-width:0.352778"
         id="path14594" />
      <path
         d="m 150.01219,-14.442001 h -0.27376 v 2.02565 h 1.3007 v -0.242711 h -1.02694 z m -0.69391,0.6096 c -0.0392,-0.338667 -0.3101,-0.663222 -0.83221,-0.663222 -0.58949,0 -0.94544,0.4318 -0.94544,1.055158 0,0.778933 0.45191,1.077736 0.91122,1.077736 0.15276,0 0.77329,-0.03387 0.88653,-0.798336 h -0.26528 c -0.0935,0.470958 -0.40111,0.555625 -0.57891,0.555625 -0.50165,0 -0.67099,-0.366536 -0.67099,-0.843492 0,-0.533047 0.29634,-0.80398 0.66287,-0.80398 0.19438,0 0.49107,0.06491 0.56692,0.420511 h 0.26529"
         style="fill:#231f20;fill-opacity:1;fill-rule:nonzero;stroke:none;stroke-width:0.352778"
         id="path14598" />
      <path
         d="m 151.65226,-13.127202 0.31891,-0.3048 0.70803,1.015647 h 0.3556 l -0.86607,-1.207558 0.84349,-0.818092 h -0.37818 l -0.98178,0.981781 v -0.981781 h -0.27376 v 2.02565 h 0.27376 v -0.710847"
         style="fill:#231f20;fill-opacity:1;fill-rule:nonzero;stroke:none;stroke-width:0.352778"
         id="path14602" />
      <path
         d="m 179.99372,-17.689677 h 5.36681"
         style="fill:none;stroke:#231f20;stroke-width:0.105833;stroke-linecap:butt;stroke-linejoin:miter;stroke-miterlimit:3.864;stroke-dasharray:none;stroke-opacity:1"
         id="path14666" />
      <path
         d="m 148.60673,15.473903 h 5.39291"
         style="fill:none;stroke:#231f20;stroke-width:0.105833;stroke-linecap:butt;stroke-linejoin:miter;stroke-miterlimit:3.864;stroke-dasharray:none;stroke-opacity:1"
         id="path14674" />
      <path
         d="M 176.15973,10.775256 V 29.812908"
         style="fill:none;stroke:#231f20;stroke-width:0.141111;stroke-linecap:butt;stroke-linejoin:miter;stroke-miterlimit:4;stroke-dasharray:1.76318, 1.05798;stroke-dashoffset:0;stroke-opacity:1"
         id="path14682" />
      <path
         d="m 186.5,43.448474 c 0.30445,-0.434622 0.4766,-0.835378 0.4766,-1.331736 0,-0.527403 -0.19191,-0.880181 -0.48542,-1.320447 h -0.16616 c 0.22543,0.442736 0.38629,0.787047 0.38629,1.252361 0,0.677333 -0.14358,0.947914 -0.38382,1.399822 z m -0.75636,-1.094669 c 0,0.197555 -0.22577,0.34678 -0.4572,0.34678 -0.18626,0 -0.26811,-0.09595 -0.26811,-0.256822 0,-0.185914 0.19474,-0.222603 0.31609,-0.239536 0.30762,-0.03986 0.36971,-0.06244 0.40922,-0.09313 z m -0.68015,-0.516467 c 0.0169,-0.112889 0.0568,-0.284692 0.33867,-0.284692 0.23424,0 0.34713,0.08431 0.34713,0.239536 0,0.146756 -0.0706,0.168981 -0.12947,0.174625 l -0.40958,0.0508 c -0.41204,0.0508 -0.44838,0.338667 -0.44838,0.463198 0,0.254 0.19156,0.425802 0.4625,0.425802 0.28786,0 0.43744,-0.135114 0.5334,-0.239889 0.009,0.113242 0.0423,0.225778 0.26211,0.225778 0.0564,0 0.0931,-0.01658 0.13582,-0.02822 v -0.180269 c -0.0286,0.0056 -0.0596,0.01094 -0.0819,0.01094 -0.0511,0 -0.0822,-0.02505 -0.0822,-0.08749 v -0.849136 c 0,-0.377825 -0.42863,-0.411692 -0.54716,-0.411692 -0.36407,0 -0.59831,0.138289 -0.6096,0.490714 z m -0.67416,-1.041047 c -0.3048,0.434269 -0.4766,0.835377 -0.4766,1.331383 0,0.528108 0.19191,0.880533 0.48542,1.3208 h 0.16616 c -0.22543,-0.443442 -0.38629,-0.786694 -0.38629,-1.253067 0,-0.67698 0.14358,-0.947561 0.38382,-1.399116 h -0.17251"
         style="fill:#231f20;fill-opacity:1;fill-rule:nonzero;stroke:none;stroke-width:0.352778"
         id="path14710" />
    </g>
    <g
       id="g20314"
       transform="translate(8.1551165,31.427674)">
      <path
         d="M 270.30095,10.775256 V 29.378992"
         style="fill:none;stroke:#231f20;stroke-width:0.141111;stroke-linecap:butt;stroke-linejoin:miter;stroke-miterlimit:4;stroke-dasharray:1.76318, 1.05798;stroke-dashoffset:0;stroke-opacity:1"
         id="path14466" />
      <path
         d="M 255.84164,10.775256 V 37.075897"
         style="fill:none;stroke:#231f20;stroke-width:0.141111;stroke-linecap:butt;stroke-linejoin:miter;stroke-miterlimit:4;stroke-dasharray:1.76318, 1.05798;stroke-dashoffset:0;stroke-opacity:1"
         id="path14470" />
      <path
         d="m 270.30095,37.408919 h 1.69439 V 2.6638364 h -1.69439 z"
         style="fill:#f8eacb;fill-opacity:1;fill-rule:nonzero;stroke:none;stroke-width:0.352778"
         id="path14472" />
      <path
         d="m 270.30095,2.6638364 h 1.69439 V 37.408919 h -1.69439 z"
         style="fill:none;stroke:#f8eacb;stroke-width:0.141111;stroke-linecap:butt;stroke-linejoin:miter;stroke-miterlimit:4;stroke-dasharray:none;stroke-opacity:1"
         id="path14474" />
      <path
         d="M 289.34495,10.246445 H 270.30448 V 2.6641924 h -14.46742 v 7.5857806 h -19.21581"
         style="fill:none;stroke:#231f20;stroke-width:0.388056;stroke-linecap:butt;stroke-linejoin:miter;stroke-miterlimit:4;stroke-dasharray:none;stroke-opacity:1"
         id="path14478" />
      <path
         d="m 289.20666,17.132664 h -17.23672 v 7.582253 H 258.6614 v -7.585781 h -22.17844"
         style="fill:none;stroke:#231f20;stroke-width:0.388056;stroke-linecap:butt;stroke-linejoin:miter;stroke-miterlimit:4;stroke-dasharray:none;stroke-opacity:1"
         id="path14482" />
      <path
         d="m 289.34495,37.408915 h -17.3736 v -7.589308 h -1.66405 v 7.582252 h -33.86243"
         style="fill:none;stroke:#9e0034;stroke-width:0.388056;stroke-linecap:butt;stroke-linejoin:miter;stroke-miterlimit:4;stroke-dasharray:none;stroke-opacity:1"
         id="path14486" />
      <path
         d="m 230.33863,9.0988557 h -0.2734 v 2.0256503 h 1.30034 v -0.242711 h -1.02694 z m -0.69356,0.6092472 c -0.0399,-0.3383139 -0.31045,-0.6628694 -0.83291,-0.6628694 -0.58949,0 -0.94509,0.4318 -0.94509,1.0551585 0,0.77858 0.45191,1.077736 0.91122,1.077736 0.1524,0 0.77365,-0.03387 0.88618,-0.798336 h -0.26529 c -0.0928,0.470958 -0.40075,0.555625 -0.5782,0.555625 -0.502,0 -0.67169,-0.366536 -0.67169,-0.843492 0,-0.5330471 0.29633,-0.8039804 0.66287,-0.8039804 0.19509,0 0.49142,0.065264 0.56762,0.4201583 h 0.26529"
         style="fill:#231f20;fill-opacity:1;fill-rule:nonzero;stroke:none;stroke-width:0.352778"
         id="path14514" />
      <path
         d="m 231.9787,10.413306 0.31891,-0.3048 0.70803,1.015647 h 0.3556 l -0.86607,-1.2075581 0.84349,-0.8180916 h -0.37818 L 231.9787,10.080284 V 9.0985033 h -0.27411 v 2.0256497 h 0.27411 v -0.710847"
         style="fill:#231f20;fill-opacity:1;fill-rule:nonzero;stroke:none;stroke-width:0.352778"
         id="path14518" />
      <path
         d="m 230.42683,15.975906 h -0.2734 v 2.025297 h 1.30034 v -0.242711 h -1.02694 z m -0.69356,0.608894 c -0.0399,-0.338313 -0.31045,-0.662869 -0.83291,-0.662869 -0.58949,0 -0.94509,0.4318 -0.94509,1.055511 0,0.778581 0.45191,1.077383 0.91122,1.077383 0.1524,0 0.77365,-0.03387 0.88618,-0.797983 h -0.26529 c -0.0928,0.470606 -0.40075,0.555625 -0.5782,0.555625 -0.502,0 -0.67169,-0.366536 -0.67169,-0.843492 0,-0.5334 0.29633,-0.804333 0.66287,-0.804333 0.19509,0 0.49142,0.06491 0.56762,0.420158 h 0.26529"
         style="fill:#231f20;fill-opacity:1;fill-rule:nonzero;stroke:none;stroke-width:0.352778"
         id="path14522" />
      <path
         d="m 232.06689,17.290003 0.31891,-0.3048 0.70803,1.015647 h 0.3556 l -0.86607,-1.207205 0.84349,-0.818092 h -0.37818 l -0.98178,0.981428 v -0.981428 h -0.27411 v 2.025297 h 0.27411 v -0.710847"
         style="fill:#231f20;fill-opacity:1;fill-rule:nonzero;stroke:none;stroke-width:0.352778"
         id="path14526" />
      <path
         d="m 230.36615,36.166083 h -0.27376 v 2.025297 h 1.30105 v -0.242711 h -1.02729 z m -0.69356,0.608894 c -0.0399,-0.338313 -0.31045,-0.662869 -0.83291,-0.662869 -0.58949,0 -0.94474,0.4318 -0.94474,1.055511 0,0.778581 0.45156,1.077383 0.91123,1.077383 0.15204,0 0.77293,-0.03387 0.88582,-0.797983 h -0.26529 c -0.0928,0.470606 -0.4004,0.555625 -0.5782,0.555625 -0.502,0 -0.67169,-0.366536 -0.67169,-0.843492 0,-0.5334 0.29633,-0.804333 0.66287,-0.804333 0.19509,0 0.49142,0.06491 0.56762,0.420158 h 0.26529"
         style="fill:#231f20;fill-opacity:1;fill-rule:nonzero;stroke:none;stroke-width:0.352778"
         id="path14530" />
      <path
         d="m 234.00364,36.523803 0.3048,0.09631 -0.18909,0.259645 0.13829,0.09595 0.18344,-0.265289 0.1831,0.265289 0.13793,-0.09595 -0.18873,-0.259645 0.30444,-0.09631 -0.0561,-0.155222 -0.29633,0.107597 v -0.310444 h -0.16898 v 0.310444 l -0.29634,-0.107597 z m -1.99743,0.956381 0.31891,-0.3048 0.70803,1.016 h 0.3556 l -0.86642,-1.207206 0.84349,-0.818444 h -0.37783 l -0.98178,0.981427 v -0.981427 h -0.27411 v 2.02565 h 0.27411 v -0.7112"
         style="fill:#231f20;fill-opacity:1;fill-rule:nonzero;stroke:none;stroke-width:0.352778"
         id="path14534" />
      <path
         d="m 237.40724,-3.155233 h 48.139 v -16.752005 h -48.139 z"
         style="fill:#f8eacb;fill-opacity:1;fill-rule:nonzero;stroke:none;stroke-width:0.352778"
         id="path14604" />
      <path
         d="m 237.40724,-19.906885 h 48.139 v 16.7520048 h -48.139 z"
         style="fill:none;stroke:#f8eacb;stroke-width:0.141111;stroke-linecap:butt;stroke-linejoin:miter;stroke-miterlimit:4;stroke-dasharray:none;stroke-opacity:1"
         id="path14606" />
      <path
         d="m 254.81471,-12.072397 c 0.70309,0 1.27282,-0.569736 1.27282,-1.272469 0,-0.703087 -0.56973,-1.27247 -1.27282,-1.27247 -0.70273,0 -1.27282,0.569383 -1.27282,1.27247 0,0.702733 0.57009,1.272469 1.27282,1.272469 z"
         style="fill:none;stroke:#231f20;stroke-width:0.176389;stroke-linecap:butt;stroke-linejoin:miter;stroke-miterlimit:4;stroke-dasharray:none;stroke-opacity:1"
         id="path14610" />
      <path
         d="m 253.35456,-13.336403 -8.78522,4.9498249 v -9.9000029 z"
         style="fill:none;stroke:#231f20;stroke-width:0.246944;stroke-linecap:butt;stroke-linejoin:miter;stroke-miterlimit:4;stroke-dasharray:none;stroke-opacity:1"
         id="path14614" />
      <path
         d="m 277.15753,-4.9893246 c 2.82857,0 5.07929,-2.2888222 5.07929,-5.1170414 0,-2.827867 -2.23696,-5.116689 -5.06553,-5.116689 l -8.56792,0.0039 v 10.2351411 z"
         style="fill:none;stroke:#231f20;stroke-width:0.246944;stroke-linecap:butt;stroke-linejoin:miter;stroke-miterlimit:4;stroke-dasharray:none;stroke-opacity:1"
         id="path14618" />
      <path
         d="m 265.91415,-13.336752 h -9.81463"
         style="fill:none;stroke:#231f20;stroke-width:0.388056;stroke-linecap:butt;stroke-linejoin:miter;stroke-miterlimit:4;stroke-dasharray:none;stroke-opacity:1"
         id="path14622" />
      <path
         d="M 244.54887,-13.336752 H 233.68014"
         style="fill:none;stroke:#231f20;stroke-width:0.388056;stroke-linecap:butt;stroke-linejoin:miter;stroke-miterlimit:4;stroke-dasharray:none;stroke-opacity:1"
         id="path14626" />
      <path
         d="M 265.89193,-6.8583412 H 239.25897 V -13.294419"
         style="fill:none;stroke:#231f20;stroke-width:0.388056;stroke-linecap:butt;stroke-linejoin:miter;stroke-miterlimit:4;stroke-dasharray:none;stroke-opacity:1"
         id="path14630" />
      <path
         d="m 238.37597,-13.324405 c 0,-0.482247 0.39123,-0.872419 0.87312,-0.872419 0.4819,0 0.87278,0.390172 0.87278,0.872419 0,0.482247 -0.39088,0.872772 -0.87278,0.872772 -0.48189,0 -0.87312,-0.390525 -0.87312,-0.872772"
         style="fill:#231f20;fill-opacity:1;fill-rule:nonzero;stroke:none;stroke-width:0.352778"
         id="path14634" />
      <path
         d="m 238.37597,-13.324405 c 0,-0.482247 0.39123,-0.872419 0.87312,-0.872419 0.4819,0 0.87278,0.390172 0.87278,0.872419 0,0.482247 -0.39088,0.872772 -0.87278,0.872772 -0.48189,0 -0.87312,-0.390525 -0.87312,-0.872772 z"
         style="fill:none;stroke:#231f20;stroke-width:0.123472;stroke-linecap:butt;stroke-linejoin:miter;stroke-miterlimit:4;stroke-dasharray:none;stroke-opacity:1"
         id="path14638" />
      <path
         d="m 289.05038,-10.084847 c 0,-0.482247 0.39088,-0.872419 0.87242,-0.872419 0.4826,0 0.87242,0.390172 0.87242,0.872419 0,0.4822472 -0.38982,0.8727722 -0.87242,0.8727722 -0.48154,0 -0.87242,-0.390525 -0.87242,-0.8727722"
         style="fill:#231f20;fill-opacity:1;fill-rule:nonzero;stroke:none;stroke-width:0.352778"
         id="path14642" />
      <path
         d="m 289.05038,-10.084847 c 0,-0.482247 0.39088,-0.872419 0.87242,-0.872419 0.4826,0 0.87242,0.390172 0.87242,0.872419 0,0.4822472 -0.38982,0.8727722 -0.87242,0.8727722 -0.48154,0 -0.87242,-0.390525 -0.87242,-0.8727722 z"
         style="fill:none;stroke:#231f20;stroke-width:0.123472;stroke-linecap:butt;stroke-linejoin:miter;stroke-miterlimit:4;stroke-dasharray:none;stroke-opacity:1"
         id="path14646" />
      <path
         d="m 282.23718,-10.10601 h 7.43162"
         style="fill:none;stroke:#231f20;stroke-width:0.388056;stroke-linecap:butt;stroke-linejoin:miter;stroke-miterlimit:4;stroke-dasharray:none;stroke-opacity:1"
         id="path14650" />
      <path
         d="m 267.18486,-12.072397 c 0.70238,0 1.27176,-0.569736 1.27176,-1.272469 0,-0.703087 -0.56938,-1.27247 -1.27176,-1.27247 -0.70309,0 -1.27317,0.569383 -1.27317,1.27247 0,0.702733 0.57008,1.272469 1.27317,1.272469 z"
         style="fill:none;stroke:#231f20;stroke-width:0.176389;stroke-linecap:butt;stroke-linejoin:miter;stroke-miterlimit:4;stroke-dasharray:none;stroke-opacity:1"
         id="path14654" />
      <path
         d="m 267.18486,-5.5710551 c 0.70238,0 1.27176,-0.5697361 1.27176,-1.2724694 0,-0.7030861 -0.56938,-1.2728222 -1.27176,-1.2728222 -0.70309,0 -1.27317,0.5697361 -1.27317,1.2728222 0,0.7027333 0.57008,1.2724694 1.27317,1.2724694 z"
         style="fill:none;stroke:#231f20;stroke-width:0.176389;stroke-linecap:butt;stroke-linejoin:miter;stroke-miterlimit:4;stroke-dasharray:none;stroke-opacity:1"
         id="path14658" />
      <path
         d="M 270.30095,10.775256 V 37.075897"
         style="fill:none;stroke:#231f20;stroke-width:0.141111;stroke-linecap:butt;stroke-linejoin:miter;stroke-miterlimit:4;stroke-dasharray:1.76318, 1.05798;stroke-dashoffset:0;stroke-opacity:1"
         id="path14662" />
      <path
         d="m 258.06238,-17.689677 h 5.33541"
         style="fill:none;stroke:#231f20;stroke-width:0.105833;stroke-linecap:butt;stroke-linejoin:miter;stroke-miterlimit:3.864;stroke-dasharray:none;stroke-opacity:1"
         id="path14670" />
      <path
         d="m 228.01277,15.473903 h 5.33329"
         style="fill:none;stroke:#231f20;stroke-width:0.105833;stroke-linecap:butt;stroke-linejoin:miter;stroke-miterlimit:3.864;stroke-dasharray:none;stroke-opacity:1"
         id="path14678" />
      <path
         d="m 294.63379,-11.355901 h -0.27411 v 2.02565 h 1.30069 v -0.2427112 h -1.02658 z m -0.69427,0.609247 c -0.0392,-0.338314 -0.31044,-0.662869 -0.8322,-0.662869 -0.58949,0 -0.94544,0.4318 -0.94544,1.055158 0,0.7785806 0.45155,1.0777362 0.91122,1.0777362 0.15275,0 0.77329,-0.033867 0.88653,-0.7983362 h -0.26529 c -0.0935,0.4709584 -0.40111,0.5556251 -0.57891,0.5556251 -0.502,0 -0.67098,-0.3665361 -0.67098,-0.8434921 0,-0.533047 0.29633,-0.80398 0.66287,-0.80398 0.19438,0 0.49071,0.06526 0.56691,0.420158 h 0.26529"
         style="fill:#231f20;fill-opacity:1;fill-rule:nonzero;stroke:none;stroke-width:0.352778"
         id="path14686" />
      <path
         d="m 298.27058,-10.997832 0.30515,0.09596 -0.18944,0.259644 0.13829,0.09596 0.1838,-0.265289 0.18274,0.265289 0.13864,-0.09596 -0.18944,-0.259644 0.30515,-0.09596 -0.0564,-0.155222 -0.29598,0.107244 v -0.310444 h -0.16968 v 0.310444 l -0.29634,-0.107244 z m -1.99743,0.956381 0.31891,-0.3048 0.70803,1.0159995 h 0.35525 l -0.86607,-1.2075585 0.84419,-0.818444 h -0.37853 l -0.98178,0.98178 v -0.98178 h -0.2734 v 2.0260025 h 0.2734 v -0.7111995"
         style="fill:#231f20;fill-opacity:1;fill-rule:nonzero;stroke:none;stroke-width:0.352778"
         id="path14690" />
      <path
         d="m 260.44539,-17.08678 h -0.27376 v 2.02565 h 1.3007 v -0.242711 h -1.02694 z m -0.69356,0.609247 c -0.0399,-0.338314 -0.31045,-0.662869 -0.83291,-0.662869 -0.58949,0 -0.94474,0.4318 -0.94474,1.055158 0,0.778581 0.4512,1.077736 0.91123,1.077736 0.15204,0 0.77293,-0.03387 0.88582,-0.798336 h -0.26529 c -0.0928,0.470958 -0.4004,0.555625 -0.5782,0.555625 -0.50236,0 -0.67169,-0.366536 -0.67169,-0.843492 0,-0.533047 0.29633,-0.80398 0.66287,-0.80398 0.19473,0 0.49142,0.06491 0.56762,0.420158 h 0.26529"
         style="fill:#231f20;fill-opacity:1;fill-rule:nonzero;stroke:none;stroke-width:0.352778"
         id="path14694" />
      <path
         d="m 262.08546,-15.771977 0.31856,-0.3048 0.70802,1.015647 h 0.35596 l -0.86607,-1.207558 0.84314,-0.818092 h -0.37818 l -0.98143,0.981781 v -0.981781 h -0.27411 v 2.02565 h 0.27411 v -0.710847"
         style="fill:#231f20;fill-opacity:1;fill-rule:nonzero;stroke:none;stroke-width:0.352778"
         id="path14698" />
      <path
         d="m 229.71528,-14.442001 h -0.27411 v 2.02565 h 1.30105 v -0.242711 h -1.02694 z m -0.69427,0.6096 c -0.0391,-0.338667 -0.31044,-0.663222 -0.8322,-0.663222 -0.58949,0 -0.94509,0.4318 -0.94509,1.055158 0,0.778933 0.4512,1.077736 0.91122,1.077736 0.1524,0 0.77294,-0.03387 0.88618,-0.798336 h -0.26529 c -0.0935,0.470958 -0.40111,0.555625 -0.57891,0.555625 -0.502,0 -0.67098,-0.366536 -0.67098,-0.843492 0,-0.533047 0.29633,-0.80398 0.66287,-0.80398 0.19438,0 0.49071,0.06491 0.56691,0.420511 h 0.26529"
         style="fill:#231f20;fill-opacity:1;fill-rule:nonzero;stroke:none;stroke-width:0.352778"
         id="path14702" />
      <path
         d="m 231.35533,-13.127202 0.31856,-0.3048 0.70802,1.015647 h 0.35596 l -0.86607,-1.207558 0.84349,-0.818092 h -0.37853 l -0.98143,0.981781 v -0.981781 h -0.27376 v 2.02565 h 0.27376 v -0.710847"
         style="fill:#231f20;fill-opacity:1;fill-rule:nonzero;stroke:none;stroke-width:0.352778"
         id="path14706" />
      <path
         d="m 268.31868,43.448474 c 0.30445,-0.434622 0.4766,-0.835378 0.4766,-1.331736 0,-0.527403 -0.19191,-0.880181 -0.48542,-1.320447 h -0.16616 c 0.22543,0.442736 0.38629,0.787047 0.38629,1.252361 0,0.677333 -0.14393,0.947914 -0.38382,1.399822 z m -0.63782,-1.326444 c 0,0.324555 -0.12665,0.570441 -0.39794,0.570441 -0.15804,0 -0.40322,-0.104422 -0.40322,-0.497064 0,-0.239536 0.0392,-0.62618 0.39758,-0.62618 0.38382,0 0.40358,0.364066 0.40358,0.552803 z m -0.80398,0.742244 V 42.68083 h 0.005 c 0.0512,0.0822 0.15557,0.225777 0.40675,0.225777 0.502,0 0.64876,-0.470958 0.64876,-0.823736 0,-0.414866 -0.2226,-0.736247 -0.61524,-0.736247 -0.17216,0.0025 -0.31892,0.07338 -0.42616,0.2286 h -0.005 v -0.7366 h -0.24836 v 2.02565 z m -0.66887,-2.067983 c -0.30445,0.434269 -0.4766,0.835377 -0.4766,1.331383 0,0.528108 0.19191,0.880533 0.48542,1.3208 h 0.16616 c -0.22543,-0.443442 -0.38629,-0.786694 -0.38629,-1.253067 0,-0.67698 0.14393,-0.947561 0.38382,-1.399116 h -0.17251"
         style="fill:#231f20;fill-opacity:1;fill-rule:nonzero;stroke:none;stroke-width:0.352778"
         id="path14714" />
    </g>
  </g>
</svg>
