<?xml version="1.0" encoding="UTF-8" standalone="no"?>
<!-- Created with Inkscape (http://www.inkscape.org/) -->

<svg
   version="1.1"
   id="svg2"
   xml:space="preserve"
   width="337.33334"
   height="106.66667"
   viewBox="0 0 337.33334 106.66667"
   sodipodi:docname="equivalencia_Latch_SR_NANDNOR.eps"
   xmlns:inkscape="http://www.inkscape.org/namespaces/inkscape"
   xmlns:sodipodi="http://sodipodi.sourceforge.net/DTD/sodipodi-0.dtd"
   xmlns="http://www.w3.org/2000/svg"
   xmlns:svg="http://www.w3.org/2000/svg"><defs
     id="defs6" /><sodipodi:namedview
     id="namedview4"
     pagecolor="#ffffff"
     bordercolor="#666666"
     borderopacity="1.0"
     inkscape:pageshadow="2"
     inkscape:pageopacity="0.0"
     inkscape:pagecheckerboard="0" /><g
     id="g8"
     inkscape:groupmode="layer"
     inkscape:label="ink_ext_XXXXXX"
     transform="matrix(1.3333333,0,0,-1.3333333,0,106.66667)"><g
       id="g10"
       transform="scale(0.1)"><path
         d="m 842.5,160 v 120 l -480,180 v 120"
         style="fill:none;stroke:#000000;stroke-width:9.75;stroke-linecap:round;stroke-linejoin:miter;stroke-miterlimit:6;stroke-dasharray:none;stroke-opacity:1"
         id="path12" /><path
         d="m 962.5,640 h -120 V 520 L 362.5,340 V 220"
         style="fill:none;stroke:#000000;stroke-width:9.75;stroke-linecap:round;stroke-linejoin:miter;stroke-miterlimit:6;stroke-dasharray:none;stroke-opacity:1"
         id="path14" /><path
         d="m 962.5,160 h -120"
         style="fill:none;stroke:#000000;stroke-width:9.75;stroke-linecap:round;stroke-linejoin:miter;stroke-miterlimit:6;stroke-dasharray:none;stroke-opacity:1"
         id="path16" /><path
         d="m 865,640 c 0,12.426 -10.074,22.5 -22.5,22.5 -12.426,0 -22.5,-10.074 -22.5,-22.5 0,-12.426 10.074,-22.5 22.5,-22.5 12.426,0 22.5,10.074 22.5,22.5"
         style="fill:#000000;fill-opacity:1;fill-rule:evenodd;stroke:none"
         id="path18" /><path
         d="m 865,160 c 0,12.426 -10.074,22.5 -22.5,22.5 -12.426,0 -22.5,-10.074 -22.5,-22.5 0,-12.426 10.074,-22.5 22.5,-22.5 12.426,0 22.5,10.074 22.5,22.5"
         style="fill:#000000;fill-opacity:1;fill-rule:evenodd;stroke:none"
         id="path20" /><path
         d="m 122.5,700 h 240"
         style="fill:none;stroke:#000000;stroke-width:9.75;stroke-linecap:round;stroke-linejoin:miter;stroke-miterlimit:6;stroke-dasharray:none;stroke-opacity:1"
         id="path22" /><path
         d="m 122.5,100 h 240"
         style="fill:none;stroke:#000000;stroke-width:9.75;stroke-linecap:round;stroke-linejoin:miter;stroke-miterlimit:6;stroke-dasharray:none;stroke-opacity:1"
         id="path24" /><path
         d="m 1082.5,160 h -120"
         style="fill:none;stroke:#000000;stroke-width:9.75;stroke-linecap:round;stroke-linejoin:miter;stroke-miterlimit:6;stroke-dasharray:none;stroke-opacity:1"
         id="path26" /><path
         d="m 1082.5,640 h -120"
         style="fill:none;stroke:#000000;stroke-width:9.75;stroke-linecap:round;stroke-linejoin:miter;stroke-miterlimit:6;stroke-dasharray:none;stroke-opacity:1"
         id="path28" /><path
         d="m 572.5,760 h -120"
         style="fill:none;stroke:#000000;stroke-width:9.75;stroke-linecap:round;stroke-linejoin:miter;stroke-miterlimit:6;stroke-dasharray:none;stroke-opacity:1"
         id="path30" /><path
         d="m 572.5,520 h -120"
         style="fill:none;stroke:#000000;stroke-width:9.75;stroke-linecap:round;stroke-linejoin:miter;stroke-miterlimit:6;stroke-dasharray:none;stroke-opacity:1"
         id="path32" /><path
         d="m 452.5,520 c 60,60 60,180 0,240"
         style="fill:none;stroke:#000000;stroke-width:9.75;stroke-linecap:round;stroke-linejoin:miter;stroke-miterlimit:6;stroke-dasharray:none;stroke-opacity:1"
         id="path34" /><path
         d="m 572.5,760 c 60,0 120,-60 150,-120"
         style="fill:none;stroke:#000000;stroke-width:9.75;stroke-linecap:round;stroke-linejoin:miter;stroke-miterlimit:6;stroke-dasharray:none;stroke-opacity:1"
         id="path36" /><path
         d="m 782.5,640 c 0,16.566 -13.434,30 -30,30 -16.566,0 -30,-13.434 -30,-30 0,-16.566 13.434,-30 30,-30 16.566,0 30,13.434 30,30"
         style="fill:none;stroke:#000000;stroke-width:9.75;stroke-linecap:round;stroke-linejoin:miter;stroke-miterlimit:6;stroke-dasharray:none;stroke-opacity:1"
         id="path38" /><path
         d="m 842.5,640 h -60"
         style="fill:none;stroke:#000000;stroke-width:9.75;stroke-linecap:round;stroke-linejoin:miter;stroke-miterlimit:6;stroke-dasharray:none;stroke-opacity:1"
         id="path40" /><path
         d="m 572.5,520 c 60,0 120,60 150,120"
         style="fill:none;stroke:#000000;stroke-width:9.75;stroke-linecap:round;stroke-linejoin:miter;stroke-miterlimit:6;stroke-dasharray:none;stroke-opacity:1"
         id="path42" /><path
         d="m 362.5,700 h 120"
         style="fill:none;stroke:#000000;stroke-width:9.75;stroke-linecap:round;stroke-linejoin:miter;stroke-miterlimit:6;stroke-dasharray:none;stroke-opacity:1"
         id="path44" /><path
         d="m 362.5,580 h 120"
         style="fill:none;stroke:#000000;stroke-width:9.75;stroke-linecap:round;stroke-linejoin:miter;stroke-miterlimit:6;stroke-dasharray:none;stroke-opacity:1"
         id="path46" /><path
         d="m 572.5,280 h -120"
         style="fill:none;stroke:#000000;stroke-width:9.75;stroke-linecap:round;stroke-linejoin:miter;stroke-miterlimit:6;stroke-dasharray:none;stroke-opacity:1"
         id="path48" /><path
         d="m 572.5,40 h -120"
         style="fill:none;stroke:#000000;stroke-width:9.75;stroke-linecap:round;stroke-linejoin:miter;stroke-miterlimit:6;stroke-dasharray:none;stroke-opacity:1"
         id="path50" /><path
         d="m 452.5,40 c 60,60 60,180 0,240"
         style="fill:none;stroke:#000000;stroke-width:9.75;stroke-linecap:round;stroke-linejoin:miter;stroke-miterlimit:6;stroke-dasharray:none;stroke-opacity:1"
         id="path52" /><path
         d="m 572.5,280 c 60,0 120,-60 150,-120"
         style="fill:none;stroke:#000000;stroke-width:9.75;stroke-linecap:round;stroke-linejoin:miter;stroke-miterlimit:6;stroke-dasharray:none;stroke-opacity:1"
         id="path54" /><path
         d="m 782.5,160 c 0,16.566 -13.434,30 -30,30 -16.566,0 -30,-13.434 -30,-30 0,-16.566 13.434,-30 30,-30 16.566,0 30,13.434 30,30"
         style="fill:none;stroke:#000000;stroke-width:9.75;stroke-linecap:round;stroke-linejoin:miter;stroke-miterlimit:6;stroke-dasharray:none;stroke-opacity:1"
         id="path56" /><path
         d="m 842.5,160 h -60"
         style="fill:none;stroke:#000000;stroke-width:9.75;stroke-linecap:round;stroke-linejoin:miter;stroke-miterlimit:6;stroke-dasharray:none;stroke-opacity:1"
         id="path58" /><path
         d="m 572.5,40 c 60,0 120,60 150,120"
         style="fill:none;stroke:#000000;stroke-width:9.75;stroke-linecap:round;stroke-linejoin:miter;stroke-miterlimit:6;stroke-dasharray:none;stroke-opacity:1"
         id="path60" /><path
         d="m 362.5,220 h 120"
         style="fill:none;stroke:#000000;stroke-width:9.75;stroke-linecap:round;stroke-linejoin:miter;stroke-miterlimit:6;stroke-dasharray:none;stroke-opacity:1"
         id="path62" /><path
         d="m 362.5,100 h 120"
         style="fill:none;stroke:#000000;stroke-width:9.75;stroke-linecap:round;stroke-linejoin:miter;stroke-miterlimit:6;stroke-dasharray:none;stroke-opacity:1"
         id="path64" /><g
         id="g66"
         transform="scale(10)"><text
           transform="matrix(1,0,0,-1,4.15625,65.6547)"
           style="font-variant:normal;font-weight:normal;font-size:12px;font-family:Helvetica;-inkscape-font-specification:Helvetica;writing-mode:lr-tb;fill:#000000;fill-opacity:1;fill-rule:nonzero;stroke:none"
           id="text74"><tspan
             x="0"
             y="0"
             id="tspan68">R</tspan><tspan
             x="0.69062501"
             y="60.071098"
             id="tspan70">S</tspan><tspan
             x="103.64062"
             y="6.0711002"
             id="tspan72">Q</tspan></text></g><path
         d="m 1077.97,225.988 h 93.36"
         style="fill:none;stroke:#000000;stroke-width:6.00469;stroke-linecap:round;stroke-linejoin:miter;stroke-miterlimit:6;stroke-dasharray:none;stroke-opacity:1"
         id="path76" /><g
         id="g78"
         transform="scale(10)"><text
           transform="matrix(1,0,0,-1,107.797,11.5836)"
           style="font-variant:normal;font-weight:normal;font-size:12px;font-family:Helvetica;-inkscape-font-specification:Helvetica;writing-mode:lr-tb;fill:#000000;fill-opacity:1;fill-rule:nonzero;stroke:none"
           id="text86"><tspan
             x="0"
             y="0"
             id="tspan80">Q</tspan><tspan
             x="-55.007"
             y="-48.190601"
             id="tspan82">1</tspan><tspan
             x="-56.389809"
             y="-0.19059999"
             id="tspan84">2</tspan></text></g><path
         d="m 2162.5,160 v 120 l -480,180 v 120"
         style="fill:none;stroke:#000000;stroke-width:9.75;stroke-linecap:round;stroke-linejoin:miter;stroke-miterlimit:6;stroke-dasharray:none;stroke-opacity:1"
         id="path88" /><path
         d="m 2282.5,640 h -120 V 520 l -480,-180 V 220"
         style="fill:none;stroke:#000000;stroke-width:9.75;stroke-linecap:round;stroke-linejoin:miter;stroke-miterlimit:6;stroke-dasharray:none;stroke-opacity:1"
         id="path90" /><path
         d="m 2282.5,160 h -120"
         style="fill:none;stroke:#000000;stroke-width:9.75;stroke-linecap:round;stroke-linejoin:miter;stroke-miterlimit:6;stroke-dasharray:none;stroke-opacity:1"
         id="path92" /><path
         d="m 2185,640 c 0,12.426 -10.07,22.5 -22.5,22.5 -12.43,0 -22.5,-10.074 -22.5,-22.5 0,-12.426 10.07,-22.5 22.5,-22.5 12.43,0 22.5,10.074 22.5,22.5"
         style="fill:#000000;fill-opacity:1;fill-rule:evenodd;stroke:none"
         id="path94" /><path
         d="m 2185,160 c 0,12.426 -10.07,22.5 -22.5,22.5 -12.43,0 -22.5,-10.074 -22.5,-22.5 0,-12.426 10.07,-22.5 22.5,-22.5 12.43,0 22.5,10.074 22.5,22.5"
         style="fill:#000000;fill-opacity:1;fill-rule:evenodd;stroke:none"
         id="path96" /><path
         d="m 1442.5,700 h 240"
         style="fill:none;stroke:#000000;stroke-width:9.75;stroke-linecap:round;stroke-linejoin:miter;stroke-miterlimit:6;stroke-dasharray:none;stroke-opacity:1"
         id="path98" /><path
         d="m 1442.5,100 h 240"
         style="fill:none;stroke:#000000;stroke-width:9.75;stroke-linecap:round;stroke-linejoin:miter;stroke-miterlimit:6;stroke-dasharray:none;stroke-opacity:1"
         id="path100" /><path
         d="m 2402.5,160 h -120"
         style="fill:none;stroke:#000000;stroke-width:9.75;stroke-linecap:round;stroke-linejoin:miter;stroke-miterlimit:6;stroke-dasharray:none;stroke-opacity:1"
         id="path102" /><path
         d="m 2402.5,640 h -120"
         style="fill:none;stroke:#000000;stroke-width:9.75;stroke-linecap:round;stroke-linejoin:miter;stroke-miterlimit:6;stroke-dasharray:none;stroke-opacity:1"
         id="path104" /><path
         d="m 1361.56,165.254 h 86.64"
         style="fill:none;stroke:#000000;stroke-width:6.00469;stroke-linecap:round;stroke-linejoin:miter;stroke-miterlimit:6;stroke-dasharray:none;stroke-opacity:1"
         id="path106" /><g
         id="g108"
         transform="scale(10)"><text
           transform="matrix(1,0,0,-1,136.156,5.65469)"
           style="font-variant:normal;font-weight:normal;font-size:12px;font-family:Helvetica;-inkscape-font-specification:Helvetica;writing-mode:lr-tb;fill:#000000;fill-opacity:1;fill-rule:nonzero;stroke:none"
           id="text112"><tspan
             x="0"
             y="0"
             id="tspan110">R</tspan></text></g><path
         d="m 1368.47,765.988 h 80.04"
         style="fill:none;stroke:#000000;stroke-width:6.00469;stroke-linecap:round;stroke-linejoin:miter;stroke-miterlimit:6;stroke-dasharray:none;stroke-opacity:1"
         id="path114" /><g
         id="g116"
         transform="scale(10)"><text
           transform="matrix(1,0,0,-1,136.847,65.5836)"
           style="font-variant:normal;font-weight:normal;font-size:12px;font-family:Helvetica;-inkscape-font-specification:Helvetica;writing-mode:lr-tb;fill:#000000;fill-opacity:1;fill-rule:nonzero;stroke:none"
           id="text122"><tspan
             x="0"
             y="0"
             id="tspan118">S</tspan><tspan
             x="102.95"
             y="6"
             id="tspan120">Q</tspan></text></g><path
         d="m 2397.97,225.988 h 93.36"
         style="fill:none;stroke:#000000;stroke-width:6.00469;stroke-linecap:round;stroke-linejoin:miter;stroke-miterlimit:6;stroke-dasharray:none;stroke-opacity:1"
         id="path124" /><g
         id="g126"
         transform="scale(10)"><text
           transform="matrix(1,0,0,-1,239.797,11.5836)"
           style="font-variant:normal;font-weight:normal;font-size:12px;font-family:Helvetica;-inkscape-font-specification:Helvetica;writing-mode:lr-tb;fill:#000000;fill-opacity:1;fill-rule:nonzero;stroke:none"
           id="text134"><tspan
             x="0"
             y="0"
             id="tspan128">Q</tspan><tspan
             x="-55.007"
             y="-48.190601"
             id="tspan130">1</tspan><tspan
             x="-56.389809"
             y="-0.19059999"
             id="tspan132">2</tspan></text></g><path
         d="m 1952.5,520 c 60,0 90,60 90,120"
         style="fill:none;stroke:#000000;stroke-width:9.75;stroke-linecap:round;stroke-linejoin:miter;stroke-miterlimit:6;stroke-dasharray:none;stroke-opacity:1"
         id="path136" /><path
         d="m 2162.5,640 h -60"
         style="fill:none;stroke:#000000;stroke-width:9.75;stroke-linecap:round;stroke-linejoin:miter;stroke-miterlimit:6;stroke-dasharray:none;stroke-opacity:1"
         id="path138" /><path
         d="m 1682.5,700 h 120"
         style="fill:none;stroke:#000000;stroke-width:9.75;stroke-linecap:round;stroke-linejoin:miter;stroke-miterlimit:6;stroke-dasharray:none;stroke-opacity:1"
         id="path140" /><path
         d="m 1682.5,580 h 120"
         style="fill:none;stroke:#000000;stroke-width:9.75;stroke-linecap:round;stroke-linejoin:miter;stroke-miterlimit:6;stroke-dasharray:none;stroke-opacity:1"
         id="path142" /><path
         d="m 1952.5,760 c 60,0 90,-60 90,-120"
         style="fill:none;stroke:#000000;stroke-width:9.75;stroke-linecap:round;stroke-linejoin:miter;stroke-miterlimit:6;stroke-dasharray:none;stroke-opacity:1"
         id="path144" /><path
         d="m 1952.5,520 h -150 v 240 h 150"
         style="fill:none;stroke:#000000;stroke-width:9.75;stroke-linecap:round;stroke-linejoin:miter;stroke-miterlimit:6;stroke-dasharray:none;stroke-opacity:1"
         id="path146" /><path
         d="m 2102.5,640 c 0,16.566 -13.43,30 -30,30 -16.57,0 -30,-13.434 -30,-30 0,-16.566 13.43,-30 30,-30 16.57,0 30,13.434 30,30"
         style="fill:none;stroke:#000000;stroke-width:9.75;stroke-linecap:round;stroke-linejoin:miter;stroke-miterlimit:6;stroke-dasharray:none;stroke-opacity:1"
         id="path148" /><path
         d="m 1952.5,40 c 60,0 90,60 90,120"
         style="fill:none;stroke:#000000;stroke-width:9.75;stroke-linecap:round;stroke-linejoin:miter;stroke-miterlimit:6;stroke-dasharray:none;stroke-opacity:1"
         id="path150" /><path
         d="m 2162.5,160 h -60"
         style="fill:none;stroke:#000000;stroke-width:9.75;stroke-linecap:round;stroke-linejoin:miter;stroke-miterlimit:6;stroke-dasharray:none;stroke-opacity:1"
         id="path152" /><path
         d="m 1682.5,220 h 120"
         style="fill:none;stroke:#000000;stroke-width:9.75;stroke-linecap:round;stroke-linejoin:miter;stroke-miterlimit:6;stroke-dasharray:none;stroke-opacity:1"
         id="path154" /><path
         d="m 1682.5,100 h 120"
         style="fill:none;stroke:#000000;stroke-width:9.75;stroke-linecap:round;stroke-linejoin:miter;stroke-miterlimit:6;stroke-dasharray:none;stroke-opacity:1"
         id="path156" /><path
         d="m 1952.5,280 c 60,0 90,-60 90,-120"
         style="fill:none;stroke:#000000;stroke-width:9.75;stroke-linecap:round;stroke-linejoin:miter;stroke-miterlimit:6;stroke-dasharray:none;stroke-opacity:1"
         id="path158" /><path
         d="m 1952.5,40 h -150 v 240 h 150"
         style="fill:none;stroke:#000000;stroke-width:9.75;stroke-linecap:round;stroke-linejoin:miter;stroke-miterlimit:6;stroke-dasharray:none;stroke-opacity:1"
         id="path160" /><path
         d="m 2102.5,160 c 0,16.566 -13.43,30 -30,30 -16.57,0 -30,-13.434 -30,-30 0,-16.566 13.43,-30 30,-30 16.57,0 30,13.434 30,30"
         style="fill:none;stroke:#000000;stroke-width:9.75;stroke-linecap:round;stroke-linejoin:miter;stroke-miterlimit:6;stroke-dasharray:none;stroke-opacity:1"
         id="path162" /></g></g></svg>
