<?xml version="1.0" encoding="UTF-8" standalone="no"?>
<!-- Created with Inkscape (http://www.inkscape.org/) -->

<svg
   version="1.1"
   id="svg2"
   xml:space="preserve"
   width="420"
   height="132"
   viewBox="0 0 420 132"
   sodipodi:docname="Latch_D.eps"
   xmlns:inkscape="http://www.inkscape.org/namespaces/inkscape"
   xmlns:sodipodi="http://sodipodi.sourceforge.net/DTD/sodipodi-0.dtd"
   xmlns="http://www.w3.org/2000/svg"
   xmlns:svg="http://www.w3.org/2000/svg"><defs
     id="defs6" /><sodipodi:namedview
     id="namedview4"
     pagecolor="#ffffff"
     bordercolor="#666666"
     borderopacity="1.0"
     inkscape:pageshadow="2"
     inkscape:pageopacity="0.0"
     inkscape:pagecheckerboard="0" /><g
     id="g8"
     inkscape:groupmode="layer"
     inkscape:label="ink_ext_XXXXXX"
     transform="matrix(1.3333333,0,0,-1.3333333,0,132)"><g
       id="g10"
       transform="scale(0.1)"><path
         d="m 2781.25,280 v 120 l -480,180 v 120"
         style="fill:none;stroke:#000000;stroke-width:9.75;stroke-linecap:round;stroke-linejoin:miter;stroke-miterlimit:6;stroke-dasharray:none;stroke-opacity:1"
         id="path12" /><path
         d="m 2901.25,760 h -120 V 640 l -480,-180 V 340"
         style="fill:none;stroke:#000000;stroke-width:9.75;stroke-linecap:round;stroke-linejoin:miter;stroke-miterlimit:6;stroke-dasharray:none;stroke-opacity:1"
         id="path14" /><path
         d="m 2901.25,280 h -120"
         style="fill:none;stroke:#000000;stroke-width:9.75;stroke-linecap:round;stroke-linejoin:miter;stroke-miterlimit:6;stroke-dasharray:none;stroke-opacity:1"
         id="path16" /><path
         d="m 2803.75,760 c 0,12.426 -10.07,22.5 -22.5,22.5 -12.43,0 -22.5,-10.074 -22.5,-22.5 0,-12.426 10.07,-22.5 22.5,-22.5 12.43,0 22.5,10.074 22.5,22.5"
         style="fill:#000000;fill-opacity:1;fill-rule:evenodd;stroke:none"
         id="path18" /><path
         d="m 2803.75,280 c 0,12.426 -10.07,22.5 -22.5,22.5 -12.43,0 -22.5,-10.074 -22.5,-22.5 0,-12.426 10.07,-22.5 22.5,-22.5 12.43,0 22.5,10.074 22.5,22.5"
         style="fill:#000000;fill-opacity:1;fill-rule:evenodd;stroke:none"
         id="path20" /><path
         d="m 2061.25,820 h 240"
         style="fill:none;stroke:#000000;stroke-width:9.75;stroke-linecap:round;stroke-linejoin:miter;stroke-miterlimit:6;stroke-dasharray:none;stroke-opacity:1"
         id="path22" /><path
         d="m 2061.25,220 h 240"
         style="fill:none;stroke:#000000;stroke-width:9.75;stroke-linecap:round;stroke-linejoin:miter;stroke-miterlimit:6;stroke-dasharray:none;stroke-opacity:1"
         id="path24" /><path
         d="m 3021.25,280 h -120"
         style="fill:none;stroke:#000000;stroke-width:9.75;stroke-linecap:round;stroke-linejoin:miter;stroke-miterlimit:6;stroke-dasharray:none;stroke-opacity:1"
         id="path26" /><path
         d="m 3021.25,760 h -120"
         style="fill:none;stroke:#000000;stroke-width:9.75;stroke-linecap:round;stroke-linejoin:miter;stroke-miterlimit:6;stroke-dasharray:none;stroke-opacity:1"
         id="path28" /><g
         id="g30"
         transform="scale(10)"><text
           transform="matrix(1,0,0,-1,6.17344,83.6547)"
           style="font-variant:normal;font-weight:normal;font-size:12px;font-family:Helvetica;-inkscape-font-specification:Helvetica;writing-mode:lr-tb;fill:#000000;fill-opacity:1;fill-rule:nonzero;stroke:none"
           id="text36"><tspan
             x="0"
             y="0"
             id="tspan32">D</tspan><tspan
             x="295.49799"
             y="12.0711"
             id="tspan34">Q</tspan></text></g><path
         d="m 3016.72,345.988 h 93.36"
         style="fill:none;stroke:#000000;stroke-width:6.00469;stroke-linecap:round;stroke-linejoin:miter;stroke-miterlimit:6;stroke-dasharray:none;stroke-opacity:1"
         id="path38" /><g
         id="g40"
         transform="scale(10)"><text
           transform="matrix(1,0,0,-1,301.672,23.5836)"
           style="font-variant:normal;font-weight:normal;font-size:12px;font-family:Helvetica;-inkscape-font-specification:Helvetica;writing-mode:lr-tb;fill:#000000;fill-opacity:1;fill-rule:nonzero;stroke:none"
           id="text48"><tspan
             x="0"
             y="0"
             id="tspan42">Q</tspan><tspan
             x="-55.007"
             y="-48.190601"
             id="tspan44">1</tspan><tspan
             x="-56.389809"
             y="-0.19059999"
             id="tspan46">2</tspan></text></g><path
         d="m 2571.25,640 c 60,0 90,60 90,120"
         style="fill:none;stroke:#000000;stroke-width:9.75;stroke-linecap:round;stroke-linejoin:miter;stroke-miterlimit:6;stroke-dasharray:none;stroke-opacity:1"
         id="path50" /><path
         d="m 2781.25,760 h -60"
         style="fill:none;stroke:#000000;stroke-width:9.75;stroke-linecap:round;stroke-linejoin:miter;stroke-miterlimit:6;stroke-dasharray:none;stroke-opacity:1"
         id="path52" /><path
         d="m 2301.25,820 h 120"
         style="fill:none;stroke:#000000;stroke-width:9.75;stroke-linecap:round;stroke-linejoin:miter;stroke-miterlimit:6;stroke-dasharray:none;stroke-opacity:1"
         id="path54" /><path
         d="m 2301.25,700 h 120"
         style="fill:none;stroke:#000000;stroke-width:9.75;stroke-linecap:round;stroke-linejoin:miter;stroke-miterlimit:6;stroke-dasharray:none;stroke-opacity:1"
         id="path56" /><path
         d="m 2571.25,880 c 60,0 90,-60 90,-120"
         style="fill:none;stroke:#000000;stroke-width:9.75;stroke-linecap:round;stroke-linejoin:miter;stroke-miterlimit:6;stroke-dasharray:none;stroke-opacity:1"
         id="path58" /><path
         d="m 2571.25,640 h -150 v 240 h 150"
         style="fill:none;stroke:#000000;stroke-width:9.75;stroke-linecap:round;stroke-linejoin:miter;stroke-miterlimit:6;stroke-dasharray:none;stroke-opacity:1"
         id="path60" /><path
         d="m 2721.25,760 c 0,16.566 -13.43,30 -30,30 -16.57,0 -30,-13.434 -30,-30 0,-16.566 13.43,-30 30,-30 16.57,0 30,13.434 30,30"
         style="fill:none;stroke:#000000;stroke-width:9.75;stroke-linecap:round;stroke-linejoin:miter;stroke-miterlimit:6;stroke-dasharray:none;stroke-opacity:1"
         id="path62" /><path
         d="m 2571.25,160 c 60,0 90,60 90,120"
         style="fill:none;stroke:#000000;stroke-width:9.75;stroke-linecap:round;stroke-linejoin:miter;stroke-miterlimit:6;stroke-dasharray:none;stroke-opacity:1"
         id="path64" /><path
         d="m 2781.25,280 h -60"
         style="fill:none;stroke:#000000;stroke-width:9.75;stroke-linecap:round;stroke-linejoin:miter;stroke-miterlimit:6;stroke-dasharray:none;stroke-opacity:1"
         id="path66" /><path
         d="m 2301.25,340 h 120"
         style="fill:none;stroke:#000000;stroke-width:9.75;stroke-linecap:round;stroke-linejoin:miter;stroke-miterlimit:6;stroke-dasharray:none;stroke-opacity:1"
         id="path68" /><path
         d="m 2301.25,220 h 120"
         style="fill:none;stroke:#000000;stroke-width:9.75;stroke-linecap:round;stroke-linejoin:miter;stroke-miterlimit:6;stroke-dasharray:none;stroke-opacity:1"
         id="path70" /><path
         d="m 2571.25,400 c 60,0 90,-60 90,-120"
         style="fill:none;stroke:#000000;stroke-width:9.75;stroke-linecap:round;stroke-linejoin:miter;stroke-miterlimit:6;stroke-dasharray:none;stroke-opacity:1"
         id="path72" /><path
         d="m 2571.25,160 h -150 v 240 h 150"
         style="fill:none;stroke:#000000;stroke-width:9.75;stroke-linecap:round;stroke-linejoin:miter;stroke-miterlimit:6;stroke-dasharray:none;stroke-opacity:1"
         id="path74" /><path
         d="m 2721.25,280 c 0,16.566 -13.43,30 -30,30 -16.57,0 -30,-13.434 -30,-30 0,-16.566 13.43,-30 30,-30 16.57,0 30,13.434 30,30"
         style="fill:none;stroke:#000000;stroke-width:9.75;stroke-linecap:round;stroke-linejoin:miter;stroke-miterlimit:6;stroke-dasharray:none;stroke-opacity:1"
         id="path76" /><path
         d="m 1671.25,700 c 60,0 90,60 90,120"
         style="fill:none;stroke:#000000;stroke-width:9.75;stroke-linecap:round;stroke-linejoin:miter;stroke-miterlimit:6;stroke-dasharray:none;stroke-opacity:1"
         id="path78" /><path
         d="m 1881.25,820 h -60"
         style="fill:none;stroke:#000000;stroke-width:9.75;stroke-linecap:round;stroke-linejoin:miter;stroke-miterlimit:6;stroke-dasharray:none;stroke-opacity:1"
         id="path80" /><path
         d="m 1401.25,880 h 120"
         style="fill:none;stroke:#000000;stroke-width:9.75;stroke-linecap:round;stroke-linejoin:miter;stroke-miterlimit:6;stroke-dasharray:none;stroke-opacity:1"
         id="path82" /><path
         d="m 1401.25,760 h 120"
         style="fill:none;stroke:#000000;stroke-width:9.75;stroke-linecap:round;stroke-linejoin:miter;stroke-miterlimit:6;stroke-dasharray:none;stroke-opacity:1"
         id="path84" /><path
         d="m 1671.25,940 c 60,0 90,-60 90,-120"
         style="fill:none;stroke:#000000;stroke-width:9.75;stroke-linecap:round;stroke-linejoin:miter;stroke-miterlimit:6;stroke-dasharray:none;stroke-opacity:1"
         id="path86" /><path
         d="m 1671.25,700 h -150 v 240 h 150"
         style="fill:none;stroke:#000000;stroke-width:9.75;stroke-linecap:round;stroke-linejoin:miter;stroke-miterlimit:6;stroke-dasharray:none;stroke-opacity:1"
         id="path88" /><path
         d="m 1821.25,820 c 0,16.566 -13.43,30 -30,30 -16.57,0 -30,-13.434 -30,-30 0,-16.566 13.43,-30 30,-30 16.57,0 30,13.434 30,30"
         style="fill:none;stroke:#000000;stroke-width:9.75;stroke-linecap:round;stroke-linejoin:miter;stroke-miterlimit:6;stroke-dasharray:none;stroke-opacity:1"
         id="path90" /><path
         d="m 1671.25,100 c 60,0 90,60 90,120"
         style="fill:none;stroke:#000000;stroke-width:9.75;stroke-linecap:round;stroke-linejoin:miter;stroke-miterlimit:6;stroke-dasharray:none;stroke-opacity:1"
         id="path92" /><path
         d="m 1881.25,220 h -60"
         style="fill:none;stroke:#000000;stroke-width:9.75;stroke-linecap:round;stroke-linejoin:miter;stroke-miterlimit:6;stroke-dasharray:none;stroke-opacity:1"
         id="path94" /><path
         d="m 1401.25,280 h 120"
         style="fill:none;stroke:#000000;stroke-width:9.75;stroke-linecap:round;stroke-linejoin:miter;stroke-miterlimit:6;stroke-dasharray:none;stroke-opacity:1"
         id="path96" /><path
         d="m 1401.25,160 h 120"
         style="fill:none;stroke:#000000;stroke-width:9.75;stroke-linecap:round;stroke-linejoin:miter;stroke-miterlimit:6;stroke-dasharray:none;stroke-opacity:1"
         id="path98" /><path
         d="m 1671.25,340 c 60,0 90,-60 90,-120"
         style="fill:none;stroke:#000000;stroke-width:9.75;stroke-linecap:round;stroke-linejoin:miter;stroke-miterlimit:6;stroke-dasharray:none;stroke-opacity:1"
         id="path100" /><path
         d="m 1671.25,100 h -150 v 240 h 150"
         style="fill:none;stroke:#000000;stroke-width:9.75;stroke-linecap:round;stroke-linejoin:miter;stroke-miterlimit:6;stroke-dasharray:none;stroke-opacity:1"
         id="path102" /><path
         d="m 1821.25,220 c 0,16.566 -13.43,30 -30,30 -16.57,0 -30,-13.434 -30,-30 0,-16.566 13.43,-30 30,-30 16.57,0 30,13.434 30,30"
         style="fill:none;stroke:#000000;stroke-width:9.75;stroke-linecap:round;stroke-linejoin:miter;stroke-miterlimit:6;stroke-dasharray:none;stroke-opacity:1"
         id="path104" /><path
         d="m 2121.25,820 h -240"
         style="fill:none;stroke:#000000;stroke-width:9.75;stroke-linecap:round;stroke-linejoin:miter;stroke-miterlimit:6;stroke-dasharray:none;stroke-opacity:1"
         id="path106" /><path
         d="m 2121.25,220 h -240"
         style="fill:none;stroke:#000000;stroke-width:9.75;stroke-linecap:round;stroke-linejoin:miter;stroke-miterlimit:6;stroke-dasharray:none;stroke-opacity:1"
         id="path108" /><path
         d="m 1461.25,280 h -180 v 480 h 120"
         style="fill:none;stroke:#000000;stroke-width:9.75;stroke-linecap:round;stroke-linejoin:miter;stroke-miterlimit:6;stroke-dasharray:none;stroke-opacity:1"
         id="path110" /><path
         d="m 1401.25,880 h -420"
         style="fill:none;stroke:#000000;stroke-width:9.75;stroke-linecap:round;stroke-linejoin:miter;stroke-miterlimit:6;stroke-dasharray:none;stroke-opacity:1"
         id="path112" /><path
         d="m 1401.25,160 h -420"
         style="fill:none;stroke:#000000;stroke-width:9.75;stroke-linecap:round;stroke-linejoin:miter;stroke-miterlimit:6;stroke-dasharray:none;stroke-opacity:1"
         id="path114" /><path
         d="m 1281.25,520 h -300"
         style="fill:none;stroke:#000000;stroke-width:9.75;stroke-linecap:round;stroke-linejoin:miter;stroke-miterlimit:6;stroke-dasharray:none;stroke-opacity:1"
         id="path116" /><path
         d="m 1303.75,520 c 0,12.426 -10.07,22.5 -22.5,22.5 -12.43,0 -22.5,-10.074 -22.5,-22.5 0,-12.426 10.07,-22.5 22.5,-22.5 12.43,0 22.5,10.074 22.5,22.5"
         style="fill:#000000;fill-opacity:1;fill-rule:evenodd;stroke:none"
         id="path118" /><g
         id="g120"
         transform="scale(10)"><text
           transform="matrix(1,0,0,-1,4.37578,47.5836)"
           style="font-variant:normal;font-weight:normal;font-size:12px;font-family:Helvetica;-inkscape-font-specification:Helvetica;writing-mode:lr-tb;fill:#000000;fill-opacity:1;fill-rule:nonzero;stroke:none"
           id="text124"><tspan
             x="0"
             y="0"
             id="tspan122">C</tspan></text></g><path
         d="m 2087.09,990.152 h 80.04"
         style="fill:none;stroke:#000000;stroke-width:6.00467;stroke-linecap:round;stroke-linejoin:miter;stroke-miterlimit:6;stroke-dasharray:none;stroke-opacity:1"
         id="path126" /><g
         id="g128"
         transform="scale(10)"><text
           transform="matrix(1,0,0,-1,208.709,88)"
           style="font-variant:normal;font-weight:normal;font-size:12px;font-family:Helvetica;-inkscape-font-specification:Helvetica;writing-mode:lr-tb;fill:#000000;fill-opacity:1;fill-rule:nonzero;stroke:none"
           id="text132"><tspan
             x="0"
             y="0"
             id="tspan130">S</tspan></text></g><path
         d="m 2086.33,388.707 h 86.64"
         style="fill:none;stroke:#000000;stroke-width:6.00469;stroke-linecap:round;stroke-linejoin:miter;stroke-miterlimit:6;stroke-dasharray:none;stroke-opacity:1"
         id="path134" /><g
         id="g136"
         transform="scale(10)"><text
           transform="matrix(1,0,0,-1,208.633,28)"
           style="font-variant:normal;font-weight:normal;font-size:12px;font-family:Helvetica;-inkscape-font-specification:Helvetica;writing-mode:lr-tb;fill:#000000;fill-opacity:1;fill-rule:nonzero;stroke:none"
           id="text140"><tspan
             x="0"
             y="0"
             id="tspan138">R</tspan></text></g><path
         d="m 711.25,160 h -90"
         style="fill:none;stroke:#000000;stroke-width:9.75;stroke-linecap:round;stroke-linejoin:miter;stroke-miterlimit:6;stroke-dasharray:none;stroke-opacity:1"
         id="path142" /><path
         d="M 711.25,40 V 280"
         style="fill:none;stroke:#000000;stroke-width:9.75;stroke-linecap:round;stroke-linejoin:miter;stroke-miterlimit:6;stroke-dasharray:none;stroke-opacity:1"
         id="path144" /><path
         d="m 711.25,40 150,120 -150,120"
         style="fill:none;stroke:#000000;stroke-width:9.75;stroke-linecap:round;stroke-linejoin:miter;stroke-miterlimit:6;stroke-dasharray:none;stroke-opacity:1"
         id="path146" /><path
         d="m 921.25,160 c 0,16.566 -13.434,30 -30,30 -16.566,0 -30,-13.434 -30,-30 0,-16.566 13.434,-30 30,-30 16.566,0 30,13.434 30,30"
         style="fill:none;stroke:#000000;stroke-width:9.75;stroke-linecap:round;stroke-linejoin:miter;stroke-miterlimit:6;stroke-dasharray:none;stroke-opacity:1"
         id="path148" /><path
         d="m 981.25,160 h -60"
         style="fill:none;stroke:#000000;stroke-width:9.75;stroke-linecap:round;stroke-linejoin:miter;stroke-miterlimit:6;stroke-dasharray:none;stroke-opacity:1"
         id="path150" /><path
         d="m 981.25,880 h -420 V 160"
         style="fill:none;stroke:#000000;stroke-width:9.75;stroke-linecap:round;stroke-linejoin:miter;stroke-miterlimit:6;stroke-dasharray:none;stroke-opacity:1"
         id="path152" /><path
         d="m 1041.25,520 h -840"
         style="fill:none;stroke:#000000;stroke-width:9.75;stroke-linecap:round;stroke-linejoin:miter;stroke-miterlimit:6;stroke-dasharray:none;stroke-opacity:1"
         id="path154" /><path
         d="m 561.25,880 h -360"
         style="fill:none;stroke:#000000;stroke-width:9.75;stroke-linecap:round;stroke-linejoin:miter;stroke-miterlimit:6;stroke-dasharray:none;stroke-opacity:1"
         id="path156" /><path
         d="m 583.75,880 c 0,12.426 -10.074,22.5 -22.5,22.5 -12.426,0 -22.5,-10.074 -22.5,-22.5 0,-12.426 10.074,-22.5 22.5,-22.5 12.426,0 22.5,10.074 22.5,22.5"
         style="fill:#000000;fill-opacity:1;fill-rule:evenodd;stroke:none"
         id="path158" /><path
         d="m 681.25,160 h -120"
         style="fill:none;stroke:#000000;stroke-width:9.75;stroke-linecap:round;stroke-linejoin:miter;stroke-miterlimit:6;stroke-dasharray:none;stroke-opacity:1"
         id="path160" /></g></g></svg>
