<?xml version="1.0" encoding="UTF-8" standalone="no"?>
<!-- Created with Inkscape (http://www.inkscape.org/) -->

<svg
   width="84.398903mm"
   height="81.449532mm"
   viewBox="0 0 84.398903 81.449532"
   version="1.1"
   id="svg5"
   inkscape:version="1.1 (c68e22c387, 2021-05-23)"
   sodipodi:docname="respuestapositiva_borde.svg"
   xmlns:inkscape="http://www.inkscape.org/namespaces/inkscape"
   xmlns:sodipodi="http://sodipodi.sourceforge.net/DTD/sodipodi-0.dtd"
   xmlns="http://www.w3.org/2000/svg"
   xmlns:svg="http://www.w3.org/2000/svg">
  <sodipodi:namedview
     id="namedview7"
     pagecolor="#ffffff"
     bordercolor="#666666"
     borderopacity="1.0"
     inkscape:pageshadow="2"
     inkscape:pageopacity="0.0"
     inkscape:pagecheckerboard="0"
     inkscape:document-units="mm"
     showgrid="false"
     inkscape:zoom="0.60221661"
     inkscape:cx="304.70764"
     inkscape:cy="609.41527"
     inkscape:window-width="1920"
     inkscape:window-height="1057"
     inkscape:window-x="-8"
     inkscape:window-y="-8"
     inkscape:window-maximized="1"
     inkscape:current-layer="layer1" />
  <defs
     id="defs2">
    <clipPath
       clipPathUnits="userSpaceOnUse"
       id="clipPath838">
      <path
         d="M -1,667 H 525 V -1 H -1 Z"
         id="path836" />
    </clipPath>
    <clipPath
       clipPathUnits="userSpaceOnUse"
       id="clipPath846">
      <path
         d="M 0.03,666.03 H 524.01 V 0.03 H 0.03 Z"
         id="path844" />
    </clipPath>
    <clipPath
       clipPathUnits="userSpaceOnUse"
       id="clipPath1014">
      <path
         d="M 180.41,374.5 H 419.651 V 605.572 H 180.41 Z"
         id="path1012" />
    </clipPath>
    <clipPath
       clipPathUnits="userSpaceOnUse"
       id="clipPath1022">
      <path
         d="m 180.91,606 h 239 V 372 h -239 z"
         clip-rule="evenodd"
         id="path1020" />
    </clipPath>
    <clipPath
       clipPathUnits="userSpaceOnUse"
       id="clipPath1030">
      <path
         d="M -1,667 H 525 V -1 H -1 Z"
         id="path1028" />
    </clipPath>
    <clipPath
       clipPathUnits="userSpaceOnUse"
       id="clipPath1038">
      <path
         d="M 0.03,666.03 H 524.01 V 0.03 H 0.03 Z"
         id="path1036" />
    </clipPath>
    <clipPath
       clipPathUnits="userSpaceOnUse"
       id="clipPath1116">
      <path
         d="M -1,667 H 525 V -1 H -1 Z"
         id="path1114" />
    </clipPath>
    <clipPath
       clipPathUnits="userSpaceOnUse"
       id="clipPath1124">
      <path
         d="M 0.03,666.03 H 524.01 V 0.03 H 0.03 Z"
         id="path1122" />
    </clipPath>
  </defs>
  <g
     inkscape:label="Capa 1"
     inkscape:groupmode="layer"
     id="layer1"
     transform="translate(-24.074435,12.9101)">
    <g
       id="g1024"
       transform="matrix(0.35277777,0,0,-0.35277777,-39.570202,200.72224)">
      <g
         id="g1026"
         clip-path="url(#clipPath1030)">
        <g
           id="g1032">
          <g
             id="g1034"
             clip-path="url(#clipPath1038)">
            <g
               id="g1040"
               transform="translate(419.651,585.302)">
              <path
                 d="m 0,0 h -32.367 v 20.02 h -19.35 V 0 h -32.367 v 20.02 h -19.35 V 0 h -32.367 v 20.02 h -19.351 V 0 h -32.366 v 20.02 h -19.351 V 0 h -32.372"
                 style="fill:none;stroke:#231f20;stroke-width:0.5;stroke-linecap:butt;stroke-linejoin:miter;stroke-miterlimit:4;stroke-dasharray:none;stroke-opacity:1"
                 id="path1042" />
            </g>
            <path
               d="m 212.956,605.152 h 19.264 v -3.557 h -19.264 z"
               style="fill:#231f20;fill-opacity:1;fill-rule:nonzero;stroke:none"
               id="path1044" />
            <path
               d="m 264.717,605.224 h 19.084 v -3.629 h -19.084 z"
               style="fill:#231f20;fill-opacity:1;fill-rule:nonzero;stroke:none"
               id="path1046" />
            <path
               d="m 316.479,605.186 h 19.068 v -3.591 h -19.068 z"
               style="fill:#231f20;fill-opacity:1;fill-rule:nonzero;stroke:none"
               id="path1048" />
            <path
               d="m 368.106,605.214 h 19.189 v -3.619 h -19.189 z"
               style="fill:#231f20;fill-opacity:1;fill-rule:nonzero;stroke:none"
               id="path1050" />
            <g
               id="g1052"
               transform="translate(419.651,487.069)">
              <path
                 d="m 0,0 h -32.367 v 20.019 h -19.35 V 0 h -32.367 v 20.019 h -19.35 V 0 h -32.367 v 20.019 h -19.351 V 0 h -32.366 v 20.019 h -19.351 V 0 h -32.372"
                 style="fill:none;stroke:#231f20;stroke-width:0.5;stroke-linecap:butt;stroke-linejoin:miter;stroke-miterlimit:4;stroke-dasharray:none;stroke-opacity:1"
                 id="path1054" />
            </g>
            <g
               id="g1056"
               transform="translate(367.934,503.738)">
              <path
                 d="M 0,0 V -16.669 M -51.717,0.256 v -16.925 m -51.718,17.941 v -17.941 m -51.717,17.372 v -17.372"
                 style="fill:none;stroke:#231f20;stroke-width:0.75;stroke-linecap:butt;stroke-linejoin:miter;stroke-miterlimit:4;stroke-dasharray:none;stroke-opacity:1"
                 id="path1058" />
            </g>
            <g
               id="g1060"
               transform="translate(212.759,502.224)">
              <path
                 d="m 0,0 -1.801,-1.096 -0.041,0.062 1.167,2.937 C -0.451,2.927 -0.225,3.95 0,4.974 0.225,3.95 0.45,2.927 0.675,1.903 L 1.842,-1.034 1.812,-1.096 0,0"
                 style="fill:#231f20;fill-opacity:1;fill-rule:nonzero;stroke:none"
                 id="path1062" />
            </g>
            <g
               id="g1064"
               transform="translate(264.487,502.059)">
              <path
                 d="m 0,0 -1.801,-1.096 -0.041,0.062 1.167,2.937 C -0.45,2.927 -0.225,3.95 0,4.973 0.225,3.95 0.45,2.927 0.675,1.903 L 1.842,-1.034 1.812,-1.096 0,0"
                 style="fill:#231f20;fill-opacity:1;fill-rule:nonzero;stroke:none"
                 id="path1066" />
            </g>
            <g
               id="g1068"
               transform="translate(316.194,502.059)">
              <path
                 d="m 0,0 -1.802,-1.096 -0.041,0.062 1.167,2.937 C -0.451,2.927 -0.226,3.95 0,4.973 0.224,3.95 0.449,2.927 0.674,1.903 L 1.841,-1.034 1.81,-1.096 0,0"
                 style="fill:#231f20;fill-opacity:1;fill-rule:nonzero;stroke:none"
                 id="path1070" />
            </g>
            <g
               id="g1072"
               transform="translate(367.967,502.059)">
              <path
                 d="m 0,0 -1.802,-1.096 -0.041,0.062 1.168,2.937 C -0.45,2.927 -0.225,3.95 0,4.973 0.226,3.95 0.45,2.927 0.675,1.903 L 1.843,-1.034 1.812,-1.096 0,0"
                 style="fill:#231f20;fill-opacity:1;fill-rule:nonzero;stroke:none"
                 id="path1074" />
            </g>
            <text
               transform="matrix(1,0,0,-1,249.1268,572.5295)"
               style="font-variant:normal;font-weight:normal;font-size:8px;font-family:'Times New Roman';-inkscape-font-specification:TimesTen-Roman;writing-mode:lr-tb;fill:#231f20;fill-opacity:1;fill-rule:nonzero;stroke:none"
               id="text1078"><tspan
                 x="0 4 7.112 9.1120005 15.336 19.336 22.448 26.896 31.344 35.344002 38.456001 41.119999 45.119999 47.119999 51.119999 53.344002 55.344002 59.792 62.015999 66.015999 70.015999 72.239998 74.239998 78.688004 83.136002 86.248001 88.472 91.136002 93.360001 97.360001"
                 y="0"
                 sodipodi:role="line"
                 id="tspan1076">a) Respuesta al nivel positivo</tspan></text>
            <g
               id="g1080"
               transform="translate(419.651,388.981)">
              <path
                 d="m 0,0 h -32.367 v 20.019 h -19.35 V 0 h -32.367 v 20.019 h -19.35 V 0 h -32.367 v 20.019 h -19.351 V 0 h -32.366 v 20.019 h -19.351 V 0 h -32.372"
                 style="fill:none;stroke:#231f20;stroke-width:0.5;stroke-linecap:butt;stroke-linejoin:miter;stroke-miterlimit:4;stroke-dasharray:none;stroke-opacity:1"
                 id="path1082" />
            </g>
            <g
               id="g1084"
               transform="translate(387.284,392.023)">
              <path
                 d="M 0,0 V 16.977 M -51.717,0.017 v 16.96 M -103.434,-0.549 V 16.977 M -155.151,0.132 v 16.845"
                 style="fill:none;stroke:#231f20;stroke-width:0.75;stroke-linecap:butt;stroke-linejoin:miter;stroke-miterlimit:4;stroke-dasharray:none;stroke-opacity:1"
                 id="path1086" />
            </g>
            <g
               id="g1088"
               transform="translate(232.15,393.942)">
              <path
                 d="m 0,0 -1.801,1.095 -0.041,-0.061 1.167,-2.938 c 0.225,-1.023 0.45,-2.047 0.675,-3.07 0.225,1.023 0.45,2.047 0.676,3.07 L 1.843,1.034 1.812,1.095 0,0"
                 style="fill:#231f20;fill-opacity:1;fill-rule:nonzero;stroke:none"
                 id="path1090" />
            </g>
            <g
               id="g1092"
               transform="translate(283.878,393.949)">
              <path
                 d="m 0,0 -1.801,1.096 -0.041,-0.06 1.167,-2.938 c 0.225,-1.023 0.45,-2.047 0.675,-3.07 0.225,1.023 0.45,2.047 0.676,3.07 L 1.843,1.036 1.812,1.096 0,0"
                 style="fill:#231f20;fill-opacity:1;fill-rule:nonzero;stroke:none"
                 id="path1094" />
            </g>
            <g
               id="g1096"
               transform="translate(335.584,394.003)">
              <path
                 d="m 0,0 -1.8,1.096 -0.041,-0.061 1.166,-2.937 c 0.224,-1.024 0.451,-2.047 0.675,-3.071 0.225,1.024 0.451,2.047 0.676,3.071 L 1.842,1.035 1.813,1.096 0,0"
                 style="fill:#231f20;fill-opacity:1;fill-rule:nonzero;stroke:none"
                 id="path1098" />
            </g>
            <g
               id="g1100"
               transform="translate(387.306,393.949)">
              <path
                 d="m 0,0 -1.801,1.096 -0.041,-0.06 1.168,-2.938 c 0.225,-1.023 0.449,-2.047 0.674,-3.07 0.227,1.023 0.451,2.047 0.676,3.07 L 1.844,1.036 1.812,1.096 0,0"
                 style="fill:#231f20;fill-opacity:1;fill-rule:nonzero;stroke:none"
                 id="path1102" />
            </g>
            <text
               transform="matrix(1,0,0,-1,247.1228,474.442)"
               style="font-variant:normal;font-weight:normal;font-size:8px;font-family:'Times New Roman';-inkscape-font-specification:TimesTen-Roman;writing-mode:lr-tb;fill:#231f20;fill-opacity:1;fill-rule:nonzero;stroke:none"
               id="text1108"><tspan
                 x="0 4.448 7.5599999 9.5600004 15.784 19.784 22.896 27.344 31.792 35.792 38.903999 41.568001 45.568001 47.568001 51.568001 53.792 55.792 60.240002 64.688004 67.800003 72.248001 76.248001 78.248001 82.695999 87.143997 90.255997 92.480003 95.143997 97.367996 101.368"
                 y="0"
                 sodipodi:role="line"
                 id="tspan1104">b) Respuesta al borde positivo</tspan><tspan
                 x="-0.66399997 2.888 6 8 14.224 18.224001 21.336 25.784 30.232 34.231998 37.344002 40.007999 44.007999 46.007999 50.007999 52.231998 54.231998 58.68 63.127998 66.239998 70.688004 74.688004 76.688004 81.136002 85.136002 89.136002 93.136002 95.800003 98.024002 102.024"
                 y="98.024002"
                 sodipodi:role="line"
                 id="tspan1106">c) Respuesta al borde negativo</tspan></text>
          </g>
        </g>
      </g>
    </g>
  </g>
</svg>
