<?xml version="1.0" encoding="UTF-8" standalone="no"?>
<!-- Created with Inkscape (http://www.inkscape.org/) -->

<svg
   version="1.1"
   id="svg2"
   xml:space="preserve"
   width="391.95285"
   height="166.80742"
   viewBox="0 0 391.95285 166.80741"
   sodipodi:docname="kmap 4var dona.svg"
   inkscape:version="1.1 (c68e22c387, 2021-05-23)"
   xmlns:inkscape="http://www.inkscape.org/namespaces/inkscape"
   xmlns:sodipodi="http://sodipodi.sourceforge.net/DTD/sodipodi-0.dtd"
   xmlns="http://www.w3.org/2000/svg"
   xmlns:svg="http://www.w3.org/2000/svg"><defs
     id="defs6"><clipPath
       clipPathUnits="userSpaceOnUse"
       id="clipPath18"><path
         d="M 0,0 H 708 V 879 H 0 Z"
         id="path16" /></clipPath><clipPath
       clipPathUnits="userSpaceOnUse"
       id="clipPath234"><path
         d="M 168.449,625.936 H 431.551 V 759.001 H 168.449 Z"
         id="path232" /></clipPath><clipPath
       clipPathUnits="userSpaceOnUse"
       id="clipPath246"><path
         d="M 0,0 H 708 V 879 H 0 Z"
         id="path244" /></clipPath><clipPath
       clipPathUnits="userSpaceOnUse"
       id="clipPath264"><path
         d="M 235.518,386.123 H 364.481 V 514.457 H 235.518 Z"
         id="path262" /></clipPath><clipPath
       clipPathUnits="userSpaceOnUse"
       id="clipPath276"><path
         d="M 0,0 H 708 V 879 H 0 Z"
         id="path274" /></clipPath><clipPath
       clipPathUnits="userSpaceOnUse"
       id="clipPath460"><path
         d="M 235.518,386.123 H 364.481 V 514.457 H 235.518 Z"
         id="path458" /></clipPath><clipPath
       clipPathUnits="userSpaceOnUse"
       id="clipPath472"><path
         d="M 235.518,386.123 H 364.481 V 514.457 H 235.518 Z"
         id="path470" /></clipPath><clipPath
       clipPathUnits="userSpaceOnUse"
       id="clipPath486"><path
         d="M 0,0 H 708 V 879 H 0 Z"
         id="path484" /></clipPath><clipPath
       clipPathUnits="userSpaceOnUse"
       id="clipPath634"><path
         d="M 0,0 H 708 V 879 H 0 Z"
         id="path632" /></clipPath><clipPath
       clipPathUnits="userSpaceOnUse"
       id="clipPath954"><path
         d="M 0,0 H 708 V 879 H 0 Z"
         id="path952" /></clipPath><clipPath
       clipPathUnits="userSpaceOnUse"
       id="clipPath968"><path
         d="M 0,0 H 708 V 879 H 0 Z"
         id="path966" /></clipPath><clipPath
       clipPathUnits="userSpaceOnUse"
       id="clipPath1312"><path
         d="M 0,0 H 708 V 879 H 0 Z"
         id="path1310" /></clipPath></defs><sodipodi:namedview
     id="namedview4"
     pagecolor="#ffffff"
     bordercolor="#666666"
     borderopacity="1.0"
     inkscape:pageshadow="2"
     inkscape:pageopacity="0.0"
     inkscape:pagecheckerboard="0"
     showgrid="false"
     inkscape:zoom="1.5939674"
     inkscape:cx="235.57571"
     inkscape:cy="143.353"
     inkscape:window-width="1920"
     inkscape:window-height="1017"
     inkscape:window-x="-8"
     inkscape:window-y="-8"
     inkscape:window-maximized="1"
     inkscape:current-layer="g8" /><g
     id="g8"
     inkscape:groupmode="layer"
     inkscape:label="Digital Fundamentals (Global ed - Thomas L. Floyd"
     transform="matrix(1.3333333,0,0,-1.3333333,-224.51383,1007.5105)"><g
       id="g10" /><g
       id="g2371"
       transform="translate(0,-7.6801628)"><path
         d="m 188.134,644.942 h 95.918 v 96.001 h -95.918 z"
         style="fill:#ffffff;fill-opacity:1;fill-rule:nonzero;stroke:none"
         id="path50" /><path
         d="m 188.134,740.943 h 95.918 v -96.001 h -95.918 z m 24,-0.501 v -95.5 m -24,71.5 h 95.919 m -95.919,-24 h 95.919 m -95.919,-24 h 95.919 m -107.544,84.126 11.625,-11.625"
         style="fill:none;stroke:#231f20;stroke-width:0.8;stroke-linecap:butt;stroke-linejoin:miter;stroke-miterlimit:3.864;stroke-dasharray:none;stroke-opacity:1"
         id="path52" /><text
         transform="scale(1,-1)"
         style="font-variant:normal;font-weight:normal;font-size:8px;font-family:'Times New Roman';-inkscape-font-specification:Times-Roman;writing-mode:lr-tb;fill:#231f20;fill-opacity:1;fill-rule:nonzero;stroke:none"
         id="text56"
         x="196.87199"
         y="-745.17657"><tspan
           x="196.87199 200.87199"
           y="-745.17657"
           sodipodi:role="line"
           id="tspan54">00</tspan></text><text
         transform="scale(1,-1)"
         style="font-variant:normal;font-weight:normal;font-size:8px;font-family:'Times New Roman';-inkscape-font-specification:Times-Roman;writing-mode:lr-tb;fill:#231f20;fill-opacity:1;fill-rule:nonzero;stroke:none"
         id="text60"
         x="220.37601"
         y="-745.17657"><tspan
           x="220.37601 224.37601"
           y="-745.17657"
           sodipodi:role="line"
           id="tspan58">01</tspan></text><text
         transform="scale(1,-1)"
         style="font-variant:normal;font-weight:normal;font-size:8px;font-family:'Times New Roman';-inkscape-font-specification:Times-Roman;writing-mode:lr-tb;fill:#231f20;fill-opacity:1;fill-rule:nonzero;stroke:none"
         id="text64"
         x="175.34399"
         y="-725.92859"><tspan
           x="175.34399 179.34399"
           y="-725.92859"
           sodipodi:role="line"
           id="tspan62">00</tspan></text><text
         transform="scale(1,-1)"
         style="font-variant:normal;font-weight:normal;font-size:8px;font-family:'Times New Roman';-inkscape-font-specification:Times-Roman;writing-mode:lr-tb;fill:#231f20;fill-opacity:1;fill-rule:nonzero;stroke:none"
         id="text68"
         x="175.34399"
         y="-701.92859"><tspan
           x="175.34399 179.34399"
           y="-701.92859"
           sodipodi:role="line"
           id="tspan66">01</tspan></text><text
         transform="scale(1,-1)"
         style="font-variant:normal;font-weight:normal;font-size:8px;font-family:'Times New Roman';-inkscape-font-specification:Times-Roman;writing-mode:lr-tb;fill:#231f20;fill-opacity:1;fill-rule:nonzero;stroke:none"
         id="text72"
         x="175.34399"
         y="-677.92859"><tspan
           x="175.34399 179.34399"
           y="-677.92859"
           sodipodi:role="line"
           id="tspan70">11</tspan></text><text
         transform="scale(1,-1)"
         style="font-variant:normal;font-weight:normal;font-size:8px;font-family:'Times New Roman';-inkscape-font-specification:Times-Roman;writing-mode:lr-tb;fill:#231f20;fill-opacity:1;fill-rule:nonzero;stroke:none"
         id="text76"
         x="175.34399"
         y="-653.92859"><tspan
           x="175.34399 179.34399"
           y="-653.92859"
           sodipodi:role="line"
           id="tspan74">10</tspan></text><text
         transform="scale(1,-1)"
         style="font-style:italic;font-variant:normal;font-size:8px;font-family:'Times New Roman';-inkscape-font-specification:Times-Italic;writing-mode:lr-tb;fill:#231f20;fill-opacity:1;fill-rule:nonzero;stroke:none"
         id="text84"
         x="168.776"
         y="-742.31262"><tspan
           x="168.776 173.664"
           y="-742.31262"
           sodipodi:role="line"
           id="tspan82">AB</tspan></text><text
         transform="scale(1,-1)"
         style="font-style:italic;font-variant:normal;font-size:8px;font-family:'Times New Roman';-inkscape-font-specification:Times-Italic;writing-mode:lr-tb;fill:#231f20;fill-opacity:1;fill-rule:nonzero;stroke:none"
         id="text88"
         x="179.36"
         y="-751.56061"><tspan
           x="179.36 184.696"
           y="-751.56061"
           sodipodi:role="line"
           id="tspan86">CD</tspan></text><g
         id="g90"
         transform="translate(236.1343,740.4422)"><path
           d="M 0,0 V -95.5 M 24,0 v -95.5"
           style="fill:none;stroke:#231f20;stroke-width:0.8;stroke-linecap:butt;stroke-linejoin:miter;stroke-miterlimit:3.864;stroke-dasharray:none;stroke-opacity:1"
           id="path92" /></g><text
         transform="scale(1,-1)"
         style="font-variant:normal;font-weight:normal;font-size:8px;font-family:'Times New Roman';-inkscape-font-specification:Times-Roman;writing-mode:lr-tb;fill:#231f20;fill-opacity:1;fill-rule:nonzero;stroke:none"
         id="text96"
         x="245.02"
         y="-745.17657"><tspan
           x="245.02 248.76401"
           y="-745.17657"
           sodipodi:role="line"
           id="tspan94">11</tspan></text><text
         transform="scale(1,-1)"
         style="font-variant:normal;font-weight:normal;font-size:8px;font-family:'Times New Roman';-inkscape-font-specification:Times-Roman;writing-mode:lr-tb;fill:#231f20;fill-opacity:1;fill-rule:nonzero;stroke:none"
         id="text100"
         x="268.396"
         y="-745.17657"><tspan
           x="268.396 272.396"
           y="-745.17657"
           sodipodi:role="line"
           id="tspan98">10</tspan></text></g><g
       id="g228"><g
         id="g230"
         clip-path="url(#clipPath234)"><text
           transform="matrix(1,0,0,-1,280.6677,598.0438)"
           style="font-variant:normal;font-weight:normal;font-size:8px;font-family:'Times New Roman';-inkscape-font-specification:Times-Roman;writing-mode:lr-tb;fill:#231f20;fill-opacity:1;fill-rule:nonzero;stroke:none"
           id="text238"><tspan
             x="0 2.664 6.664 10.664 14.664 18.664 22.664 26.664 30.664 34.664001"
             y="0"
             sodipodi:role="line"
             id="tspan236">fg04_02400</tspan></text></g></g><g
       id="g2185"
       transform="translate(-15.05677,4.1688112)"><g
         id="g258"
         transform="translate(112.92578,239.02623)"><g
           id="g260"
           clip-path="url(#clipPath264)"><g
             id="g266"
             transform="translate(244.2466,444.8403)"><path
               d="m 0,0 h -0.016 c 0,5.042 6.268,9.128 14,9.128 h 92.001 c 7.731,0 14,-4.086 14,-9.128 M 0,-23.857 h -0.016 c 0,5.042 6.268,9.129 14,9.129 h 92.001 c 7.731,0 14,-4.087 14,-9.129 M 0,23.856 h -0.016 c 0,5.041 6.268,9.128 14,9.128 h 92.001 c 7.731,0 14,-4.087 14,-9.128 M 67.161,-43.258 c 0,-7.732 -4.104,-14 -9.145,-14 m -14.856,14 c 0,-7.732 -4.102,-14 -9.144,-14 M 58.032,62.743 h -0.016 c 5.041,0 9.129,-6.268 9.129,-14 m -33.114,14 h -0.015 c 5.042,0 9.129,-6.268 9.129,-14 m 48.016,-92.001 c 0,-7.732 -4.104,-14 -9.145,-14 m 0.016,120.001 h -0.016 c 5.041,0 9.129,-6.268 9.129,-14"
               style="fill:none;stroke:#00adef;stroke-width:0.5;stroke-linecap:butt;stroke-linejoin:miter;stroke-miterlimit:3.864;stroke-dasharray:none;stroke-opacity:1"
               id="path268" /></g></g></g><g
         id="g270"
         transform="translate(112.92578,239.02623)"><g
           id="g272"
           clip-path="url(#clipPath276)"><path
             d="m 256.395,400.148 h 96 v 96 h -96 z"
             style="fill:#ffffff;fill-opacity:1;fill-rule:nonzero;stroke:none"
             id="path278" /><path
             d="m 256.395,400.148 h 96 v 96 h -96 z"
             style="fill:none;stroke:#231f20;stroke-width:0.8;stroke-linecap:butt;stroke-linejoin:miter;stroke-miterlimit:3.864;stroke-dasharray:none;stroke-opacity:1"
             id="path280" /><g
             id="g282"
             transform="translate(280.3946,496.0229)"><path
               d="M 0,0 V -95.875 M 23.999,0 V -95.875 M 47.999,0 V -95.875 M -24,-24.375 h 96 m -96,-24 h 96 m -96,-24 H 72 M -38.191,14.316 -24,0.125"
               style="fill:none;stroke:#231f20;stroke-width:0.8;stroke-linecap:butt;stroke-linejoin:miter;stroke-miterlimit:3.864;stroke-dasharray:none;stroke-opacity:1"
               id="path284" /></g><text
             transform="matrix(1,0,0,-1,271.7872,497.5639)"
             style="font-variant:normal;font-weight:normal;font-size:8px;font-family:'Times New Roman';-inkscape-font-specification:Times-Roman;writing-mode:lr-tb;fill:#231f20;fill-opacity:1;fill-rule:nonzero;stroke:none"
             id="text288"><tspan
               x="0 4"
               y="0"
               sodipodi:role="line"
               id="tspan286">00</tspan></text><text
             transform="matrix(1,0,0,-1,296.0352,497.5639)"
             style="font-variant:normal;font-weight:normal;font-size:8px;font-family:'Times New Roman';-inkscape-font-specification:Times-Roman;writing-mode:lr-tb;fill:#231f20;fill-opacity:1;fill-rule:nonzero;stroke:none"
             id="text292"><tspan
               x="0 4"
               y="0"
               sodipodi:role="line"
               id="tspan290">01</tspan></text><text
             transform="matrix(1,0,0,-1,319.9072,497.9399)"
             style="font-variant:normal;font-weight:normal;font-size:8px;font-family:'Times New Roman';-inkscape-font-specification:Times-Roman;writing-mode:lr-tb;fill:#231f20;fill-opacity:1;fill-rule:nonzero;stroke:none"
             id="text296"><tspan
               x="0 4"
               y="0"
               sodipodi:role="line"
               id="tspan294">11</tspan></text><text
             transform="matrix(1,0,0,-1,343.2832,497.5639)"
             style="font-variant:normal;font-weight:normal;font-size:8px;font-family:'Times New Roman';-inkscape-font-specification:Times-Roman;writing-mode:lr-tb;fill:#231f20;fill-opacity:1;fill-rule:nonzero;stroke:none"
             id="text300"><tspan
               x="0 4"
               y="0"
               sodipodi:role="line"
               id="tspan298">10</tspan></text><text
             transform="matrix(1,0,0,-1,247.2752,488.5639)"
             style="font-variant:normal;font-weight:normal;font-size:8px;font-family:'Times New Roman';-inkscape-font-specification:Times-Roman;writing-mode:lr-tb;fill:#231f20;fill-opacity:1;fill-rule:nonzero;stroke:none"
             id="text304"><tspan
               x="0 4"
               y="0"
               sodipodi:role="line"
               id="tspan302">00</tspan></text><text
             transform="matrix(1,0,0,-1,247.2752,464.5639)"
             style="font-variant:normal;font-weight:normal;font-size:8px;font-family:'Times New Roman';-inkscape-font-specification:Times-Roman;writing-mode:lr-tb;fill:#231f20;fill-opacity:1;fill-rule:nonzero;stroke:none"
             id="text308"><tspan
               x="0 4"
               y="0"
               sodipodi:role="line"
               id="tspan306">01</tspan></text><text
             transform="matrix(1,0,0,-1,247.2752,440.5639)"
             style="font-variant:normal;font-weight:normal;font-size:8px;font-family:'Times New Roman';-inkscape-font-specification:Times-Roman;writing-mode:lr-tb;fill:#231f20;fill-opacity:1;fill-rule:nonzero;stroke:none"
             id="text312"><tspan
               x="0 4"
               y="0"
               sodipodi:role="line"
               id="tspan310">11</tspan></text><text
             transform="matrix(1,0,0,-1,247.2752,416.5639)"
             style="font-variant:normal;font-weight:normal;font-size:8px;font-family:'Times New Roman';-inkscape-font-specification:Times-Roman;writing-mode:lr-tb;fill:#231f20;fill-opacity:1;fill-rule:nonzero;stroke:none"
             id="text316"><tspan
               x="0 4"
               y="0"
               sodipodi:role="line"
               id="tspan314">10</tspan></text><text
             transform="matrix(1,0,0,-1,248.5952,507.0199)"
             style="font-style:italic;font-variant:normal;font-size:8px;font-family:'Times New Roman';-inkscape-font-specification:Times-Italic;writing-mode:lr-tb;fill:#231f20;fill-opacity:1;fill-rule:nonzero;stroke:none"
             id="text320"><tspan
               x="0 5.336"
               y="0"
               sodipodi:role="line"
               id="tspan318">CD</tspan></text><text
             transform="matrix(1,0,0,-1,235.5152,498.7079)"
             style="font-style:italic;font-variant:normal;font-size:8px;font-family:'Times New Roman';-inkscape-font-specification:Times-Italic;writing-mode:lr-tb;fill:#231f20;fill-opacity:1;fill-rule:nonzero;stroke:none"
             id="text324"><tspan
               x="0 4.888"
               y="0"
               sodipodi:role="line"
               id="tspan322">AB</tspan></text><path
             d="m 267.464,494.5605 1.5,-4.6 1.5,4.6 z"
             style="fill:#00adef;fill-opacity:1;fill-rule:nonzero;stroke:none"
             id="path326" /><path
             d="m 267.464,401.1105 1.5,4.599 1.5,-4.599 z"
             style="fill:#00adef;fill-opacity:1;fill-rule:nonzero;stroke:none"
             id="path328" /><path
             d="m 291.464,494.5605 1.5,-4.6 1.5,4.6 z"
             style="fill:#00adef;fill-opacity:1;fill-rule:nonzero;stroke:none"
             id="path330" /><path
             d="m 291.464,401.1105 1.5,4.599 1.5,-4.599 z"
             style="fill:#00adef;fill-opacity:1;fill-rule:nonzero;stroke:none"
             id="path332" /><path
             d="m 315.464,494.5605 1.5,-4.6 1.5,4.6 z"
             style="fill:#00adef;fill-opacity:1;fill-rule:nonzero;stroke:none"
             id="path334" /><path
             d="m 315.464,401.1105 1.5,4.599 1.5,-4.599 z"
             style="fill:#00adef;fill-opacity:1;fill-rule:nonzero;stroke:none"
             id="path336" /><path
             d="m 339.4646,494.5605 1.5,-4.6 1.5,4.6 z"
             style="fill:#00adef;fill-opacity:1;fill-rule:nonzero;stroke:none"
             id="path338" /><path
             d="m 339.4646,401.1105 1.5,4.599 1.5,-4.599 z"
             style="fill:#00adef;fill-opacity:1;fill-rule:nonzero;stroke:none"
             id="path340" /><path
             d="m 257.7394,482.3359 4.6,1.5 -4.6,1.5 z"
             style="fill:#00adef;fill-opacity:1;fill-rule:nonzero;stroke:none"
             id="path342" /><path
             d="m 351.1886,482.3359 -4.599,1.5 4.599,1.5 z"
             style="fill:#00adef;fill-opacity:1;fill-rule:nonzero;stroke:none"
             id="path344" /><path
             d="m 257.7394,458.3359 4.6,1.5 -4.6,1.5 z"
             style="fill:#00adef;fill-opacity:1;fill-rule:nonzero;stroke:none"
             id="path346" /><path
             d="m 351.1886,458.3359 -4.599,1.5 4.599,1.5 z"
             style="fill:#00adef;fill-opacity:1;fill-rule:nonzero;stroke:none"
             id="path348" /><path
             d="m 257.7394,434.3354 4.6,1.5 -4.6,1.5 z"
             style="fill:#00adef;fill-opacity:1;fill-rule:nonzero;stroke:none"
             id="path350" /><path
             d="m 351.1886,434.3354 -4.599,1.5 4.599,1.5 z"
             style="fill:#00adef;fill-opacity:1;fill-rule:nonzero;stroke:none"
             id="path352" /><path
             d="m 257.7394,410.3355 4.6,1.5 -4.6,1.5 z"
             style="fill:#00adef;fill-opacity:1;fill-rule:nonzero;stroke:none"
             id="path354" /><path
             d="m 351.1886,410.3355 -4.599,1.5 4.599,1.5 z"
             style="fill:#00adef;fill-opacity:1;fill-rule:nonzero;stroke:none"
             id="path356" /><path
             d="m 270.5138,475.6108 -1.5,4.6 -1.5,-4.6 z"
             style="fill:#00adef;fill-opacity:1;fill-rule:nonzero;stroke:none"
             id="path358" /><path
             d="m 270.5138,466.561 -1.5,-4.6 -1.5,4.6 z"
             style="fill:#00adef;fill-opacity:1;fill-rule:nonzero;stroke:none"
             id="path360" /><path
             d="m 294.5138,475.6108 -1.5,4.6 -1.5,-4.6 z"
             style="fill:#00adef;fill-opacity:1;fill-rule:nonzero;stroke:none"
             id="path362" /><path
             d="m 294.5138,466.561 -1.5,-4.6 -1.5,4.6 z"
             style="fill:#00adef;fill-opacity:1;fill-rule:nonzero;stroke:none"
             id="path364" /><path
             d="m 318.5147,475.6108 -1.5,4.6 -1.5,-4.6 z"
             style="fill:#00adef;fill-opacity:1;fill-rule:nonzero;stroke:none"
             id="path366" /><path
             d="m 318.5147,466.561 -1.5,-4.6 -1.5,4.6 z"
             style="fill:#00adef;fill-opacity:1;fill-rule:nonzero;stroke:none"
             id="path368" /><path
             d="m 342.5156,475.6108 -1.5,4.6 -1.5,-4.6 z"
             style="fill:#00adef;fill-opacity:1;fill-rule:nonzero;stroke:none"
             id="path370" /><path
             d="m 342.5156,466.561 -1.5,-4.6 -1.5,4.6 z"
             style="fill:#00adef;fill-opacity:1;fill-rule:nonzero;stroke:none"
             id="path372" /><path
             d="m 270.5138,451.6108 -1.5,4.6 -1.5,-4.6 z"
             style="fill:#00adef;fill-opacity:1;fill-rule:nonzero;stroke:none"
             id="path374" /><path
             d="m 270.5138,442.561 -1.5,-4.601 -1.5,4.601 z"
             style="fill:#00adef;fill-opacity:1;fill-rule:nonzero;stroke:none"
             id="path376" /><path
             d="m 294.5138,451.6108 -1.5,4.6 -1.5,-4.6 z"
             style="fill:#00adef;fill-opacity:1;fill-rule:nonzero;stroke:none"
             id="path378" /><path
             d="m 294.5138,442.561 -1.5,-4.601 -1.5,4.601 z"
             style="fill:#00adef;fill-opacity:1;fill-rule:nonzero;stroke:none"
             id="path380" /><path
             d="m 318.5147,451.6108 -1.5,4.6 -1.5,-4.6 z"
             style="fill:#00adef;fill-opacity:1;fill-rule:nonzero;stroke:none"
             id="path382" /><path
             d="m 318.5147,442.561 -1.5,-4.601 -1.5,4.601 z"
             style="fill:#00adef;fill-opacity:1;fill-rule:nonzero;stroke:none"
             id="path384" /><path
             d="m 342.5156,451.6108 -1.5,4.6 -1.5,-4.6 z"
             style="fill:#00adef;fill-opacity:1;fill-rule:nonzero;stroke:none"
             id="path386" /><path
             d="m 342.5156,442.561 -1.5,-4.601 -1.5,4.601 z"
             style="fill:#00adef;fill-opacity:1;fill-rule:nonzero;stroke:none"
             id="path388" /><path
             d="m 270.5138,427.6108 -1.5,4.601 -1.5,-4.601 z"
             style="fill:#00adef;fill-opacity:1;fill-rule:nonzero;stroke:none"
             id="path390" /><path
             d="m 270.5138,418.561 -1.5,-4.602 -1.5,4.602 z"
             style="fill:#00adef;fill-opacity:1;fill-rule:nonzero;stroke:none"
             id="path392" /><path
             d="m 294.5138,427.6108 -1.5,4.601 -1.5,-4.601 z"
             style="fill:#00adef;fill-opacity:1;fill-rule:nonzero;stroke:none"
             id="path394" /><path
             d="m 294.5138,418.561 -1.5,-4.602 -1.5,4.602 z"
             style="fill:#00adef;fill-opacity:1;fill-rule:nonzero;stroke:none"
             id="path396" /><path
             d="m 318.5147,427.6108 -1.5,4.601 -1.5,-4.601 z"
             style="fill:#00adef;fill-opacity:1;fill-rule:nonzero;stroke:none"
             id="path398" /><path
             d="m 318.5147,418.561 -1.5,-4.602 -1.5,4.602 z"
             style="fill:#00adef;fill-opacity:1;fill-rule:nonzero;stroke:none"
             id="path400" /><path
             d="m 342.5156,427.6108 -1.5,4.601 -1.5,-4.601 z"
             style="fill:#00adef;fill-opacity:1;fill-rule:nonzero;stroke:none"
             id="path402" /><path
             d="m 342.5156,418.561 -1.5,-4.602 -1.5,4.602 z"
             style="fill:#00adef;fill-opacity:1;fill-rule:nonzero;stroke:none"
             id="path404" /><path
             d="m 324.3644,485.2109 -4.6,-1.5 4.6,-1.5 z"
             style="fill:#00adef;fill-opacity:1;fill-rule:nonzero;stroke:none"
             id="path406" /><path
             d="m 333.4132,485.2109 4.602,-1.5 -4.602,-1.5 z"
             style="fill:#00adef;fill-opacity:1;fill-rule:nonzero;stroke:none"
             id="path408" /><path
             d="m 300.3639,485.2109 -4.6,-1.5 4.6,-1.5 z"
             style="fill:#00adef;fill-opacity:1;fill-rule:nonzero;stroke:none"
             id="path410" /><path
             d="m 309.4132,485.2109 4.602,-1.5 -4.602,-1.5 z"
             style="fill:#00adef;fill-opacity:1;fill-rule:nonzero;stroke:none"
             id="path412" /><path
             d="m 276.3639,485.2109 -4.6,-1.5 4.6,-1.5 z"
             style="fill:#00adef;fill-opacity:1;fill-rule:nonzero;stroke:none"
             id="path414" /><path
             d="m 285.4137,485.2109 4.6,-1.5 -4.6,-1.5 z"
             style="fill:#00adef;fill-opacity:1;fill-rule:nonzero;stroke:none"
             id="path416" /><path
             d="m 324.3644,461.2109 -4.6,-1.5 4.6,-1.5 z"
             style="fill:#00adef;fill-opacity:1;fill-rule:nonzero;stroke:none"
             id="path418" /><path
             d="m 333.4132,461.2109 4.602,-1.5 -4.602,-1.5 z"
             style="fill:#00adef;fill-opacity:1;fill-rule:nonzero;stroke:none"
             id="path420" /><path
             d="m 300.3639,461.2109 -4.6,-1.5 4.6,-1.5 z"
             style="fill:#00adef;fill-opacity:1;fill-rule:nonzero;stroke:none"
             id="path422" /><path
             d="m 309.4132,461.2109 4.602,-1.5 -4.602,-1.5 z"
             style="fill:#00adef;fill-opacity:1;fill-rule:nonzero;stroke:none"
             id="path424" /><path
             d="m 276.3639,461.2109 -4.6,-1.5 4.6,-1.5 z"
             style="fill:#00adef;fill-opacity:1;fill-rule:nonzero;stroke:none"
             id="path426" /><path
             d="m 285.4137,461.2109 4.6,-1.5 -4.6,-1.5 z"
             style="fill:#00adef;fill-opacity:1;fill-rule:nonzero;stroke:none"
             id="path428" /><path
             d="m 324.3644,437.2104 -4.6,-1.5 4.6,-1.5 z"
             style="fill:#00adef;fill-opacity:1;fill-rule:nonzero;stroke:none"
             id="path430" /><path
             d="m 333.4132,437.2104 4.602,-1.5 -4.602,-1.5 z"
             style="fill:#00adef;fill-opacity:1;fill-rule:nonzero;stroke:none"
             id="path432" /><path
             d="m 300.3639,437.2104 -4.6,-1.5 4.6,-1.5 z"
             style="fill:#00adef;fill-opacity:1;fill-rule:nonzero;stroke:none"
             id="path434" /><path
             d="m 309.4132,437.2104 4.602,-1.5 -4.602,-1.5 z"
             style="fill:#00adef;fill-opacity:1;fill-rule:nonzero;stroke:none"
             id="path436" /><path
             d="m 276.3639,437.2104 -4.6,-1.5 4.6,-1.5 z"
             style="fill:#00adef;fill-opacity:1;fill-rule:nonzero;stroke:none"
             id="path438" /><path
             d="m 285.4137,437.2104 4.6,-1.5 -4.6,-1.5 z"
             style="fill:#00adef;fill-opacity:1;fill-rule:nonzero;stroke:none"
             id="path440" /><path
             d="m 324.3644,413.2095 -4.6,-1.5 4.6,-1.5 z"
             style="fill:#00adef;fill-opacity:1;fill-rule:nonzero;stroke:none"
             id="path442" /><path
             d="m 333.4132,413.2095 4.602,-1.5 -4.602,-1.5 z"
             style="fill:#00adef;fill-opacity:1;fill-rule:nonzero;stroke:none"
             id="path444" /><path
             d="m 300.3639,413.2095 -4.6,-1.5 4.6,-1.5 z"
             style="fill:#00adef;fill-opacity:1;fill-rule:nonzero;stroke:none"
             id="path446" /><path
             d="m 309.4132,413.2095 4.602,-1.5 -4.602,-1.5 z"
             style="fill:#00adef;fill-opacity:1;fill-rule:nonzero;stroke:none"
             id="path448" /><path
             d="m 276.3639,413.2095 -4.6,-1.5 4.6,-1.5 z"
             style="fill:#00adef;fill-opacity:1;fill-rule:nonzero;stroke:none"
             id="path450" /><path
             d="m 285.4137,413.2095 4.6,-1.5 -4.6,-1.5 z"
             style="fill:#00adef;fill-opacity:1;fill-rule:nonzero;stroke:none"
             id="path452" /></g></g><g
         id="g454"
         transform="translate(112.92578,239.02623)"><g
           id="g456"
           clip-path="url(#clipPath460)"><g
             id="g462"
             transform="translate(268.964,476.2109)"><path
               d="M 0,0 V -10.5 M 24,0 V -10.5 M 48,0 V -10.5 M 72.001,0 V -10.5 M 0,-24 V -34.5 M 24,-24 V -34.5 M 48,-24 V -34.5 M 72.001,-24 V -34.5 M 0,-48.001 v -10.5 m 24,10.5 v -10.5 m 24,10.5 v -10.5 m 24.001,10.5 v -10.5 M 54.801,7.45 h 10.5 M 30.8,7.45 H 41.301 M 6.8,7.45 h 10.5 m 37.501,-24 h 10.5 m -34.501,0 h 10.501 m -34.501,0 h 10.5 m 37.501,-24 h 10.5 m -34.501,0 h 10.501 m -34.501,0 h 10.5 m 37.501,-24 h 10.5 m -34.501,0 h 10.501 m -34.501,0 h 10.5 m 54.644,81.922 c 0,7.732 4.088,14 9.129,14 5.043,0 9.129,-6.268 9.129,-14 v -92 c 0,-7.732 -4.086,-14 -9.129,-14 -5.041,0 -9.129,6.268 -9.129,14 m -14.63,-14 h -0.015 c -5.043,0 -9.129,6.268 -9.129,14 m 0.015,92 c 0,7.732 4.071,14 9.114,14 M -10.733,7.446 c -7.732,0 -14,4.806 -14,10.735 0,5.93 6.268,10.736 14,10.736 h 92.001 c 7.731,0 14,-4.806 14,-10.736 0,-5.929 -6.269,-10.735 -14,-10.735 M 33.314,-88.628 h -0.015 c -5.042,0 -9.129,6.268 -9.129,14 m 0.016,92 c 0,7.732 4.071,14 9.113,14 m -23.985,-120 H 9.298 c -5.041,0 -9.128,6.268 -9.128,14 m 0.015,92 c 0,7.732 4.072,14 9.113,14 m -20.016,-48.016 c -7.732,0 -14.015,4.087 -14.015,9.129 m 120.017,0 h -0.016 c 0,-5.042 -6.269,-9.129 -14,-9.129 M -10.718,-40.5 c -7.732,0 -14.015,4.087 -14.015,9.129 m 120.017,0 h -0.016 c 0,-5.042 -6.269,-9.129 -14,-9.129 m -91.986,-23.855 c -7.732,0 -14.015,4.087 -14.015,9.128 m 120.017,0 h -0.016 c 0,-5.041 -6.269,-9.128 -14,-9.128"
               style="fill:none;stroke:#00adef;stroke-width:0.5;stroke-linecap:butt;stroke-linejoin:miter;stroke-miterlimit:3.864;stroke-dasharray:none;stroke-opacity:1"
               id="path464" /></g></g></g></g><g
       id="g466"><g
         id="g468"
         clip-path="url(#clipPath472)"><g
           id="g474"><text
             transform="matrix(1,0,0,-1,280.5509,357.5925)"
             style="font-variant:normal;font-weight:normal;font-size:8px;font-family:'Times New Roman';-inkscape-font-specification:Times-Roman;writing-mode:lr-tb;fill:#231f20;fill-opacity:1;fill-rule:nonzero;stroke:none"
             id="text478"><tspan
               x="0 2.664 6.664 10.664 14.664 18.664 22.664 26.664 30.664 34.664001"
               y="0"
               sodipodi:role="line"
               id="tspan476">fg04_02500</tspan></text></g></g></g></g></svg>
