<?xml version="1.0" encoding="UTF-8" standalone="no"?>
<!-- Created with Inkscape (http://www.inkscape.org/) -->

<svg
   width="44.93755mm"
   height="41.228218mm"
   viewBox="0 0 44.937551 41.228217"
   version="1.1"
   id="svg5"
   inkscape:version="1.1 (c68e22c387, 2021-05-23)"
   sodipodi:docname="kmap 4 var clean.svg"
   xmlns:inkscape="http://www.inkscape.org/namespaces/inkscape"
   xmlns:sodipodi="http://sodipodi.sourceforge.net/DTD/sodipodi-0.dtd"
   xmlns="http://www.w3.org/2000/svg"
   xmlns:svg="http://www.w3.org/2000/svg">
  <sodipodi:namedview
     id="namedview7"
     pagecolor="#ffffff"
     bordercolor="#666666"
     borderopacity="1.0"
     inkscape:pageshadow="2"
     inkscape:pageopacity="0.0"
     inkscape:pagecheckerboard="0"
     inkscape:document-units="mm"
     showgrid="false"
     inkscape:zoom="1.3825878"
     inkscape:cx="228.91855"
     inkscape:cy="118.97979"
     inkscape:window-width="1920"
     inkscape:window-height="1017"
     inkscape:window-x="-8"
     inkscape:window-y="-8"
     inkscape:window-maximized="1"
     inkscape:current-layer="layer1" />
  <defs
     id="defs2" />
  <g
     inkscape:label="Capa 1"
     inkscape:groupmode="layer"
     id="layer1"
     transform="translate(-40.58697,36.981331)">
    <g
       id="g73"
       transform="matrix(0.35277777,0,0,-0.35277777,53.453834,4.1765961)" />
    <g
       id="g97"
       transform="matrix(0.35277777,0,0,-0.35277777,53.453834,4.1765968)" />
    <g
       id="g113"
       transform="matrix(0.35277777,0,0,-0.35277777,53.453834,4.1765963)" />
    <g
       id="g131"
       transform="matrix(0.35277777,0,0,-0.35277777,53.453834,4.1765962)" />
    <g
       id="g147"
       transform="matrix(0.35277777,0,0,-0.35277777,53.453834,4.1765962)" />
    <g
       id="g163"
       transform="matrix(0.35277777,0,0,-0.35277777,53.453834,4.1765962)" />
    <g
       id="g179"
       transform="matrix(0.35277777,0,0,-0.35277777,53.453834,4.1765962)" />
    <g
       id="g195"
       transform="matrix(0.35277777,0,0,-0.35277777,53.453834,4.1765969)" />
    <g
       id="g211"
       transform="matrix(0.35277777,0,0,-0.35277777,53.453834,4.1765964)" />
    <g
       id="g227"
       transform="matrix(0.35277777,0,0,-0.35277777,53.453834,4.1765964)" />
    <path
       d="M 61.453931,4.1765964 V -27.823798"
       style="fill:none;stroke:#000000;stroke-width:0.140582;stroke-linecap:butt;stroke-linejoin:miter;stroke-miterlimit:10;stroke-dasharray:none;stroke-opacity:1"
       id="path37" />
    <path
       d="M 69.454031,4.1765964 V -27.823798"
       style="fill:none;stroke:#000000;stroke-width:0.140582;stroke-linecap:butt;stroke-linejoin:miter;stroke-miterlimit:10;stroke-dasharray:none;stroke-opacity:1"
       id="path39" />
    <path
       d="M 77.454128,4.1765964 V -27.823798"
       style="fill:none;stroke:#000000;stroke-width:0.140582;stroke-linecap:butt;stroke-linejoin:miter;stroke-miterlimit:10;stroke-dasharray:none;stroke-opacity:1"
       id="path41" />
    <path
       d="M 53.453834,-3.8235003 H 85.454228"
       style="fill:none;stroke:#000000;stroke-width:0.140582;stroke-linecap:butt;stroke-linejoin:miter;stroke-miterlimit:10;stroke-dasharray:none;stroke-opacity:1"
       id="path43" />
    <path
       d="M 53.453834,-11.823601 H 85.454228"
       style="fill:none;stroke:#000000;stroke-width:0.140582;stroke-linecap:butt;stroke-linejoin:miter;stroke-miterlimit:10;stroke-dasharray:none;stroke-opacity:1"
       id="path45" />
    <path
       d="M 53.453834,-19.823697 H 85.454228"
       style="fill:none;stroke:#000000;stroke-width:0.140582;stroke-linecap:butt;stroke-linejoin:miter;stroke-miterlimit:10;stroke-dasharray:none;stroke-opacity:1"
       id="path47" />
    <path
       d="M 53.453834,4.1765964 V -27.823798 H 85.454228 V 4.1765964 Z"
       style="fill:none;stroke:#000000;stroke-width:0.140582;stroke-linecap:butt;stroke-linejoin:miter;stroke-miterlimit:10;stroke-dasharray:none;stroke-opacity:1"
       id="path49" />
    <g
       id="g57"
       transform="matrix(0.35277777,0,0,-0.35277777,-42.529942,216.8074)">
      <text
         transform="matrix(1,0,0,-1,235.607,694.453)"
         style="font-variant:normal;font-weight:normal;font-size:9.9626px;font-family:CMMI10;-inkscape-font-specification:CMMI10;writing-mode:lr-tb;fill:#000000;fill-opacity:1;fill-rule:nonzero;stroke:none"
         id="text61"><tspan
           x="0"
           y="0"
           id="tspan59">A</tspan></text>
      <text
         transform="matrix(1,0,0,-1,243.079,694.453)"
         style="font-variant:normal;font-weight:normal;font-size:9.9626px;font-family:Arial;-inkscape-font-specification:Arial;writing-mode:lr-tb;fill:#000000;fill-opacity:1;fill-rule:nonzero;stroke:none"
         id="text65"><tspan
           x="0"
           y="0"
           id="tspan63">,</tspan></text>
      <text
         transform="matrix(1,0,0,-1,249.166,694.453)"
         style="font-variant:normal;font-weight:normal;font-size:9.9626px;font-family:CMMI10;-inkscape-font-specification:CMMI10;writing-mode:lr-tb;fill:#000000;fill-opacity:1;fill-rule:nonzero;stroke:none"
         id="text69"><tspan
           x="0"
           y="0"
           id="tspan67">B</tspan></text>
      <g
         id="g71"
         transform="translate(235.607,694.453)" />
    </g>
    <g
       id="g81"
       transform="matrix(0.35277777,0,0,-0.35277777,-42.529941,216.8074)">
      <text
         transform="matrix(1,0,0,-1,264.261,710.235)"
         style="font-variant:normal;font-weight:normal;font-size:9.9626px;font-family:CMMI10;-inkscape-font-specification:CMMI10;writing-mode:lr-tb;fill:#000000;fill-opacity:1;fill-rule:nonzero;stroke:none"
         id="text85"><tspan
           x="0"
           y="0"
           id="tspan83">C</tspan></text>
      <text
         transform="matrix(1,0,0,-1,272.094,710.235)"
         style="font-variant:normal;font-weight:normal;font-size:9.9626px;font-family:Arial;-inkscape-font-specification:Arial;writing-mode:lr-tb;fill:#000000;fill-opacity:1;fill-rule:nonzero;stroke:none"
         id="text89"><tspan
           x="0"
           y="0"
           id="tspan87">,</tspan></text>
      <text
         transform="matrix(1,0,0,-1,278.18,710.235)"
         style="font-variant:normal;font-weight:normal;font-size:9.9626px;font-family:CMMI10;-inkscape-font-specification:CMMI10;writing-mode:lr-tb;fill:#000000;fill-opacity:1;fill-rule:nonzero;stroke:none"
         id="text93"><tspan
           x="0"
           y="0"
           id="tspan91">D</tspan></text>
      <g
         id="g95"
         transform="translate(264.261,710.235)" />
    </g>
    <g
       id="g105"
       transform="matrix(0.35277777,0,0,-0.35277777,-42.529942,216.8074)">
      <text
         transform="matrix(1,0,0,-1,244.69,712.834)"
         style="font-variant:normal;font-weight:normal;font-size:9.9626px;font-family:CMMI10;-inkscape-font-specification:CMMI10;writing-mode:lr-tb;fill:#000000;fill-opacity:1;fill-rule:nonzero;stroke:none"
         id="text109"><tspan
           x="0"
           y="0"
           id="tspan107">Y</tspan></text>
      <g
         id="g111"
         transform="translate(244.69,712.834)" />
    </g>
    <path
       d="m 53.453834,-27.823798 -5.60004,-5.60004"
       style="fill:none;stroke:#000000;stroke-width:0.140582;stroke-linecap:butt;stroke-linejoin:miter;stroke-miterlimit:10;stroke-dasharray:none;stroke-opacity:1"
       id="path115" />
    <g
       id="g243"
       transform="matrix(0.35277777,0,0,-0.35277777,53.453834,4.1765964)" />
    <g
       id="g249"
       transform="matrix(0.35277777,0,0,-0.35277777,57.453981,-23.823375)" />
    <g
       id="g251"
       transform="matrix(0.35277777,0,0,-0.35277777,53.453834,4.1765966)" />
    <g
       id="g257"
       transform="matrix(0.35277777,0,0,-0.35277777,65.453923,-23.823375)" />
    <g
       id="g259"
       transform="matrix(0.35277777,0,0,-0.35277777,53.453834,4.1765966)" />
    <g
       id="g265"
       transform="matrix(0.35277777,0,0,-0.35277777,57.453981,-15.823434)" />
    <g
       id="g267"
       transform="matrix(0.35277777,0,0,-0.35277777,53.453834,4.1765961)" />
    <g
       id="g273"
       transform="matrix(0.35277777,0,0,-0.35277777,65.453923,-15.823434)" />
    <g
       id="g275"
       transform="matrix(0.35277777,0,0,-0.35277777,53.453834,4.1765961)" />
    <g
       id="g281"
       transform="matrix(0.35277777,0,0,-0.35277777,81.453806,-23.823375)" />
    <g
       id="g283"
       transform="matrix(0.35277777,0,0,-0.35277777,53.453834,4.1765966)" />
    <g
       id="g289"
       transform="matrix(0.35277777,0,0,-0.35277777,73.453864,-23.823375)" />
    <g
       id="g291"
       transform="matrix(0.35277777,0,0,-0.35277777,53.453834,4.1765966)" />
    <g
       id="g297"
       transform="matrix(0.35277777,0,0,-0.35277777,81.453806,-15.823434)" />
    <g
       id="g299"
       transform="matrix(0.35277777,0,0,-0.35277777,53.453834,4.1765961)" />
    <g
       id="g305"
       transform="matrix(0.35277777,0,0,-0.35277777,73.453864,-15.823434)" />
    <g
       id="g307"
       transform="matrix(0.35277777,0,0,-0.35277777,53.453834,4.1765961)" />
    <g
       id="g313"
       transform="matrix(0.35277777,0,0,-0.35277777,57.453981,0.17680204)" />
    <g
       id="g315"
       transform="matrix(0.35277777,0,0,-0.35277777,53.453834,4.1765964)" />
    <g
       id="g321"
       transform="matrix(0.35277777,0,0,-0.35277777,65.453923,0.17680204)" />
    <g
       id="g323"
       transform="matrix(0.35277777,0,0,-0.35277777,53.453834,4.1765964)" />
    <g
       id="g329"
       transform="matrix(0.35277777,0,0,-0.35277777,57.453981,-7.8231394)" />
    <g
       id="g331"
       transform="matrix(0.35277777,0,0,-0.35277777,53.453834,4.1765964)" />
    <g
       id="g337"
       transform="matrix(0.35277777,0,0,-0.35277777,65.453923,-7.8231394)" />
    <g
       id="g339"
       transform="matrix(0.35277777,0,0,-0.35277777,53.453834,4.1765964)" />
    <g
       id="g345"
       transform="matrix(0.35277777,0,0,-0.35277777,81.453806,0.17680204)" />
    <g
       id="g347"
       transform="matrix(0.35277777,0,0,-0.35277777,53.453834,4.1765964)" />
    <g
       id="g353"
       transform="matrix(0.35277777,0,0,-0.35277777,73.453864,0.17680204)" />
    <g
       id="g355"
       transform="matrix(0.35277777,0,0,-0.35277777,53.453834,4.1765964)" />
    <g
       id="g361"
       transform="matrix(0.35277777,0,0,-0.35277777,81.453806,-7.8231394)" />
    <g
       id="g363"
       transform="matrix(0.35277777,0,0,-0.35277777,53.453834,4.1765964)" />
    <g
       id="g369"
       transform="matrix(0.35277777,0,0,-0.35277777,73.453864,-7.8231394)" />
    <g
       id="g371"
       transform="matrix(0.35277777,0,0,-0.35277777,53.453834,4.1765964)" />
  </g>
</svg>
