<?xml version="1.0" encoding="utf-8" standalone="no"?>
<!DOCTYPE svg PUBLIC "-//W3C//DTD SVG 1.1//EN"
  "http://www.w3.org/Graphics/SVG/1.1/DTD/svg11.dtd">
<!-- Created with matplotlib (https://matplotlib.org/) -->
<svg height="176.529375pt" version="1.1" viewBox="0 0 281.527986 176.529375" width="281.527986pt" xmlns="http://www.w3.org/2000/svg" xmlns:xlink="http://www.w3.org/1999/xlink">
 <metadata>
  <rdf:RDF xmlns:cc="http://creativecommons.org/ns#" xmlns:dc="http://purl.org/dc/elements/1.1/" xmlns:rdf="http://www.w3.org/1999/02/22-rdf-syntax-ns#">
   <cc:Work>
    <dc:type rdf:resource="http://purl.org/dc/dcmitype/StillImage"/>
    <dc:date>2021-03-22T14:16:35.800814</dc:date>
    <dc:format>image/svg+xml</dc:format>
    <dc:creator>
     <cc:Agent>
      <dc:title>Matplotlib v3.3.4, https://matplotlib.org/</dc:title>
     </cc:Agent>
    </dc:creator>
   </cc:Work>
  </rdf:RDF>
 </metadata>
 <defs>
  <style type="text/css">*{stroke-linecap:butt;stroke-linejoin:round;}</style>
 </defs>
 <g id="figure_1">
  <g id="patch_1">
   <path d="M 0 176.529375 
L 281.527986 176.529375 
L 281.527986 0 
L 0 0 
z
" style="fill:#ffffff;"/>
  </g>
  <g id="axes_1">
   <g id="patch_2">
    <path d="M 52.160938 138.973125 
L 151.501847 138.973125 
L 151.501847 22.318125 
L 52.160938 22.318125 
z
" style="fill:#ffffff;"/>
   </g>
   <g id="matplotlib.axis_1">
    <g id="xtick_1">
     <g id="line2d_1">
      <defs>
       <path d="M 0 0 
L 0 3.5 
" id="m2d97162fa3" style="stroke:#000000;stroke-width:0.8;"/>
      </defs>
      <g>
       <use style="stroke:#000000;stroke-width:0.8;" x="56.676433" xlink:href="#m2d97162fa3" y="138.973125"/>
      </g>
     </g>
     <g id="text_1">
      <!-- 0.0 -->
      <g transform="translate(48.724871 153.571562)scale(0.1 -0.1)">
       <defs>
        <path d="M 31.78125 66.40625 
Q 24.171875 66.40625 20.328125 58.90625 
Q 16.5 51.421875 16.5 36.375 
Q 16.5 21.390625 20.328125 13.890625 
Q 24.171875 6.390625 31.78125 6.390625 
Q 39.453125 6.390625 43.28125 13.890625 
Q 47.125 21.390625 47.125 36.375 
Q 47.125 51.421875 43.28125 58.90625 
Q 39.453125 66.40625 31.78125 66.40625 
z
M 31.78125 74.21875 
Q 44.046875 74.21875 50.515625 64.515625 
Q 56.984375 54.828125 56.984375 36.375 
Q 56.984375 17.96875 50.515625 8.265625 
Q 44.046875 -1.421875 31.78125 -1.421875 
Q 19.53125 -1.421875 13.0625 8.265625 
Q 6.59375 17.96875 6.59375 36.375 
Q 6.59375 54.828125 13.0625 64.515625 
Q 19.53125 74.21875 31.78125 74.21875 
z
" id="DejaVuSans-48"/>
        <path d="M 10.6875 12.40625 
L 21 12.40625 
L 21 0 
L 10.6875 0 
z
" id="DejaVuSans-46"/>
       </defs>
       <use xlink:href="#DejaVuSans-48"/>
       <use x="63.623047" xlink:href="#DejaVuSans-46"/>
       <use x="95.410156" xlink:href="#DejaVuSans-48"/>
      </g>
     </g>
    </g>
    <g id="xtick_2">
     <g id="line2d_2">
      <g>
       <use style="stroke:#000000;stroke-width:0.8;" x="101.921883" xlink:href="#m2d97162fa3" y="138.973125"/>
      </g>
     </g>
     <g id="text_2">
      <!-- 0.5 -->
      <g transform="translate(93.97032 153.571562)scale(0.1 -0.1)">
       <defs>
        <path d="M 10.796875 72.90625 
L 49.515625 72.90625 
L 49.515625 64.59375 
L 19.828125 64.59375 
L 19.828125 46.734375 
Q 21.96875 47.46875 24.109375 47.828125 
Q 26.265625 48.1875 28.421875 48.1875 
Q 40.625 48.1875 47.75 41.5 
Q 54.890625 34.8125 54.890625 23.390625 
Q 54.890625 11.625 47.5625 5.09375 
Q 40.234375 -1.421875 26.90625 -1.421875 
Q 22.3125 -1.421875 17.546875 -0.640625 
Q 12.796875 0.140625 7.71875 1.703125 
L 7.71875 11.625 
Q 12.109375 9.234375 16.796875 8.0625 
Q 21.484375 6.890625 26.703125 6.890625 
Q 35.15625 6.890625 40.078125 11.328125 
Q 45.015625 15.765625 45.015625 23.390625 
Q 45.015625 31 40.078125 35.4375 
Q 35.15625 39.890625 26.703125 39.890625 
Q 22.75 39.890625 18.8125 39.015625 
Q 14.890625 38.140625 10.796875 36.28125 
z
" id="DejaVuSans-53"/>
       </defs>
       <use xlink:href="#DejaVuSans-48"/>
       <use x="63.623047" xlink:href="#DejaVuSans-46"/>
       <use x="95.410156" xlink:href="#DejaVuSans-53"/>
      </g>
     </g>
    </g>
    <g id="xtick_3">
     <g id="line2d_3">
      <g>
       <use style="stroke:#000000;stroke-width:0.8;" x="147.167333" xlink:href="#m2d97162fa3" y="138.973125"/>
      </g>
     </g>
     <g id="text_3">
      <!-- 1.0 -->
      <g transform="translate(139.21577 153.571562)scale(0.1 -0.1)">
       <defs>
        <path d="M 12.40625 8.296875 
L 28.515625 8.296875 
L 28.515625 63.921875 
L 10.984375 60.40625 
L 10.984375 69.390625 
L 28.421875 72.90625 
L 38.28125 72.90625 
L 38.28125 8.296875 
L 54.390625 8.296875 
L 54.390625 0 
L 12.40625 0 
z
" id="DejaVuSans-49"/>
       </defs>
       <use xlink:href="#DejaVuSans-49"/>
       <use x="63.623047" xlink:href="#DejaVuSans-46"/>
       <use x="95.410156" xlink:href="#DejaVuSans-48"/>
      </g>
     </g>
    </g>
    <g id="text_4">
     <!-- Tiempo (s) -->
     <g transform="translate(75.268892 167.249687)scale(0.1 -0.1)">
      <defs>
       <path d="M -0.296875 72.90625 
L 61.375 72.90625 
L 61.375 64.59375 
L 35.5 64.59375 
L 35.5 0 
L 25.59375 0 
L 25.59375 64.59375 
L -0.296875 64.59375 
z
" id="DejaVuSans-84"/>
       <path d="M 9.421875 54.6875 
L 18.40625 54.6875 
L 18.40625 0 
L 9.421875 0 
z
M 9.421875 75.984375 
L 18.40625 75.984375 
L 18.40625 64.59375 
L 9.421875 64.59375 
z
" id="DejaVuSans-105"/>
       <path d="M 56.203125 29.59375 
L 56.203125 25.203125 
L 14.890625 25.203125 
Q 15.484375 15.921875 20.484375 11.0625 
Q 25.484375 6.203125 34.421875 6.203125 
Q 39.59375 6.203125 44.453125 7.46875 
Q 49.3125 8.734375 54.109375 11.28125 
L 54.109375 2.78125 
Q 49.265625 0.734375 44.1875 -0.34375 
Q 39.109375 -1.421875 33.890625 -1.421875 
Q 20.796875 -1.421875 13.15625 6.1875 
Q 5.515625 13.8125 5.515625 26.8125 
Q 5.515625 40.234375 12.765625 48.109375 
Q 20.015625 56 32.328125 56 
Q 43.359375 56 49.78125 48.890625 
Q 56.203125 41.796875 56.203125 29.59375 
z
M 47.21875 32.234375 
Q 47.125 39.59375 43.09375 43.984375 
Q 39.0625 48.390625 32.421875 48.390625 
Q 24.90625 48.390625 20.390625 44.140625 
Q 15.875 39.890625 15.1875 32.171875 
z
" id="DejaVuSans-101"/>
       <path d="M 52 44.1875 
Q 55.375 50.25 60.0625 53.125 
Q 64.75 56 71.09375 56 
Q 79.640625 56 84.28125 50.015625 
Q 88.921875 44.046875 88.921875 33.015625 
L 88.921875 0 
L 79.890625 0 
L 79.890625 32.71875 
Q 79.890625 40.578125 77.09375 44.375 
Q 74.3125 48.1875 68.609375 48.1875 
Q 61.625 48.1875 57.5625 43.546875 
Q 53.515625 38.921875 53.515625 30.90625 
L 53.515625 0 
L 44.484375 0 
L 44.484375 32.71875 
Q 44.484375 40.625 41.703125 44.40625 
Q 38.921875 48.1875 33.109375 48.1875 
Q 26.21875 48.1875 22.15625 43.53125 
Q 18.109375 38.875 18.109375 30.90625 
L 18.109375 0 
L 9.078125 0 
L 9.078125 54.6875 
L 18.109375 54.6875 
L 18.109375 46.1875 
Q 21.1875 51.21875 25.484375 53.609375 
Q 29.78125 56 35.6875 56 
Q 41.65625 56 45.828125 52.96875 
Q 50 49.953125 52 44.1875 
z
" id="DejaVuSans-109"/>
       <path d="M 18.109375 8.203125 
L 18.109375 -20.796875 
L 9.078125 -20.796875 
L 9.078125 54.6875 
L 18.109375 54.6875 
L 18.109375 46.390625 
Q 20.953125 51.265625 25.265625 53.625 
Q 29.59375 56 35.59375 56 
Q 45.5625 56 51.78125 48.09375 
Q 58.015625 40.1875 58.015625 27.296875 
Q 58.015625 14.40625 51.78125 6.484375 
Q 45.5625 -1.421875 35.59375 -1.421875 
Q 29.59375 -1.421875 25.265625 0.953125 
Q 20.953125 3.328125 18.109375 8.203125 
z
M 48.6875 27.296875 
Q 48.6875 37.203125 44.609375 42.84375 
Q 40.53125 48.484375 33.40625 48.484375 
Q 26.265625 48.484375 22.1875 42.84375 
Q 18.109375 37.203125 18.109375 27.296875 
Q 18.109375 17.390625 22.1875 11.75 
Q 26.265625 6.109375 33.40625 6.109375 
Q 40.53125 6.109375 44.609375 11.75 
Q 48.6875 17.390625 48.6875 27.296875 
z
" id="DejaVuSans-112"/>
       <path d="M 30.609375 48.390625 
Q 23.390625 48.390625 19.1875 42.75 
Q 14.984375 37.109375 14.984375 27.296875 
Q 14.984375 17.484375 19.15625 11.84375 
Q 23.34375 6.203125 30.609375 6.203125 
Q 37.796875 6.203125 41.984375 11.859375 
Q 46.1875 17.53125 46.1875 27.296875 
Q 46.1875 37.015625 41.984375 42.703125 
Q 37.796875 48.390625 30.609375 48.390625 
z
M 30.609375 56 
Q 42.328125 56 49.015625 48.375 
Q 55.71875 40.765625 55.71875 27.296875 
Q 55.71875 13.875 49.015625 6.21875 
Q 42.328125 -1.421875 30.609375 -1.421875 
Q 18.84375 -1.421875 12.171875 6.21875 
Q 5.515625 13.875 5.515625 27.296875 
Q 5.515625 40.765625 12.171875 48.375 
Q 18.84375 56 30.609375 56 
z
" id="DejaVuSans-111"/>
       <path id="DejaVuSans-32"/>
       <path d="M 31 75.875 
Q 24.46875 64.65625 21.28125 53.65625 
Q 18.109375 42.671875 18.109375 31.390625 
Q 18.109375 20.125 21.3125 9.0625 
Q 24.515625 -2 31 -13.1875 
L 23.1875 -13.1875 
Q 15.875 -1.703125 12.234375 9.375 
Q 8.59375 20.453125 8.59375 31.390625 
Q 8.59375 42.28125 12.203125 53.3125 
Q 15.828125 64.359375 23.1875 75.875 
z
" id="DejaVuSans-40"/>
       <path d="M 44.28125 53.078125 
L 44.28125 44.578125 
Q 40.484375 46.53125 36.375 47.5 
Q 32.28125 48.484375 27.875 48.484375 
Q 21.1875 48.484375 17.84375 46.4375 
Q 14.5 44.390625 14.5 40.28125 
Q 14.5 37.15625 16.890625 35.375 
Q 19.28125 33.59375 26.515625 31.984375 
L 29.59375 31.296875 
Q 39.15625 29.25 43.1875 25.515625 
Q 47.21875 21.78125 47.21875 15.09375 
Q 47.21875 7.46875 41.1875 3.015625 
Q 35.15625 -1.421875 24.609375 -1.421875 
Q 20.21875 -1.421875 15.453125 -0.5625 
Q 10.6875 0.296875 5.421875 2 
L 5.421875 11.28125 
Q 10.40625 8.6875 15.234375 7.390625 
Q 20.0625 6.109375 24.8125 6.109375 
Q 31.15625 6.109375 34.5625 8.28125 
Q 37.984375 10.453125 37.984375 14.40625 
Q 37.984375 18.0625 35.515625 20.015625 
Q 33.0625 21.96875 24.703125 23.78125 
L 21.578125 24.515625 
Q 13.234375 26.265625 9.515625 29.90625 
Q 5.8125 33.546875 5.8125 39.890625 
Q 5.8125 47.609375 11.28125 51.796875 
Q 16.75 56 26.8125 56 
Q 31.78125 56 36.171875 55.265625 
Q 40.578125 54.546875 44.28125 53.078125 
z
" id="DejaVuSans-115"/>
       <path d="M 8.015625 75.875 
L 15.828125 75.875 
Q 23.140625 64.359375 26.78125 53.3125 
Q 30.421875 42.28125 30.421875 31.390625 
Q 30.421875 20.453125 26.78125 9.375 
Q 23.140625 -1.703125 15.828125 -13.1875 
L 8.015625 -13.1875 
Q 14.5 -2 17.703125 9.0625 
Q 20.90625 20.125 20.90625 31.390625 
Q 20.90625 42.671875 17.703125 53.65625 
Q 14.5 64.65625 8.015625 75.875 
z
" id="DejaVuSans-41"/>
      </defs>
      <use xlink:href="#DejaVuSans-84"/>
      <use x="57.958984" xlink:href="#DejaVuSans-105"/>
      <use x="85.742188" xlink:href="#DejaVuSans-101"/>
      <use x="147.265625" xlink:href="#DejaVuSans-109"/>
      <use x="244.677734" xlink:href="#DejaVuSans-112"/>
      <use x="308.154297" xlink:href="#DejaVuSans-111"/>
      <use x="369.335938" xlink:href="#DejaVuSans-32"/>
      <use x="401.123047" xlink:href="#DejaVuSans-40"/>
      <use x="440.136719" xlink:href="#DejaVuSans-115"/>
      <use x="492.236328" xlink:href="#DejaVuSans-41"/>
     </g>
    </g>
   </g>
   <g id="matplotlib.axis_2">
    <g id="ytick_1">
     <g id="line2d_4">
      <defs>
       <path d="M 0 0 
L -3.5 0 
" id="md59f49e481" style="stroke:#000000;stroke-width:0.8;"/>
      </defs>
      <g>
       <use style="stroke:#000000;stroke-width:0.8;" x="52.160938" xlink:href="#md59f49e481" y="133.670625"/>
      </g>
     </g>
     <g id="text_5">
      <!-- −1.0 -->
      <g transform="translate(20.878125 137.469844)scale(0.1 -0.1)">
       <defs>
        <path d="M 10.59375 35.5 
L 73.1875 35.5 
L 73.1875 27.203125 
L 10.59375 27.203125 
z
" id="DejaVuSans-8722"/>
       </defs>
       <use xlink:href="#DejaVuSans-8722"/>
       <use x="83.789062" xlink:href="#DejaVuSans-49"/>
       <use x="147.412109" xlink:href="#DejaVuSans-46"/>
       <use x="179.199219" xlink:href="#DejaVuSans-48"/>
      </g>
     </g>
    </g>
    <g id="ytick_2">
     <g id="line2d_5">
      <g>
       <use style="stroke:#000000;stroke-width:0.8;" x="52.160938" xlink:href="#md59f49e481" y="107.158125"/>
      </g>
     </g>
     <g id="text_6">
      <!-- −0.5 -->
      <g transform="translate(20.878125 110.957344)scale(0.1 -0.1)">
       <use xlink:href="#DejaVuSans-8722"/>
       <use x="83.789062" xlink:href="#DejaVuSans-48"/>
       <use x="147.412109" xlink:href="#DejaVuSans-46"/>
       <use x="179.199219" xlink:href="#DejaVuSans-53"/>
      </g>
     </g>
    </g>
    <g id="ytick_3">
     <g id="line2d_6">
      <g>
       <use style="stroke:#000000;stroke-width:0.8;" x="52.160938" xlink:href="#md59f49e481" y="80.645625"/>
      </g>
     </g>
     <g id="text_7">
      <!-- 0.0 -->
      <g transform="translate(29.257812 84.444844)scale(0.1 -0.1)">
       <use xlink:href="#DejaVuSans-48"/>
       <use x="63.623047" xlink:href="#DejaVuSans-46"/>
       <use x="95.410156" xlink:href="#DejaVuSans-48"/>
      </g>
     </g>
    </g>
    <g id="ytick_4">
     <g id="line2d_7">
      <g>
       <use style="stroke:#000000;stroke-width:0.8;" x="52.160938" xlink:href="#md59f49e481" y="54.133125"/>
      </g>
     </g>
     <g id="text_8">
      <!-- 0.5 -->
      <g transform="translate(29.257812 57.932344)scale(0.1 -0.1)">
       <use xlink:href="#DejaVuSans-48"/>
       <use x="63.623047" xlink:href="#DejaVuSans-46"/>
       <use x="95.410156" xlink:href="#DejaVuSans-53"/>
      </g>
     </g>
    </g>
    <g id="ytick_5">
     <g id="line2d_8">
      <g>
       <use style="stroke:#000000;stroke-width:0.8;" x="52.160938" xlink:href="#md59f49e481" y="27.620625"/>
      </g>
     </g>
     <g id="text_9">
      <!-- 1.0 -->
      <g transform="translate(29.257812 31.419844)scale(0.1 -0.1)">
       <use xlink:href="#DejaVuSans-49"/>
       <use x="63.623047" xlink:href="#DejaVuSans-46"/>
       <use x="95.410156" xlink:href="#DejaVuSans-48"/>
      </g>
     </g>
    </g>
    <g id="text_10">
     <!-- Voltaje (V) -->
     <g transform="translate(14.798437 106.527656)rotate(-90)scale(0.1 -0.1)">
      <defs>
       <path d="M 28.609375 0 
L 0.78125 72.90625 
L 11.078125 72.90625 
L 34.1875 11.53125 
L 57.328125 72.90625 
L 67.578125 72.90625 
L 39.796875 0 
z
" id="DejaVuSans-86"/>
       <path d="M 9.421875 75.984375 
L 18.40625 75.984375 
L 18.40625 0 
L 9.421875 0 
z
" id="DejaVuSans-108"/>
       <path d="M 18.3125 70.21875 
L 18.3125 54.6875 
L 36.8125 54.6875 
L 36.8125 47.703125 
L 18.3125 47.703125 
L 18.3125 18.015625 
Q 18.3125 11.328125 20.140625 9.421875 
Q 21.96875 7.515625 27.59375 7.515625 
L 36.8125 7.515625 
L 36.8125 0 
L 27.59375 0 
Q 17.1875 0 13.234375 3.875 
Q 9.28125 7.765625 9.28125 18.015625 
L 9.28125 47.703125 
L 2.6875 47.703125 
L 2.6875 54.6875 
L 9.28125 54.6875 
L 9.28125 70.21875 
z
" id="DejaVuSans-116"/>
       <path d="M 34.28125 27.484375 
Q 23.390625 27.484375 19.1875 25 
Q 14.984375 22.515625 14.984375 16.5 
Q 14.984375 11.71875 18.140625 8.90625 
Q 21.296875 6.109375 26.703125 6.109375 
Q 34.1875 6.109375 38.703125 11.40625 
Q 43.21875 16.703125 43.21875 25.484375 
L 43.21875 27.484375 
z
M 52.203125 31.203125 
L 52.203125 0 
L 43.21875 0 
L 43.21875 8.296875 
Q 40.140625 3.328125 35.546875 0.953125 
Q 30.953125 -1.421875 24.3125 -1.421875 
Q 15.921875 -1.421875 10.953125 3.296875 
Q 6 8.015625 6 15.921875 
Q 6 25.140625 12.171875 29.828125 
Q 18.359375 34.515625 30.609375 34.515625 
L 43.21875 34.515625 
L 43.21875 35.40625 
Q 43.21875 41.609375 39.140625 45 
Q 35.0625 48.390625 27.6875 48.390625 
Q 23 48.390625 18.546875 47.265625 
Q 14.109375 46.140625 10.015625 43.890625 
L 10.015625 52.203125 
Q 14.9375 54.109375 19.578125 55.046875 
Q 24.21875 56 28.609375 56 
Q 40.484375 56 46.34375 49.84375 
Q 52.203125 43.703125 52.203125 31.203125 
z
" id="DejaVuSans-97"/>
       <path d="M 9.421875 54.6875 
L 18.40625 54.6875 
L 18.40625 -0.984375 
Q 18.40625 -11.421875 14.421875 -16.109375 
Q 10.453125 -20.796875 1.609375 -20.796875 
L -1.8125 -20.796875 
L -1.8125 -13.1875 
L 0.59375 -13.1875 
Q 5.71875 -13.1875 7.5625 -10.8125 
Q 9.421875 -8.453125 9.421875 -0.984375 
z
M 9.421875 75.984375 
L 18.40625 75.984375 
L 18.40625 64.59375 
L 9.421875 64.59375 
z
" id="DejaVuSans-106"/>
      </defs>
      <use xlink:href="#DejaVuSans-86"/>
      <use x="60.658203" xlink:href="#DejaVuSans-111"/>
      <use x="121.839844" xlink:href="#DejaVuSans-108"/>
      <use x="149.623047" xlink:href="#DejaVuSans-116"/>
      <use x="188.832031" xlink:href="#DejaVuSans-97"/>
      <use x="250.111328" xlink:href="#DejaVuSans-106"/>
      <use x="277.894531" xlink:href="#DejaVuSans-101"/>
      <use x="339.417969" xlink:href="#DejaVuSans-32"/>
      <use x="371.205078" xlink:href="#DejaVuSans-40"/>
      <use x="410.21875" xlink:href="#DejaVuSans-86"/>
      <use x="478.626953" xlink:href="#DejaVuSans-41"/>
     </g>
    </g>
   </g>
   <g id="line2d_9">
    <path clip-path="url(#pe1e5c86b4b)" d="M 56.676433 80.645625 
L 58.30527 52.233409 
L 59.210179 39.78916 
L 59.934106 32.667171 
L 60.477051 29.286503 
L 60.839015 28.038743 
L 61.200978 27.620625 
L 61.38196 27.725258 
L 61.743924 28.559844 
L 62.105887 30.215853 
L 62.648833 34.179463 
L 63.37276 41.992064 
L 64.277669 55.100636 
L 65.725523 80.645625 
L 67.354359 109.057841 
L 68.259268 121.50209 
L 68.983196 128.624079 
L 69.526141 132.004747 
L 69.888105 133.252507 
L 70.250068 133.670625 
L 70.43105 133.565992 
L 70.793014 132.731406 
L 71.154977 131.075397 
L 71.697923 127.111787 
L 72.42185 119.299186 
L 73.326759 106.190614 
L 74.774613 80.645625 
L 76.403449 52.233409 
L 77.308358 39.78916 
L 78.032286 32.667171 
L 78.575231 29.286503 
L 78.937195 28.038743 
L 79.299158 27.620625 
L 79.48014 27.725258 
L 79.842104 28.559844 
L 80.204067 30.215853 
L 80.747013 34.179463 
L 81.47094 41.992064 
L 82.375849 55.100636 
L 83.823703 80.645625 
L 85.452539 109.057841 
L 86.357448 121.50209 
L 87.081375 128.624079 
L 87.624321 132.004747 
L 87.986284 133.252507 
L 88.348248 133.670625 
L 88.52923 133.565992 
L 88.891193 132.731406 
L 89.253157 131.075397 
L 89.796102 127.111787 
L 90.52003 119.299186 
L 91.424939 106.190614 
L 92.872793 80.645625 
L 94.501629 52.233409 
L 95.406538 39.78916 
L 96.130465 32.667171 
L 96.673411 29.286503 
L 97.035374 28.038743 
L 97.397338 27.620625 
L 97.57832 27.725258 
L 97.940283 28.559844 
L 98.302247 30.215853 
L 98.845192 34.179463 
L 99.56912 41.992064 
L 100.474029 55.100636 
L 101.921883 80.645625 
L 103.550719 109.057841 
L 104.455628 121.50209 
L 105.179555 128.624079 
L 105.722501 132.004747 
L 106.084464 133.252507 
L 106.446428 133.670625 
L 106.62741 133.565992 
L 106.989373 132.731406 
L 107.351337 131.075397 
L 107.894282 127.111787 
L 108.618209 119.299186 
L 109.523118 106.190614 
L 110.970973 80.645625 
L 112.599809 52.233409 
L 113.504718 39.78916 
L 114.228645 32.667171 
L 114.771591 29.286503 
L 115.133554 28.038743 
L 115.495518 27.620625 
L 115.6765 27.725258 
L 116.038463 28.559844 
L 116.400427 30.215853 
L 116.943372 34.179463 
L 117.667299 41.992064 
L 118.572208 55.100636 
L 120.020063 80.645625 
L 121.648899 109.057841 
L 122.553808 121.50209 
L 123.277735 128.624079 
L 123.820681 132.004747 
L 124.182644 133.252507 
L 124.544608 133.670625 
L 124.72559 133.565992 
L 125.087553 132.731406 
L 125.449517 131.075397 
L 125.992462 127.111787 
L 126.716389 119.299186 
L 127.621298 106.190614 
L 129.069153 80.645625 
L 130.697989 52.233409 
L 131.602898 39.78916 
L 132.326825 32.667171 
L 132.86977 29.286503 
L 133.231734 28.038743 
L 133.593698 27.620625 
L 133.774679 27.725258 
L 134.136643 28.559844 
L 134.498607 30.215853 
L 135.041552 34.179463 
L 135.765479 41.992064 
L 136.670388 55.100636 
L 138.118243 80.645625 
L 139.747079 109.057841 
L 140.651988 121.50209 
L 141.375915 128.624079 
L 141.91886 132.004747 
L 142.280824 133.252507 
L 142.642788 133.670625 
L 142.823769 133.565992 
L 143.185733 132.731406 
L 143.547697 131.075397 
L 144.090642 127.111787 
L 144.814569 119.299186 
L 145.719478 106.190614 
L 146.986351 83.975092 
L 146.986351 83.975092 
" style="fill:none;stroke:#000000;stroke-linecap:square;stroke-width:1.5;"/>
   </g>
   <g id="patch_3">
    <path d="M 52.160938 138.973125 
L 52.160938 22.318125 
" style="fill:none;stroke:#000000;stroke-linecap:square;stroke-linejoin:miter;stroke-width:0.8;"/>
   </g>
   <g id="patch_4">
    <path d="M 151.501847 138.973125 
L 151.501847 22.318125 
" style="fill:none;stroke:#000000;stroke-linecap:square;stroke-linejoin:miter;stroke-width:0.8;"/>
   </g>
   <g id="patch_5">
    <path d="M 52.160938 138.973125 
L 151.501847 138.973125 
" style="fill:none;stroke:#000000;stroke-linecap:square;stroke-linejoin:miter;stroke-width:0.8;"/>
   </g>
   <g id="patch_6">
    <path d="M 52.160938 22.318125 
L 151.501847 22.318125 
" style="fill:none;stroke:#000000;stroke-linecap:square;stroke-linejoin:miter;stroke-width:0.8;"/>
   </g>
   <g id="text_11">
    <!-- (a) -->
    <g transform="translate(93.472642 16.318125)scale(0.12 -0.12)">
     <use xlink:href="#DejaVuSans-40"/>
     <use x="39.013672" xlink:href="#DejaVuSans-97"/>
     <use x="100.292969" xlink:href="#DejaVuSans-41"/>
    </g>
   </g>
  </g>
  <g id="axes_2">
   <g id="patch_7">
    <path d="M 171.370028 138.973125 
L 270.710938 138.973125 
L 270.710938 22.318125 
L 171.370028 22.318125 
z
" style="fill:#ffffff;"/>
   </g>
   <g id="matplotlib.axis_3">
    <g id="xtick_4">
     <g id="line2d_10">
      <g>
       <use style="stroke:#000000;stroke-width:0.8;" x="175.885524" xlink:href="#m2d97162fa3" y="138.973125"/>
      </g>
     </g>
     <g id="text_12">
      <!-- 0.0 -->
      <g transform="translate(167.933962 153.571562)scale(0.1 -0.1)">
       <use xlink:href="#DejaVuSans-48"/>
       <use x="63.623047" xlink:href="#DejaVuSans-46"/>
       <use x="95.410156" xlink:href="#DejaVuSans-48"/>
      </g>
     </g>
    </g>
    <g id="xtick_5">
     <g id="line2d_11">
      <g>
       <use style="stroke:#000000;stroke-width:0.8;" x="221.130974" xlink:href="#m2d97162fa3" y="138.973125"/>
      </g>
     </g>
     <g id="text_13">
      <!-- 0.5 -->
      <g transform="translate(213.179411 153.571562)scale(0.1 -0.1)">
       <use xlink:href="#DejaVuSans-48"/>
       <use x="63.623047" xlink:href="#DejaVuSans-46"/>
       <use x="95.410156" xlink:href="#DejaVuSans-53"/>
      </g>
     </g>
    </g>
    <g id="xtick_6">
     <g id="line2d_12">
      <g>
       <use style="stroke:#000000;stroke-width:0.8;" x="266.376423" xlink:href="#m2d97162fa3" y="138.973125"/>
      </g>
     </g>
     <g id="text_14">
      <!-- 1.0 -->
      <g transform="translate(258.424861 153.571562)scale(0.1 -0.1)">
       <use xlink:href="#DejaVuSans-49"/>
       <use x="63.623047" xlink:href="#DejaVuSans-46"/>
       <use x="95.410156" xlink:href="#DejaVuSans-48"/>
      </g>
     </g>
    </g>
    <g id="text_15">
     <!-- Tiempo (s) -->
     <g transform="translate(194.477983 167.249687)scale(0.1 -0.1)">
      <use xlink:href="#DejaVuSans-84"/>
      <use x="57.958984" xlink:href="#DejaVuSans-105"/>
      <use x="85.742188" xlink:href="#DejaVuSans-101"/>
      <use x="147.265625" xlink:href="#DejaVuSans-109"/>
      <use x="244.677734" xlink:href="#DejaVuSans-112"/>
      <use x="308.154297" xlink:href="#DejaVuSans-111"/>
      <use x="369.335938" xlink:href="#DejaVuSans-32"/>
      <use x="401.123047" xlink:href="#DejaVuSans-40"/>
      <use x="440.136719" xlink:href="#DejaVuSans-115"/>
      <use x="492.236328" xlink:href="#DejaVuSans-41"/>
     </g>
    </g>
   </g>
   <g id="matplotlib.axis_4">
    <g id="ytick_6">
     <g id="line2d_13">
      <g>
       <use style="stroke:#000000;stroke-width:0.8;" x="171.370028" xlink:href="#md59f49e481" y="126.316764"/>
      </g>
     </g>
     <g id="text_16">
      <!-- −1 -->
      <g transform="translate(149.627841 130.115982)scale(0.1 -0.1)">
       <use xlink:href="#DejaVuSans-8722"/>
       <use x="83.789062" xlink:href="#DejaVuSans-49"/>
      </g>
     </g>
    </g>
    <g id="ytick_7">
     <g id="line2d_14">
      <g>
       <use style="stroke:#000000;stroke-width:0.8;" x="171.370028" xlink:href="#md59f49e481" y="81.799415"/>
      </g>
     </g>
     <g id="text_17">
      <!-- 0 -->
      <g transform="translate(158.007528 85.598634)scale(0.1 -0.1)">
       <use xlink:href="#DejaVuSans-48"/>
      </g>
     </g>
    </g>
    <g id="ytick_8">
     <g id="line2d_15">
      <g>
       <use style="stroke:#000000;stroke-width:0.8;" x="171.370028" xlink:href="#md59f49e481" y="37.282066"/>
      </g>
     </g>
     <g id="text_18">
      <!-- 1 -->
      <g transform="translate(158.007528 41.081285)scale(0.1 -0.1)">
       <use xlink:href="#DejaVuSans-49"/>
      </g>
     </g>
    </g>
   </g>
   <g id="line2d_16">
    <path clip-path="url(#pdea4b37969)" d="M 175.885524 89.775623 
L 176.609451 67.30757 
L 176.790433 72.968792 
L 176.971415 61.820606 
L 177.152397 64.482705 
L 177.333379 62.656986 
L 177.51436 52.723316 
L 177.876324 60.080375 
L 178.057306 38.864936 
L 178.419269 58.503189 
L 178.600251 47.887547 
L 178.781233 49.41627 
L 178.962215 38.043236 
L 179.143197 38.597205 
L 179.324178 42.075321 
L 179.50516 38.307739 
L 179.686142 37.495981 
L 179.867124 31.993157 
L 180.048106 29.994757 
L 180.229087 47.067803 
L 180.410069 36.642824 
L 180.591051 38.460526 
L 180.772033 37.102789 
L 180.953015 39.318595 
L 181.133996 50.834737 
L 181.314978 40.27808 
L 181.49596 41.95542 
L 181.676942 49.305302 
L 181.857924 38.184352 
L 182.038905 39.712342 
L 182.400869 52.849826 
L 182.581851 40.43435 
L 182.762833 51.594185 
L 182.943814 48.670893 
L 183.124796 58.765354 
L 183.305778 56.194688 
L 183.48676 67.955546 
L 183.667742 62.328844 
L 183.848723 66.858413 
L 184.029705 68.281516 
L 184.210687 76.291526 
L 184.391669 70.295719 
L 184.572651 73.072921 
L 184.934614 83.28333 
L 185.115596 77.803833 
L 185.296578 88.887713 
L 185.47756 106.903902 
L 185.658541 87.167773 
L 185.839523 87.824804 
L 186.201487 98.663876 
L 186.56345 104.398047 
L 186.744432 99.343929 
L 186.925414 109.609542 
L 187.287378 114.037175 
L 187.468359 111.404938 
L 187.649341 113.181596 
L 187.830323 111.49408 
L 188.011305 122.610824 
L 188.192287 113.453835 
L 188.373268 124.064601 
L 188.55425 123.337481 
L 188.735232 123.665693 
L 188.916214 123.410013 
L 189.278177 118.379449 
L 189.459159 120.238202 
L 189.640141 128.059207 
L 189.821123 122.02845 
L 190.002105 122.844274 
L 190.183086 128.656899 
L 190.364068 124.503858 
L 190.54505 117.26179 
L 190.726032 118.994273 
L 190.907014 126.13938 
L 191.087995 121.805932 
L 191.268977 105.890049 
L 191.449959 115.74194 
L 191.630941 116.288428 
L 191.811923 114.588709 
L 191.992904 108.437012 
L 192.173886 118.559563 
L 192.354868 113.06535 
L 192.53585 97.281032 
L 192.716832 98.109422 
L 192.897813 97.421822 
L 193.078795 91.794219 
L 193.440759 86.896162 
L 193.621741 83.685776 
L 193.802722 88.379794 
L 193.983704 84.117248 
L 194.345668 68.162516 
L 194.52665 74.708832 
L 194.707631 74.178372 
L 194.888613 70.796659 
L 195.069595 71.666373 
L 195.250577 64.133217 
L 195.431558 62.502873 
L 195.61254 64.20481 
L 195.793522 53.479651 
L 195.974504 54.714879 
L 196.155486 40.811482 
L 196.336467 47.018329 
L 196.517449 46.091805 
L 196.879413 37.894738 
L 197.060395 42.345757 
L 197.241376 39.665226 
L 197.422358 40.190977 
L 197.60334 41.942766 
L 197.784322 30.915967 
L 197.965304 37.125271 
L 198.146285 36.734478 
L 198.327267 31.080848 
L 198.508249 50.341022 
L 198.689231 36.6324 
L 198.870213 43.619392 
L 199.051194 39.112738 
L 199.232176 40.014355 
L 199.413158 32.782131 
L 199.59414 42.947303 
L 199.775122 44.272759 
L 199.956103 39.319085 
L 200.137085 40.543879 
L 200.318067 39.454338 
L 200.499049 50.988502 
L 200.680031 50.6 
L 200.861012 49.634371 
L 201.041994 55.628689 
L 201.222976 48.830926 
L 201.58494 58.746862 
L 201.765921 52.472035 
L 201.946903 66.530546 
L 202.127885 63.259393 
L 202.308867 64.349999 
L 202.489849 78.099993 
L 202.67083 71.951853 
L 202.851812 79.304579 
L 203.213776 80.700188 
L 203.756721 96.477652 
L 203.937703 86.117195 
L 204.118685 100.681302 
L 204.299667 99.706643 
L 204.480648 96.639441 
L 204.66163 110.553599 
L 204.842612 109.39159 
L 205.023594 121.424721 
L 205.204576 107.472454 
L 205.385557 118.353731 
L 205.566539 113.279869 
L 205.747521 116.393829 
L 205.928503 116.987004 
L 206.290466 124.332843 
L 206.65243 119.62484 
L 206.833412 126.368647 
L 207.014394 123.400756 
L 207.195375 125.892725 
L 207.376357 122.178265 
L 207.557339 130.234384 
L 207.738321 129.475597 
L 207.919303 133.670625 
L 208.281266 117.691145 
L 208.64323 127.811966 
L 209.186175 111.012143 
L 209.367157 120.51532 
L 209.548139 106.410975 
L 209.729121 119.355179 
L 209.910102 108.292618 
L 210.091084 114.756939 
L 210.272066 108.395505 
L 210.453048 113.999917 
L 210.815011 104.287693 
L 210.995993 98.171 
L 211.176975 86.571223 
L 211.357957 97.511884 
L 211.538939 86.339663 
L 211.71992 92.437597 
L 211.900902 84.25301 
L 212.081884 91.21403 
L 212.262866 76.451124 
L 212.443848 73.797125 
L 212.624829 75.211482 
L 212.805811 81.122029 
L 213.348757 65.270745 
L 213.891702 50.359369 
L 214.072684 56.907557 
L 214.253666 51.725149 
L 214.434647 42.869349 
L 214.615629 45.042664 
L 214.796611 58.631877 
L 215.158575 40.842659 
L 215.520538 48.694804 
L 215.70152 38.68777 
L 215.882502 45.637293 
L 216.063484 41.530106 
L 216.244465 40.452915 
L 216.425447 35.360516 
L 216.606429 38.775549 
L 216.968392 37.307034 
L 217.149374 40.189981 
L 217.330356 38.606735 
L 217.511338 35.98514 
L 217.69232 37.359865 
L 217.873301 45.716433 
L 218.054283 40.497476 
L 218.235265 42.364649 
L 218.416247 42.694583 
L 218.597229 43.980323 
L 218.77821 51.092812 
L 218.959192 50.41563 
L 219.140174 45.844857 
L 219.321156 64.740803 
L 219.502138 54.812151 
L 219.683119 58.300532 
L 219.864101 65.448847 
L 220.045083 65.217892 
L 220.226065 74.518625 
L 220.588028 72.088139 
L 221.130974 88.758459 
L 221.311956 84.980913 
L 221.492937 87.350742 
L 221.673919 95.782533 
L 221.854901 92.45136 
L 222.035883 95.667421 
L 222.216865 96.623704 
L 222.578828 101.020235 
L 222.75981 105.746161 
L 222.940792 105.532559 
L 223.121774 110.049596 
L 223.302755 111.154934 
L 223.483737 107.658795 
L 223.664719 122.682225 
L 223.845701 123.694709 
L 224.207664 115.56268 
L 224.388646 120.181777 
L 224.569628 130.593427 
L 224.931592 122.857011 
L 225.112573 124.828658 
L 225.293555 119.886866 
L 225.474537 124.056093 
L 225.655519 125.635393 
L 225.836501 133.098311 
L 226.017482 131.973439 
L 226.198464 129.937708 
L 226.379446 122.479592 
L 226.560428 130.845511 
L 226.922391 113.877688 
L 227.103373 121.656422 
L 227.646319 108.492351 
L 227.8273 110.743464 
L 228.008282 121.942295 
L 228.189264 100.960463 
L 228.370246 110.70532 
L 228.551228 110.156869 
L 228.732209 99.717908 
L 228.913191 98.752479 
L 229.094173 99.541457 
L 229.275155 89.011454 
L 229.637118 90.55199 
L 229.999082 79.157718 
L 230.361046 76.434128 
L 230.542027 78.822188 
L 230.723009 74.191847 
L 230.903991 57.089784 
L 231.084973 70.955287 
L 231.265955 58.335879 
L 231.446936 60.386131 
L 231.627918 65.768132 
L 232.170864 52.272423 
L 232.351845 51.55967 
L 232.532827 54.62471 
L 232.713809 44.940135 
L 232.894791 41.370782 
L 233.075773 43.546314 
L 233.256754 37.394822 
L 233.437736 44.886304 
L 233.618718 41.47979 
L 233.7997 35.79864 
L 233.980682 44.323279 
L 234.342645 33.357241 
L 234.523627 35.996912 
L 234.704609 28.478636 
L 234.885591 38.194613 
L 235.066572 27.620625 
L 235.247554 35.090569 
L 235.428536 35.487631 
L 235.609518 42.196065 
L 235.7905 38.669255 
L 235.971481 40.88761 
L 236.152463 37.800791 
L 236.514427 43.352945 
L 236.695409 37.553107 
L 236.87639 52.946445 
L 237.057372 51.437292 
L 237.419336 64.51278 
L 237.600317 53.829519 
L 237.781299 62.535257 
L 237.962281 62.693582 
L 238.324245 77.937473 
L 238.505226 72.155541 
L 238.686208 78.690115 
L 238.86719 75.15951 
L 239.048172 77.22096 
L 239.229154 84.619885 
L 239.410135 84.909929 
L 239.591117 86.76117 
L 239.772099 91.389411 
L 239.953081 81.086595 
L 240.134063 96.416158 
L 240.315044 98.059895 
L 240.496026 103.277837 
L 240.677008 99.565045 
L 240.85799 107.782454 
L 241.038972 108.564328 
L 241.219953 112.773825 
L 241.400935 106.665517 
L 241.581917 116.289931 
L 241.762899 116.937539 
L 241.943881 108.562921 
L 242.124862 122.774027 
L 242.305844 122.398638 
L 242.486826 128.263224 
L 242.84879 119.937114 
L 243.029771 122.744196 
L 243.210753 128.506009 
L 243.391735 128.45352 
L 243.753699 121.927824 
L 243.93468 128.869737 
L 244.296644 122.461001 
L 244.477626 124.807068 
L 244.658608 119.482412 
L 244.839589 119.034752 
L 245.020571 129.847977 
L 245.201553 113.561868 
L 245.382535 114.948419 
L 245.563517 114.287971 
L 245.744498 118.070652 
L 245.92548 107.039349 
L 246.106462 112.245113 
L 246.287444 110.136099 
L 246.468426 111.706514 
L 246.649407 106.173306 
L 246.830389 108.038993 
L 247.192353 89.811383 
L 247.373335 101.435845 
L 247.554316 93.113865 
L 247.735298 92.595904 
L 248.097262 81.702138 
L 248.278244 76.179424 
L 248.459225 77.732962 
L 248.640207 87.238268 
L 249.002171 68.786472 
L 249.183153 62.348771 
L 249.364134 72.834572 
L 249.545116 70.005919 
L 249.90708 57.415051 
L 250.088062 56.903843 
L 250.269043 55.520521 
L 250.450025 47.414234 
L 250.811989 54.818533 
L 250.992971 35.39368 
L 251.354934 43.820244 
L 251.535916 38.517946 
L 251.716898 40.805856 
L 251.89788 45.192719 
L 252.078861 39.865068 
L 252.259843 39.840286 
L 252.440825 39.156153 
L 252.621807 44.258556 
L 252.802789 33.234291 
L 252.98377 41.3335 
L 253.164752 37.278929 
L 253.345734 42.610361 
L 253.526716 43.307336 
L 253.707698 38.433699 
L 253.888679 38.135066 
L 254.069661 43.016199 
L 254.250643 41.316463 
L 254.431625 43.862715 
L 254.612607 40.594267 
L 254.793588 42.938053 
L 255.155552 52.729503 
L 255.336534 60.264473 
L 255.517516 57.167942 
L 255.698497 56.018424 
L 255.879479 56.763776 
L 256.060461 71.08009 
L 256.241443 59.086215 
L 256.422425 61.492145 
L 256.603406 78.265844 
L 256.784388 68.99351 
L 256.96537 82.999967 
L 257.146352 86.385937 
L 257.327334 84.373057 
L 257.508315 87.6662 
L 257.689297 84.867639 
L 257.870279 97.730104 
L 258.051261 94.306948 
L 258.232243 96.78678 
L 258.413224 96.892879 
L 258.775188 106.507789 
L 258.95617 104.586964 
L 259.137151 115.634303 
L 259.318133 114.246732 
L 259.499115 119.294977 
L 259.680097 116.76976 
L 259.861079 112.053236 
L 260.04206 114.341722 
L 260.223042 110.448366 
L 260.404024 113.344721 
L 260.585006 127.059811 
L 260.765988 116.390592 
L 260.946969 125.279989 
L 261.308933 130.764991 
L 261.489915 128.217197 
L 261.670897 131.462782 
L 261.851878 115.989814 
L 262.213842 130.897076 
L 262.756787 118.541043 
L 262.937769 122.446263 
L 263.299733 115.931012 
L 263.480715 118.213955 
L 263.661696 115.117205 
L 263.842678 115.730869 
L 264.02366 101.503175 
L 264.204642 114.285776 
L 264.385624 108.588408 
L 264.566605 115.297038 
L 264.747587 101.839887 
L 264.928569 109.81002 
L 265.109551 100.319499 
L 265.290533 96.658131 
L 265.471514 95.4982 
L 265.652496 89.815767 
L 266.01446 87.381762 
L 266.195442 80.263926 
L 266.195442 80.263926 
" style="fill:none;stroke:#000000;stroke-linecap:square;stroke-width:1.5;"/>
   </g>
   <g id="patch_8">
    <path d="M 171.370028 138.973125 
L 171.370028 22.318125 
" style="fill:none;stroke:#000000;stroke-linecap:square;stroke-linejoin:miter;stroke-width:0.8;"/>
   </g>
   <g id="patch_9">
    <path d="M 270.710938 138.973125 
L 270.710938 22.318125 
" style="fill:none;stroke:#000000;stroke-linecap:square;stroke-linejoin:miter;stroke-width:0.8;"/>
   </g>
   <g id="patch_10">
    <path d="M 171.370028 138.973125 
L 270.710938 138.973125 
" style="fill:none;stroke:#000000;stroke-linecap:square;stroke-linejoin:miter;stroke-width:0.8;"/>
   </g>
   <g id="patch_11">
    <path d="M 171.370028 22.318125 
L 270.710938 22.318125 
" style="fill:none;stroke:#000000;stroke-linecap:square;stroke-linejoin:miter;stroke-width:0.8;"/>
   </g>
   <g id="text_19">
    <!-- (b) -->
    <g transform="translate(212.549545 16.318125)scale(0.12 -0.12)">
     <defs>
      <path d="M 48.6875 27.296875 
Q 48.6875 37.203125 44.609375 42.84375 
Q 40.53125 48.484375 33.40625 48.484375 
Q 26.265625 48.484375 22.1875 42.84375 
Q 18.109375 37.203125 18.109375 27.296875 
Q 18.109375 17.390625 22.1875 11.75 
Q 26.265625 6.109375 33.40625 6.109375 
Q 40.53125 6.109375 44.609375 11.75 
Q 48.6875 17.390625 48.6875 27.296875 
z
M 18.109375 46.390625 
Q 20.953125 51.265625 25.265625 53.625 
Q 29.59375 56 35.59375 56 
Q 45.5625 56 51.78125 48.09375 
Q 58.015625 40.1875 58.015625 27.296875 
Q 58.015625 14.40625 51.78125 6.484375 
Q 45.5625 -1.421875 35.59375 -1.421875 
Q 29.59375 -1.421875 25.265625 0.953125 
Q 20.953125 3.328125 18.109375 8.203125 
L 18.109375 0 
L 9.078125 0 
L 9.078125 75.984375 
L 18.109375 75.984375 
z
" id="DejaVuSans-98"/>
     </defs>
     <use xlink:href="#DejaVuSans-40"/>
     <use x="39.013672" xlink:href="#DejaVuSans-98"/>
     <use x="102.490234" xlink:href="#DejaVuSans-41"/>
    </g>
   </g>
  </g>
 </g>
 <defs>
  <clipPath id="pe1e5c86b4b">
   <rect height="116.655" width="99.340909" x="52.160938" y="22.318125"/>
  </clipPath>
  <clipPath id="pdea4b37969">
   <rect height="116.655" width="99.340909" x="171.370028" y="22.318125"/>
  </clipPath>
 </defs>
</svg>
