<?xml version="1.0" encoding="UTF-8" standalone="no"?>
<svg
   xmlns:ns2="http://www.iki.fi/pav/software/textext/"
   xmlns:dc="http://purl.org/dc/elements/1.1/"
   xmlns:cc="http://creativecommons.org/ns#"
   xmlns:rdf="http://www.w3.org/1999/02/22-rdf-syntax-ns#"
   xmlns:svg="http://www.w3.org/2000/svg"
   xmlns="http://www.w3.org/2000/svg"
   xmlns:sodipodi="http://sodipodi.sourceforge.net/DTD/sodipodi-0.dtd"
   xmlns:inkscape="http://www.inkscape.org/namespaces/inkscape"
   width="67.379036mm"
   height="14.140618mm"
   viewBox="0 0 67.379036 14.140618"
   version="1.1"
   id="svg8"
   sodipodi:docname="NOT.svg"
   inkscape:version="1.0.2-2 (e86c870879, 2021-01-15)">
  <defs
     id="defs2" />
  <sodipodi:namedview
     id="base"
     pagecolor="#ffffff"
     bordercolor="#666666"
     borderopacity="1.0"
     inkscape:pageopacity="0.0"
     inkscape:pageshadow="2"
     inkscape:zoom="1"
     inkscape:cx="254.22675"
     inkscape:cy="32.994948"
     inkscape:document-units="mm"
     inkscape:current-layer="g853"
     inkscape:document-rotation="0"
     showgrid="false"
     inkscape:window-width="1920"
     inkscape:window-height="1017"
     inkscape:window-x="-8"
     inkscape:window-y="-8"
     inkscape:window-maximized="1"
     fit-margin-top="0"
     fit-margin-left="0"
     fit-margin-right="0"
     fit-margin-bottom="0" />
  <metadata
     id="metadata5">
    <rdf:RDF>
      <cc:Work
         rdf:about="">
        <dc:format>image/svg+xml</dc:format>
        <dc:type
           rdf:resource="http://purl.org/dc/dcmitype/StillImage" />
        <dc:title></dc:title>
      </cc:Work>
    </rdf:RDF>
  </metadata>
  <g
     inkscape:label="Capa 1"
     inkscape:groupmode="layer"
     id="layer1"
     transform="translate(-88.970839,-142.58271)">
    <g
       id="g843"
       transform="matrix(0.03527778,0,0,-0.03527778,87.594834,154.86944)">
      <path
         d="M 610,190 340,340 V 40 Z"
         style="fill:none;stroke:#000000;stroke-width:9.75;stroke-linecap:round;stroke-linejoin:miter;stroke-miterlimit:6;stroke-dasharray:none;stroke-opacity:1"
         id="path845" />
      <path
         d="m 670,190 c 0,16.566 -13.434,30 -30,30 -16.566,0 -30,-13.434 -30,-30 0,-16.566 13.434,-30 30,-30 16.566,0 30,13.434 30,30"
         style="fill:none;stroke:#000000;stroke-width:9.75;stroke-linecap:round;stroke-linejoin:miter;stroke-miterlimit:6;stroke-dasharray:none;stroke-opacity:1"
         id="path847" />
      <path
         d="m 280,190 h 60"
         style="fill:none;stroke:#000000;stroke-width:9.75;stroke-linecap:round;stroke-linejoin:miter;stroke-miterlimit:6;stroke-dasharray:none;stroke-opacity:1"
         id="path849" />
      <path
         d="M 700,190 H 670"
         style="fill:none;stroke:#000000;stroke-width:9.75;stroke-linecap:round;stroke-linejoin:miter;stroke-miterlimit:6;stroke-dasharray:none;stroke-opacity:1"
         id="path851" />
      <g
         id="g853"
         transform="scale(10)">
        <text
           transform="matrix(1,0,0,-1,2.50156,19)"
           style="font-variant:normal;font-weight:normal;font-size:15px;font-family:Helvetica;-inkscape-font-specification:Helvetica;writing-mode:lr-tb;fill:#000000;fill-opacity:1;fill-rule:nonzero;stroke:none"
           id="text857"><tspan
             x="0 4.1700001 72.929703 84.599701 92.939697"
             y="0"
             sodipodi:role="line"
             id="tspan855">InOut</tspan></text>
        <text
           xml:space="preserve"
           style="font-size:10.2232px;line-height:1.25;font-family:'Times New Roman';-inkscape-font-specification:'Times New Roman, ';letter-spacing:0px;word-spacing:0px;stroke-width:0.255579"
           x="125.1358"
           y="3.0487535"
           id="text929"
           transform="scale(1,-1)"><tspan
             sodipodi:role="line"
             id="tspan927"
             x="125.1358"
             y="3.0487535"
             style="stroke-width:0.255579">Operador Lógico</tspan></text>
      </g>
    </g>
    <g
       transform="matrix(0.9486639,0,0,0.9486639,140.66964,142.74651)"
       ns2:version="1.1.0"
       ns2:texconverter="pdflatex"
       ns2:pdfconverter="inkscape"
       ns2:text="$$ \\bar{Y} $$\n"
       ns2:preamble="default_packages.tex"
       ns2:scale="1.0"
       ns2:alignment="middle center"
       ns2:jacobian_sqrt="0.352778"
       id="g905">
      <defs
         id="id-d172cf24-7cad-43c4-aecc-060b1794243d">
        <g
           id="id-ec9657c1-9127-4e2d-946e-96898c211330">
          <symbol
             overflow="visible"
             id="id-6932ca7c-62a4-4201-86a0-328c872c0cd8">
            <path
               style="stroke:none"
               d=""
               id="id-815bf016-bea3-4a99-87c4-7b107c0eabae" />
          </symbol>
          <symbol
             overflow="visible"
             id="id-62fb446e-f13b-4b35-b6ae-72de61e5b741">
            <path
               style="stroke:none"
               d="M 4.28125,-5.578125 V -5.875 H 0.6875 v 0.296875 z m 0,0"
               id="id-a38394ed-9750-444c-979e-e28f80b1a542" />
          </symbol>
          <symbol
             overflow="visible"
             id="id-30b62bfa-b82a-45fe-a56f-d5cd9d7c85b6">
            <path
               style="stroke:none"
               d=""
               id="id-30d71258-c7b9-403c-865a-3a36b5dfb1b8" />
          </symbol>
          <symbol
             overflow="visible"
             id="id-673432fd-6060-4d01-bcf3-a931e6785fcc">
            <path
               style="stroke:none"
               d="M 5.953125,-5.671875 6.09375,-5.8125 C 6.390625,-6.109375 6.71875,-6.453125 7.390625,-6.5 7.5,-6.515625 7.59375,-6.515625 7.59375,-6.6875 c 0,-0.078125 -0.046875,-0.125 -0.125,-0.125 -0.265625,0 -0.546875,0.03125 -0.8125,0.03125 -0.34375,0 -0.6875,-0.03125 -1,-0.03125 -0.0625,0 -0.1875,0 -0.1875,0.1875 0,0.109375 0.09375,0.125 0.140625,0.125 0.078125,0 0.359375,0.015625 0.359375,0.234375 0,0.171875 -0.234375,0.421875 -0.265625,0.46875 L 3.390625,-3.125 2.296875,-6.09375 C 2.234375,-6.234375 2.234375,-6.25 2.234375,-6.265625 2.234375,-6.5 2.71875,-6.5 2.828125,-6.5 c 0.125,0 0.234375,0 0.234375,-0.203125 0,-0.109375 -0.125,-0.109375 -0.15625,-0.109375 -0.28125,0 -0.96875,0.03125 -1.25,0.03125 -0.25,0 -0.875,-0.03125 -1.125,-0.03125 -0.046875,0 -0.1875,0 -0.1875,0.203125 C 0.34375,-6.5 0.453125,-6.5 0.578125,-6.5 c 0.59375,0 0.640625,0.09375 0.734375,0.34375 L 2.53125,-2.875 c 0.015625,0.03125 0.046875,0.140625 0.046875,0.15625 0,0.03125 -0.40625,1.640625 -0.453125,1.828125 C 2,-0.34375 1.984375,-0.3125 1.1875,-0.3125 c -0.1875,0 -0.265625,0 -0.265625,0.203125 C 0.921875,0 1.03125,0 1.0625,0 c 0.265625,0 0.96875,-0.03125 1.25,-0.03125 0.28125,0 1,0.03125 1.28125,0.03125 0.0625,0 0.1875,0 0.1875,-0.203125 C 3.78125,-0.3125 3.6875,-0.3125 3.5,-0.3125 c -0.015625,0 -0.203125,0 -0.375,-0.015625 C 2.90625,-0.34375 2.84375,-0.375 2.84375,-0.484375 c 0,-0.078125 0.09375,-0.421875 0.140625,-0.625 l 0.359375,-1.40625 c 0.046875,-0.203125 0.0625,-0.21875 0.140625,-0.3125 z m 0,0"
               id="id-4a152dae-69fc-48f0-ba3f-0b796db11299" />
          </symbol>
        </g>
      </defs>
      <g
         id="id-19496bef-2b54-4276-b489-a981fa137ec4"
         transform="translate(-301.969,-138.327)">
        <g
           style="fill:#000000;fill-opacity:1"
           id="id-435afdf2-399d-4a4e-ba32-e73f0daeb79d">
          <g
             transform="translate(303.133,144.202)"
             id="g897">
            <path
               style="stroke:none"
               d="M 4.28125,-5.578125 V -5.875 H 0.6875 v 0.296875 z m 0,0"
               id="id-204f9d08-8cc3-4adc-abc9-4755f3e86f27" />
          </g>
        </g>
        <g
           style="fill:#000000;fill-opacity:1"
           id="id-e0c1bed2-2306-4c57-b87d-24b3deed3ebf">
          <g
             transform="translate(301.625,146.72)"
             id="g901">
            <path
               style="stroke:none"
               d="M 5.953125,-5.671875 6.09375,-5.8125 C 6.390625,-6.109375 6.71875,-6.453125 7.390625,-6.5 7.5,-6.515625 7.59375,-6.515625 7.59375,-6.6875 c 0,-0.078125 -0.046875,-0.125 -0.125,-0.125 -0.265625,0 -0.546875,0.03125 -0.8125,0.03125 -0.34375,0 -0.6875,-0.03125 -1,-0.03125 -0.0625,0 -0.1875,0 -0.1875,0.1875 0,0.109375 0.09375,0.125 0.140625,0.125 0.078125,0 0.359375,0.015625 0.359375,0.234375 0,0.171875 -0.234375,0.421875 -0.265625,0.46875 L 3.390625,-3.125 2.296875,-6.09375 C 2.234375,-6.234375 2.234375,-6.25 2.234375,-6.265625 2.234375,-6.5 2.71875,-6.5 2.828125,-6.5 c 0.125,0 0.234375,0 0.234375,-0.203125 0,-0.109375 -0.125,-0.109375 -0.15625,-0.109375 -0.28125,0 -0.96875,0.03125 -1.25,0.03125 -0.25,0 -0.875,-0.03125 -1.125,-0.03125 -0.046875,0 -0.1875,0 -0.1875,0.203125 C 0.34375,-6.5 0.453125,-6.5 0.578125,-6.5 c 0.59375,0 0.640625,0.09375 0.734375,0.34375 L 2.53125,-2.875 c 0.015625,0.03125 0.046875,0.140625 0.046875,0.15625 0,0.03125 -0.40625,1.640625 -0.453125,1.828125 C 2,-0.34375 1.984375,-0.3125 1.1875,-0.3125 c -0.1875,0 -0.265625,0 -0.265625,0.203125 C 0.921875,0 1.03125,0 1.0625,0 c 0.265625,0 0.96875,-0.03125 1.25,-0.03125 0.28125,0 1,0.03125 1.28125,0.03125 0.0625,0 0.1875,0 0.1875,-0.203125 C 3.78125,-0.3125 3.6875,-0.3125 3.5,-0.3125 c -0.015625,0 -0.203125,0 -0.375,-0.015625 C 2.90625,-0.34375 2.84375,-0.375 2.84375,-0.484375 c 0,-0.078125 0.09375,-0.421875 0.140625,-0.625 l 0.359375,-1.40625 c 0.046875,-0.203125 0.0625,-0.21875 0.140625,-0.3125 z m 0,0"
               id="id-ba232c30-8385-4de6-bf09-2f4d8529ee52" />
          </g>
        </g>
      </g>
    </g>
  </g>
</svg>
