<?xml version="1.0" encoding="UTF-8" standalone="no"?>
<!-- Created with Inkscape (http://www.inkscape.org/) -->

<svg
   width="136.06807mm"
   height="69.105072mm"
   viewBox="0 0 136.06807 69.105067"
   version="1.1"
   id="svg5"
   inkscape:version="1.1 (c68e22c387, 2021-05-23)"
   sodipodi:docname="tb_2x2_kmap_or.svg"
   xmlns:inkscape="http://www.inkscape.org/namespaces/inkscape"
   xmlns:sodipodi="http://sodipodi.sourceforge.net/DTD/sodipodi-0.dtd"
   xmlns:xlink="http://www.w3.org/1999/xlink"
   xmlns="http://www.w3.org/2000/svg"
   xmlns:svg="http://www.w3.org/2000/svg">
  <sodipodi:namedview
     id="namedview7"
     pagecolor="#ffffff"
     bordercolor="#666666"
     borderopacity="1.0"
     inkscape:pageshadow="2"
     inkscape:pageopacity="0.0"
     inkscape:pagecheckerboard="0"
     inkscape:document-units="mm"
     showgrid="false"
     showguides="false"
     inkscape:zoom="1"
     inkscape:cx="374.49999"
     inkscape:cy="249.99999"
     inkscape:window-width="958"
     inkscape:window-height="1048"
     inkscape:window-x="953"
     inkscape:window-y="0"
     inkscape:window-maximized="0"
     inkscape:current-layer="layer1" />
  <defs
     id="defs2">
    <g
       id="g481">
      <symbol
         overflow="visible"
         id="symbol9047">
        <path
           style="stroke:none;"
           d=""
           id="path9786" />
      </symbol>
      <symbol
         overflow="visible"
         id="symbol6269">
        <path
           style="stroke:none;"
           d="M 0.875 -0.59375 C 0.84375 -0.4375 0.78125 -0.203125 0.78125 -0.15625 C 0.78125 0.015625 0.921875 0.109375 1.078125 0.109375 C 1.203125 0.109375 1.375 0.03125 1.453125 -0.171875 C 1.453125 -0.1875 1.578125 -0.65625 1.640625 -0.90625 L 1.859375 -1.796875 C 1.90625 -2.03125 1.96875 -2.25 2.03125 -2.46875 C 2.0625 -2.640625 2.140625 -2.9375 2.15625 -2.96875 C 2.296875 -3.28125 2.828125 -4.1875 3.78125 -4.1875 C 4.234375 -4.1875 4.3125 -3.8125 4.3125 -3.484375 C 4.3125 -3.234375 4.25 -2.953125 4.171875 -2.65625 L 3.890625 -1.5 L 3.6875 -0.75 C 3.65625 -0.546875 3.5625 -0.203125 3.5625 -0.15625 C 3.5625 0.015625 3.703125 0.109375 3.84375 0.109375 C 4.15625 0.109375 4.21875 -0.140625 4.296875 -0.453125 C 4.4375 -1.015625 4.8125 -2.46875 4.890625 -2.859375 C 4.921875 -2.984375 5.453125 -4.1875 6.546875 -4.1875 C 6.96875 -4.1875 7.078125 -3.84375 7.078125 -3.484375 C 7.078125 -2.921875 6.65625 -1.78125 6.453125 -1.25 C 6.375 -1.015625 6.328125 -0.90625 6.328125 -0.703125 C 6.328125 -0.234375 6.671875 0.109375 7.140625 0.109375 C 8.078125 0.109375 8.453125 -1.34375 8.453125 -1.421875 C 8.453125 -1.53125 8.359375 -1.53125 8.328125 -1.53125 C 8.234375 -1.53125 8.234375 -1.5 8.1875 -1.34375 C 8.03125 -0.8125 7.71875 -0.109375 7.171875 -0.109375 C 7 -0.109375 6.921875 -0.203125 6.921875 -0.4375 C 6.921875 -0.6875 7.015625 -0.921875 7.109375 -1.140625 C 7.296875 -1.671875 7.71875 -2.765625 7.71875 -3.34375 C 7.71875 -3.984375 7.3125 -4.40625 6.5625 -4.40625 C 5.828125 -4.40625 5.3125 -3.96875 4.9375 -3.4375 C 4.9375 -3.5625 4.90625 -3.90625 4.625 -4.140625 C 4.375 -4.359375 4.0625 -4.40625 3.8125 -4.40625 C 2.90625 -4.40625 2.421875 -3.765625 2.25 -3.53125 C 2.203125 -4.109375 1.78125 -4.40625 1.328125 -4.40625 C 0.875 -4.40625 0.6875 -4.015625 0.59375 -3.84375 C 0.421875 -3.484375 0.296875 -2.90625 0.296875 -2.875 C 0.296875 -2.765625 0.390625 -2.765625 0.40625 -2.765625 C 0.515625 -2.765625 0.515625 -2.78125 0.578125 -3 C 0.75 -3.703125 0.953125 -4.1875 1.3125 -4.1875 C 1.46875 -4.1875 1.609375 -4.109375 1.609375 -3.734375 C 1.609375 -3.515625 1.578125 -3.40625 1.453125 -2.890625 Z M 0.875 -0.59375 "
           id="path6804" />
      </symbol>
      <symbol
         overflow="visible"
         id="symbol8824">
        <path
           style="stroke:none;"
           d=""
           id="path3041" />
      </symbol>
      <symbol
         overflow="visible"
         id="symbol717">
        <path
           style="stroke:none;"
           d="M 3.59375 -2.21875 C 3.59375 -2.984375 3.5 -3.546875 3.1875 -4.03125 C 2.96875 -4.34375 2.53125 -4.625 1.984375 -4.625 C 0.359375 -4.625 0.359375 -2.71875 0.359375 -2.21875 C 0.359375 -1.71875 0.359375 0.140625 1.984375 0.140625 C 3.59375 0.140625 3.59375 -1.71875 3.59375 -2.21875 Z M 1.984375 -0.0625 C 1.65625 -0.0625 1.234375 -0.25 1.09375 -0.8125 C 1 -1.21875 1 -1.796875 1 -2.3125 C 1 -2.828125 1 -3.359375 1.09375 -3.734375 C 1.25 -4.28125 1.6875 -4.4375 1.984375 -4.4375 C 2.359375 -4.4375 2.71875 -4.203125 2.84375 -3.796875 C 2.953125 -3.421875 2.96875 -2.921875 2.96875 -2.3125 C 2.96875 -1.796875 2.96875 -1.28125 2.875 -0.84375 C 2.734375 -0.203125 2.265625 -0.0625 1.984375 -0.0625 Z M 1.984375 -0.0625 "
           id="path8961" />
      </symbol>
    </g>
    <g
       id="g777">
      <symbol
         overflow="visible"
         id="symbol131">
        <path
           style="stroke:none;"
           d=""
           id="path7779" />
      </symbol>
      <symbol
         overflow="visible"
         id="symbol1794">
        <path
           style="stroke:none;"
           d="M 0.875 -0.59375 C 0.84375 -0.4375 0.78125 -0.203125 0.78125 -0.15625 C 0.78125 0.015625 0.921875 0.109375 1.078125 0.109375 C 1.203125 0.109375 1.375 0.03125 1.453125 -0.171875 C 1.453125 -0.1875 1.578125 -0.65625 1.640625 -0.90625 L 1.859375 -1.796875 C 1.90625 -2.03125 1.96875 -2.25 2.03125 -2.46875 C 2.0625 -2.640625 2.140625 -2.9375 2.15625 -2.96875 C 2.296875 -3.28125 2.828125 -4.1875 3.78125 -4.1875 C 4.234375 -4.1875 4.3125 -3.8125 4.3125 -3.484375 C 4.3125 -3.234375 4.25 -2.953125 4.171875 -2.65625 L 3.890625 -1.5 L 3.6875 -0.75 C 3.65625 -0.546875 3.5625 -0.203125 3.5625 -0.15625 C 3.5625 0.015625 3.703125 0.109375 3.84375 0.109375 C 4.15625 0.109375 4.21875 -0.140625 4.296875 -0.453125 C 4.4375 -1.015625 4.8125 -2.46875 4.890625 -2.859375 C 4.921875 -2.984375 5.453125 -4.1875 6.546875 -4.1875 C 6.96875 -4.1875 7.078125 -3.84375 7.078125 -3.484375 C 7.078125 -2.921875 6.65625 -1.78125 6.453125 -1.25 C 6.375 -1.015625 6.328125 -0.90625 6.328125 -0.703125 C 6.328125 -0.234375 6.671875 0.109375 7.140625 0.109375 C 8.078125 0.109375 8.453125 -1.34375 8.453125 -1.421875 C 8.453125 -1.53125 8.359375 -1.53125 8.328125 -1.53125 C 8.234375 -1.53125 8.234375 -1.5 8.1875 -1.34375 C 8.03125 -0.8125 7.71875 -0.109375 7.171875 -0.109375 C 7 -0.109375 6.921875 -0.203125 6.921875 -0.4375 C 6.921875 -0.6875 7.015625 -0.921875 7.109375 -1.140625 C 7.296875 -1.671875 7.71875 -2.765625 7.71875 -3.34375 C 7.71875 -3.984375 7.3125 -4.40625 6.5625 -4.40625 C 5.828125 -4.40625 5.3125 -3.96875 4.9375 -3.4375 C 4.9375 -3.5625 4.90625 -3.90625 4.625 -4.140625 C 4.375 -4.359375 4.0625 -4.40625 3.8125 -4.40625 C 2.90625 -4.40625 2.421875 -3.765625 2.25 -3.53125 C 2.203125 -4.109375 1.78125 -4.40625 1.328125 -4.40625 C 0.875 -4.40625 0.6875 -4.015625 0.59375 -3.84375 C 0.421875 -3.484375 0.296875 -2.90625 0.296875 -2.875 C 0.296875 -2.765625 0.390625 -2.765625 0.40625 -2.765625 C 0.515625 -2.765625 0.515625 -2.78125 0.578125 -3 C 0.75 -3.703125 0.953125 -4.1875 1.3125 -4.1875 C 1.46875 -4.1875 1.609375 -4.109375 1.609375 -3.734375 C 1.609375 -3.515625 1.578125 -3.40625 1.453125 -2.890625 Z M 0.875 -0.59375 "
           id="path5359" />
      </symbol>
      <symbol
         overflow="visible"
         id="symbol6520">
        <path
           style="stroke:none;"
           d=""
           id="path4113" />
      </symbol>
      <symbol
         overflow="visible"
         id="symbol6392">
        <path
           style="stroke:none;"
           d="M 2.328125 -4.4375 C 2.328125 -4.625 2.328125 -4.625 2.125 -4.625 C 1.671875 -4.1875 1.046875 -4.1875 0.765625 -4.1875 L 0.765625 -3.9375 C 0.921875 -3.9375 1.390625 -3.9375 1.765625 -4.125 L 1.765625 -0.578125 C 1.765625 -0.34375 1.765625 -0.25 1.078125 -0.25 L 0.8125 -0.25 L 0.8125 0 C 0.9375 0 1.796875 -0.03125 2.046875 -0.03125 C 2.265625 -0.03125 3.140625 0 3.296875 0 L 3.296875 -0.25 L 3.03125 -0.25 C 2.328125 -0.25 2.328125 -0.34375 2.328125 -0.578125 Z M 2.328125 -4.4375 "
           id="path659" />
      </symbol>
    </g>
    <g
       id="g3207">
      <symbol
         overflow="visible"
         id="symbol871">
        <path
           style="stroke:none;"
           d=""
           id="path9142" />
      </symbol>
      <symbol
         overflow="visible"
         id="symbol8848">
        <path
           style="stroke:none;"
           d="M 0.875 -0.59375 C 0.84375 -0.4375 0.78125 -0.203125 0.78125 -0.15625 C 0.78125 0.015625 0.921875 0.109375 1.078125 0.109375 C 1.203125 0.109375 1.375 0.03125 1.453125 -0.171875 C 1.453125 -0.1875 1.578125 -0.65625 1.640625 -0.90625 L 1.859375 -1.796875 C 1.90625 -2.03125 1.96875 -2.25 2.03125 -2.46875 C 2.0625 -2.640625 2.140625 -2.9375 2.15625 -2.96875 C 2.296875 -3.28125 2.828125 -4.1875 3.78125 -4.1875 C 4.234375 -4.1875 4.3125 -3.8125 4.3125 -3.484375 C 4.3125 -3.234375 4.25 -2.953125 4.171875 -2.65625 L 3.890625 -1.5 L 3.6875 -0.75 C 3.65625 -0.546875 3.5625 -0.203125 3.5625 -0.15625 C 3.5625 0.015625 3.703125 0.109375 3.84375 0.109375 C 4.15625 0.109375 4.21875 -0.140625 4.296875 -0.453125 C 4.4375 -1.015625 4.8125 -2.46875 4.890625 -2.859375 C 4.921875 -2.984375 5.453125 -4.1875 6.546875 -4.1875 C 6.96875 -4.1875 7.078125 -3.84375 7.078125 -3.484375 C 7.078125 -2.921875 6.65625 -1.78125 6.453125 -1.25 C 6.375 -1.015625 6.328125 -0.90625 6.328125 -0.703125 C 6.328125 -0.234375 6.671875 0.109375 7.140625 0.109375 C 8.078125 0.109375 8.453125 -1.34375 8.453125 -1.421875 C 8.453125 -1.53125 8.359375 -1.53125 8.328125 -1.53125 C 8.234375 -1.53125 8.234375 -1.5 8.1875 -1.34375 C 8.03125 -0.8125 7.71875 -0.109375 7.171875 -0.109375 C 7 -0.109375 6.921875 -0.203125 6.921875 -0.4375 C 6.921875 -0.6875 7.015625 -0.921875 7.109375 -1.140625 C 7.296875 -1.671875 7.71875 -2.765625 7.71875 -3.34375 C 7.71875 -3.984375 7.3125 -4.40625 6.5625 -4.40625 C 5.828125 -4.40625 5.3125 -3.96875 4.9375 -3.4375 C 4.9375 -3.5625 4.90625 -3.90625 4.625 -4.140625 C 4.375 -4.359375 4.0625 -4.40625 3.8125 -4.40625 C 2.90625 -4.40625 2.421875 -3.765625 2.25 -3.53125 C 2.203125 -4.109375 1.78125 -4.40625 1.328125 -4.40625 C 0.875 -4.40625 0.6875 -4.015625 0.59375 -3.84375 C 0.421875 -3.484375 0.296875 -2.90625 0.296875 -2.875 C 0.296875 -2.765625 0.390625 -2.765625 0.40625 -2.765625 C 0.515625 -2.765625 0.515625 -2.78125 0.578125 -3 C 0.75 -3.703125 0.953125 -4.1875 1.3125 -4.1875 C 1.46875 -4.1875 1.609375 -4.109375 1.609375 -3.734375 C 1.609375 -3.515625 1.578125 -3.40625 1.453125 -2.890625 Z M 0.875 -0.59375 "
           id="path1501" />
      </symbol>
      <symbol
         overflow="visible"
         id="symbol1624">
        <path
           style="stroke:none;"
           d=""
           id="path6501" />
      </symbol>
      <symbol
         overflow="visible"
         id="symbol2029">
        <path
           style="stroke:none;"
           d="M 3.515625 -1.265625 L 3.28125 -1.265625 C 3.265625 -1.109375 3.1875 -0.703125 3.09375 -0.640625 C 3.046875 -0.59375 2.515625 -0.59375 2.40625 -0.59375 L 1.125 -0.59375 C 1.859375 -1.234375 2.109375 -1.4375 2.515625 -1.765625 C 3.03125 -2.171875 3.515625 -2.609375 3.515625 -3.265625 C 3.515625 -4.109375 2.78125 -4.625 1.890625 -4.625 C 1.03125 -4.625 0.4375 -4.015625 0.4375 -3.375 C 0.4375 -3.03125 0.734375 -2.984375 0.8125 -2.984375 C 0.96875 -2.984375 1.171875 -3.109375 1.171875 -3.359375 C 1.171875 -3.484375 1.125 -3.734375 0.765625 -3.734375 C 0.984375 -4.21875 1.453125 -4.375 1.78125 -4.375 C 2.484375 -4.375 2.84375 -3.828125 2.84375 -3.265625 C 2.84375 -2.65625 2.40625 -2.1875 2.1875 -1.9375 L 0.515625 -0.265625 C 0.4375 -0.203125 0.4375 -0.1875 0.4375 0 L 3.3125 0 Z M 3.515625 -1.265625 "
           id="path3763" />
      </symbol>
    </g>
    <g
       id="g9366">
      <symbol
         overflow="visible"
         id="symbol8712">
        <path
           style="stroke:none;"
           d=""
           id="path8718" />
      </symbol>
      <symbol
         overflow="visible"
         id="symbol8977">
        <path
           style="stroke:none;"
           d="M 0.875 -0.59375 C 0.84375 -0.4375 0.78125 -0.203125 0.78125 -0.15625 C 0.78125 0.015625 0.921875 0.109375 1.078125 0.109375 C 1.203125 0.109375 1.375 0.03125 1.453125 -0.171875 C 1.453125 -0.1875 1.578125 -0.65625 1.640625 -0.90625 L 1.859375 -1.796875 C 1.90625 -2.03125 1.96875 -2.25 2.03125 -2.46875 C 2.0625 -2.640625 2.140625 -2.9375 2.15625 -2.96875 C 2.296875 -3.28125 2.828125 -4.1875 3.78125 -4.1875 C 4.234375 -4.1875 4.3125 -3.8125 4.3125 -3.484375 C 4.3125 -3.234375 4.25 -2.953125 4.171875 -2.65625 L 3.890625 -1.5 L 3.6875 -0.75 C 3.65625 -0.546875 3.5625 -0.203125 3.5625 -0.15625 C 3.5625 0.015625 3.703125 0.109375 3.84375 0.109375 C 4.15625 0.109375 4.21875 -0.140625 4.296875 -0.453125 C 4.4375 -1.015625 4.8125 -2.46875 4.890625 -2.859375 C 4.921875 -2.984375 5.453125 -4.1875 6.546875 -4.1875 C 6.96875 -4.1875 7.078125 -3.84375 7.078125 -3.484375 C 7.078125 -2.921875 6.65625 -1.78125 6.453125 -1.25 C 6.375 -1.015625 6.328125 -0.90625 6.328125 -0.703125 C 6.328125 -0.234375 6.671875 0.109375 7.140625 0.109375 C 8.078125 0.109375 8.453125 -1.34375 8.453125 -1.421875 C 8.453125 -1.53125 8.359375 -1.53125 8.328125 -1.53125 C 8.234375 -1.53125 8.234375 -1.5 8.1875 -1.34375 C 8.03125 -0.8125 7.71875 -0.109375 7.171875 -0.109375 C 7 -0.109375 6.921875 -0.203125 6.921875 -0.4375 C 6.921875 -0.6875 7.015625 -0.921875 7.109375 -1.140625 C 7.296875 -1.671875 7.71875 -2.765625 7.71875 -3.34375 C 7.71875 -3.984375 7.3125 -4.40625 6.5625 -4.40625 C 5.828125 -4.40625 5.3125 -3.96875 4.9375 -3.4375 C 4.9375 -3.5625 4.90625 -3.90625 4.625 -4.140625 C 4.375 -4.359375 4.0625 -4.40625 3.8125 -4.40625 C 2.90625 -4.40625 2.421875 -3.765625 2.25 -3.53125 C 2.203125 -4.109375 1.78125 -4.40625 1.328125 -4.40625 C 0.875 -4.40625 0.6875 -4.015625 0.59375 -3.84375 C 0.421875 -3.484375 0.296875 -2.90625 0.296875 -2.875 C 0.296875 -2.765625 0.390625 -2.765625 0.40625 -2.765625 C 0.515625 -2.765625 0.515625 -2.78125 0.578125 -3 C 0.75 -3.703125 0.953125 -4.1875 1.3125 -4.1875 C 1.46875 -4.1875 1.609375 -4.109375 1.609375 -3.734375 C 1.609375 -3.515625 1.578125 -3.40625 1.453125 -2.890625 Z M 0.875 -0.59375 "
           id="path9366" />
      </symbol>
      <symbol
         overflow="visible"
         id="symbol9097">
        <path
           style="stroke:none;"
           d=""
           id="path6044" />
      </symbol>
      <symbol
         overflow="visible"
         id="symbol5877">
        <path
           style="stroke:none;"
           d="M 1.90625 -2.328125 C 2.453125 -2.328125 2.84375 -1.953125 2.84375 -1.203125 C 2.84375 -0.34375 2.328125 -0.078125 1.9375 -0.078125 C 1.65625 -0.078125 1.03125 -0.15625 0.75 -0.578125 C 1.078125 -0.578125 1.15625 -0.8125 1.15625 -0.96875 C 1.15625 -1.1875 0.984375 -1.34375 0.765625 -1.34375 C 0.578125 -1.34375 0.375 -1.21875 0.375 -0.9375 C 0.375 -0.28125 1.09375 0.140625 1.9375 0.140625 C 2.90625 0.140625 3.578125 -0.515625 3.578125 -1.203125 C 3.578125 -1.75 3.140625 -2.296875 2.375 -2.453125 C 3.09375 -2.71875 3.359375 -3.234375 3.359375 -3.671875 C 3.359375 -4.21875 2.734375 -4.625 1.953125 -4.625 C 1.1875 -4.625 0.59375 -4.25 0.59375 -3.6875 C 0.59375 -3.453125 0.75 -3.328125 0.953125 -3.328125 C 1.171875 -3.328125 1.3125 -3.484375 1.3125 -3.671875 C 1.3125 -3.875 1.171875 -4.03125 0.953125 -4.046875 C 1.203125 -4.34375 1.671875 -4.421875 1.9375 -4.421875 C 2.25 -4.421875 2.6875 -4.265625 2.6875 -3.671875 C 2.6875 -3.375 2.59375 -3.046875 2.40625 -2.84375 C 2.1875 -2.578125 1.984375 -2.5625 1.640625 -2.53125 C 1.46875 -2.515625 1.453125 -2.515625 1.421875 -2.515625 C 1.40625 -2.515625 1.34375 -2.5 1.34375 -2.421875 C 1.34375 -2.328125 1.40625 -2.328125 1.53125 -2.328125 Z M 1.90625 -2.328125 "
           id="path2634" />
      </symbol>
    </g>
  </defs>
  <g
     inkscape:label="Capa 1"
     inkscape:groupmode="layer"
     id="layer1"
     transform="translate(-18.461, -22.7779)">
    <rect
       style="fill:#8dafbd;fill-opacity:0.758025;stroke:#7e3b4f;stroke-width:0.6;stroke-miterlimit:4;stroke-dasharray:none;stroke-opacity:1"
       id="rect16402-1-78"
       width="46.135017"
       height="11.425845"
       x="18.761038"
       y="23.0779" />
    <rect
       style="fill:#8dafbd;fill-opacity:0.758025;stroke:#7e3b4f;stroke-width:0.5;stroke-miterlimit:4;stroke-dasharray:none;stroke-opacity:1"
       id="rect16402"
       width="23.067513"
       height="11.425845"
       x="18.761036"
       y="34.503746" />
    <rect
       style="fill:#8dafbd;fill-opacity:0.758025;stroke:#7e3b4f;stroke-width:0.5;stroke-miterlimit:4;stroke-dasharray:none;stroke-opacity:1"
       id="rect16402-1"
       width="23.067513"
       height="11.425845"
       x="41.828548"
       y="34.503746" />
    <rect
       style="fill:#8dafbd;fill-opacity:0.758025;stroke:#7e3b4f;stroke-width:0.595758;stroke-miterlimit:4;stroke-dasharray:none;stroke-opacity:1"
       id="rect16402-6-6"
       width="33.025921"
       height="11.330088"
       x="64.943939"
       y="23.125778" />
    <rect
       style="fill:#8dafbd;fill-opacity:0.758025;stroke:#7e3b4f;stroke-width:0.595758;stroke-miterlimit:4;stroke-dasharray:none;stroke-opacity:1"
       id="rect16402-6-6-2"
       width="33.025921"
       height="11.330088"
       x="64.896057"
       y="34.503746" />
    <rect
       style="fill:none;fill-opacity:0.758025;stroke:#7e3b4f;stroke-width:0.595758;stroke-miterlimit:4;stroke-dasharray:none;stroke-opacity:1"
       id="rect16402-6-6-2-6"
       width="33.025921"
       height="11.330088"
       x="64.896057"
       y="45.929592" />
    <rect
       style="fill:none;fill-opacity:0.758025;stroke:#7e3b4f;stroke-width:0.595758;stroke-miterlimit:4;stroke-dasharray:none;stroke-opacity:1"
       id="rect16402-6-6-2-6-7"
       width="33.025921"
       height="11.330088"
       x="64.896057"
       y="57.355438" />
    <rect
       style="fill:none;stroke:#7e3b4f;stroke-width:0.5;stroke-miterlimit:4;stroke-dasharray:none;stroke-opacity:1"
       id="rect16402-3"
       width="23.067513"
       height="11.425845"
       x="18.761036"
       y="45.929592" />
    <rect
       style="fill:none;stroke:#7e3b4f;stroke-width:0.5;stroke-miterlimit:4;stroke-dasharray:none;stroke-opacity:1"
       id="rect16402-1-4"
       width="23.067513"
       height="11.425845"
       x="41.828548"
       y="45.929592" />
    <rect
       style="fill:none;stroke:#7e3b4f;stroke-width:0.5;stroke-miterlimit:4;stroke-dasharray:none;stroke-opacity:1"
       id="rect16402-69"
       width="23.067513"
       height="11.425845"
       x="18.761036"
       y="57.355438" />
    <rect
       style="fill:none;stroke:#7e3b4f;stroke-width:0.5;stroke-miterlimit:4;stroke-dasharray:none;stroke-opacity:1"
       id="rect16402-1-6"
       width="23.067513"
       height="11.425845"
       x="41.828548"
       y="57.355438" />
    <rect
       style="fill:none;stroke:#7e3b4f;stroke-width:0.5;stroke-miterlimit:4;stroke-dasharray:none;stroke-opacity:1"
       id="rect16402-14"
       width="23.067513"
       height="11.425845"
       x="18.761036"
       y="68.781281" />
    <rect
       style="fill:none;stroke:#7e3b4f;stroke-width:0.5;stroke-miterlimit:4;stroke-dasharray:none;stroke-opacity:1"
       id="rect16402-1-5"
       width="23.067513"
       height="11.425845"
       x="41.828548"
       y="68.781281" />
    <rect
       style="fill:none;stroke:#7e3b4f;stroke-width:0.5;stroke-miterlimit:4;stroke-dasharray:none;stroke-opacity:1"
       id="rect16402-4"
       width="23.067513"
       height="11.425845"
       x="18.761036"
       y="80.20713" />
    <rect
       style="fill:none;stroke:#7e3b4f;stroke-width:0.5;stroke-miterlimit:4;stroke-dasharray:none;stroke-opacity:1"
       id="rect16402-1-2"
       width="23.067513"
       height="11.425845"
       x="41.828548"
       y="80.20713" />
    <text
       xml:space="preserve"
       style="font-size:8.81944px;line-height:1.25;font-family:fira;-inkscape-font-specification:fira;word-spacing:0px;fill:#7e3b4f;fill-opacity:1;stroke-width:0.264583"
       x="24.797983"
       y="31.363741"
       id="text2385-0"><tspan
         sodipodi:role="line"
         id="tspan2383-3"
         style="font-style:normal;font-variant:normal;font-weight:normal;font-stretch:normal;font-size:8.81944px;font-family:'Fira Sans';-inkscape-font-specification:'Fira Sans';fill:#7e3b4f;fill-opacity:1;stroke-width:0.264583"
         x="24.797983"
         y="31.363741">Entradas</tspan></text>
    <text
       xml:space="preserve"
       style="font-size:8.81944px;line-height:1.25;font-family:fira;-inkscape-font-specification:fira;word-spacing:0px;fill:#7e3b4f;fill-opacity:1;stroke-width:0.264583"
       x="27.768023"
       y="43.254967"
       id="text2385"><tspan
         sodipodi:role="line"
         id="tspan2383"
         style="font-style:normal;font-variant:normal;font-weight:normal;font-stretch:normal;font-size:8.81944px;font-family:'Fira Sans';-inkscape-font-specification:'Fira Sans';fill:#7e3b4f;fill-opacity:1;stroke-width:0.264583"
         x="27.768023"
         y="43.254967">A</tspan></text>
    <text
       xml:space="preserve"
       style="font-size:8.81944px;line-height:1.25;font-family:fira;-inkscape-font-specification:fira;word-spacing:0px;fill:#000000;fill-opacity:1;stroke-width:0.264583"
       x="27.834167"
       y="54.583797"
       id="text2385-1"><tspan
         sodipodi:role="line"
         id="tspan2383-53"
         style="font-style:normal;font-variant:normal;font-weight:normal;font-stretch:normal;font-size:8.81944px;font-family:'Fira Sans';-inkscape-font-specification:'Fira Sans';fill:#000000;fill-opacity:1;stroke-width:0.264583"
         x="27.834167"
         y="54.583797">0</tspan></text>
    <text
       xml:space="preserve"
       style="font-size:8.81944px;line-height:1.25;font-family:fira;-inkscape-font-specification:fira;word-spacing:0px;fill:#000000;fill-opacity:1;stroke-width:0.264583"
       x="50.578537"
       y="54.55249"
       id="text2385-1-7"><tspan
         sodipodi:role="line"
         id="tspan2383-53-7"
         style="font-style:normal;font-variant:normal;font-weight:normal;font-stretch:normal;font-size:8.81944px;font-family:'Fira Sans';-inkscape-font-specification:'Fira Sans';fill:#000000;fill-opacity:1;stroke-width:0.264583"
         x="50.578537"
         y="54.55249">0</tspan></text>
    <text
       xml:space="preserve"
       style="font-size:8.81944px;line-height:1.25;font-family:fira;-inkscape-font-specification:fira;word-spacing:0px;fill:#000000;fill-opacity:1;stroke-width:0.264583"
       x="77.383743"
       y="54.823349"
       id="text2385-1-7-1"><tspan
         sodipodi:role="line"
         id="tspan2383-53-7-6"
         style="font-style:normal;font-variant:normal;font-weight:normal;font-stretch:normal;font-size:8.81944px;font-family:'Fira Sans';-inkscape-font-specification:'Fira Sans';fill:#000000;fill-opacity:1;stroke-width:0.264583"
         x="77.383743"
         y="54.823349">0</tspan></text>
    <text
       xml:space="preserve"
       style="font-size:8.81944px;line-height:1.25;font-family:fira;-inkscape-font-specification:fira;word-spacing:0px;fill:#000000;fill-opacity:1;stroke-width:0.264583"
       x="27.834167"
       y="66.018326"
       id="text2385-1-5"><tspan
         sodipodi:role="line"
         id="tspan2383-53-6"
         style="font-style:normal;font-variant:normal;font-weight:normal;font-stretch:normal;font-size:8.81944px;font-family:'Fira Sans';-inkscape-font-specification:'Fira Sans';fill:#000000;fill-opacity:1;stroke-width:0.264583"
         x="27.834167"
         y="66.018326">0</tspan></text>
    <text
       xml:space="preserve"
       style="font-size:8.81944px;line-height:1.25;font-family:fira;-inkscape-font-specification:fira;word-spacing:0px;fill:#000000;fill-opacity:1;stroke-width:0.264583"
       x="50.578537"
       y="77.338669"
       id="text2385-1-5-8"><tspan
         sodipodi:role="line"
         id="tspan2383-53-6-5"
         style="font-style:normal;font-variant:normal;font-weight:normal;font-stretch:normal;font-size:8.81944px;font-family:'Fira Sans';-inkscape-font-specification:'Fira Sans';fill:#000000;fill-opacity:1;stroke-width:0.264583"
         x="50.578537"
         y="77.338669">0</tspan></text>
    <text
       xml:space="preserve"
       style="font-size:8.81944px;line-height:1.25;font-family:fira;-inkscape-font-specification:fira;word-spacing:0px;fill:#000000;fill-opacity:1;stroke-width:0.264583"
       x="51.46048"
       y="65.954399"
       id="text2385-1-54-9"><tspan
         sodipodi:role="line"
         id="tspan2383-53-89-7"
         style="font-style:normal;font-variant:normal;font-weight:normal;font-stretch:normal;font-size:8.81944px;font-family:'Fira Sans';-inkscape-font-specification:'Fira Sans';fill:#000000;fill-opacity:1;stroke-width:0.264583"
         x="51.46048"
         y="65.954399">1</tspan></text>
    <text
       xml:space="preserve"
       style="font-size:8.81944px;line-height:1.25;font-family:fira;-inkscape-font-specification:fira;word-spacing:0px;fill:#000000;fill-opacity:1;stroke-width:0.264583"
       x="78.265686"
       y="65.856476"
       id="text2385-1-54-9-35"><tspan
         sodipodi:role="line"
         id="tspan2383-53-89-7-0"
         style="font-style:normal;font-variant:normal;font-weight:normal;font-stretch:normal;font-size:8.81944px;font-family:'Fira Sans';-inkscape-font-specification:'Fira Sans';fill:#000000;fill-opacity:1;stroke-width:0.264583"
         x="78.265686"
         y="65.856476">1</tspan></text>
    <text
       xml:space="preserve"
       style="font-size:8.81944px;line-height:1.25;font-family:fira;-inkscape-font-specification:fira;word-spacing:0px;fill:#000000;fill-opacity:1;stroke-width:0.264583"
       x="78.265686"
       y="76.880775"
       id="text2385-1-54-9-9"><tspan
         sodipodi:role="line"
         id="tspan2383-53-89-7-1"
         style="font-style:normal;font-variant:normal;font-weight:normal;font-stretch:normal;font-size:8.81944px;font-family:'Fira Sans';-inkscape-font-specification:'Fira Sans';fill:#000000;fill-opacity:1;stroke-width:0.264583"
         x="78.265686"
         y="76.880775">1</tspan></text>
    <text
       xml:space="preserve"
       style="font-size:8.81944px;line-height:1.25;font-family:fira;-inkscape-font-specification:fira;word-spacing:0px;fill:#000000;fill-opacity:1;stroke-width:0.264583"
       x="78.265686"
       y="87.905083"
       id="text2385-1-54-9-0"><tspan
         sodipodi:role="line"
         id="tspan2383-53-89-7-5"
         style="font-style:normal;font-variant:normal;font-weight:normal;font-stretch:normal;font-size:8.81944px;font-family:'Fira Sans';-inkscape-font-specification:'Fira Sans';fill:#000000;fill-opacity:1;stroke-width:0.264583"
         x="78.265686"
         y="87.905083">1</tspan></text>
    <text
       xml:space="preserve"
       style="font-size:8.81944px;line-height:1.25;font-family:fira;-inkscape-font-specification:fira;word-spacing:0px;fill:#000000;fill-opacity:1;stroke-width:0.264583"
       x="28.716112"
       y="77.46167"
       id="text2385-1-54-9-7"><tspan
         sodipodi:role="line"
         id="tspan2383-53-89-7-6"
         style="font-style:normal;font-variant:normal;font-weight:normal;font-stretch:normal;font-size:8.81944px;font-family:'Fira Sans';-inkscape-font-specification:'Fira Sans';fill:#000000;fill-opacity:1;stroke-width:0.264583"
         x="28.716112"
         y="77.46167">1</tspan></text>
    <text
       xml:space="preserve"
       style="font-size:8.81944px;line-height:1.25;font-family:fira;-inkscape-font-specification:fira;word-spacing:0px;fill:#000000;fill-opacity:1;stroke-width:0.264583"
       x="28.716112"
       y="88.896194"
       id="text2385-1-54-9-3"><tspan
         sodipodi:role="line"
         id="tspan2383-53-89-7-2"
         style="font-style:normal;font-variant:normal;font-weight:normal;font-stretch:normal;font-size:8.81944px;font-family:'Fira Sans';-inkscape-font-specification:'Fira Sans';fill:#000000;fill-opacity:1;stroke-width:0.264583"
         x="28.716112"
         y="88.896194">1</tspan></text>
    <text
       xml:space="preserve"
       style="font-size:8.81944px;line-height:1.25;font-family:fira;-inkscape-font-specification:fira;word-spacing:0px;fill:#000000;fill-opacity:1;stroke-width:0.264583"
       x="51.46048"
       y="88.740578"
       id="text2385-1-54-8"><tspan
         sodipodi:role="line"
         id="tspan2383-53-89-0"
         style="font-style:normal;font-variant:normal;font-weight:normal;font-stretch:normal;font-size:8.81944px;font-family:'Fira Sans';-inkscape-font-specification:'Fira Sans';fill:#000000;fill-opacity:1;stroke-width:0.264583"
         x="51.46048"
         y="88.740578">1</tspan></text>
    <text
       xml:space="preserve"
       style="font-size:8.81944px;line-height:1.25;font-family:fira;-inkscape-font-specification:fira;word-spacing:0px;fill:#7e3b4f;fill-opacity:1;stroke-width:0.264583"
       x="50.115517"
       y="43.254967"
       id="text2385-6"><tspan
         sodipodi:role="line"
         id="tspan2383-5"
         style="font-style:normal;font-variant:normal;font-weight:normal;font-stretch:normal;font-size:8.81944px;font-family:'Fira Sans';-inkscape-font-specification:'Fira Sans';fill:#7e3b4f;fill-opacity:1;stroke-width:0.264583"
         x="50.115517"
         y="43.254967">B</tspan></text>
    <text
       xml:space="preserve"
       style="font-size:8.81944px;line-height:1.25;font-family:fira;-inkscape-font-specification:fira;word-spacing:0px;fill:#7e3b4f;fill-opacity:1;stroke-width:0.264583"
       x="79.122665"
       y="43.254967"
       id="text2385-3"><tspan
         sodipodi:role="line"
         id="tspan2383-56"
         style="font-style:normal;font-variant:normal;font-weight:normal;font-stretch:normal;font-size:8.81944px;font-family:'Fira Sans';-inkscape-font-specification:'Fira Sans';fill:#7e3b4f;fill-opacity:1;stroke-width:0.264583"
         x="79.122665"
         y="43.254967">Y</tspan></text>
    <text
       xml:space="preserve"
       style="font-size:8.81944px;line-height:1.25;font-family:fira;-inkscape-font-specification:fira;word-spacing:0px;fill:#7e3b4f;fill-opacity:1;stroke-width:0.264583"
       x="70.073151"
       y="31.643"
       id="text2385-0-3"><tspan
         sodipodi:role="line"
         id="tspan2383-3-7"
         style="font-style:normal;font-variant:normal;font-weight:normal;font-stretch:normal;font-size:8.81944px;font-family:'Fira Sans';-inkscape-font-specification:'Fira Sans';fill:#7e3b4f;fill-opacity:1;stroke-width:0.264583"
         x="70.073151"
         y="31.643">Salida</tspan></text>
    <rect
       style="fill:none;fill-opacity:0.758025;stroke:#7e3b4f;stroke-width:0.595758;stroke-miterlimit:4;stroke-dasharray:none;stroke-opacity:1"
       id="rect16402-6-6-2-6-72"
       width="33.025921"
       height="11.330088"
       x="64.896057"
       y="68.781281" />
    <rect
       style="fill:none;fill-opacity:0.758025;stroke:#7e3b4f;stroke-width:0.595758;stroke-miterlimit:4;stroke-dasharray:none;stroke-opacity:1"
       id="rect16402-6-6-2-6-8"
       width="33.025921"
       height="11.330088"
       x="64.896057"
       y="80.20713" />
    <rect
       style="fill:#8dafbd;fill-opacity:0.758025;stroke:#7e3b4f;stroke-width:0.595757;stroke-miterlimit:4;stroke-dasharray:none;stroke-opacity:1"
       id="rect16402-6-6-2-0"
       width="56.30925"
       height="11.330088"
       x="97.921982"
       y="34.503746" />
    <rect
       style="fill:none;fill-opacity:0.758025;stroke:#7e3b4f;stroke-width:0.595758;stroke-miterlimit:4;stroke-dasharray:none;stroke-opacity:1"
       id="rect16402-6-6-2-6-1"
       width="56.309246"
       height="11.330088"
       x="97.921982"
       y="45.833832" />
    <text
       xml:space="preserve"
       style="font-size:8.81944px;line-height:1.25;font-family:fira;-inkscape-font-specification:fira;word-spacing:0px;fill:#7e3b4f;fill-opacity:1;stroke-width:0.264583"
       x="101.73941"
       y="43.190502"
       id="text2385-0-3-6"><tspan
         sodipodi:role="line"
         id="tspan2383-3-7-1"
         style="font-style:normal;font-variant:normal;font-weight:normal;font-stretch:normal;font-size:8.81944px;font-family:'Fira Sans';-inkscape-font-specification:'Fira Sans';fill:#7e3b4f;fill-opacity:1;stroke-width:0.264583"
         x="101.73941"
         y="43.190502">Minitérmino</tspan></text>
    <rect
       style="fill:none;fill-opacity:0.758025;stroke:#7e3b4f;stroke-width:0.595758;stroke-miterlimit:4;stroke-dasharray:none;stroke-opacity:1"
       id="rect16402-6-6-2-6-1-8"
       width="56.309246"
       height="11.330088"
       x="97.921982"
       y="57.163918" />
    <rect
       style="fill:none;fill-opacity:0.758025;stroke:#7e3b4f;stroke-width:0.595758;stroke-miterlimit:4;stroke-dasharray:none;stroke-opacity:1"
       id="rect16402-6-6-2-6-1-6"
       width="56.309246"
       height="11.330088"
       x="97.921982"
       y="68.781281" />
    <rect
       style="fill:none;fill-opacity:0.758025;stroke:#7e3b4f;stroke-width:0.595758;stroke-miterlimit:4;stroke-dasharray:none;stroke-opacity:1"
       id="rect16402-6-6-2-6-1-64"
       width="56.309246"
       height="11.330088"
       x="97.921982"
       y="80.20713" />
    <g
       inkscape:label=""
       transform="translate(27.832294,-28.81588)"
       id="g4339">
      <g
         id="g1112">
        <g
           style="fill:#000000;fill-opacity:1"
           id="g244">
          <use
             xlink:href="#symbol6269"
             x="91.925003"
             y="81.962997"
             id="use9877"
             width="100%"
             height="100%" />
        </g>
        <g
           style="fill:#000000;fill-opacity:1"
           id="g6235">
          <use
             xlink:href="#symbol717"
             x="100.673"
             y="83.457001"
             id="use9246"
             width="100%"
             height="100%" />
        </g>
      </g>
    </g>
    <g
       inkscape:label=""
       transform="translate(27.980732,-16.380464)"
       id="g4601">
      <g
         id="g9360">
        <g
           style="fill:#000000;fill-opacity:1"
           id="g9051">
          <use
             xlink:href="#symbol1794"
             x="91.925003"
             y="81.962997"
             id="use9951"
             width="100%"
             height="100%" />
        </g>
        <g
           style="fill:#000000;fill-opacity:1"
           id="g6689">
          <use
             xlink:href="#symbol6392"
             x="100.673"
             y="83.457001"
             id="use9442"
             width="100%"
             height="100%" />
        </g>
      </g>
    </g>
    <g
       inkscape:label=""
       transform="translate(27.871357,-5.2679641)"
       id="g4834">
      <g
         id="g4489">
        <g
           style="fill:#000000;fill-opacity:1"
           id="g7282">
          <use
             xlink:href="#symbol8848"
             x="91.925003"
             y="81.962997"
             id="use191"
             width="100%"
             height="100%" />
        </g>
        <g
           style="fill:#000000;fill-opacity:1"
           id="g2452">
          <use
             xlink:href="#symbol2029"
             x="100.673"
             y="83.457001"
             id="use7227"
             width="100%"
             height="100%" />
        </g>
      </g>
    </g>
    <g
       inkscape:label=""
       transform="translate(27.840107,7.1674522)"
       id="g5097">
      <g
         id="g9943">
        <g
           style="fill:#000000;fill-opacity:1"
           id="g5647">
          <use
             xlink:href="#symbol8977"
             x="91.925003"
             y="81.962997"
             id="use107"
             width="100%"
             height="100%" />
        </g>
        <g
           style="fill:#000000;fill-opacity:1"
           id="g5987">
          <use
             xlink:href="#symbol5877"
             x="100.673"
             y="83.457001"
             id="use3236"
             width="100%"
             height="100%" />
        </g>
      </g>
    </g>
  </g>
</svg>
