<?xml version="1.0" encoding="UTF-8" standalone="no"?>
<!-- Created with Inkscape (http://www.inkscape.org/) -->

<svg
   width="162.64738mm"
   height="114.80845mm"
   viewBox="0 0 162.6474 114.80844"
   version="1.1"
   id="svg5"
   inkscape:version="1.1 (c68e22c387, 2021-05-23)"
   sodipodi:docname="tb_3x3_kmap.svg"
   xmlns:inkscape="http://www.inkscape.org/namespaces/inkscape"
   xmlns:sodipodi="http://sodipodi.sourceforge.net/DTD/sodipodi-0.dtd"
   xmlns:xlink="http://www.w3.org/1999/xlink"
   xmlns="http://www.w3.org/2000/svg"
   xmlns:svg="http://www.w3.org/2000/svg">
  <sodipodi:namedview
     id="namedview7"
     pagecolor="#ffffff"
     bordercolor="#666666"
     borderopacity="1.0"
     inkscape:pageshadow="2"
     inkscape:pageopacity="0.0"
     inkscape:pagecheckerboard="0"
     inkscape:document-units="mm"
     showgrid="false"
     showguides="false"
     inkscape:zoom="1"
     inkscape:cx="287"
     inkscape:cy="211.5"
     inkscape:window-width="1001"
     inkscape:window-height="1041"
     inkscape:window-x="953"
     inkscape:window-y="0"
     inkscape:window-maximized="0"
     inkscape:current-layer="layer1" />
  <defs
     id="defs2">
    <g
       id="g4950">
      <symbol
         overflow="visible"
         id="symbol1413">
        <path
           style="stroke:none"
           d=""
           id="path3086" />
      </symbol>
      <symbol
         overflow="visible"
         id="symbol5911">
        <path
           style="stroke:none"
           d="m 7.578125,-6.921875 c 0,-0.03125 -0.015625,-0.109375 -0.109375,-0.109375 -0.03125,0 -0.046875,0.015625 -0.15625,0.125 L 6.625,-6.140625 C 6.53125,-6.28125 6.078125,-7.03125 4.96875,-7.03125 2.734375,-7.03125 0.5,-4.828125 0.5,-2.515625 0.5,-0.875 1.671875,0.21875 3.203125,0.21875 c 0.859375,0 1.625,-0.390625 2.15625,-0.859375 0.921875,-0.8125 1.09375,-1.71875 1.09375,-1.75 C 6.453125,-2.5 6.34375,-2.5 6.328125,-2.5 c -0.0625,0 -0.109375,0.03125 -0.125,0.109375 -0.09375,0.28125 -0.328125,1 -1.015625,1.578125 -0.6875,0.546875 -1.3125,0.71875 -1.828125,0.71875 -0.890625,0 -1.953125,-0.515625 -1.953125,-2.0625 0,-0.578125 0.203125,-2.1875 1.203125,-3.359375 0.609375,-0.703125 1.546875,-1.203125 2.4375,-1.203125 1.015625,0 1.609375,0.765625 1.609375,1.921875 0,0.40625 -0.03125,0.40625 -0.03125,0.515625 0,0.09375 0.109375,0.09375 0.140625,0.09375 0.125,0 0.125,-0.015625 0.1875,-0.203125 z m 0,0"
           id="path7414" />
      </symbol>
      <symbol
         overflow="visible"
         id="symbol3932">
        <path
           style="stroke:none"
           d="m 2.828125,-6.234375 c 0,-0.203125 -0.140625,-0.359375 -0.359375,-0.359375 -0.28125,0 -0.546875,0.265625 -0.546875,0.53125 0,0.1875 0.140625,0.359375 0.375,0.359375 0.234375,0 0.53125,-0.234375 0.53125,-0.53125 z m -0.75,3.75 c 0.109375,-0.28125 0.109375,-0.3125 0.21875,-0.578125 0.078125,-0.203125 0.125,-0.34375 0.125,-0.53125 0,-0.4375 -0.3125,-0.8125 -0.8125,-0.8125 -0.9375,0 -1.3125,1.453125 -1.3125,1.53125 0,0.109375 0.09375,0.109375 0.109375,0.109375 0.109375,0 0.109375,-0.03125 0.15625,-0.1875 0.28125,-0.9375 0.671875,-1.234375 1.015625,-1.234375 0.078125,0 0.25,0 0.25,0.3125 0,0.21875 -0.078125,0.421875 -0.109375,0.53125 -0.078125,0.25 -0.53125,1.40625 -0.6875,1.84375 -0.109375,0.25 -0.234375,0.578125 -0.234375,0.796875 0,0.46875 0.34375,0.8125 0.8125,0.8125 0.9375,0 1.3125,-1.4375 1.3125,-1.53125 0,-0.109375 -0.09375,-0.109375 -0.125,-0.109375 -0.09375,0 -0.09375,0.03125 -0.140625,0.1875 -0.1875,0.625 -0.515625,1.234375 -1.015625,1.234375 -0.171875,0 -0.25,-0.09375 -0.25,-0.328125 0,-0.25 0.0625,-0.390625 0.296875,-1 z m 0,0"
           id="path4784" />
      </symbol>
      <symbol
         overflow="visible"
         id="symbol2906">
        <path
           style="stroke:none"
           d="m 0.875,-0.59375 c -0.03125,0.15625 -0.09375,0.390625 -0.09375,0.4375 0,0.171875 0.140625,0.265625 0.296875,0.265625 0.125,0 0.296875,-0.078125 0.375,-0.28125 0,-0.015625 0.125,-0.484375 0.1875,-0.734375 l 0.21875,-0.890625 C 1.90625,-2.03125 1.96875,-2.25 2.03125,-2.46875 c 0.03125,-0.171875 0.109375,-0.46875 0.125,-0.5 0.140625,-0.3125 0.671875,-1.21875 1.625,-1.21875 0.453125,0 0.53125,0.375 0.53125,0.703125 0,0.609375 -0.484375,1.890625 -0.640625,2.3125 C 3.578125,-0.9375 3.5625,-0.8125 3.5625,-0.703125 c 0,0.46875 0.359375,0.8125 0.828125,0.8125 0.9375,0 1.296875,-1.453125 1.296875,-1.53125 0,-0.109375 -0.078125,-0.109375 -0.109375,-0.109375 -0.109375,0 -0.109375,0.03125 -0.15625,0.1875 -0.203125,0.671875 -0.53125,1.234375 -1.015625,1.234375 -0.171875,0 -0.234375,-0.09375 -0.234375,-0.328125 0,-0.25 0.078125,-0.484375 0.171875,-0.703125 0.1875,-0.53125 0.609375,-1.625 0.609375,-2.203125 0,-0.65625 -0.421875,-1.0625 -1.140625,-1.0625 -0.90625,0 -1.390625,0.640625 -1.5625,0.875 -0.046875,-0.5625 -0.453125,-0.875 -0.921875,-0.875 -0.453125,0 -0.640625,0.390625 -0.734375,0.5625 C 0.421875,-3.5 0.296875,-2.90625 0.296875,-2.875 c 0,0.109375 0.09375,0.109375 0.109375,0.109375 0.109375,0 0.109375,-0.015625 0.171875,-0.234375 0.171875,-0.703125 0.375,-1.1875 0.734375,-1.1875 0.1875,0 0.296875,0.125 0.296875,0.453125 0,0.21875 -0.03125,0.328125 -0.15625,0.84375 z m 0,0"
           id="path5641" />
      </symbol>
    </g>
    <g
       id="g2658">
      <symbol
         overflow="visible"
         id="symbol646">
        <path
           style="stroke:none"
           d=""
           id="path9322" />
      </symbol>
      <symbol
         overflow="visible"
         id="symbol2221">
        <path
           style="stroke:none"
           d="m 7.578125,-6.921875 c 0,-0.03125 -0.015625,-0.109375 -0.109375,-0.109375 -0.03125,0 -0.046875,0.015625 -0.15625,0.125 L 6.625,-6.140625 C 6.53125,-6.28125 6.078125,-7.03125 4.96875,-7.03125 2.734375,-7.03125 0.5,-4.828125 0.5,-2.515625 0.5,-0.875 1.671875,0.21875 3.203125,0.21875 c 0.859375,0 1.625,-0.390625 2.15625,-0.859375 0.921875,-0.8125 1.09375,-1.71875 1.09375,-1.75 C 6.453125,-2.5 6.34375,-2.5 6.328125,-2.5 c -0.0625,0 -0.109375,0.03125 -0.125,0.109375 -0.09375,0.28125 -0.328125,1 -1.015625,1.578125 -0.6875,0.546875 -1.3125,0.71875 -1.828125,0.71875 -0.890625,0 -1.953125,-0.515625 -1.953125,-2.0625 0,-0.578125 0.203125,-2.1875 1.203125,-3.359375 0.609375,-0.703125 1.546875,-1.203125 2.4375,-1.203125 1.015625,0 1.609375,0.765625 1.609375,1.921875 0,0.40625 -0.03125,0.40625 -0.03125,0.515625 0,0.09375 0.109375,0.09375 0.140625,0.09375 0.125,0 0.125,-0.015625 0.1875,-0.203125 z m 0,0"
           id="path1821" />
      </symbol>
      <symbol
         overflow="visible"
         id="symbol8425">
        <path
           style="stroke:none"
           d="m 4.671875,-2.71875 c 0,-1.046875 -0.6875,-1.6875 -1.59375,-1.6875 -1.328125,0 -2.671875,1.421875 -2.671875,2.828125 0,0.984375 0.671875,1.6875 1.59375,1.6875 1.328125,0 2.671875,-1.375 2.671875,-2.828125 z m -2.65625,2.609375 c -0.4375,0 -0.875,-0.3125 -0.875,-1.09375 0,-0.484375 0.265625,-1.5625 0.578125,-2.0625 0.5,-0.765625 1.078125,-0.921875 1.359375,-0.921875 0.578125,0 0.875,0.484375 0.875,1.078125 0,0.390625 -0.203125,1.4375 -0.578125,2.078125 -0.359375,0.578125 -0.90625,0.921875 -1.359375,0.921875 z m 0,0"
           id="path4999" />
      </symbol>
      <symbol
         overflow="visible"
         id="symbol4761">
        <path
           style="stroke:none"
           d="M 3.484375,-0.5625 C 3.59375,-0.15625 3.953125,0.109375 4.375,0.109375 4.71875,0.109375 4.953125,-0.125 5.109375,-0.4375 5.28125,-0.796875 5.40625,-1.40625 5.40625,-1.421875 c 0,-0.109375 -0.078125,-0.109375 -0.109375,-0.109375 -0.109375,0 -0.109375,0.046875 -0.140625,0.1875 -0.140625,0.5625 -0.328125,1.234375 -0.75,1.234375 -0.203125,0 -0.3125,-0.125 -0.3125,-0.453125 0,-0.21875 0.125,-0.6875 0.203125,-1.046875 L 4.578125,-2.6875 C 4.609375,-2.828125 4.703125,-3.203125 4.75,-3.359375 4.796875,-3.59375 4.890625,-3.96875 4.890625,-4.03125 c 0,-0.171875 -0.140625,-0.265625 -0.28125,-0.265625 -0.046875,0 -0.3125,0.015625 -0.390625,0.34375 -0.1875,0.734375 -0.625,2.484375 -0.75,3 -0.015625,0.046875 -0.40625,0.84375 -1.140625,0.84375 -0.515625,0 -0.609375,-0.453125 -0.609375,-0.8125 0,-0.5625 0.28125,-1.34375 0.53125,-2.03125 0.125,-0.3125 0.171875,-0.453125 0.171875,-0.640625 0,-0.4375 -0.3125,-0.8125 -0.8125,-0.8125 -0.953125,0 -1.3125,1.453125 -1.3125,1.53125 0,0.109375 0.09375,0.109375 0.109375,0.109375 0.109375,0 0.109375,-0.03125 0.15625,-0.1875 0.25,-0.859375 0.640625,-1.234375 1.015625,-1.234375 0.09375,0 0.25,0.015625 0.25,0.328125 0,0.234375 -0.109375,0.53125 -0.171875,0.671875 -0.375,1 -0.578125,1.609375 -0.578125,2.09375 0,0.953125 0.6875,1.203125 1.21875,1.203125 0.65625,0 1.015625,-0.453125 1.1875,-0.671875 z m 0,0"
           id="path3811" />
      </symbol>
      <symbol
         overflow="visible"
         id="symbol9848">
        <path
           style="stroke:none"
           d="m 2.046875,-3.984375 h 0.9375 c 0.203125,0 0.3125,0 0.3125,-0.203125 0,-0.109375 -0.109375,-0.109375 -0.28125,-0.109375 h -0.875 C 2.5,-5.71875 2.546875,-5.90625 2.546875,-5.96875 c 0,-0.171875 -0.125,-0.265625 -0.296875,-0.265625 -0.03125,0 -0.3125,0 -0.390625,0.359375 L 1.46875,-4.296875 h -0.9375 c -0.203125,0 -0.296875,0 -0.296875,0.1875 0,0.125 0.078125,0.125 0.28125,0.125 h 0.875 C 0.671875,-1.15625 0.625,-0.984375 0.625,-0.8125 0.625,-0.265625 1,0.109375 1.546875,0.109375 2.5625,0.109375 3.125,-1.34375 3.125,-1.421875 3.125,-1.53125 3.046875,-1.53125 3.015625,-1.53125 2.921875,-1.53125 2.90625,-1.5 2.859375,-1.390625 2.4375,-0.34375 1.90625,-0.109375 1.5625,-0.109375 c -0.203125,0 -0.3125,-0.125 -0.3125,-0.453125 0,-0.25 0.03125,-0.3125 0.0625,-0.484375 z m 0,0"
           id="path5446" />
      </symbol>
    </g>
    <g
       id="g1251">
      <symbol
         overflow="visible"
         id="symbol3564">
        <path
           style="stroke:none;"
           d=""
           id="path2952" />
      </symbol>
      <symbol
         overflow="visible"
         id="symbol5127">
        <path
           style="stroke:none;"
           d="M 0.875 -0.59375 C 0.84375 -0.4375 0.78125 -0.203125 0.78125 -0.15625 C 0.78125 0.015625 0.921875 0.109375 1.078125 0.109375 C 1.203125 0.109375 1.375 0.03125 1.453125 -0.171875 C 1.453125 -0.1875 1.578125 -0.65625 1.640625 -0.90625 L 1.859375 -1.796875 C 1.90625 -2.03125 1.96875 -2.25 2.03125 -2.46875 C 2.0625 -2.640625 2.140625 -2.9375 2.15625 -2.96875 C 2.296875 -3.28125 2.828125 -4.1875 3.78125 -4.1875 C 4.234375 -4.1875 4.3125 -3.8125 4.3125 -3.484375 C 4.3125 -3.234375 4.25 -2.953125 4.171875 -2.65625 L 3.890625 -1.5 L 3.6875 -0.75 C 3.65625 -0.546875 3.5625 -0.203125 3.5625 -0.15625 C 3.5625 0.015625 3.703125 0.109375 3.84375 0.109375 C 4.15625 0.109375 4.21875 -0.140625 4.296875 -0.453125 C 4.4375 -1.015625 4.8125 -2.46875 4.890625 -2.859375 C 4.921875 -2.984375 5.453125 -4.1875 6.546875 -4.1875 C 6.96875 -4.1875 7.078125 -3.84375 7.078125 -3.484375 C 7.078125 -2.921875 6.65625 -1.78125 6.453125 -1.25 C 6.375 -1.015625 6.328125 -0.90625 6.328125 -0.703125 C 6.328125 -0.234375 6.671875 0.109375 7.140625 0.109375 C 8.078125 0.109375 8.453125 -1.34375 8.453125 -1.421875 C 8.453125 -1.53125 8.359375 -1.53125 8.328125 -1.53125 C 8.234375 -1.53125 8.234375 -1.5 8.1875 -1.34375 C 8.03125 -0.8125 7.71875 -0.109375 7.171875 -0.109375 C 7 -0.109375 6.921875 -0.203125 6.921875 -0.4375 C 6.921875 -0.6875 7.015625 -0.921875 7.109375 -1.140625 C 7.296875 -1.671875 7.71875 -2.765625 7.71875 -3.34375 C 7.71875 -3.984375 7.3125 -4.40625 6.5625 -4.40625 C 5.828125 -4.40625 5.3125 -3.96875 4.9375 -3.4375 C 4.9375 -3.5625 4.90625 -3.90625 4.625 -4.140625 C 4.375 -4.359375 4.0625 -4.40625 3.8125 -4.40625 C 2.90625 -4.40625 2.421875 -3.765625 2.25 -3.53125 C 2.203125 -4.109375 1.78125 -4.40625 1.328125 -4.40625 C 0.875 -4.40625 0.6875 -4.015625 0.59375 -3.84375 C 0.421875 -3.484375 0.296875 -2.90625 0.296875 -2.875 C 0.296875 -2.765625 0.390625 -2.765625 0.40625 -2.765625 C 0.515625 -2.765625 0.515625 -2.78125 0.578125 -3 C 0.75 -3.703125 0.953125 -4.1875 1.3125 -4.1875 C 1.46875 -4.1875 1.609375 -4.109375 1.609375 -3.734375 C 1.609375 -3.515625 1.578125 -3.40625 1.453125 -2.890625 Z M 0.875 -0.59375 "
           id="path9778" />
      </symbol>
      <symbol
         overflow="visible"
         id="symbol7065">
        <path
           style="stroke:none;"
           d=""
           id="path2973" />
      </symbol>
      <symbol
         overflow="visible"
         id="symbol125">
        <path
           style="stroke:none;"
           d="M 3.59375 -2.21875 C 3.59375 -2.984375 3.5 -3.546875 3.1875 -4.03125 C 2.96875 -4.34375 2.53125 -4.625 1.984375 -4.625 C 0.359375 -4.625 0.359375 -2.71875 0.359375 -2.21875 C 0.359375 -1.71875 0.359375 0.140625 1.984375 0.140625 C 3.59375 0.140625 3.59375 -1.71875 3.59375 -2.21875 Z M 1.984375 -0.0625 C 1.65625 -0.0625 1.234375 -0.25 1.09375 -0.8125 C 1 -1.21875 1 -1.796875 1 -2.3125 C 1 -2.828125 1 -3.359375 1.09375 -3.734375 C 1.25 -4.28125 1.6875 -4.4375 1.984375 -4.4375 C 2.359375 -4.4375 2.71875 -4.203125 2.84375 -3.796875 C 2.953125 -3.421875 2.96875 -2.921875 2.96875 -2.3125 C 2.96875 -1.796875 2.96875 -1.28125 2.875 -0.84375 C 2.734375 -0.203125 2.265625 -0.0625 1.984375 -0.0625 Z M 1.984375 -0.0625 "
           id="path2856" />
      </symbol>
    </g>
    <g
       id="g1439">
      <symbol
         overflow="visible"
         id="symbol1174">
        <path
           style="stroke:none;"
           d=""
           id="path1027" />
      </symbol>
      <symbol
         overflow="visible"
         id="symbol8757">
        <path
           style="stroke:none;"
           d="M 0.875 -0.59375 C 0.84375 -0.4375 0.78125 -0.203125 0.78125 -0.15625 C 0.78125 0.015625 0.921875 0.109375 1.078125 0.109375 C 1.203125 0.109375 1.375 0.03125 1.453125 -0.171875 C 1.453125 -0.1875 1.578125 -0.65625 1.640625 -0.90625 L 1.859375 -1.796875 C 1.90625 -2.03125 1.96875 -2.25 2.03125 -2.46875 C 2.0625 -2.640625 2.140625 -2.9375 2.15625 -2.96875 C 2.296875 -3.28125 2.828125 -4.1875 3.78125 -4.1875 C 4.234375 -4.1875 4.3125 -3.8125 4.3125 -3.484375 C 4.3125 -3.234375 4.25 -2.953125 4.171875 -2.65625 L 3.890625 -1.5 L 3.6875 -0.75 C 3.65625 -0.546875 3.5625 -0.203125 3.5625 -0.15625 C 3.5625 0.015625 3.703125 0.109375 3.84375 0.109375 C 4.15625 0.109375 4.21875 -0.140625 4.296875 -0.453125 C 4.4375 -1.015625 4.8125 -2.46875 4.890625 -2.859375 C 4.921875 -2.984375 5.453125 -4.1875 6.546875 -4.1875 C 6.96875 -4.1875 7.078125 -3.84375 7.078125 -3.484375 C 7.078125 -2.921875 6.65625 -1.78125 6.453125 -1.25 C 6.375 -1.015625 6.328125 -0.90625 6.328125 -0.703125 C 6.328125 -0.234375 6.671875 0.109375 7.140625 0.109375 C 8.078125 0.109375 8.453125 -1.34375 8.453125 -1.421875 C 8.453125 -1.53125 8.359375 -1.53125 8.328125 -1.53125 C 8.234375 -1.53125 8.234375 -1.5 8.1875 -1.34375 C 8.03125 -0.8125 7.71875 -0.109375 7.171875 -0.109375 C 7 -0.109375 6.921875 -0.203125 6.921875 -0.4375 C 6.921875 -0.6875 7.015625 -0.921875 7.109375 -1.140625 C 7.296875 -1.671875 7.71875 -2.765625 7.71875 -3.34375 C 7.71875 -3.984375 7.3125 -4.40625 6.5625 -4.40625 C 5.828125 -4.40625 5.3125 -3.96875 4.9375 -3.4375 C 4.9375 -3.5625 4.90625 -3.90625 4.625 -4.140625 C 4.375 -4.359375 4.0625 -4.40625 3.8125 -4.40625 C 2.90625 -4.40625 2.421875 -3.765625 2.25 -3.53125 C 2.203125 -4.109375 1.78125 -4.40625 1.328125 -4.40625 C 0.875 -4.40625 0.6875 -4.015625 0.59375 -3.84375 C 0.421875 -3.484375 0.296875 -2.90625 0.296875 -2.875 C 0.296875 -2.765625 0.390625 -2.765625 0.40625 -2.765625 C 0.515625 -2.765625 0.515625 -2.78125 0.578125 -3 C 0.75 -3.703125 0.953125 -4.1875 1.3125 -4.1875 C 1.46875 -4.1875 1.609375 -4.109375 1.609375 -3.734375 C 1.609375 -3.515625 1.578125 -3.40625 1.453125 -2.890625 Z M 0.875 -0.59375 "
           id="path7065" />
      </symbol>
      <symbol
         overflow="visible"
         id="symbol8000">
        <path
           style="stroke:none;"
           d=""
           id="path3570" />
      </symbol>
      <symbol
         overflow="visible"
         id="symbol4021">
        <path
           style="stroke:none;"
           d="M 2.328125 -4.4375 C 2.328125 -4.625 2.328125 -4.625 2.125 -4.625 C 1.671875 -4.1875 1.046875 -4.1875 0.765625 -4.1875 L 0.765625 -3.9375 C 0.921875 -3.9375 1.390625 -3.9375 1.765625 -4.125 L 1.765625 -0.578125 C 1.765625 -0.34375 1.765625 -0.25 1.078125 -0.25 L 0.8125 -0.25 L 0.8125 0 C 0.9375 0 1.796875 -0.03125 2.046875 -0.03125 C 2.265625 -0.03125 3.140625 0 3.296875 0 L 3.296875 -0.25 L 3.03125 -0.25 C 2.328125 -0.25 2.328125 -0.34375 2.328125 -0.578125 Z M 2.328125 -4.4375 "
           id="path8142" />
      </symbol>
    </g>
    <g
       id="g8456">
      <symbol
         overflow="visible"
         id="symbol4511">
        <path
           style="stroke:none;"
           d=""
           id="path7409" />
      </symbol>
      <symbol
         overflow="visible"
         id="symbol8656">
        <path
           style="stroke:none;"
           d="M 0.875 -0.59375 C 0.84375 -0.4375 0.78125 -0.203125 0.78125 -0.15625 C 0.78125 0.015625 0.921875 0.109375 1.078125 0.109375 C 1.203125 0.109375 1.375 0.03125 1.453125 -0.171875 C 1.453125 -0.1875 1.578125 -0.65625 1.640625 -0.90625 L 1.859375 -1.796875 C 1.90625 -2.03125 1.96875 -2.25 2.03125 -2.46875 C 2.0625 -2.640625 2.140625 -2.9375 2.15625 -2.96875 C 2.296875 -3.28125 2.828125 -4.1875 3.78125 -4.1875 C 4.234375 -4.1875 4.3125 -3.8125 4.3125 -3.484375 C 4.3125 -3.234375 4.25 -2.953125 4.171875 -2.65625 L 3.890625 -1.5 L 3.6875 -0.75 C 3.65625 -0.546875 3.5625 -0.203125 3.5625 -0.15625 C 3.5625 0.015625 3.703125 0.109375 3.84375 0.109375 C 4.15625 0.109375 4.21875 -0.140625 4.296875 -0.453125 C 4.4375 -1.015625 4.8125 -2.46875 4.890625 -2.859375 C 4.921875 -2.984375 5.453125 -4.1875 6.546875 -4.1875 C 6.96875 -4.1875 7.078125 -3.84375 7.078125 -3.484375 C 7.078125 -2.921875 6.65625 -1.78125 6.453125 -1.25 C 6.375 -1.015625 6.328125 -0.90625 6.328125 -0.703125 C 6.328125 -0.234375 6.671875 0.109375 7.140625 0.109375 C 8.078125 0.109375 8.453125 -1.34375 8.453125 -1.421875 C 8.453125 -1.53125 8.359375 -1.53125 8.328125 -1.53125 C 8.234375 -1.53125 8.234375 -1.5 8.1875 -1.34375 C 8.03125 -0.8125 7.71875 -0.109375 7.171875 -0.109375 C 7 -0.109375 6.921875 -0.203125 6.921875 -0.4375 C 6.921875 -0.6875 7.015625 -0.921875 7.109375 -1.140625 C 7.296875 -1.671875 7.71875 -2.765625 7.71875 -3.34375 C 7.71875 -3.984375 7.3125 -4.40625 6.5625 -4.40625 C 5.828125 -4.40625 5.3125 -3.96875 4.9375 -3.4375 C 4.9375 -3.5625 4.90625 -3.90625 4.625 -4.140625 C 4.375 -4.359375 4.0625 -4.40625 3.8125 -4.40625 C 2.90625 -4.40625 2.421875 -3.765625 2.25 -3.53125 C 2.203125 -4.109375 1.78125 -4.40625 1.328125 -4.40625 C 0.875 -4.40625 0.6875 -4.015625 0.59375 -3.84375 C 0.421875 -3.484375 0.296875 -2.90625 0.296875 -2.875 C 0.296875 -2.765625 0.390625 -2.765625 0.40625 -2.765625 C 0.515625 -2.765625 0.515625 -2.78125 0.578125 -3 C 0.75 -3.703125 0.953125 -4.1875 1.3125 -4.1875 C 1.46875 -4.1875 1.609375 -4.109375 1.609375 -3.734375 C 1.609375 -3.515625 1.578125 -3.40625 1.453125 -2.890625 Z M 0.875 -0.59375 "
           id="path5622" />
      </symbol>
      <symbol
         overflow="visible"
         id="symbol2289">
        <path
           style="stroke:none;"
           d=""
           id="path4792" />
      </symbol>
      <symbol
         overflow="visible"
         id="symbol5285">
        <path
           style="stroke:none;"
           d="M 3.515625 -1.265625 L 3.28125 -1.265625 C 3.265625 -1.109375 3.1875 -0.703125 3.09375 -0.640625 C 3.046875 -0.59375 2.515625 -0.59375 2.40625 -0.59375 L 1.125 -0.59375 C 1.859375 -1.234375 2.109375 -1.4375 2.515625 -1.765625 C 3.03125 -2.171875 3.515625 -2.609375 3.515625 -3.265625 C 3.515625 -4.109375 2.78125 -4.625 1.890625 -4.625 C 1.03125 -4.625 0.4375 -4.015625 0.4375 -3.375 C 0.4375 -3.03125 0.734375 -2.984375 0.8125 -2.984375 C 0.96875 -2.984375 1.171875 -3.109375 1.171875 -3.359375 C 1.171875 -3.484375 1.125 -3.734375 0.765625 -3.734375 C 0.984375 -4.21875 1.453125 -4.375 1.78125 -4.375 C 2.484375 -4.375 2.84375 -3.828125 2.84375 -3.265625 C 2.84375 -2.65625 2.40625 -2.1875 2.1875 -1.9375 L 0.515625 -0.265625 C 0.4375 -0.203125 0.4375 -0.1875 0.4375 0 L 3.3125 0 Z M 3.515625 -1.265625 "
           id="path6065" />
      </symbol>
    </g>
    <g
       id="g9078">
      <symbol
         overflow="visible"
         id="symbol7912">
        <path
           style="stroke:none;"
           d=""
           id="path3878" />
      </symbol>
      <symbol
         overflow="visible"
         id="symbol272">
        <path
           style="stroke:none;"
           d="M 0.875 -0.59375 C 0.84375 -0.4375 0.78125 -0.203125 0.78125 -0.15625 C 0.78125 0.015625 0.921875 0.109375 1.078125 0.109375 C 1.203125 0.109375 1.375 0.03125 1.453125 -0.171875 C 1.453125 -0.1875 1.578125 -0.65625 1.640625 -0.90625 L 1.859375 -1.796875 C 1.90625 -2.03125 1.96875 -2.25 2.03125 -2.46875 C 2.0625 -2.640625 2.140625 -2.9375 2.15625 -2.96875 C 2.296875 -3.28125 2.828125 -4.1875 3.78125 -4.1875 C 4.234375 -4.1875 4.3125 -3.8125 4.3125 -3.484375 C 4.3125 -3.234375 4.25 -2.953125 4.171875 -2.65625 L 3.890625 -1.5 L 3.6875 -0.75 C 3.65625 -0.546875 3.5625 -0.203125 3.5625 -0.15625 C 3.5625 0.015625 3.703125 0.109375 3.84375 0.109375 C 4.15625 0.109375 4.21875 -0.140625 4.296875 -0.453125 C 4.4375 -1.015625 4.8125 -2.46875 4.890625 -2.859375 C 4.921875 -2.984375 5.453125 -4.1875 6.546875 -4.1875 C 6.96875 -4.1875 7.078125 -3.84375 7.078125 -3.484375 C 7.078125 -2.921875 6.65625 -1.78125 6.453125 -1.25 C 6.375 -1.015625 6.328125 -0.90625 6.328125 -0.703125 C 6.328125 -0.234375 6.671875 0.109375 7.140625 0.109375 C 8.078125 0.109375 8.453125 -1.34375 8.453125 -1.421875 C 8.453125 -1.53125 8.359375 -1.53125 8.328125 -1.53125 C 8.234375 -1.53125 8.234375 -1.5 8.1875 -1.34375 C 8.03125 -0.8125 7.71875 -0.109375 7.171875 -0.109375 C 7 -0.109375 6.921875 -0.203125 6.921875 -0.4375 C 6.921875 -0.6875 7.015625 -0.921875 7.109375 -1.140625 C 7.296875 -1.671875 7.71875 -2.765625 7.71875 -3.34375 C 7.71875 -3.984375 7.3125 -4.40625 6.5625 -4.40625 C 5.828125 -4.40625 5.3125 -3.96875 4.9375 -3.4375 C 4.9375 -3.5625 4.90625 -3.90625 4.625 -4.140625 C 4.375 -4.359375 4.0625 -4.40625 3.8125 -4.40625 C 2.90625 -4.40625 2.421875 -3.765625 2.25 -3.53125 C 2.203125 -4.109375 1.78125 -4.40625 1.328125 -4.40625 C 0.875 -4.40625 0.6875 -4.015625 0.59375 -3.84375 C 0.421875 -3.484375 0.296875 -2.90625 0.296875 -2.875 C 0.296875 -2.765625 0.390625 -2.765625 0.40625 -2.765625 C 0.515625 -2.765625 0.515625 -2.78125 0.578125 -3 C 0.75 -3.703125 0.953125 -4.1875 1.3125 -4.1875 C 1.46875 -4.1875 1.609375 -4.109375 1.609375 -3.734375 C 1.609375 -3.515625 1.578125 -3.40625 1.453125 -2.890625 Z M 0.875 -0.59375 "
           id="path1053" />
      </symbol>
      <symbol
         overflow="visible"
         id="symbol6366">
        <path
           style="stroke:none;"
           d=""
           id="path7489" />
      </symbol>
      <symbol
         overflow="visible"
         id="symbol9268">
        <path
           style="stroke:none;"
           d="M 1.90625 -2.328125 C 2.453125 -2.328125 2.84375 -1.953125 2.84375 -1.203125 C 2.84375 -0.34375 2.328125 -0.078125 1.9375 -0.078125 C 1.65625 -0.078125 1.03125 -0.15625 0.75 -0.578125 C 1.078125 -0.578125 1.15625 -0.8125 1.15625 -0.96875 C 1.15625 -1.1875 0.984375 -1.34375 0.765625 -1.34375 C 0.578125 -1.34375 0.375 -1.21875 0.375 -0.9375 C 0.375 -0.28125 1.09375 0.140625 1.9375 0.140625 C 2.90625 0.140625 3.578125 -0.515625 3.578125 -1.203125 C 3.578125 -1.75 3.140625 -2.296875 2.375 -2.453125 C 3.09375 -2.71875 3.359375 -3.234375 3.359375 -3.671875 C 3.359375 -4.21875 2.734375 -4.625 1.953125 -4.625 C 1.1875 -4.625 0.59375 -4.25 0.59375 -3.6875 C 0.59375 -3.453125 0.75 -3.328125 0.953125 -3.328125 C 1.171875 -3.328125 1.3125 -3.484375 1.3125 -3.671875 C 1.3125 -3.875 1.171875 -4.03125 0.953125 -4.046875 C 1.203125 -4.34375 1.671875 -4.421875 1.9375 -4.421875 C 2.25 -4.421875 2.6875 -4.265625 2.6875 -3.671875 C 2.6875 -3.375 2.59375 -3.046875 2.40625 -2.84375 C 2.1875 -2.578125 1.984375 -2.5625 1.640625 -2.53125 C 1.46875 -2.515625 1.453125 -2.515625 1.421875 -2.515625 C 1.40625 -2.515625 1.34375 -2.5 1.34375 -2.421875 C 1.34375 -2.328125 1.40625 -2.328125 1.53125 -2.328125 Z M 1.90625 -2.328125 "
           id="path6724" />
      </symbol>
    </g>
    <g
       id="g5835">
      <symbol
         overflow="visible"
         id="symbol3785">
        <path
           style="stroke:none;"
           d=""
           id="path227" />
      </symbol>
      <symbol
         overflow="visible"
         id="symbol4727">
        <path
           style="stroke:none;"
           d="M 0.875 -0.59375 C 0.84375 -0.4375 0.78125 -0.203125 0.78125 -0.15625 C 0.78125 0.015625 0.921875 0.109375 1.078125 0.109375 C 1.203125 0.109375 1.375 0.03125 1.453125 -0.171875 C 1.453125 -0.1875 1.578125 -0.65625 1.640625 -0.90625 L 1.859375 -1.796875 C 1.90625 -2.03125 1.96875 -2.25 2.03125 -2.46875 C 2.0625 -2.640625 2.140625 -2.9375 2.15625 -2.96875 C 2.296875 -3.28125 2.828125 -4.1875 3.78125 -4.1875 C 4.234375 -4.1875 4.3125 -3.8125 4.3125 -3.484375 C 4.3125 -3.234375 4.25 -2.953125 4.171875 -2.65625 L 3.890625 -1.5 L 3.6875 -0.75 C 3.65625 -0.546875 3.5625 -0.203125 3.5625 -0.15625 C 3.5625 0.015625 3.703125 0.109375 3.84375 0.109375 C 4.15625 0.109375 4.21875 -0.140625 4.296875 -0.453125 C 4.4375 -1.015625 4.8125 -2.46875 4.890625 -2.859375 C 4.921875 -2.984375 5.453125 -4.1875 6.546875 -4.1875 C 6.96875 -4.1875 7.078125 -3.84375 7.078125 -3.484375 C 7.078125 -2.921875 6.65625 -1.78125 6.453125 -1.25 C 6.375 -1.015625 6.328125 -0.90625 6.328125 -0.703125 C 6.328125 -0.234375 6.671875 0.109375 7.140625 0.109375 C 8.078125 0.109375 8.453125 -1.34375 8.453125 -1.421875 C 8.453125 -1.53125 8.359375 -1.53125 8.328125 -1.53125 C 8.234375 -1.53125 8.234375 -1.5 8.1875 -1.34375 C 8.03125 -0.8125 7.71875 -0.109375 7.171875 -0.109375 C 7 -0.109375 6.921875 -0.203125 6.921875 -0.4375 C 6.921875 -0.6875 7.015625 -0.921875 7.109375 -1.140625 C 7.296875 -1.671875 7.71875 -2.765625 7.71875 -3.34375 C 7.71875 -3.984375 7.3125 -4.40625 6.5625 -4.40625 C 5.828125 -4.40625 5.3125 -3.96875 4.9375 -3.4375 C 4.9375 -3.5625 4.90625 -3.90625 4.625 -4.140625 C 4.375 -4.359375 4.0625 -4.40625 3.8125 -4.40625 C 2.90625 -4.40625 2.421875 -3.765625 2.25 -3.53125 C 2.203125 -4.109375 1.78125 -4.40625 1.328125 -4.40625 C 0.875 -4.40625 0.6875 -4.015625 0.59375 -3.84375 C 0.421875 -3.484375 0.296875 -2.90625 0.296875 -2.875 C 0.296875 -2.765625 0.390625 -2.765625 0.40625 -2.765625 C 0.515625 -2.765625 0.515625 -2.78125 0.578125 -3 C 0.75 -3.703125 0.953125 -4.1875 1.3125 -4.1875 C 1.46875 -4.1875 1.609375 -4.109375 1.609375 -3.734375 C 1.609375 -3.515625 1.578125 -3.40625 1.453125 -2.890625 Z M 0.875 -0.59375 "
           id="path7746" />
      </symbol>
      <symbol
         overflow="visible"
         id="symbol4196">
        <path
           style="stroke:none;"
           d=""
           id="path2507" />
      </symbol>
      <symbol
         overflow="visible"
         id="symbol4079">
        <path
           style="stroke:none;"
           d="M 3.6875 -1.140625 L 3.6875 -1.390625 L 2.90625 -1.390625 L 2.90625 -4.5 C 2.90625 -4.640625 2.90625 -4.703125 2.765625 -4.703125 C 2.671875 -4.703125 2.640625 -4.703125 2.578125 -4.59375 L 0.265625 -1.390625 L 0.265625 -1.140625 L 2.328125 -1.140625 L 2.328125 -0.578125 C 2.328125 -0.328125 2.328125 -0.25 1.75 -0.25 L 1.5625 -0.25 L 1.5625 0 C 1.921875 -0.015625 2.359375 -0.03125 2.609375 -0.03125 C 2.875 -0.03125 3.3125 -0.015625 3.671875 0 L 3.671875 -0.25 L 3.484375 -0.25 C 2.90625 -0.25 2.90625 -0.328125 2.90625 -0.578125 L 2.90625 -1.140625 Z M 2.375 -3.9375 L 2.375 -1.390625 L 0.53125 -1.390625 Z M 2.375 -3.9375 "
           id="path8338" />
      </symbol>
    </g>
    <g
       id="g9720">
      <symbol
         overflow="visible"
         id="symbol4338">
        <path
           style="stroke:none;"
           d=""
           id="path1696" />
      </symbol>
      <symbol
         overflow="visible"
         id="symbol2883">
        <path
           style="stroke:none;"
           d="M 0.875 -0.59375 C 0.84375 -0.4375 0.78125 -0.203125 0.78125 -0.15625 C 0.78125 0.015625 0.921875 0.109375 1.078125 0.109375 C 1.203125 0.109375 1.375 0.03125 1.453125 -0.171875 C 1.453125 -0.1875 1.578125 -0.65625 1.640625 -0.90625 L 1.859375 -1.796875 C 1.90625 -2.03125 1.96875 -2.25 2.03125 -2.46875 C 2.0625 -2.640625 2.140625 -2.9375 2.15625 -2.96875 C 2.296875 -3.28125 2.828125 -4.1875 3.78125 -4.1875 C 4.234375 -4.1875 4.3125 -3.8125 4.3125 -3.484375 C 4.3125 -3.234375 4.25 -2.953125 4.171875 -2.65625 L 3.890625 -1.5 L 3.6875 -0.75 C 3.65625 -0.546875 3.5625 -0.203125 3.5625 -0.15625 C 3.5625 0.015625 3.703125 0.109375 3.84375 0.109375 C 4.15625 0.109375 4.21875 -0.140625 4.296875 -0.453125 C 4.4375 -1.015625 4.8125 -2.46875 4.890625 -2.859375 C 4.921875 -2.984375 5.453125 -4.1875 6.546875 -4.1875 C 6.96875 -4.1875 7.078125 -3.84375 7.078125 -3.484375 C 7.078125 -2.921875 6.65625 -1.78125 6.453125 -1.25 C 6.375 -1.015625 6.328125 -0.90625 6.328125 -0.703125 C 6.328125 -0.234375 6.671875 0.109375 7.140625 0.109375 C 8.078125 0.109375 8.453125 -1.34375 8.453125 -1.421875 C 8.453125 -1.53125 8.359375 -1.53125 8.328125 -1.53125 C 8.234375 -1.53125 8.234375 -1.5 8.1875 -1.34375 C 8.03125 -0.8125 7.71875 -0.109375 7.171875 -0.109375 C 7 -0.109375 6.921875 -0.203125 6.921875 -0.4375 C 6.921875 -0.6875 7.015625 -0.921875 7.109375 -1.140625 C 7.296875 -1.671875 7.71875 -2.765625 7.71875 -3.34375 C 7.71875 -3.984375 7.3125 -4.40625 6.5625 -4.40625 C 5.828125 -4.40625 5.3125 -3.96875 4.9375 -3.4375 C 4.9375 -3.5625 4.90625 -3.90625 4.625 -4.140625 C 4.375 -4.359375 4.0625 -4.40625 3.8125 -4.40625 C 2.90625 -4.40625 2.421875 -3.765625 2.25 -3.53125 C 2.203125 -4.109375 1.78125 -4.40625 1.328125 -4.40625 C 0.875 -4.40625 0.6875 -4.015625 0.59375 -3.84375 C 0.421875 -3.484375 0.296875 -2.90625 0.296875 -2.875 C 0.296875 -2.765625 0.390625 -2.765625 0.40625 -2.765625 C 0.515625 -2.765625 0.515625 -2.78125 0.578125 -3 C 0.75 -3.703125 0.953125 -4.1875 1.3125 -4.1875 C 1.46875 -4.1875 1.609375 -4.109375 1.609375 -3.734375 C 1.609375 -3.515625 1.578125 -3.40625 1.453125 -2.890625 Z M 0.875 -0.59375 "
           id="path1882" />
      </symbol>
      <symbol
         overflow="visible"
         id="symbol633">
        <path
           style="stroke:none;"
           d=""
           id="path5323" />
      </symbol>
      <symbol
         overflow="visible"
         id="symbol6787">
        <path
           style="stroke:none;"
           d="M 1.078125 -3.890625 C 1.4375 -3.796875 1.640625 -3.796875 1.75 -3.796875 C 2.671875 -3.796875 3.21875 -4.421875 3.21875 -4.53125 C 3.21875 -4.609375 3.171875 -4.625 3.140625 -4.625 C 3.125 -4.625 3.109375 -4.625 3.078125 -4.609375 C 2.90625 -4.546875 2.546875 -4.40625 2.03125 -4.40625 C 1.828125 -4.40625 1.46875 -4.421875 1.015625 -4.59375 C 0.9375 -4.625 0.921875 -4.625 0.921875 -4.625 C 0.828125 -4.625 0.828125 -4.546875 0.828125 -4.4375 L 0.828125 -2.390625 C 0.828125 -2.265625 0.828125 -2.1875 0.9375 -2.1875 C 1 -2.1875 1.015625 -2.1875 1.078125 -2.28125 C 1.375 -2.65625 1.8125 -2.71875 2.046875 -2.71875 C 2.46875 -2.71875 2.65625 -2.390625 2.6875 -2.328125 C 2.8125 -2.09375 2.859375 -1.828125 2.859375 -1.421875 C 2.859375 -1.21875 2.859375 -0.8125 2.640625 -0.5 C 2.46875 -0.25 2.171875 -0.078125 1.828125 -0.078125 C 1.375 -0.078125 0.90625 -0.328125 0.734375 -0.796875 C 1 -0.78125 1.140625 -0.953125 1.140625 -1.140625 C 1.140625 -1.4375 0.875 -1.484375 0.78125 -1.484375 C 0.78125 -1.484375 0.4375 -1.484375 0.4375 -1.109375 C 0.4375 -0.484375 1.015625 0.140625 1.84375 0.140625 C 2.734375 0.140625 3.515625 -0.515625 3.515625 -1.40625 C 3.515625 -2.1875 2.921875 -2.90625 2.0625 -2.90625 C 1.75 -2.90625 1.390625 -2.84375 1.078125 -2.578125 Z M 1.078125 -3.890625 "
           id="path4961" />
      </symbol>
    </g>
    <g
       id="g2805">
      <symbol
         overflow="visible"
         id="symbol1101">
        <path
           style="stroke:none;"
           d=""
           id="path5052" />
      </symbol>
      <symbol
         overflow="visible"
         id="symbol3078">
        <path
           style="stroke:none;"
           d="M 0.875 -0.59375 C 0.84375 -0.4375 0.78125 -0.203125 0.78125 -0.15625 C 0.78125 0.015625 0.921875 0.109375 1.078125 0.109375 C 1.203125 0.109375 1.375 0.03125 1.453125 -0.171875 C 1.453125 -0.1875 1.578125 -0.65625 1.640625 -0.90625 L 1.859375 -1.796875 C 1.90625 -2.03125 1.96875 -2.25 2.03125 -2.46875 C 2.0625 -2.640625 2.140625 -2.9375 2.15625 -2.96875 C 2.296875 -3.28125 2.828125 -4.1875 3.78125 -4.1875 C 4.234375 -4.1875 4.3125 -3.8125 4.3125 -3.484375 C 4.3125 -3.234375 4.25 -2.953125 4.171875 -2.65625 L 3.890625 -1.5 L 3.6875 -0.75 C 3.65625 -0.546875 3.5625 -0.203125 3.5625 -0.15625 C 3.5625 0.015625 3.703125 0.109375 3.84375 0.109375 C 4.15625 0.109375 4.21875 -0.140625 4.296875 -0.453125 C 4.4375 -1.015625 4.8125 -2.46875 4.890625 -2.859375 C 4.921875 -2.984375 5.453125 -4.1875 6.546875 -4.1875 C 6.96875 -4.1875 7.078125 -3.84375 7.078125 -3.484375 C 7.078125 -2.921875 6.65625 -1.78125 6.453125 -1.25 C 6.375 -1.015625 6.328125 -0.90625 6.328125 -0.703125 C 6.328125 -0.234375 6.671875 0.109375 7.140625 0.109375 C 8.078125 0.109375 8.453125 -1.34375 8.453125 -1.421875 C 8.453125 -1.53125 8.359375 -1.53125 8.328125 -1.53125 C 8.234375 -1.53125 8.234375 -1.5 8.1875 -1.34375 C 8.03125 -0.8125 7.71875 -0.109375 7.171875 -0.109375 C 7 -0.109375 6.921875 -0.203125 6.921875 -0.4375 C 6.921875 -0.6875 7.015625 -0.921875 7.109375 -1.140625 C 7.296875 -1.671875 7.71875 -2.765625 7.71875 -3.34375 C 7.71875 -3.984375 7.3125 -4.40625 6.5625 -4.40625 C 5.828125 -4.40625 5.3125 -3.96875 4.9375 -3.4375 C 4.9375 -3.5625 4.90625 -3.90625 4.625 -4.140625 C 4.375 -4.359375 4.0625 -4.40625 3.8125 -4.40625 C 2.90625 -4.40625 2.421875 -3.765625 2.25 -3.53125 C 2.203125 -4.109375 1.78125 -4.40625 1.328125 -4.40625 C 0.875 -4.40625 0.6875 -4.015625 0.59375 -3.84375 C 0.421875 -3.484375 0.296875 -2.90625 0.296875 -2.875 C 0.296875 -2.765625 0.390625 -2.765625 0.40625 -2.765625 C 0.515625 -2.765625 0.515625 -2.78125 0.578125 -3 C 0.75 -3.703125 0.953125 -4.1875 1.3125 -4.1875 C 1.46875 -4.1875 1.609375 -4.109375 1.609375 -3.734375 C 1.609375 -3.515625 1.578125 -3.40625 1.453125 -2.890625 Z M 0.875 -0.59375 "
           id="path1992" />
      </symbol>
      <symbol
         overflow="visible"
         id="symbol4957">
        <path
           style="stroke:none;"
           d=""
           id="path6272" />
      </symbol>
      <symbol
         overflow="visible"
         id="symbol1704">
        <path
           style="stroke:none;"
           d="M 1.046875 -2.28125 C 1.046875 -2.84375 1.09375 -3.359375 1.359375 -3.796875 C 1.59375 -4.171875 1.96875 -4.421875 2.421875 -4.421875 C 2.625 -4.421875 2.90625 -4.375 3.046875 -4.1875 C 2.875 -4.171875 2.71875 -4.046875 2.71875 -3.84375 C 2.71875 -3.671875 2.84375 -3.515625 3.046875 -3.515625 C 3.265625 -3.515625 3.390625 -3.65625 3.390625 -3.859375 C 3.390625 -4.265625 3.09375 -4.625 2.40625 -4.625 C 1.40625 -4.625 0.375 -3.703125 0.375 -2.203125 C 0.375 -0.40625 1.21875 0.140625 2 0.140625 C 2.84375 0.140625 3.578125 -0.515625 3.578125 -1.421875 C 3.578125 -2.3125 2.875 -2.96875 2.0625 -2.96875 C 1.5 -2.96875 1.203125 -2.59375 1.046875 -2.28125 Z M 2 -0.078125 C 1.640625 -0.078125 1.375 -0.28125 1.21875 -0.59375 C 1.125 -0.796875 1.0625 -1.15625 1.0625 -1.5625 C 1.0625 -2.25 1.46875 -2.765625 2.03125 -2.765625 C 2.34375 -2.765625 2.5625 -2.640625 2.734375 -2.390625 C 2.90625 -2.125 2.90625 -1.828125 2.90625 -1.421875 C 2.90625 -1.03125 2.90625 -0.734375 2.71875 -0.453125 C 2.5625 -0.21875 2.328125 -0.078125 2 -0.078125 Z M 2 -0.078125 "
           id="path6610" />
      </symbol>
    </g>
    <g
       id="g4290">
      <symbol
         overflow="visible"
         id="symbol2762">
        <path
           style="stroke:none;"
           d=""
           id="path5655" />
      </symbol>
      <symbol
         overflow="visible"
         id="symbol7561">
        <path
           style="stroke:none;"
           d="M 0.875 -0.59375 C 0.84375 -0.4375 0.78125 -0.203125 0.78125 -0.15625 C 0.78125 0.015625 0.921875 0.109375 1.078125 0.109375 C 1.203125 0.109375 1.375 0.03125 1.453125 -0.171875 C 1.453125 -0.1875 1.578125 -0.65625 1.640625 -0.90625 L 1.859375 -1.796875 C 1.90625 -2.03125 1.96875 -2.25 2.03125 -2.46875 C 2.0625 -2.640625 2.140625 -2.9375 2.15625 -2.96875 C 2.296875 -3.28125 2.828125 -4.1875 3.78125 -4.1875 C 4.234375 -4.1875 4.3125 -3.8125 4.3125 -3.484375 C 4.3125 -3.234375 4.25 -2.953125 4.171875 -2.65625 L 3.890625 -1.5 L 3.6875 -0.75 C 3.65625 -0.546875 3.5625 -0.203125 3.5625 -0.15625 C 3.5625 0.015625 3.703125 0.109375 3.84375 0.109375 C 4.15625 0.109375 4.21875 -0.140625 4.296875 -0.453125 C 4.4375 -1.015625 4.8125 -2.46875 4.890625 -2.859375 C 4.921875 -2.984375 5.453125 -4.1875 6.546875 -4.1875 C 6.96875 -4.1875 7.078125 -3.84375 7.078125 -3.484375 C 7.078125 -2.921875 6.65625 -1.78125 6.453125 -1.25 C 6.375 -1.015625 6.328125 -0.90625 6.328125 -0.703125 C 6.328125 -0.234375 6.671875 0.109375 7.140625 0.109375 C 8.078125 0.109375 8.453125 -1.34375 8.453125 -1.421875 C 8.453125 -1.53125 8.359375 -1.53125 8.328125 -1.53125 C 8.234375 -1.53125 8.234375 -1.5 8.1875 -1.34375 C 8.03125 -0.8125 7.71875 -0.109375 7.171875 -0.109375 C 7 -0.109375 6.921875 -0.203125 6.921875 -0.4375 C 6.921875 -0.6875 7.015625 -0.921875 7.109375 -1.140625 C 7.296875 -1.671875 7.71875 -2.765625 7.71875 -3.34375 C 7.71875 -3.984375 7.3125 -4.40625 6.5625 -4.40625 C 5.828125 -4.40625 5.3125 -3.96875 4.9375 -3.4375 C 4.9375 -3.5625 4.90625 -3.90625 4.625 -4.140625 C 4.375 -4.359375 4.0625 -4.40625 3.8125 -4.40625 C 2.90625 -4.40625 2.421875 -3.765625 2.25 -3.53125 C 2.203125 -4.109375 1.78125 -4.40625 1.328125 -4.40625 C 0.875 -4.40625 0.6875 -4.015625 0.59375 -3.84375 C 0.421875 -3.484375 0.296875 -2.90625 0.296875 -2.875 C 0.296875 -2.765625 0.390625 -2.765625 0.40625 -2.765625 C 0.515625 -2.765625 0.515625 -2.78125 0.578125 -3 C 0.75 -3.703125 0.953125 -4.1875 1.3125 -4.1875 C 1.46875 -4.1875 1.609375 -4.109375 1.609375 -3.734375 C 1.609375 -3.515625 1.578125 -3.40625 1.453125 -2.890625 Z M 0.875 -0.59375 "
           id="path2330" />
      </symbol>
      <symbol
         overflow="visible"
         id="symbol1123">
        <path
           style="stroke:none;"
           d=""
           id="path8248" />
      </symbol>
      <symbol
         overflow="visible"
         id="symbol5192">
        <path
           style="stroke:none;"
           d="M 3.734375 -4.203125 C 3.796875 -4.296875 3.796875 -4.3125 3.796875 -4.484375 L 1.96875 -4.484375 C 1.6875 -4.484375 1.609375 -4.5 1.359375 -4.515625 C 1 -4.546875 0.984375 -4.59375 0.96875 -4.703125 L 0.734375 -4.703125 L 0.484375 -3.21875 L 0.71875 -3.21875 C 0.734375 -3.328125 0.8125 -3.78125 0.921875 -3.859375 C 0.96875 -3.890625 1.546875 -3.890625 1.640625 -3.890625 L 3.15625 -3.890625 C 2.9375 -3.609375 2.578125 -3.171875 2.4375 -2.96875 C 1.53125 -1.78125 1.4375 -0.671875 1.4375 -0.265625 C 1.4375 -0.1875 1.4375 0.140625 1.765625 0.140625 C 2.109375 0.140625 2.109375 -0.171875 2.109375 -0.265625 L 2.109375 -0.546875 C 2.109375 -1.890625 2.390625 -2.515625 2.6875 -2.890625 Z M 3.734375 -4.203125 "
           id="path5002" />
      </symbol>
    </g>
  </defs>
  <g
     inkscape:label="Capa 1"
     inkscape:groupmode="layer"
     id="layer1"
     transform="translate(13.7182, -23.1521)">
    <rect
       style="fill:#8dafbd;fill-opacity:0.758025;stroke:#7e3b4f;stroke-width:0.6;stroke-miterlimit:4;stroke-dasharray:none;stroke-opacity:1"
       id="rect16402-1-78"
       width="74.253929"
       height="11.425845"
       x="-13.418213"
       y="23.452078" />
    <rect
       style="fill:#8dafbd;fill-opacity:0.758025;stroke:#7e3b4f;stroke-width:0.5;stroke-miterlimit:4;stroke-dasharray:none;stroke-opacity:1"
       id="rect16402"
       width="23.067513"
       height="11.425845"
       x="-13.418215"
       y="34.877922" />
    <rect
       style="fill:#8dafbd;fill-opacity:0.758025;stroke:#7e3b4f;stroke-width:0.5;stroke-miterlimit:4;stroke-dasharray:none;stroke-opacity:1"
       id="rect16402-1"
       width="23.067513"
       height="11.425845"
       x="9.6492977"
       y="34.877922" />
    <rect
       style="fill:#8dafbd;fill-opacity:0.758025;stroke:#7e3b4f;stroke-width:0.500001;stroke-miterlimit:4;stroke-dasharray:none;stroke-opacity:1"
       id="rect16402-1-3"
       width="28.118906"
       height="11.425845"
       x="32.716812"
       y="34.877922" />
    <rect
       style="fill:none;fill-opacity:0.758025;stroke:#7e3b4f;stroke-width:0.500001;stroke-miterlimit:4;stroke-dasharray:none;stroke-opacity:1"
       id="rect16402-1-3-7"
       width="28.118906"
       height="11.425845"
       x="32.716808"
       y="46.303768" />
    <rect
       style="fill:none;fill-opacity:0.758025;stroke:#7e3b4f;stroke-width:0.500001;stroke-miterlimit:4;stroke-dasharray:none;stroke-opacity:1"
       id="rect16402-1-3-7-2"
       width="28.118906"
       height="11.425845"
       x="32.716812"
       y="57.729614" />
    <rect
       style="fill:#8dafbd;fill-opacity:0.758025;stroke:#7e3b4f;stroke-width:0.59576;stroke-miterlimit:4;stroke-dasharray:none;stroke-opacity:1"
       id="rect16402-6-6"
       width="87.747688"
       height="11.330088"
       x="60.883595"
       y="23.499954" />
    <rect
       style="fill:#8dafbd;fill-opacity:0.758025;stroke:#7e3b4f;stroke-width:0.595758;stroke-miterlimit:4;stroke-dasharray:none;stroke-opacity:1"
       id="rect16402-6-6-2"
       width="33.025921"
       height="11.330088"
       x="60.835716"
       y="34.877922" />
    <rect
       style="fill:none;fill-opacity:0.758025;stroke:#7e3b4f;stroke-width:0.595758;stroke-miterlimit:4;stroke-dasharray:none;stroke-opacity:1"
       id="rect16402-6-6-2-6"
       width="33.025921"
       height="11.330088"
       x="60.835716"
       y="46.303768" />
    <rect
       style="fill:none;fill-opacity:0.758025;stroke:#7e3b4f;stroke-width:0.595758;stroke-miterlimit:4;stroke-dasharray:none;stroke-opacity:1"
       id="rect16402-6-6-2-6-7"
       width="33.025921"
       height="11.330088"
       x="60.835716"
       y="57.729614" />
    <rect
       style="fill:none;stroke:#7e3b4f;stroke-width:0.5;stroke-miterlimit:4;stroke-dasharray:none;stroke-opacity:1"
       id="rect16402-3"
       width="23.067513"
       height="11.425845"
       x="-13.418215"
       y="46.303768" />
    <rect
       style="fill:none;stroke:#7e3b4f;stroke-width:0.5;stroke-miterlimit:4;stroke-dasharray:none;stroke-opacity:1"
       id="rect16402-1-4"
       width="23.067513"
       height="11.425845"
       x="9.6492977"
       y="46.303768" />
    <rect
       style="fill:none;stroke:#7e3b4f;stroke-width:0.5;stroke-miterlimit:4;stroke-dasharray:none;stroke-opacity:1"
       id="rect16402-69"
       width="23.067513"
       height="11.425845"
       x="-13.418215"
       y="57.729614" />
    <rect
       style="fill:none;stroke:#7e3b4f;stroke-width:0.5;stroke-miterlimit:4;stroke-dasharray:none;stroke-opacity:1"
       id="rect16402-1-6"
       width="23.067513"
       height="11.425845"
       x="9.6492977"
       y="57.729614" />
    <rect
       style="fill:none;stroke:#7e3b4f;stroke-width:0.5;stroke-miterlimit:4;stroke-dasharray:none;stroke-opacity:1"
       id="rect16402-14"
       width="23.067513"
       height="11.425845"
       x="-13.418215"
       y="69.155457" />
    <rect
       style="fill:none;stroke:#7e3b4f;stroke-width:0.5;stroke-miterlimit:4;stroke-dasharray:none;stroke-opacity:1"
       id="rect16402-1-5"
       width="23.067513"
       height="11.425845"
       x="9.6492977"
       y="80.581299" />
    <rect
       style="fill:none;stroke:#7e3b4f;stroke-width:0.5;stroke-miterlimit:4;stroke-dasharray:none;stroke-opacity:1"
       id="rect16402-4"
       width="23.067513"
       height="11.425845"
       x="-13.418215"
       y="80.581306" />
    <rect
       style="fill:none;stroke:#7e3b4f;stroke-width:0.5;stroke-miterlimit:4;stroke-dasharray:none;stroke-opacity:1"
       id="rect16402-1-2-3"
       width="23.067513"
       height="11.425845"
       x="9.6492996"
       y="57.729614" />
    <text
       xml:space="preserve"
       style="font-size:8.81944px;line-height:1.25;font-family:fira;-inkscape-font-specification:fira;word-spacing:0px;fill:#7e3b4f;fill-opacity:1;stroke-width:0.264583"
       x="5.6750517"
       y="31.099157"
       id="text2385-0"><tspan
         sodipodi:role="line"
         id="tspan2383-3"
         style="font-style:normal;font-variant:normal;font-weight:normal;font-stretch:normal;font-size:8.81944px;font-family:'Fira Sans';-inkscape-font-specification:'Fira Sans';fill:#7e3b4f;fill-opacity:1;stroke-width:0.264583"
         x="5.6750517"
         y="31.099157">Entradas</tspan></text>
    <text
       xml:space="preserve"
       style="font-size:8.81944px;line-height:1.25;font-family:fira;-inkscape-font-specification:fira;word-spacing:0px;fill:#7e3b4f;fill-opacity:1;stroke-width:0.264583"
       x="-4.4112277"
       y="43.629143"
       id="text2385"><tspan
         sodipodi:role="line"
         id="tspan2383"
         style="font-style:normal;font-variant:normal;font-weight:normal;font-stretch:normal;font-size:8.81944px;font-family:'Fira Sans';-inkscape-font-specification:'Fira Sans';fill:#7e3b4f;fill-opacity:1;stroke-width:0.264583"
         x="-4.4112277"
         y="43.629143">A</tspan></text>
    <text
       xml:space="preserve"
       style="font-size:8.81944px;line-height:1.25;font-family:fira;-inkscape-font-specification:fira;word-spacing:0px;fill:#000000;fill-opacity:1;stroke-width:0.264583"
       x="-4.5321712"
       y="55.519241"
       id="text2385-1"><tspan
         sodipodi:role="line"
         id="tspan2383-53"
         style="font-style:normal;font-variant:normal;font-weight:normal;font-stretch:normal;font-size:8.81944px;font-family:'Fira Sans';-inkscape-font-specification:'Fira Sans';fill:#000000;fill-opacity:1;stroke-width:0.264583"
         x="-4.5321712"
         y="55.519241">0</tspan></text>
    <text
       xml:space="preserve"
       style="font-size:8.81944px;line-height:1.25;font-family:fira;-inkscape-font-specification:fira;word-spacing:0px;fill:#000000;fill-opacity:1;stroke-width:0.264583"
       x="18.399286"
       y="55.487934"
       id="text2385-1-7"><tspan
         sodipodi:role="line"
         id="tspan2383-53-7"
         style="font-style:normal;font-variant:normal;font-weight:normal;font-stretch:normal;font-size:8.81944px;font-family:'Fira Sans';-inkscape-font-specification:'Fira Sans';fill:#000000;fill-opacity:1;stroke-width:0.264583"
         x="18.399286"
         y="55.487934">0</tspan></text>
    <text
       xml:space="preserve"
       style="font-size:8.81944px;line-height:1.25;font-family:fira;-inkscape-font-specification:fira;word-spacing:0px;fill:#000000;fill-opacity:1;stroke-width:0.264583"
       x="43.689537"
       y="55.142101"
       id="text2385-1-7-5"><tspan
         sodipodi:role="line"
         id="tspan2383-53-7-5"
         style="font-style:normal;font-variant:normal;font-weight:normal;font-stretch:normal;font-size:8.81944px;font-family:'Fira Sans';-inkscape-font-specification:'Fira Sans';fill:#000000;fill-opacity:1;stroke-width:0.264583"
         x="43.689537"
         y="55.142101">0</tspan></text>
    <text
       xml:space="preserve"
       style="font-size:8.81944px;line-height:1.25;font-family:fira;-inkscape-font-specification:fira;word-spacing:0px;fill:#a92525;fill-opacity:1;stroke-width:0.264583"
       x="75.102432"
       y="77.838318"
       id="text2385-1-7-5-7"><tspan
         sodipodi:role="line"
         id="tspan2383-53-7-5-85"
         style="font-style:normal;font-variant:normal;font-weight:normal;font-stretch:normal;font-size:8.81944px;font-family:'Fira Sans';-inkscape-font-specification:'Fira Sans';fill:#a92525;fill-opacity:1;stroke-width:0.264583"
         x="75.102432"
         y="77.838318">0</tspan></text>
    <text
       xml:space="preserve"
       style="font-size:8.81944px;line-height:1.25;font-family:fira;-inkscape-font-specification:fira;word-spacing:0px;fill:#a92525;fill-opacity:1;stroke-width:0.264583"
       x="75.102432"
       y="89.290993"
       id="text2385-1-7-5-5"><tspan
         sodipodi:role="line"
         id="tspan2383-53-7-5-98"
         style="font-style:normal;font-variant:normal;font-weight:normal;font-stretch:normal;font-size:8.81944px;font-family:'Fira Sans';-inkscape-font-specification:'Fira Sans';fill:#a92525;fill-opacity:1;stroke-width:0.264583"
         x="75.102432"
         y="89.290993">0</tspan></text>
    <text
       xml:space="preserve"
       style="font-size:8.81944px;line-height:1.25;font-family:fira;-inkscape-font-specification:fira;word-spacing:0px;fill:#a92525;fill-opacity:1;stroke-width:0.264583"
       x="75.102432"
       y="100.74367"
       id="text2385-1-7-5-2"><tspan
         sodipodi:role="line"
         id="tspan2383-53-7-5-84"
         style="font-style:normal;font-variant:normal;font-weight:normal;font-stretch:normal;font-size:8.81944px;font-family:'Fira Sans';-inkscape-font-specification:'Fira Sans';fill:#a92525;fill-opacity:1;stroke-width:0.264583"
         x="75.102432"
         y="100.74367">0</tspan></text>
    <text
       xml:space="preserve"
       style="font-size:8.81944px;line-height:1.25;font-family:fira;-inkscape-font-specification:fira;word-spacing:0px;fill:#a92525;fill-opacity:1;stroke-width:0.264583"
       x="75.102432"
       y="112.19635"
       id="text2385-1-7-5-00"><tspan
         sodipodi:role="line"
         id="tspan2383-53-7-5-0"
         style="font-style:normal;font-variant:normal;font-weight:normal;font-stretch:normal;font-size:8.81944px;font-family:'Fira Sans';-inkscape-font-specification:'Fira Sans';fill:#a92525;fill-opacity:1;stroke-width:0.264583"
         x="75.102432"
         y="112.19635">0</tspan></text>
    <text
       xml:space="preserve"
       style="font-size:8.81944px;line-height:1.25;font-family:fira;-inkscape-font-specification:fira;word-spacing:0px;fill:#a92525;fill-opacity:1;stroke-width:0.264583"
       x="75.102432"
       y="123.64903"
       id="text2385-1-7-5-27"><tspan
         sodipodi:role="line"
         id="tspan2383-53-7-5-09"
         style="font-style:normal;font-variant:normal;font-weight:normal;font-stretch:normal;font-size:8.81944px;font-family:'Fira Sans';-inkscape-font-specification:'Fira Sans';fill:#a92525;fill-opacity:1;stroke-width:0.264583"
         x="75.102432"
         y="123.64903">0</tspan></text>
    <text
       xml:space="preserve"
       style="font-size:8.81944px;line-height:1.25;font-family:fira;-inkscape-font-specification:fira;word-spacing:0px;fill:#a92525;fill-opacity:1;stroke-width:0.264583"
       x="75.102432"
       y="135.10172"
       id="text2385-1-7-5-8"><tspan
         sodipodi:role="line"
         id="tspan2383-53-7-5-4"
         style="font-style:normal;font-variant:normal;font-weight:normal;font-stretch:normal;font-size:8.81944px;font-family:'Fira Sans';-inkscape-font-specification:'Fira Sans';fill:#a92525;fill-opacity:1;stroke-width:0.264583"
         x="75.102432"
         y="135.10172">0</tspan></text>
    <text
       xml:space="preserve"
       style="font-size:8.81944px;line-height:1.25;font-family:fira;-inkscape-font-specification:fira;word-spacing:0px;fill:#000000;fill-opacity:1;stroke-width:0.264583"
       x="18.399286"
       y="66.994171"
       id="text2385-1-7-5-3"><tspan
         sodipodi:role="line"
         id="tspan2383-53-7-5-5"
         style="font-style:normal;font-variant:normal;font-weight:normal;font-stretch:normal;font-size:8.81944px;font-family:'Fira Sans';-inkscape-font-specification:'Fira Sans';fill:#000000;fill-opacity:1;stroke-width:0.264583"
         x="18.399286"
         y="66.994171">0</tspan></text>
    <text
       xml:space="preserve"
       style="font-size:8.81944px;line-height:1.25;font-family:fira;-inkscape-font-specification:fira;word-spacing:0px;fill:#000000;fill-opacity:1;stroke-width:0.264583"
       x="-4.5321712"
       y="66.957947"
       id="text2385-1-7-5-0"><tspan
         sodipodi:role="line"
         id="tspan2383-53-7-5-8"
         style="font-style:normal;font-variant:normal;font-weight:normal;font-stretch:normal;font-size:8.81944px;font-family:'Fira Sans';-inkscape-font-specification:'Fira Sans';fill:#000000;fill-opacity:1;stroke-width:0.264583"
         x="-4.5321712"
         y="66.957947">0</tspan></text>
    <text
       xml:space="preserve"
       style="font-size:8.81944px;line-height:1.25;font-family:fira;-inkscape-font-specification:fira;word-spacing:0px;fill:#000000;fill-opacity:1;stroke-width:0.264583"
       x="43.689537"
       y="78.039566"
       id="text2385-1-7-7"><tspan
         sodipodi:role="line"
         id="tspan2383-53-7-8"
         style="font-style:normal;font-variant:normal;font-weight:normal;font-stretch:normal;font-size:8.81944px;font-family:'Fira Sans';-inkscape-font-specification:'Fira Sans';fill:#000000;fill-opacity:1;stroke-width:0.264583"
         x="43.689537"
         y="78.039566">0</tspan></text>
    <text
       xml:space="preserve"
       style="font-size:8.81944px;line-height:1.25;font-family:fira;-inkscape-font-specification:fira;word-spacing:0px;fill:#000000;fill-opacity:1;stroke-width:0.264583"
       x="-4.5321712"
       y="78.39666"
       id="text2385-1-5"><tspan
         sodipodi:role="line"
         id="tspan2383-53-6"
         style="font-style:normal;font-variant:normal;font-weight:normal;font-stretch:normal;font-size:8.81944px;font-family:'Fira Sans';-inkscape-font-specification:'Fira Sans';fill:#000000;fill-opacity:1;stroke-width:0.264583"
         x="-4.5321712"
         y="78.39666">0</tspan></text>
    <text
       xml:space="preserve"
       style="font-size:8.81944px;line-height:1.25;font-family:fira;-inkscape-font-specification:fira;word-spacing:0px;fill:#000000;fill-opacity:1;stroke-width:0.264583"
       x="-4.5321712"
       y="89.835381"
       id="text2385-1-5-8-8"><tspan
         sodipodi:role="line"
         id="tspan2383-53-6-5-0"
         style="font-style:normal;font-variant:normal;font-weight:normal;font-stretch:normal;font-size:8.81944px;font-family:'Fira Sans';-inkscape-font-specification:'Fira Sans';fill:#000000;fill-opacity:1;stroke-width:0.264583"
         x="-4.5321712"
         y="89.835381">0</tspan></text>
    <text
       xml:space="preserve"
       style="font-size:8.81944px;line-height:1.25;font-family:fira;-inkscape-font-specification:fira;word-spacing:0px;fill:#000000;fill-opacity:1;stroke-width:0.264583"
       x="19.281231"
       y="78.509224"
       id="text2385-1-54-9"><tspan
         sodipodi:role="line"
         id="tspan2383-53-89-7"
         style="font-style:normal;font-variant:normal;font-weight:normal;font-stretch:normal;font-size:8.81944px;font-family:'Fira Sans';-inkscape-font-specification:'Fira Sans';fill:#000000;fill-opacity:1;stroke-width:0.264583"
         x="19.281231"
         y="78.509224">1</tspan></text>
    <text
       xml:space="preserve"
       style="font-size:8.81944px;line-height:1.25;font-family:fira;-inkscape-font-specification:fira;word-spacing:0px;fill:#000000;fill-opacity:1;stroke-width:0.264583"
       x="19.281231"
       y="90.015457"
       id="text2385-1-54-9-4"><tspan
         sodipodi:role="line"
         id="tspan2383-53-89-7-37"
         style="font-style:normal;font-variant:normal;font-weight:normal;font-stretch:normal;font-size:8.81944px;font-family:'Fira Sans';-inkscape-font-specification:'Fira Sans';fill:#000000;fill-opacity:1;stroke-width:0.264583"
         x="19.281231"
         y="90.015457">1</tspan></text>
    <text
       xml:space="preserve"
       style="font-size:8.81944px;line-height:1.25;font-family:fira;-inkscape-font-specification:fira;word-spacing:0px;fill:#000000;fill-opacity:1;stroke-width:0.264583"
       x="44.57148"
       y="89.497116"
       id="text2385-1-54-9-8"><tspan
         sodipodi:role="line"
         id="tspan2383-53-89-7-26"
         style="font-style:normal;font-variant:normal;font-weight:normal;font-stretch:normal;font-size:8.81944px;font-family:'Fira Sans';-inkscape-font-specification:'Fira Sans';fill:#000000;fill-opacity:1;stroke-width:0.264583"
         x="44.57148"
         y="89.497116">1</tspan></text>
    <text
       xml:space="preserve"
       style="font-size:8.81944px;line-height:1.25;font-family:fira;-inkscape-font-specification:fira;word-spacing:0px;fill:#000000;fill-opacity:1;stroke-width:0.264583"
       x="44.57148"
       y="66.599655"
       id="text2385-1-54-9-8-0"><tspan
         sodipodi:role="line"
         id="tspan2383-53-89-7-26-6"
         style="font-style:normal;font-variant:normal;font-weight:normal;font-stretch:normal;font-size:8.81944px;font-family:'Fira Sans';-inkscape-font-specification:'Fira Sans';fill:#000000;fill-opacity:1;stroke-width:0.264583"
         x="44.57148"
         y="66.599655">1</tspan></text>
    <text
       xml:space="preserve"
       style="font-size:8.81944px;line-height:1.25;font-family:fira;-inkscape-font-specification:fira;word-spacing:0px;fill:#a92525;fill-opacity:1;stroke-width:0.264583"
       x="75.984375"
       y="54.941784"
       id="text2385-1-54-9-8-0-9"><tspan
         sodipodi:role="line"
         id="tspan2383-53-89-7-26-6-1"
         style="font-style:normal;font-variant:normal;font-weight:normal;font-stretch:normal;font-size:8.81944px;font-family:'Fira Sans';-inkscape-font-specification:'Fira Sans';fill:#a92525;fill-opacity:1;stroke-width:0.264583"
         x="75.984375"
         y="54.941784">1</tspan></text>
    <text
       xml:space="preserve"
       style="font-size:8.81944px;line-height:1.25;font-family:fira;-inkscape-font-specification:fira;word-spacing:0px;fill:#a92525;fill-opacity:1;stroke-width:0.264583"
       x="75.984375"
       y="66.394455"
       id="text2385-1-54-9-8-0-1"><tspan
         sodipodi:role="line"
         id="tspan2383-53-89-7-26-6-5"
         style="font-style:normal;font-variant:normal;font-weight:normal;font-stretch:normal;font-size:8.81944px;font-family:'Fira Sans';-inkscape-font-specification:'Fira Sans';fill:#a92525;fill-opacity:1;stroke-width:0.264583"
         x="75.984375"
         y="66.394455">1</tspan></text>
    <text
       xml:space="preserve"
       style="font-size:8.81944px;line-height:1.25;font-family:fira;-inkscape-font-specification:fira;word-spacing:0px;fill:#000000;fill-opacity:1;stroke-width:0.264583"
       x="-3.6502275"
       y="101.28291"
       id="text2385-1-54-9-7"><tspan
         sodipodi:role="line"
         id="tspan2383-53-89-7-6"
         style="font-style:normal;font-variant:normal;font-weight:normal;font-stretch:normal;font-size:8.81944px;font-family:'Fira Sans';-inkscape-font-specification:'Fira Sans';fill:#000000;fill-opacity:1;stroke-width:0.264583"
         x="-3.6502275"
         y="101.28291">1</tspan></text>
    <text
       xml:space="preserve"
       style="font-size:8.81944px;line-height:1.25;font-family:fira;-inkscape-font-specification:fira;word-spacing:0px;fill:#000000;fill-opacity:1;stroke-width:0.264583"
       x="-3.6502275"
       y="112.72161"
       id="text2385-1-54-9-3"><tspan
         sodipodi:role="line"
         id="tspan2383-53-89-7-2"
         style="font-style:normal;font-variant:normal;font-weight:normal;font-stretch:normal;font-size:8.81944px;font-family:'Fira Sans';-inkscape-font-specification:'Fira Sans';fill:#000000;fill-opacity:1;stroke-width:0.264583"
         x="-3.6502275"
         y="112.72161">1</tspan></text>
    <text
       xml:space="preserve"
       style="font-size:8.81944px;line-height:1.25;font-family:fira;-inkscape-font-specification:fira;word-spacing:0px;fill:#000000;fill-opacity:1;stroke-width:0.264583"
       x="-3.6502275"
       y="124.16035"
       id="text2385-1-54-9-3-6"><tspan
         sodipodi:role="line"
         id="tspan2383-53-89-7-2-8"
         style="font-style:normal;font-variant:normal;font-weight:normal;font-stretch:normal;font-size:8.81944px;font-family:'Fira Sans';-inkscape-font-specification:'Fira Sans';fill:#000000;fill-opacity:1;stroke-width:0.264583"
         x="-3.6502275"
         y="124.16035">1</tspan></text>
    <text
       xml:space="preserve"
       style="font-size:8.81944px;line-height:1.25;font-family:fira;-inkscape-font-specification:fira;word-spacing:0px;fill:#000000;fill-opacity:1;stroke-width:0.264583"
       x="-3.6502275"
       y="135.59904"
       id="text2385-1-54-9-3-4"><tspan
         sodipodi:role="line"
         id="tspan2383-53-89-7-2-6"
         style="font-style:normal;font-variant:normal;font-weight:normal;font-stretch:normal;font-size:8.81944px;font-family:'Fira Sans';-inkscape-font-specification:'Fira Sans';fill:#000000;fill-opacity:1;stroke-width:0.264583"
         x="-3.6502275"
         y="135.59904">1</tspan></text>
    <text
       xml:space="preserve"
       style="font-size:8.81944px;line-height:1.25;font-family:fira;-inkscape-font-specification:fira;word-spacing:0px;fill:#7e3b4f;fill-opacity:1;stroke-width:0.264583"
       x="17.936266"
       y="43.629143"
       id="text2385-6"><tspan
         sodipodi:role="line"
         id="tspan2383-5"
         style="font-style:normal;font-variant:normal;font-weight:normal;font-stretch:normal;font-size:8.81944px;font-family:'Fira Sans';-inkscape-font-specification:'Fira Sans';fill:#7e3b4f;fill-opacity:1;stroke-width:0.264583"
         x="17.936266"
         y="43.629143">B</tspan></text>
    <text
       xml:space="preserve"
       style="font-size:8.81944px;line-height:1.25;font-family:fira;-inkscape-font-specification:fira;word-spacing:0px;fill:#7e3b4f;fill-opacity:1;stroke-width:0.264583"
       x="95.815376"
       y="32.359253"
       id="text2385-0-3"><tspan
         sodipodi:role="line"
         id="tspan2383-3-7"
         style="font-style:normal;font-variant:normal;font-weight:normal;font-stretch:normal;font-size:8.81944px;font-family:'Fira Sans';-inkscape-font-specification:'Fira Sans';fill:#7e3b4f;fill-opacity:1;stroke-width:0.264583"
         x="95.815376"
         y="32.359253">Salida</tspan></text>
    <rect
       style="fill:none;fill-opacity:0.758025;stroke:#7e3b4f;stroke-width:0.595758;stroke-miterlimit:4;stroke-dasharray:none;stroke-opacity:1"
       id="rect16402-6-6-2-6-72"
       width="33.025921"
       height="11.330088"
       x="60.835716"
       y="69.155457" />
    <rect
       style="fill:none;fill-opacity:0.758025;stroke:#7e3b4f;stroke-width:0.595758;stroke-miterlimit:4;stroke-dasharray:none;stroke-opacity:1"
       id="rect16402-6-6-2-6-8"
       width="33.025921"
       height="11.330088"
       x="60.835716"
       y="80.581306" />
    <rect
       style="fill:#8dafbd;fill-opacity:0.758025;stroke:#7e3b4f;stroke-width:0.595759;stroke-miterlimit:4;stroke-dasharray:none;stroke-opacity:1"
       id="rect16402-6-6-2-0"
       width="54.721756"
       height="11.330088"
       x="93.909523"
       y="34.83004" />
    <rect
       style="fill:none;fill-opacity:0.758025;stroke:#7e3b4f;stroke-width:0.595758;stroke-miterlimit:4;stroke-dasharray:none;stroke-opacity:1"
       id="rect16402-6-6-2-6-71"
       width="54.721764"
       height="11.330088"
       x="93.909523"
       y="46.160126" />
    <rect
       style="fill:none;fill-opacity:0.758025;stroke:#7e3b4f;stroke-width:0.595758;stroke-miterlimit:4;stroke-dasharray:none;stroke-opacity:1"
       id="rect16402-6-6-2-6-71-8"
       width="54.721764"
       height="11.330088"
       x="93.861633"
       y="57.729614" />
    <rect
       style="fill:none;fill-opacity:0.758025;stroke:#7e3b4f;stroke-width:0.595758;stroke-miterlimit:4;stroke-dasharray:none;stroke-opacity:1"
       id="rect16402-6-6-2-6-71-5"
       width="54.721764"
       height="11.330088"
       x="93.861633"
       y="69.155457" />
    <rect
       style="fill:none;fill-opacity:0.758025;stroke:#7e3b4f;stroke-width:0.595758;stroke-miterlimit:4;stroke-dasharray:none;stroke-opacity:1"
       id="rect16402-6-6-2-6-71-7"
       width="54.721764"
       height="11.330088"
       x="93.861633"
       y="80.581306" />
    <rect
       style="fill:none;fill-opacity:0.758025;stroke:#7e3b4f;stroke-width:0.595758;stroke-miterlimit:4;stroke-dasharray:none;stroke-opacity:1"
       id="rect16402-6-6-2-6-71-2"
       width="54.721764"
       height="11.330088"
       x="93.813751"
       y="91.959274" />
    <rect
       style="fill:none;fill-opacity:0.758025;stroke:#7e3b4f;stroke-width:0.595758;stroke-miterlimit:4;stroke-dasharray:none;stroke-opacity:1"
       id="rect16402-6-6-2-6-71-50"
       width="54.722"
       height="11.330088"
       x="93.813751"
       y="103.28936" />
    <rect
       style="fill:none;fill-opacity:0.758025;stroke:#7e3b4f;stroke-width:0.595758;stroke-miterlimit:4;stroke-dasharray:none;stroke-opacity:1"
       id="rect16402-6-6-2-6-9"
       width="33.025921"
       height="11.330088"
       x="60.787827"
       y="91.959274" />
    <rect
       style="fill:none;fill-opacity:0.758025;stroke:#7e3b4f;stroke-width:0.595758;stroke-miterlimit:4;stroke-dasharray:none;stroke-opacity:1"
       id="rect16402-6-6-2-6-7-3"
       width="33.025921"
       height="11.330088"
       x="60.787827"
       y="103.38512" />
    <rect
       style="fill:none;fill-opacity:0.758025;stroke:#7e3b4f;stroke-width:0.595758;stroke-miterlimit:4;stroke-dasharray:none;stroke-opacity:1"
       id="rect16402-6-6-2-6-72-9"
       width="33.025921"
       height="11.330088"
       x="60.787827"
       y="114.81096" />
    <rect
       style="fill:none;fill-opacity:0.758025;stroke:#7e3b4f;stroke-width:0.595758;stroke-miterlimit:4;stroke-dasharray:none;stroke-opacity:1"
       id="rect16402-6-6-2-6-8-2"
       width="33.025921"
       height="11.330088"
       x="60.787827"
       y="126.23681" />
    <text
       xml:space="preserve"
       style="font-size:8.81944px;line-height:1.25;font-family:fira;-inkscape-font-specification:fira;word-spacing:0px;fill:#7e3b4f;fill-opacity:1;stroke-width:0.264583"
       x="75.923897"
       y="43.536701"
       id="text2385-3-6"><tspan
         sodipodi:role="line"
         id="tspan2383-56-1"
         style="font-style:normal;font-variant:normal;font-weight:normal;font-stretch:normal;font-size:8.81944px;font-family:'Fira Sans';-inkscape-font-specification:'Fira Sans';fill:#7e3b4f;fill-opacity:1;stroke-width:0.264583"
         x="75.923897"
         y="43.536701">Y</tspan></text>
    <text
       xml:space="preserve"
       style="font-size:8.81944px;line-height:1.25;font-family:fira;-inkscape-font-specification:fira;word-spacing:0px;fill:#7e3b4f;fill-opacity:1;stroke-width:0.264583"
       x="98.156441"
       y="43.91748"
       id="text2385-3-6-9"><tspan
         sodipodi:role="line"
         id="tspan2383-56-1-0"
         style="font-style:normal;font-variant:normal;font-weight:normal;font-stretch:normal;font-size:8.81944px;font-family:'Fira Sans';-inkscape-font-specification:'Fira Sans';fill:#7e3b4f;fill-opacity:1;stroke-width:0.264583"
         x="98.156441"
         y="43.91748">Minitrmino</tspan></text>
    <rect
       style="fill:none;fill-opacity:0.758025;stroke:#7e3b4f;stroke-width:0.500001;stroke-miterlimit:4;stroke-dasharray:none;stroke-opacity:1"
       id="rect16402-1-3-7-1"
       width="28.118906"
       height="11.425845"
       x="32.716812"
       y="69.155457" />
    <rect
       style="fill:none;fill-opacity:0.758025;stroke:#7e3b4f;stroke-width:0.500001;stroke-miterlimit:4;stroke-dasharray:none;stroke-opacity:1"
       id="rect16402-1-3-7-5"
       width="28.118906"
       height="11.425845"
       x="32.716812"
       y="80.581306" />
    <rect
       style="fill:none;fill-opacity:0.758025;stroke:#7e3b4f;stroke-width:0.500001;stroke-miterlimit:4;stroke-dasharray:none;stroke-opacity:1"
       id="rect16402-1-3-7-9"
       width="28.118906"
       height="11.425845"
       x="32.716808"
       y="92.007149" />
    <rect
       style="fill:none;fill-opacity:0.758025;stroke:#7e3b4f;stroke-width:0.500001;stroke-miterlimit:4;stroke-dasharray:none;stroke-opacity:1"
       id="rect16402-1-3-7-2-0"
       width="28.118906"
       height="11.425845"
       x="32.716812"
       y="103.43299" />
    <rect
       style="fill:none;stroke:#7e3b4f;stroke-width:0.5;stroke-miterlimit:4;stroke-dasharray:none;stroke-opacity:1"
       id="rect16402-1-4-7"
       width="23.067513"
       height="11.425845"
       x="9.6492977"
       y="92.007149" />
    <rect
       style="fill:none;stroke:#7e3b4f;stroke-width:0.5;stroke-miterlimit:4;stroke-dasharray:none;stroke-opacity:1"
       id="rect16402-4-9"
       width="23.067513"
       height="11.425845"
       x="-13.418215"
       y="92.007149" />
    <rect
       style="fill:none;stroke:#7e3b4f;stroke-width:0.5;stroke-miterlimit:4;stroke-dasharray:none;stroke-opacity:1"
       id="rect16402-4-4"
       width="23.067513"
       height="11.425845"
       x="9.6492996"
       y="114.85883" />
    <rect
       style="fill:none;stroke:#7e3b4f;stroke-width:0.5;stroke-miterlimit:4;stroke-dasharray:none;stroke-opacity:1"
       id="rect16402-1-6-7"
       width="23.067513"
       height="11.425845"
       x="9.6492977"
       y="103.43299" />
    <rect
       style="fill:none;stroke:#7e3b4f;stroke-width:0.5;stroke-miterlimit:4;stroke-dasharray:none;stroke-opacity:1"
       id="rect16402-1-5-4"
       width="23.067513"
       height="11.425845"
       x="9.6492977"
       y="126.28468" />
    <rect
       style="fill:none;stroke:#7e3b4f;stroke-width:0.5;stroke-miterlimit:4;stroke-dasharray:none;stroke-opacity:1"
       id="rect16402-1-2-3-0"
       width="23.067513"
       height="11.425845"
       x="9.6492996"
       y="103.43299" />
    <text
       xml:space="preserve"
       style="font-size:8.81944px;line-height:1.25;font-family:fira;-inkscape-font-specification:fira;word-spacing:0px;fill:#000000;fill-opacity:1;stroke-width:0.264583"
       x="18.399286"
       y="101.51287"
       id="text2385-1-7-1"><tspan
         sodipodi:role="line"
         id="tspan2383-53-7-57"
         style="font-style:normal;font-variant:normal;font-weight:normal;font-stretch:normal;font-size:8.81944px;font-family:'Fira Sans';-inkscape-font-specification:'Fira Sans';fill:#000000;fill-opacity:1;stroke-width:0.264583"
         x="18.399286"
         y="101.51287">0</tspan></text>
    <text
       xml:space="preserve"
       style="font-size:8.81944px;line-height:1.25;font-family:fira;-inkscape-font-specification:fira;word-spacing:0px;fill:#000000;fill-opacity:1;stroke-width:0.264583"
       x="43.689537"
       y="100.93702"
       id="text2385-1-7-5-4"><tspan
         sodipodi:role="line"
         id="tspan2383-53-7-5-9"
         style="font-style:normal;font-variant:normal;font-weight:normal;font-stretch:normal;font-size:8.81944px;font-family:'Fira Sans';-inkscape-font-specification:'Fira Sans';fill:#000000;fill-opacity:1;stroke-width:0.264583"
         x="43.689537"
         y="100.93702">0</tspan></text>
    <text
       xml:space="preserve"
       style="font-size:8.81944px;line-height:1.25;font-family:fira;-inkscape-font-specification:fira;word-spacing:0px;fill:#000000;fill-opacity:1;stroke-width:0.264583"
       x="18.399286"
       y="113.01913"
       id="text2385-1-7-5-3-0"><tspan
         sodipodi:role="line"
         id="tspan2383-53-7-5-5-3"
         style="font-style:normal;font-variant:normal;font-weight:normal;font-stretch:normal;font-size:8.81944px;font-family:'Fira Sans';-inkscape-font-specification:'Fira Sans';fill:#000000;fill-opacity:1;stroke-width:0.264583"
         x="18.399286"
         y="113.01913">0</tspan></text>
    <text
       xml:space="preserve"
       style="font-size:8.81944px;line-height:1.25;font-family:fira;-inkscape-font-specification:fira;word-spacing:0px;fill:#000000;fill-opacity:1;stroke-width:0.264583"
       x="43.689537"
       y="123.83449"
       id="text2385-1-7-7-9"><tspan
         sodipodi:role="line"
         id="tspan2383-53-7-8-5"
         style="font-style:normal;font-variant:normal;font-weight:normal;font-stretch:normal;font-size:8.81944px;font-family:'Fira Sans';-inkscape-font-specification:'Fira Sans';fill:#000000;fill-opacity:1;stroke-width:0.264583"
         x="43.689537"
         y="123.83449">0</tspan></text>
    <text
       xml:space="preserve"
       style="font-size:8.81944px;line-height:1.25;font-family:fira;-inkscape-font-specification:fira;word-spacing:0px;fill:#000000;fill-opacity:1;stroke-width:0.264583"
       x="19.281231"
       y="124.53416"
       id="text2385-1-54-9-86"><tspan
         sodipodi:role="line"
         id="tspan2383-53-89-7-46"
         style="font-style:normal;font-variant:normal;font-weight:normal;font-stretch:normal;font-size:8.81944px;font-family:'Fira Sans';-inkscape-font-specification:'Fira Sans';fill:#000000;fill-opacity:1;stroke-width:0.264583"
         x="19.281231"
         y="124.53416">1</tspan></text>
    <text
       xml:space="preserve"
       style="font-size:8.81944px;line-height:1.25;font-family:fira;-inkscape-font-specification:fira;word-spacing:0px;fill:#000000;fill-opacity:1;stroke-width:0.264583"
       x="19.281231"
       y="136.04041"
       id="text2385-1-54-9-4-4"><tspan
         sodipodi:role="line"
         id="tspan2383-53-89-7-37-5"
         style="font-style:normal;font-variant:normal;font-weight:normal;font-stretch:normal;font-size:8.81944px;font-family:'Fira Sans';-inkscape-font-specification:'Fira Sans';fill:#000000;fill-opacity:1;stroke-width:0.264583"
         x="19.281231"
         y="136.04041">1</tspan></text>
    <text
       xml:space="preserve"
       style="font-size:8.81944px;line-height:1.25;font-family:fira;-inkscape-font-specification:fira;word-spacing:0px;fill:#000000;fill-opacity:1;stroke-width:0.264583"
       x="44.57148"
       y="135.29204"
       id="text2385-1-54-9-8-3"><tspan
         sodipodi:role="line"
         id="tspan2383-53-89-7-26-65"
         style="font-style:normal;font-variant:normal;font-weight:normal;font-stretch:normal;font-size:8.81944px;font-family:'Fira Sans';-inkscape-font-specification:'Fira Sans';fill:#000000;fill-opacity:1;stroke-width:0.264583"
         x="44.57148"
         y="135.29204">1</tspan></text>
    <text
       xml:space="preserve"
       style="font-size:8.81944px;line-height:1.25;font-family:fira;-inkscape-font-specification:fira;word-spacing:0px;fill:#000000;fill-opacity:1;stroke-width:0.264583"
       x="44.57148"
       y="112.39457"
       id="text2385-1-54-9-8-0-3"><tspan
         sodipodi:role="line"
         id="tspan2383-53-89-7-26-6-9"
         style="font-style:normal;font-variant:normal;font-weight:normal;font-stretch:normal;font-size:8.81944px;font-family:'Fira Sans';-inkscape-font-specification:'Fira Sans';fill:#000000;fill-opacity:1;stroke-width:0.264583"
         x="44.57148"
         y="112.39457">1</tspan></text>
    <rect
       style="fill:none;fill-opacity:0.758025;stroke:#7e3b4f;stroke-width:0.500001;stroke-miterlimit:4;stroke-dasharray:none;stroke-opacity:1"
       id="rect16402-1-3-7-1-9"
       width="28.118906"
       height="11.425845"
       x="32.716812"
       y="114.85883" />
    <rect
       style="fill:none;fill-opacity:0.758025;stroke:#7e3b4f;stroke-width:0.500001;stroke-miterlimit:4;stroke-dasharray:none;stroke-opacity:1"
       id="rect16402-1-3-7-5-5"
       width="28.118906"
       height="11.425845"
       x="32.716812"
       y="126.28468" />
    <rect
       style="fill:none;stroke:#7e3b4f;stroke-width:0.5;stroke-miterlimit:4;stroke-dasharray:none;stroke-opacity:1"
       id="rect16402-4-8"
       width="23.067513"
       height="11.425845"
       x="-13.418215"
       y="103.43299" />
    <rect
       style="fill:none;stroke:#7e3b4f;stroke-width:0.5;stroke-miterlimit:4;stroke-dasharray:none;stroke-opacity:1"
       id="rect16402-4-44"
       width="23.067513"
       height="11.425845"
       x="-13.418215"
       y="114.85883" />
    <rect
       style="fill:none;stroke:#7e3b4f;stroke-width:0.5;stroke-miterlimit:4;stroke-dasharray:none;stroke-opacity:1"
       id="rect16402-4-446"
       width="23.067513"
       height="11.425845"
       x="-13.418215"
       y="126.28468" />
    <g
       inkscape:label=""
       transform="translate(-2.2507591,-28.859045)"
       id="g10438"
       style="fill:#804c5f;fill-opacity:0.992157" />
    <text
       xml:space="preserve"
       style="font-size:8.81944px;line-height:1.25;font-family:fira;-inkscape-font-specification:fira;word-spacing:0px;fill:#7e3b4f;fill-opacity:1;stroke-width:0.264583"
       x="42.889404"
       y="43.629143"
       id="text2385-6-4"><tspan
         sodipodi:role="line"
         id="tspan2383-5-2"
         style="font-style:normal;font-variant:normal;font-weight:normal;font-stretch:normal;font-size:8.81944px;font-family:'Fira Sans';-inkscape-font-specification:'Fira Sans';fill:#7e3b4f;fill-opacity:1;stroke-width:0.264583"
         x="42.889404"
         y="43.629143">C</tspan></text>
    <rect
       style="fill:none;fill-opacity:0.758025;stroke:#7e3b4f;stroke-width:0.595758;stroke-miterlimit:4;stroke-dasharray:none;stroke-opacity:1"
       id="rect16402-6-6-2-6-71-4"
       width="54.721764"
       height="11.330088"
       x="93.813751"
       y="114.61945" />
    <rect
       style="fill:none;fill-opacity:0.758025;stroke:#7e3b4f;stroke-width:0.595758;stroke-miterlimit:4;stroke-dasharray:none;stroke-opacity:1"
       id="rect16402-6-6-2-6-71-55"
       width="54.721764"
       height="11.330088"
       x="93.813751"
       y="126.23681" />
    <g
       inkscape:label=""
       transform="translate(20.545383,-28.7062)"
       id="g41272">
      <g
         id="g788">
        <g
           style="fill:#000000;fill-opacity:1"
           id="g3833">
          <use
             xlink:href="#symbol5127"
             x="91.925003"
             y="81.962997"
             id="use9946"
             width="100%"
             height="100%" />
        </g>
        <g
           style="fill:#000000;fill-opacity:1"
           id="g8891">
          <use
             xlink:href="#symbol125"
             x="100.673"
             y="83.457001"
             id="use1271"
             width="100%"
             height="100%" />
        </g>
      </g>
    </g>
    <g
       inkscape:label=""
       transform="translate(20.69382,-17.032018)"
       id="g41781">
      <g
         id="g9748">
        <g
           style="fill:#000000;fill-opacity:1"
           id="g2789">
          <use
             xlink:href="#symbol8757"
             x="91.925003"
             y="81.962997"
             id="use5037"
             width="100%"
             height="100%" />
        </g>
        <g
           style="fill:#000000;fill-opacity:1"
           id="g4183">
          <use
             xlink:href="#symbol4021"
             x="100.673"
             y="83.457001"
             id="use793"
             width="100%"
             height="100%" />
        </g>
      </g>
    </g>
    <g
       inkscape:label=""
       transform="translate(20.584445,-5.4281474)"
       id="g42192">
      <g
         id="g3847">
        <g
           style="fill:#000000;fill-opacity:1"
           id="g6117">
          <use
             xlink:href="#symbol8656"
             x="91.925003"
             y="81.962997"
             id="use180"
             width="100%"
             height="100%" />
        </g>
        <g
           style="fill:#000000;fill-opacity:1"
           id="g9364">
          <use
             xlink:href="#symbol5285"
             x="100.673"
             y="83.457001"
             id="use1193"
             width="100%"
             height="100%" />
        </g>
      </g>
    </g>
    <g
       inkscape:label=""
       transform="translate(20.553195,6.1054066)"
       id="g42633">
      <g
         id="g8042">
        <g
           style="fill:#000000;fill-opacity:1"
           id="g9932">
          <use
             xlink:href="#symbol272"
             x="91.925003"
             y="81.962997"
             id="use4680"
             width="100%"
             height="100%" />
        </g>
        <g
           style="fill:#000000;fill-opacity:1"
           id="g2710">
          <use
             xlink:href="#symbol9268"
             x="100.673"
             y="83.457001"
             id="use8713"
             width="100%"
             height="100%" />
        </g>
      </g>
    </g>
    <g
       inkscape:label=""
       transform="translate(20.498508,17.779593)"
       id="g43104">
      <g
         id="g4524">
        <g
           style="fill:#000000;fill-opacity:1"
           id="g7730">
          <use
             xlink:href="#symbol4727"
             x="91.925003"
             y="81.962997"
             id="use7229"
             width="100%"
             height="100%" />
        </g>
        <g
           style="fill:#000000;fill-opacity:1"
           id="g4490">
          <use
             xlink:href="#symbol4079"
             x="100.673"
             y="83.457001"
             id="use1478"
             width="100%"
             height="100%" />
        </g>
      </g>
    </g>
    <g
       inkscape:label=""
       transform="translate(20.584445,29.313146)"
       id="g43605">
      <g
         id="g2680">
        <g
           style="fill:#000000;fill-opacity:1"
           id="g4752">
          <use
             xlink:href="#symbol2883"
             x="91.925003"
             y="81.962997"
             id="use7315"
             width="100%"
             height="100%" />
        </g>
        <g
           style="fill:#000000;fill-opacity:1"
           id="g5989">
          <use
             xlink:href="#symbol6787"
             x="100.673"
             y="83.457001"
             id="use1569"
             width="100%"
             height="100%" />
        </g>
      </g>
    </g>
    <g
       inkscape:label=""
       transform="translate(20.553195,40.917012)"
       id="g44136">
      <g
         id="g2916">
        <g
           style="fill:#000000;fill-opacity:1"
           id="g2487">
          <use
             xlink:href="#symbol3078"
             x="91.925003"
             y="81.962997"
             id="use602"
             width="100%"
             height="100%" />
        </g>
        <g
           style="fill:#000000;fill-opacity:1"
           id="g2974">
          <use
             xlink:href="#symbol1704"
             x="100.673"
             y="83.457001"
             id="use9166"
             width="100%"
             height="100%" />
        </g>
      </g>
    </g>
    <g
       inkscape:label=""
       transform="translate(20.44382,52.520884)"
       id="g44697">
      <g
         id="g5320">
        <g
           style="fill:#000000;fill-opacity:1"
           id="g6480">
          <use
             xlink:href="#symbol7561"
             x="91.925003"
             y="81.962997"
             id="use9146"
             width="100%"
             height="100%" />
        </g>
        <g
           style="fill:#000000;fill-opacity:1"
           id="g258">
          <use
             xlink:href="#symbol5192"
             x="100.673"
             y="83.457001"
             id="use1310"
             width="100%"
             height="100%" />
        </g>
      </g>
    </g>
  </g>
</svg>
