<svg width="539" height="522" xmlns="http://www.w3.org/2000/svg" xmlns:xlink="http://www.w3.org/1999/xlink" overflow="hidden"><defs><clipPath id="clip0"><rect x="727" y="164" width="539" height="522"/></clipPath><clipPath id="clip1"><rect x="736" y="191" width="521" height="345"/></clipPath><clipPath id="clip2"><rect x="736" y="191" width="521" height="345"/></clipPath><clipPath id="clip3"><rect x="736" y="191" width="521" height="345"/></clipPath><clipPath id="clip4"><rect x="736" y="191" width="521" height="345"/></clipPath><clipPath id="clip5"><rect x="736" y="191" width="521" height="345"/></clipPath><clipPath id="clip6"><rect x="1033" y="283" width="160" height="166"/></clipPath><clipPath id="clip7"><rect x="736" y="391" width="521" height="345"/></clipPath><clipPath id="clip8"><rect x="736" y="391" width="521" height="345"/></clipPath><clipPath id="clip9"><rect x="736" y="391" width="521" height="345"/></clipPath><clipPath id="clip10"><rect x="736" y="391" width="521" height="345"/></clipPath><clipPath id="clip11"><rect x="736" y="391" width="521" height="345"/></clipPath><clipPath id="clip12"><rect x="1033" y="483" width="160" height="165"/></clipPath><clipPath id="clip13"><rect x="735" y="192" width="520" height="346"/></clipPath><clipPath id="clip14"><rect x="735" y="192" width="520" height="346"/></clipPath><clipPath id="clip15"><rect x="735" y="74" width="520" height="532"/></clipPath><clipPath id="clip16"><rect x="735" y="218" width="520" height="345"/></clipPath><clipPath id="clip17"><rect x="735" y="191" width="520" height="345"/></clipPath><clipPath id="clip18"><rect x="735" y="333" width="520" height="345"/></clipPath></defs><g clip-path="url(#clip0)" transform="translate(-727 -164)"><g clip-path="url(#clip1)"><path d="M1057.49 459.987 1165.44 459.987 1165.44 288.71 1057.49 288.71 1057.49 459.987" stroke="#000000" stroke-width="2.66538" stroke-linecap="round" stroke-linejoin="round" fill="none"/></g><g clip-path="url(#clip2)"><path d="M1057.49 406.973 1035.9 406.973" stroke="#000000" stroke-width="2.66538" stroke-linecap="round" stroke-linejoin="round" fill="none"/></g><g clip-path="url(#clip3)"><path d="M1057.49 341.724 1035.9 341.724" stroke="#000000" stroke-width="2.66538" stroke-linecap="round" stroke-linejoin="round" fill="none"/></g><g clip-path="url(#clip4)"><path d="M1165.44 406.973 1187.03 406.973" stroke="#000000" stroke-width="2.66538" stroke-linecap="round" stroke-linejoin="round" fill="none"/></g><g clip-path="url(#clip5)"><path d="M1165.44 341.724 1187.03 341.724" stroke="#000000" stroke-width="2.66538" stroke-linecap="round" stroke-linejoin="round" fill="none"/></g><path d="M-0.05539 13.6026 11.4512 13.6026 11.4512 12.0517 6.62348 12.0517 6.62348 0 4.77521 0 4.77521 12.0517-0.05539 12.0517Z" transform="matrix(1 0 0 -1 1063.97 346.872)"/><path d="M1144.22 397.402 1144.22 396.235 1158.91 396.235 1158.91 397.402Z"/><g clip-path="url(#clip6)"><path d="M1058.99 399.838 1074.1 406.974 1058.99 414.111" stroke="#000000" stroke-width="2.66538" stroke-linecap="round" stroke-linejoin="round" fill="none"/></g><text font-family="Arial,Arial_MSFontService,sans-serif" font-weight="400" font-size="5" transform="matrix(3.77771 0 0 3.77771 1144.73 349)">A<tspan font-size="5" x="0" y="17.2062">A</tspan><tspan font-size="3" x="-18.342" y="-0.529421">A</tspan></text><g clip-path="url(#clip7)"><path d="M1057.49 659.44 1165.44 659.44 1165.44 488.163 1057.49 488.163 1057.49 659.44" stroke="#000000" stroke-width="2.66538" stroke-linecap="round" stroke-linejoin="round" fill="none"/></g><g clip-path="url(#clip8)"><path d="M1057.49 606.425 1035.9 606.425" stroke="#000000" stroke-width="2.66538" stroke-linecap="round" stroke-linejoin="round" fill="none"/></g><g clip-path="url(#clip9)"><path d="M1057.49 541.177 1035.9 541.177" stroke="#000000" stroke-width="2.66538" stroke-linecap="round" stroke-linejoin="round" fill="none"/></g><g clip-path="url(#clip10)"><path d="M1165.44 606.425 1187.03 606.425" stroke="#000000" stroke-width="2.66538" stroke-linecap="round" stroke-linejoin="round" fill="none"/></g><g clip-path="url(#clip11)"><path d="M1165.44 541.177 1187.03 541.177" stroke="#000000" stroke-width="2.66538" stroke-linecap="round" stroke-linejoin="round" fill="none"/></g><path d="M-0.05539 13.6026 11.4512 13.6026 11.4512 12.0517 6.62348 12.0517 6.62348 0 4.77521 0 4.77521 12.0517-0.05539 12.0517Z" transform="matrix(1 0 0 -1 1063.97 546.325)"/><path d="M1144.22 596.855 1144.22 595.691 1158.91 595.691 1158.91 596.855Z"/><g clip-path="url(#clip12)"><path d="M1058.99 599.291 1074.1 606.427 1058.99 613.564" stroke="#000000" stroke-width="2.66538" stroke-linecap="round" stroke-linejoin="round" fill="none"/></g><text font-family="Arial,Arial_MSFontService,sans-serif" font-weight="400" font-size="5" transform="matrix(3.77771 0 0 3.77771 1144.13 548)">B<tspan font-size="5" x="0" y="17.4709">B</tspan><tspan font-size="3" x="-17.9228" y="-0.529421">B</tspan></text><g clip-path="url(#clip13)"><path d="M743.039 319.284 743.039 258.114 743.039 196.943" stroke="#000000" stroke-width="2.66538" stroke-linecap="round" stroke-linejoin="round" fill="none"/></g><g clip-path="url(#clip14)"><path d="M743.039 319.284 743.039 365.162 743.039 411.04" stroke="#000000" stroke-width="2.66538" stroke-linecap="round" stroke-linejoin="round" fill="none"/></g><g clip-path="url(#clip15)"><path d="M17.1518 245.827 17.1518 291.705 17.1518 337.583" stroke="#000000" stroke-width="2.66538" stroke-linecap="round" stroke-linejoin="round" fill="none" transform="matrix(1 0 0 1.54264 725.888 31.8153)"/></g><path d="M10.2413 10.2034 6.5506 5.23873 10.4308 0 8.45427 0 5.48361 4.00849 2.51588 0 0.536409 0 4.50117 5.33785 0.874579 10.2034 2.85112 10.2034 5.55649 6.56809 8.26185 10.2034Z" transform="matrix(1 0 0 -1 737.518 188.985)"/><g clip-path="url(#clip16)"><path d="M743.039 348.046C743.898 348.046 744.722 347.725 745.329 347.15 745.937 346.577 746.278 345.799 746.278 344.987 746.278 344.177 745.937 343.399 745.329 342.826 744.722 342.251 743.898 341.929 743.039 341.929 742.181 341.929 741.357 342.251 740.749 342.826 740.142 343.399 739.801 344.177 739.801 344.987 739.801 345.799 740.142 346.577 740.749 347.15 741.357 347.725 742.181 348.046 743.039 348.046Z" stroke="#000000" stroke-width="2.66538"/></g><g clip-path="url(#clip17)"><path d="M743.039 412.886C743.898 412.886 744.722 412.564 745.329 411.99 745.937 411.417 746.278 410.639 746.278 409.827 746.278 409.017 745.937 408.239 745.329 407.666 744.722 407.091 743.898 406.769 743.039 406.769 742.181 406.769 741.357 407.091 740.749 407.666 740.142 408.239 739.801 409.017 739.801 409.827 739.801 410.639 740.142 411.417 740.749 411.99 741.357 412.564 742.181 412.886 743.039 412.886Z" stroke="#000000" stroke-width="2.66538"/></g><g clip-path="url(#clip18)"><path d="M743.039 554.433C743.898 554.433 744.722 554.111 745.329 553.537 745.937 552.964 746.278 552.186 746.278 551.374 746.278 550.564 745.937 549.786 745.329 549.212 744.722 548.638 743.898 548.316 743.039 548.316 742.181 548.316 741.357 548.638 740.749 549.212 740.142 549.786 739.801 550.564 739.801 551.374 739.801 552.186 740.142 552.964 740.749 553.537 741.357 554.111 742.181 554.433 743.039 554.433Z" stroke="#000000" stroke-width="2.66538"/></g></g></svg>