<svg width="539" height="522" xmlns="http://www.w3.org/2000/svg" xmlns:xlink="http://www.w3.org/1999/xlink" overflow="hidden"><defs><clipPath id="clip0"><rect x="727" y="164" width="539" height="522"/></clipPath><clipPath id="clip1"><rect x="736" y="191" width="521" height="345"/></clipPath><clipPath id="clip2"><rect x="736" y="191" width="521" height="345"/></clipPath><clipPath id="clip3"><rect x="736" y="191" width="521" height="345"/></clipPath><clipPath id="clip4"><rect x="736" y="191" width="521" height="345"/></clipPath><clipPath id="clip5"><rect x="736" y="191" width="521" height="345"/></clipPath><clipPath id="clip6"><rect x="736" y="191" width="521" height="345"/></clipPath><clipPath id="clip7"><rect x="736" y="191" width="521" height="345"/></clipPath><clipPath id="clip8"><rect x="736" y="191" width="521" height="345"/></clipPath><clipPath id="clip9"><rect x="736" y="191" width="521" height="345"/></clipPath><clipPath id="clip10"><rect x="736" y="218" width="521" height="345"/></clipPath><clipPath id="clip11"><rect x="736" y="191" width="521" height="345"/></clipPath><clipPath id="clip12"><rect x="736" y="191" width="521" height="345"/></clipPath><clipPath id="clip13"><rect x="736" y="191" width="521" height="345"/></clipPath><clipPath id="clip14"><rect x="736" y="191" width="521" height="345"/></clipPath><clipPath id="clip15"><rect x="736" y="191" width="521" height="345"/></clipPath><clipPath id="clip16"><rect x="736" y="191" width="521" height="345"/></clipPath><clipPath id="clip17"><rect x="736" y="191" width="521" height="345"/></clipPath><clipPath id="clip18"><rect x="736" y="241" width="521" height="345"/></clipPath><clipPath id="clip19"><rect x="736" y="241" width="521" height="345"/></clipPath><clipPath id="clip20"><rect x="736" y="241" width="521" height="345"/></clipPath><clipPath id="clip21"><rect x="736" y="241" width="521" height="345"/></clipPath><clipPath id="clip22"><rect x="736" y="241" width="521" height="345"/></clipPath><clipPath id="clip23"><rect x="736" y="241" width="521" height="345"/></clipPath><clipPath id="clip24"><rect x="736" y="221" width="521" height="345"/></clipPath><clipPath id="clip25"><rect x="736" y="221" width="521" height="345"/></clipPath><clipPath id="clip26"><rect x="736" y="221" width="521" height="345"/></clipPath><clipPath id="clip27"><rect x="736" y="221" width="521" height="345"/></clipPath><clipPath id="clip28"><rect x="866" y="433" width="520" height="286"/></clipPath><clipPath id="clip29"><rect x="837" y="253" width="1314" height="345"/></clipPath><clipPath id="clip30"><rect x="1179" y="316" width="520" height="247"/></clipPath><clipPath id="clip31"><rect x="847" y="421" width="520" height="141"/></clipPath><clipPath id="clip32"><rect x="837" y="32" width="1314" height="345"/></clipPath><clipPath id="clip33"><rect x="1179" y="124" width="520" height="344"/></clipPath><clipPath id="clip34"><rect x="847" y="247" width="520" height="193"/></clipPath><clipPath id="clip35"><rect x="987" y="-881" width="345" height="1507"/></clipPath><clipPath id="clip36"><rect x="798" y="6" width="1530" height="346"/></clipPath><clipPath id="clip37"><rect x="810" y="221" width="520" height="297"/></clipPath><clipPath id="clip38"><rect x="857" y="466" width="1311" height="345"/></clipPath><clipPath id="clip39"><rect x="866" y="561" width="520" height="335"/></clipPath><clipPath id="clip40"><rect x="1197" y="603" width="520" height="223"/></clipPath><clipPath id="clip41"><rect x="736" y="183" width="521" height="516"/></clipPath><clipPath id="clip42"><rect x="858" y="171" width="1238" height="345"/></clipPath><clipPath id="clip43"><rect x="970" y="345" width="520" height="291"/></clipPath><clipPath id="clip44"><rect x="966" y="260" width="521" height="345"/></clipPath><clipPath id="clip45"><rect x="966" y="459" width="521" height="345"/></clipPath><clipPath id="clip46"><rect x="946" y="205" width="520" height="345"/></clipPath><clipPath id="clip47"><rect x="866" y="262" width="520" height="345"/></clipPath><clipPath id="clip48"><rect x="1197" y="388" width="521" height="345"/></clipPath><clipPath id="clip49"><rect x="941" y="-22" width="994" height="345"/></clipPath><clipPath id="clip50"><rect x="946" y="192" width="521" height="380"/></clipPath><clipPath id="clip51"><rect x="946" y="113" width="521" height="346"/></clipPath><clipPath id="clip52"><rect x="736" y="191" width="521" height="345"/></clipPath><clipPath id="clip53"><rect x="736" y="191" width="521" height="345"/></clipPath><clipPath id="clip54"><rect x="736" y="191" width="521" height="345"/></clipPath><clipPath id="clip55"><rect x="736" y="191" width="521" height="345"/></clipPath><clipPath id="clip56"><rect x="736" y="191" width="521" height="345"/></clipPath><clipPath id="clip57"><rect x="1033" y="283" width="160" height="166"/></clipPath><clipPath id="clip58"><rect x="736" y="391" width="521" height="345"/></clipPath><clipPath id="clip59"><rect x="736" y="391" width="521" height="345"/></clipPath><clipPath id="clip60"><rect x="736" y="391" width="521" height="345"/></clipPath><clipPath id="clip61"><rect x="736" y="391" width="521" height="345"/></clipPath><clipPath id="clip62"><rect x="736" y="391" width="521" height="345"/></clipPath><clipPath id="clip63"><rect x="1033" y="483" width="160" height="165"/></clipPath><clipPath id="clip64"><rect x="735" y="192" width="520" height="346"/></clipPath><clipPath id="clip65"><rect x="735" y="192" width="520" height="346"/></clipPath><clipPath id="clip66"><rect x="735" y="74" width="520" height="532"/></clipPath><clipPath id="clip67"><rect x="735" y="218" width="520" height="345"/></clipPath><clipPath id="clip68"><rect x="735" y="191" width="520" height="345"/></clipPath><clipPath id="clip69"><rect x="735" y="333" width="520" height="345"/></clipPath></defs><g clip-path="url(#clip0)" transform="translate(-727 -164)"><g clip-path="url(#clip1)"><path d="M968.973 361.706 993.029 361.573 995.497 361.174 997.964 360.508 1000.43 359.577 1002.9 358.377 1005.98 356.505 1009.07 354.217 1012.15 351.511 1015.24 348.391 1018.32 344.853 1020.79 341.724 1020.79 341.724 1017.7 337.855 1014.62 334.401 1011.54 331.362 1008.45 328.741 1005.37 326.535 1002.28 324.747 999.815 323.614 997.347 322.749 994.88 322.149 992.414 321.817 990.562 321.741 968.973 321.741 968.973 321.741 972.082 325.004 974.05 327.451 975.708 329.898 977.056 332.344 978.093 334.791 978.818 337.238 979.232 339.685 979.336 342.132 979.129 344.578 978.611 347.025 977.782 349.472 976.641 351.919 975.191 354.366 973.429 356.813 971.357 359.259 968.973 361.706 968.973 361.706" stroke="#000000" stroke-width="2.66538" stroke-linecap="round" stroke-linejoin="round" fill="none"/></g><text font-family="Arial,Arial_MSFontService,sans-serif" font-weight="400" font-size="15" transform="matrix(1.33269 0 0 1.33269 988.233 349)">1</text><g clip-path="url(#clip2)"><path d="M953.86 351.919 976.641 351.919" stroke="#000000" stroke-width="2.66538" stroke-linecap="round" stroke-linejoin="round" fill="none"/></g><g clip-path="url(#clip3)"><path d="M953.86 331.529 976.641 331.529" stroke="#000000" stroke-width="2.66538" stroke-linecap="round" stroke-linejoin="round" fill="none"/></g><g clip-path="url(#clip4)"><path d="M1020.79 341.724 1035.9 341.724" stroke="#000000" stroke-width="2.66538" stroke-linecap="round" stroke-linejoin="round" fill="none"/></g><g clip-path="url(#clip5)"><path d="M917.158 351.919 918.541 351.878 919.919 351.752 921.285 351.543 922.634 351.253 923.961 350.881 925.259 350.429 926.525 349.9 927.753 349.296 928.936 348.618 930.07 347.87 931.152 347.056 932.177 346.176 933.139 345.238 934.038 344.243 934.865 343.195 935.62 342.1 936.299 340.96 936.899 339.783 937.419 338.571 937.855 337.331 938.206 336.067 938.47 334.783 938.647 333.488 938.737 332.183 938.737 330.876 938.647 329.571 938.47 328.276 938.206 326.992 937.855 325.728 937.419 324.487 936.899 323.275 936.299 322.099 935.62 320.959 934.865 319.864 934.038 318.816 933.139 317.821 932.177 316.883 931.152 316.003 930.07 315.189 928.936 314.441 927.753 313.763 926.525 313.159 925.259 312.63 923.961 312.178 922.634 311.806 921.285 311.516 919.919 311.307 918.541 311.181 917.158 311.139 917.158 311.139 889.091 311.139 889.091 331.529 889.091 351.919 917.158 351.919" stroke="#000000" stroke-width="2.66538" stroke-linecap="round" stroke-linejoin="round" fill="none"/></g><g clip-path="url(#clip6)"><path d="M873.979 344.986 889.091 344.986" stroke="#000000" stroke-width="2.66538" stroke-linecap="round" stroke-linejoin="round" fill="none"/></g><g clip-path="url(#clip7)"><path d="M873.979 331.529 889.091 331.529" stroke="#000000" stroke-width="2.66538" stroke-linecap="round" stroke-linejoin="round" fill="none"/></g><g clip-path="url(#clip8)"><path d="M873.979 318.071 889.091 318.071" stroke="#000000" stroke-width="2.66538" stroke-linecap="round" stroke-linejoin="round" fill="none"/></g><g clip-path="url(#clip9)"><path d="M938.747 331.529 953.86 331.529" stroke="#000000" stroke-width="2.66538" stroke-linecap="round" stroke-linejoin="round" fill="none"/></g><g clip-path="url(#clip10)"><path d="M873.979 344.987 809.21 344.987 744.441 344.987" stroke="#000000" stroke-width="2.66538" stroke-linecap="round" stroke-linejoin="round" fill="none"/></g><g clip-path="url(#clip11)"><path d="M744.441 409.827 809.21 409.827 873.979 409.827" stroke="#000000" stroke-width="2.66538" stroke-linecap="round" stroke-linejoin="round" fill="none"/></g><g clip-path="url(#clip12)"><path d="M917.152 443.675 918.536 443.634 919.914 443.508 921.28 443.299 922.628 443.008 923.956 442.637 925.254 442.185 926.52 441.656 927.747 441.052 928.931 440.374 930.065 439.626 931.147 438.812 932.172 437.932 933.134 436.994 934.032 435.999 934.86 434.951 935.614 433.856 936.294 432.716 936.893 431.539 937.413 430.327 937.849 429.087 938.201 427.822 938.465 426.539 938.642 425.244 938.731 423.939 938.731 422.632 938.642 421.327 938.465 420.032 938.201 418.748 937.849 417.483 937.413 416.243 936.893 415.031 936.294 413.855 935.614 412.715 934.86 411.62 934.032 410.572 933.134 409.577 932.172 408.638 931.147 407.759 930.065 406.945 928.931 406.197 927.747 405.519 926.52 404.915 925.254 404.386 923.956 403.934 922.628 403.562 921.28 403.272 919.914 403.062 918.536 402.937 917.152 402.894 917.152 402.894 889.086 402.894 889.086 423.285 889.086 443.675 917.152 443.675" stroke="#000000" stroke-width="2.66538" stroke-linecap="round" stroke-linejoin="round" fill="none"/></g><g clip-path="url(#clip13)"><path d="M873.973 436.742 889.086 436.742" stroke="#000000" stroke-width="2.66538" stroke-linecap="round" stroke-linejoin="round" fill="none"/></g><g clip-path="url(#clip14)"><path d="M873.973 423.285 889.086 423.285" stroke="#000000" stroke-width="2.66538" stroke-linecap="round" stroke-linejoin="round" fill="none"/></g><g clip-path="url(#clip15)"><path d="M873.973 409.827 889.086 409.827" stroke="#000000" stroke-width="2.66538" stroke-linecap="round" stroke-linejoin="round" fill="none"/></g><g clip-path="url(#clip16)"><path d="M938.742 423.285 953.855 423.285" stroke="#000000" stroke-width="2.66538" stroke-linecap="round" stroke-linejoin="round" fill="none"/></g><text font-family="Arial,Arial_MSFontService,sans-serif" font-weight="400" font-size="5" transform="matrix(3.77771 0 0 3.77771 907.858 431)">2</text><g clip-path="url(#clip17)"><path d="M953.86 423.285 953.86 387.602 953.86 351.919" stroke="#000000" stroke-width="2.66538" stroke-linecap="round" stroke-linejoin="round" fill="none"/></g><g clip-path="url(#clip18)"><path d="M744.441 551.373 809.21 551.373 873.979 551.373" stroke="#000000" stroke-width="2.66538" stroke-linecap="round" stroke-linejoin="round" fill="none"/></g><g clip-path="url(#clip19)"><path d="M917.158 571.764 918.541 571.722 919.919 571.597 921.285 571.388 922.634 571.097 923.961 570.726 925.259 570.274 926.525 569.745 927.753 569.141 928.936 568.463 930.07 567.715 931.152 566.901 932.177 566.021 933.139 565.083 934.038 564.087 934.865 563.04 935.62 561.945 936.299 560.805 936.899 559.628 937.419 558.416 937.855 557.176 938.206 555.911 938.47 554.628 938.647 553.333 938.737 552.028 938.737 550.721 938.647 549.416 938.47 548.12 938.206 546.837 937.855 545.572 937.419 544.332 936.899 543.12 936.299 541.943 935.62 540.804 934.865 539.708 934.038 538.661 933.139 537.666 932.177 536.727 931.152 535.848 930.07 535.033 928.936 534.286 927.753 533.607 926.525 533.004 925.259 532.475 923.961 532.023 922.634 531.651 921.285 531.361 919.919 531.151 918.541 531.026 917.158 530.983 917.158 530.983 889.091 530.983 889.091 551.374 889.091 571.764 917.158 571.764" stroke="#000000" stroke-width="2.66538" stroke-linecap="round" stroke-linejoin="round" fill="none"/></g><g clip-path="url(#clip20)"><path d="M873.979 564.831 889.091 564.831" stroke="#000000" stroke-width="2.66538" stroke-linecap="round" stroke-linejoin="round" fill="none"/></g><g clip-path="url(#clip21)"><path d="M873.979 551.374 889.091 551.374" stroke="#000000" stroke-width="2.66538" stroke-linecap="round" stroke-linejoin="round" fill="none"/></g><g clip-path="url(#clip22)"><path d="M873.979 537.916 889.091 537.916" stroke="#000000" stroke-width="2.66538" stroke-linecap="round" stroke-linejoin="round" fill="none"/></g><g clip-path="url(#clip23)"><path d="M938.747 551.374 953.86 551.374" stroke="#000000" stroke-width="2.66538" stroke-linecap="round" stroke-linejoin="round" fill="none"/></g><g clip-path="url(#clip24)"><path d="M968.973 561.161 993.029 561.028 995.497 560.629 997.964 559.963 1000.43 559.031 1002.9 557.832 1005.98 555.959 1009.07 553.671 1012.15 550.966 1015.24 547.846 1018.32 544.308 1020.79 541.178 1020.79 541.178 1017.7 537.31 1014.62 533.855 1011.54 530.817 1008.45 528.195 1005.37 525.99 1002.28 524.201 999.815 523.068 997.347 522.204 994.88 521.604 992.414 521.272 990.562 521.196 968.973 521.196 968.973 521.196 972.082 524.458 974.05 526.905 975.708 529.352 977.056 531.799 978.093 534.246 978.818 536.693 979.232 539.139 979.336 541.586 979.129 544.033 978.611 546.48 977.782 548.927 976.641 551.374 975.191 553.82 973.429 556.267 971.357 558.714 968.973 561.161 968.973 561.161" stroke="#000000" stroke-width="2.66538" stroke-linecap="round" stroke-linejoin="round" fill="none"/></g><g clip-path="url(#clip25)"><path d="M953.86 551.374 976.641 551.374" stroke="#000000" stroke-width="2.66538" stroke-linecap="round" stroke-linejoin="round" fill="none"/></g><g clip-path="url(#clip26)"><path d="M953.86 530.983 976.641 530.983" stroke="#000000" stroke-width="2.66538" stroke-linecap="round" stroke-linejoin="round" fill="none"/></g><g clip-path="url(#clip27)"><path d="M1020.79 541.178 1035.9 541.178" stroke="#000000" stroke-width="2.66538" stroke-linecap="round" stroke-linejoin="round" fill="none"/></g><g clip-path="url(#clip28)"><path d="M14.2247 127.778 14.2247 77.0472 14.2247 26.3157" stroke="#000000" stroke-width="2.21053" stroke-linecap="round" stroke-linejoin="round" fill="none" transform="matrix(1.20577 0 0 1 856.827 410.427)"/></g><g clip-path="url(#clip29)"><path d="M17.1518 245.827 81.9206 245.827 146.689 245.827" stroke="#307525" stroke-width="2.66538" stroke-linecap="round" stroke-linejoin="round" fill="none" transform="matrix(2.52748 0 0 1 813.674 226.155)"/></g><g clip-path="url(#clip30)"><path d="M12.2438 109.984 12.2438 142.733 12.2438 175.483" stroke="#307525" stroke-width="1.90268" stroke-linecap="round" stroke-linejoin="round" fill="none" transform="matrix(1.40086 0 0 1 1169.88 296.609)"/></g><g clip-path="url(#clip31)"><path d="M6.97266 62.6342 6.97266 37.7669 6.97266 12.8994" stroke="#307525" stroke-width="1.08355" stroke-linecap="round" stroke-linejoin="round" fill="none" transform="matrix(2.45986 0 0 1 837.987 409.914)"/></g><path d="M855.588 423.241 873.966 423.241" stroke="#307525" stroke-width="2.60303" stroke-linecap="round" fill="none"/><g clip-path="url(#clip32)"><path d="M17.1518 245.827 81.9206 245.827 146.689 245.827" stroke="#307525" stroke-width="2.66538" stroke-linecap="round" stroke-linejoin="round" fill="none" transform="matrix(2.52748 0 0 1 813.674 4.36083)"/></g><g clip-path="url(#clip33)"><path d="M17.0631 153.275 17.0631 198.916 17.0631 244.557" stroke="#307525" stroke-width="2.65161" stroke-linecap="round" stroke-linejoin="round" fill="none" transform="matrix(1.00519 0 0 1 1169.88 97.167)"/></g><g clip-path="url(#clip34)"><path d="M9.53999 85.6961 9.53999 51.6727 9.53999 17.6489" stroke="#307525" stroke-width="1.48252" stroke-linecap="round" stroke-linejoin="round" fill="none" transform="matrix(1.79788 0 0 1 837.791 232.244)"/></g><path d="M854.76 317.915 873.143 317.915" stroke="#307525" stroke-width="2.60303" stroke-linecap="round" fill="none"/><g clip-path="url(#clip35)"><path d="M17.1518 245.827 81.9206 245.827 146.689 245.827" stroke="#307525" stroke-width="2.66538" stroke-linecap="round" stroke-linejoin="round" fill="none" transform="matrix(0 -2.90041 1 0 959.582 653.58)"/></g><path d="M1187.03 606.426 1205.41 606.426" stroke="#307525" stroke-width="2.60303" stroke-linecap="round" fill="none"/><g clip-path="url(#clip36)"><path d="M17.1518 245.827 81.9206 245.827 146.689 245.827" stroke="#307525" stroke-width="2.66538" stroke-linecap="round" stroke-linejoin="round" fill="none" transform="matrix(2.9442 0 0 1 770.638 -20.7439)"/></g><g clip-path="url(#clip37)"><path d="M14.7624 132.608 14.7624 79.9595 14.7624 27.3104" stroke="#307525" stroke-width="2.29408" stroke-linecap="round" stroke-linejoin="round" fill="none" transform="matrix(1.16185 0 0 1 800.75 197.844)"/></g><path d="M818.034 331.466 873.725 331.466" stroke="#307525" stroke-width="2.8849" stroke-linecap="round" fill="none"/><g clip-path="url(#clip38)"><path d="M17.1518 245.827 81.9206 245.827 146.689 245.827" stroke="#307525" stroke-width="2.66538" stroke-linecap="round" stroke-linejoin="round" fill="none" transform="matrix(2.52447 0 0 1 832.842 438.84)"/></g><g clip-path="url(#clip39)"><path d="M16.6647 149.696 16.6647 90.2633 16.6647 30.8296" stroke="#307525" stroke-width="2.5897" stroke-linecap="round" stroke-linejoin="round" fill="none" transform="matrix(1.02922 0 0 1 856.849 534.227)"/></g><g clip-path="url(#clip40)"><path d="M11.1004 99.7132 11.1004 60.1246 11.1004 20.5357" stroke="#307525" stroke-width="1.72501" stroke-linecap="round" stroke-linejoin="round" fill="none" transform="matrix(1.54514 0 0 1 1188.08 585.313)"/></g><g clip-path="url(#clip41)"><path d="M226.571 259.285 226.571 223.602 226.571 187.919" stroke="#000000" stroke-width="2.66538" stroke-linecap="round" stroke-linejoin="round" fill="none" transform="matrix(1 0 0 1.49917 727.289 141.549)"/></g><g clip-path="url(#clip42)"><path d="M17.1518 337.583 81.9206 337.583 146.689 337.583" stroke="#000000" stroke-width="2.66538" stroke-linecap="round" stroke-linejoin="round" fill="none" transform="matrix(2.38283 0 0 1 835.815 143.374)"/></g><g clip-path="url(#clip43)"><path d="M191.252 218.866 191.252 188.745 191.252 158.625" stroke="#000000" stroke-width="2.24989" stroke-linecap="round" stroke-linejoin="round" fill="none" transform="matrix(1.18468 0 0 1 961.116 322.11)"/></g><text font-family="Arial,Arial_MSFontService,sans-serif" font-weight="400" font-size="5" transform="matrix(3.77771 0 0 3.77771 907.267 339)">1<tspan font-size="5" x="0.043009" y="57.7069">3</tspan><tspan font-size="5" x="21.4742" y="55.5893">2</tspan></text><g clip-path="url(#clip44)"><path d="M459.739 174.461 473.232 161.718 524.508 161.718 524.508 187.206 473.232 187.206Z" stroke="#000000" stroke-width="2.66538" stroke-linecap="round" stroke-linejoin="round" fill="none" transform="matrix(-1 0 0 1 1495.64 232.511)"/></g><path d="M7.80124 8.41096 7.80124 7.0666C7.39478 7.2915 6.98747 7.45974 6.57933 7.57137 6.17119 7.68298 5.75889 7.73877 5.34242 7.73877 4.40954 7.73877 3.6849 7.44309 3.16848 6.85171 2.65373 6.26198 2.39635 5.43323 2.39635 4.36541 2.39635 3.29758 2.65373 2.46798 3.16848 1.8766 3.6849 1.28688 4.40954 0.992022 5.34242 0.992022 5.75889 0.992022 6.17119 1.04783 6.57933 1.15944 6.98747 1.27106 7.39478 1.43931 7.80124 1.66419L7.80124 0.334839C7.39977 0.148262 6.98415 0.00832932 6.55435-0.0849591 6.12622-0.179913 5.66977-0.227391 5.18501-0.227391 3.86731-0.227391 2.82031 0.186577 2.04401 1.01451 1.26939 1.84244 0.882075 2.95941 0.882075 4.36541 0.882075 5.79138 1.27355 6.91252 2.05652 7.72878 2.84113 8.54672 3.91562 8.95569 5.27996 8.95569 5.72141 8.95569 6.15288 8.90988 6.57434 8.81826 6.9958 8.7283 7.40478 8.59254 7.80124 8.41096Z" transform="matrix(1 0 0 -1 991.852 412.936)"/><path d="M1.50678 12.1517 2.94358 12.1517 2.94358 0 1.50678 0Z" transform="matrix(1 0 0 -1 1000.64 412.936)"/><path d="M1.4518 12.1517 2.89611 12.1517 2.89611 4.97511 7.18405 8.7458 9.01816 8.7458 4.38039 4.65527 9.21557 0 7.34146 0 2.89611 4.27044 2.89611 0 1.4518 0Z" transform="matrix(1 0 0 -1 1005.09 412.936)"/><g clip-path="url(#clip45)"><path d="M459.739 174.461 473.232 161.718 524.508 161.718 524.508 187.206 473.232 187.206Z" stroke="#000000" stroke-width="2.66538" stroke-linecap="round" stroke-linejoin="round" fill="none" transform="matrix(-1 0 0 1 1495.64 431.966)"/></g><path d="M7.80124 8.41096 7.80124 7.0666C7.39478 7.2915 6.98747 7.45974 6.57933 7.57137 6.17119 7.68298 5.75889 7.73877 5.34242 7.73877 4.40954 7.73877 3.6849 7.44309 3.16848 6.85171 2.65373 6.26198 2.39635 5.43323 2.39635 4.36541 2.39635 3.29758 2.65373 2.46798 3.16848 1.8766 3.6849 1.28688 4.40954 0.992022 5.34242 0.992022 5.75889 0.992022 6.17119 1.04783 6.57933 1.15944 6.98747 1.27106 7.39478 1.43931 7.80124 1.66419L7.80124 0.334839C7.39977 0.148262 6.98415 0.00832932 6.55435-0.0849591 6.12622-0.179913 5.66977-0.227391 5.18501-0.227391 3.86731-0.227391 2.82031 0.186577 2.04401 1.01451 1.26939 1.84244 0.882075 2.95941 0.882075 4.36541 0.882075 5.79138 1.27355 6.91252 2.05652 7.72878 2.84113 8.54672 3.91562 8.95569 5.27996 8.95569 5.72141 8.95569 6.15288 8.90988 6.57434 8.81826 6.9958 8.7283 7.40478 8.59254 7.80124 8.41096Z" transform="matrix(1 0 0 -1 991.852 612.391)"/><path d="M1.50678 12.1517 2.94358 12.1517 2.94358 0 1.50678 0Z" transform="matrix(1 0 0 -1 1000.64 612.391)"/><path d="M1.4518 12.1517 2.89611 12.1517 2.89611 4.97511 7.18405 8.7458 9.01816 8.7458 4.38039 4.65527 9.21557 0 7.34146 0 2.89611 4.27044 2.89611 0 1.4518 0Z" transform="matrix(1 0 0 -1 1005.09 612.391)"/><g clip-path="url(#clip46)"><path d="M953.862 426.342C954.721 426.342 955.545 426.021 956.152 425.446 956.759 424.873 957.1 424.095 957.1 423.283 957.1 422.473 956.759 421.695 956.152 421.122 955.545 420.547 954.721 420.225 953.862 420.225 953.003 420.225 952.179 420.547 951.572 421.122 950.965 421.695 950.624 422.473 950.624 423.283 950.624 424.095 950.965 424.873 951.572 425.446 952.179 426.021 953.003 426.342 953.862 426.342Z" stroke="#000000" stroke-width="2.66538"/></g><g clip-path="url(#clip47)"><path d="M873.979 484.016C874.837 484.016 875.661 483.695 876.268 483.121 876.876 482.547 877.217 481.769 877.217 480.958 877.217 480.147 876.876 479.369 876.268 478.796 875.661 478.222 874.837 477.899 873.979 477.899 873.12 477.899 872.296 478.222 871.689 478.796 871.081 479.369 870.74 480.147 870.74 480.958 870.74 481.769 871.081 482.547 871.689 483.121 872.296 483.695 873.12 484.016 873.979 484.016Z" stroke="#000000" stroke-width="2.66538"/></g><g clip-path="url(#clip48)"><path d="M1205.41 609.485C1206.27 609.485 1207.09 609.164 1207.7 608.59 1208.31 608.017 1208.65 607.238 1208.65 606.427 1208.65 605.616 1208.31 604.838 1207.7 604.265 1207.09 603.691 1206.27 603.368 1205.41 603.368 1204.55 603.368 1203.73 603.691 1203.12 604.265 1202.51 604.838 1202.17 605.616 1202.17 606.427 1202.17 607.238 1202.51 608.017 1203.12 608.59 1203.73 609.164 1204.55 609.485 1205.41 609.485Z" fill="#307525"/></g><g clip-path="url(#clip49)"><path d="M17.1518 245.827 81.9206 245.827 146.689 245.827" stroke="#C22411" stroke-width="2.66538" stroke-linecap="round" stroke-linejoin="round" fill="none" transform="matrix(1.91378 0 0 1 922.857 -49.1583)"/></g><text fill="#C22411" font-family="Arial,Arial_MSFontService,sans-serif" font-weight="400" font-size="5" transform="matrix(3.77771 0 0 3.77771 1210.14 201)">y</text><g clip-path="url(#clip50)"><path d="M17.1518 154.071 17.1518 92.9012 17.1518 31.7306" stroke="#C22411" stroke-width="2.66538" stroke-linecap="round" stroke-linejoin="round" fill="none" transform="matrix(1 0 0 1.10279 937.239 161.858)"/></g><g clip-path="url(#clip51)"><path d="M954.391 335.071C955.25 335.071 956.073 334.749 956.681 334.175 957.288 333.602 957.629 332.824 957.629 332.012 957.629 331.202 957.288 330.423 956.681 329.85 956.073 329.276 955.25 328.953 954.391 328.953 953.532 328.953 952.708 329.276 952.101 329.85 951.494 330.423 951.152 331.202 951.152 332.012 951.152 332.824 951.494 333.602 952.101 334.175 952.708 334.749 953.532 335.071 954.391 335.071Z" fill="#C22411"/></g><g clip-path="url(#clip52)"><path d="M1057.49 459.987 1165.44 459.987 1165.44 288.71 1057.49 288.71 1057.49 459.987" stroke="#000000" stroke-width="2.66538" stroke-linecap="round" stroke-linejoin="round" fill="none"/></g><g clip-path="url(#clip53)"><path d="M1057.49 406.973 1035.9 406.973" stroke="#000000" stroke-width="2.66538" stroke-linecap="round" stroke-linejoin="round" fill="none"/></g><g clip-path="url(#clip54)"><path d="M1057.49 341.724 1035.9 341.724" stroke="#000000" stroke-width="2.66538" stroke-linecap="round" stroke-linejoin="round" fill="none"/></g><g clip-path="url(#clip55)"><path d="M1165.44 406.973 1187.03 406.973" stroke="#000000" stroke-width="2.66538" stroke-linecap="round" stroke-linejoin="round" fill="none"/></g><g clip-path="url(#clip56)"><path d="M1165.44 341.724 1187.03 341.724" stroke="#000000" stroke-width="2.66538" stroke-linecap="round" stroke-linejoin="round" fill="none"/></g><path d="M-0.05539 13.6026 11.4512 13.6026 11.4512 12.0517 6.62348 12.0517 6.62348 0 4.77521 0 4.77521 12.0517-0.05539 12.0517Z" transform="matrix(1 0 0 -1 1063.97 346.872)"/><path d="M1144.22 397.402 1144.22 396.235 1158.91 396.235 1158.91 397.402Z"/><g clip-path="url(#clip57)"><path d="M1058.99 399.838 1074.1 406.974 1058.99 414.111" stroke="#000000" stroke-width="2.66538" stroke-linecap="round" stroke-linejoin="round" fill="none"/></g><text font-family="Arial,Arial_MSFontService,sans-serif" font-weight="400" font-size="5" transform="matrix(3.77771 0 0 3.77771 1144.73 349)">A<tspan font-size="5" x="0" y="17.2062">A</tspan><tspan font-size="3" x="-18.342" y="-0.529421">A</tspan></text><g clip-path="url(#clip58)"><path d="M1057.49 659.44 1165.44 659.44 1165.44 488.163 1057.49 488.163 1057.49 659.44" stroke="#000000" stroke-width="2.66538" stroke-linecap="round" stroke-linejoin="round" fill="none"/></g><g clip-path="url(#clip59)"><path d="M1057.49 606.425 1035.9 606.425" stroke="#000000" stroke-width="2.66538" stroke-linecap="round" stroke-linejoin="round" fill="none"/></g><g clip-path="url(#clip60)"><path d="M1057.49 541.177 1035.9 541.177" stroke="#000000" stroke-width="2.66538" stroke-linecap="round" stroke-linejoin="round" fill="none"/></g><g clip-path="url(#clip61)"><path d="M1165.44 606.425 1187.03 606.425" stroke="#000000" stroke-width="2.66538" stroke-linecap="round" stroke-linejoin="round" fill="none"/></g><g clip-path="url(#clip62)"><path d="M1165.44 541.177 1187.03 541.177" stroke="#000000" stroke-width="2.66538" stroke-linecap="round" stroke-linejoin="round" fill="none"/></g><path d="M-0.05539 13.6026 11.4512 13.6026 11.4512 12.0517 6.62348 12.0517 6.62348 0 4.77521 0 4.77521 12.0517-0.05539 12.0517Z" transform="matrix(1 0 0 -1 1063.97 546.325)"/><path d="M1144.22 596.855 1144.22 595.691 1158.91 595.691 1158.91 596.855Z"/><g clip-path="url(#clip63)"><path d="M1058.99 599.291 1074.1 606.427 1058.99 613.564" stroke="#000000" stroke-width="2.66538" stroke-linecap="round" stroke-linejoin="round" fill="none"/></g><text font-family="Arial,Arial_MSFontService,sans-serif" font-weight="400" font-size="5" transform="matrix(3.77771 0 0 3.77771 1144.13 548)">B<tspan font-size="5" x="0" y="17.4709">B</tspan><tspan font-size="3" x="-17.9228" y="-0.529421">B</tspan></text><g clip-path="url(#clip64)"><path d="M743.039 319.284 743.039 258.114 743.039 196.943" stroke="#000000" stroke-width="2.66538" stroke-linecap="round" stroke-linejoin="round" fill="none"/></g><g clip-path="url(#clip65)"><path d="M743.039 319.284 743.039 365.162 743.039 411.04" stroke="#000000" stroke-width="2.66538" stroke-linecap="round" stroke-linejoin="round" fill="none"/></g><g clip-path="url(#clip66)"><path d="M17.1518 245.827 17.1518 291.705 17.1518 337.583" stroke="#000000" stroke-width="2.66538" stroke-linecap="round" stroke-linejoin="round" fill="none" transform="matrix(1 0 0 1.54264 725.888 31.8153)"/></g><path d="M10.2413 10.2034 6.5506 5.23873 10.4308 0 8.45427 0 5.48361 4.00849 2.51588 0 0.536409 0 4.50117 5.33785 0.874579 10.2034 2.85112 10.2034 5.55649 6.56809 8.26185 10.2034Z" transform="matrix(1 0 0 -1 737.518 188.985)"/><g clip-path="url(#clip67)"><path d="M743.039 348.046C743.898 348.046 744.722 347.725 745.329 347.15 745.937 346.577 746.278 345.799 746.278 344.987 746.278 344.177 745.937 343.399 745.329 342.826 744.722 342.251 743.898 341.929 743.039 341.929 742.181 341.929 741.357 342.251 740.749 342.826 740.142 343.399 739.801 344.177 739.801 344.987 739.801 345.799 740.142 346.577 740.749 347.15 741.357 347.725 742.181 348.046 743.039 348.046Z" stroke="#000000" stroke-width="2.66538"/></g><g clip-path="url(#clip68)"><path d="M743.039 412.886C743.898 412.886 744.722 412.564 745.329 411.99 745.937 411.417 746.278 410.639 746.278 409.827 746.278 409.017 745.937 408.239 745.329 407.666 744.722 407.091 743.898 406.769 743.039 406.769 742.181 406.769 741.357 407.091 740.749 407.666 740.142 408.239 739.801 409.017 739.801 409.827 739.801 410.639 740.142 411.417 740.749 411.99 741.357 412.564 742.181 412.886 743.039 412.886Z" stroke="#000000" stroke-width="2.66538"/></g><g clip-path="url(#clip69)"><path d="M743.039 554.433C743.898 554.433 744.722 554.111 745.329 553.537 745.937 552.964 746.278 552.186 746.278 551.374 746.278 550.564 745.937 549.786 745.329 549.212 744.722 548.638 743.898 548.316 743.039 548.316 742.181 548.316 741.357 548.638 740.749 549.212 740.142 549.786 739.801 550.564 739.801 551.374 739.801 552.186 740.142 552.964 740.749 553.537 741.357 554.111 742.181 554.433 743.039 554.433Z" stroke="#000000" stroke-width="2.66538"/></g></g></svg>