<?xml version="1.0" encoding="UTF-8" standalone="no"?>
<!DOCTYPE svg PUBLIC "-//W3C//DTD SVG 1.1//EN"
 "http://www.w3.org/Graphics/SVG/1.1/DTD/svg11.dtd">
<!-- Generated by graphviz version 2.48.0 (20210717.1556)
 -->
<!-- Title: finite_state_machine Pages: 1 -->
<svg width="233pt" height="116pt"
 viewBox="0.00 0.00 232.99 116.00" xmlns="http://www.w3.org/2000/svg" xmlns:xlink="http://www.w3.org/1999/xlink">
<g id="graph0" class="graph" transform="scale(1 1) rotate(0) translate(4 112)">
<title>finite_state_machine</title>
<polygon fill="white" stroke="transparent" points="-4,4 -4,-112 228.99,-112 228.99,4 -4,4"/>
<!-- 00 -->
<g id="node1" class="node">
<title>00</title>
<ellipse fill="none" stroke="black" cx="19.5" cy="-19.5" rx="19.5" ry="19.5"/>
<text text-anchor="middle" x="19.5" y="-15.8" font-family="Times New Roman,serif" font-size="14.00">00</text>
</g>
<!-- 00&#45;&gt;00 -->
<g id="edge1" class="edge">
<title>00&#45;&gt;00</title>
<path fill="none" stroke="black" d="M11.35,-37.24C9.68,-47.47 12.4,-57 19.5,-57 24.05,-57 26.79,-53.09 27.75,-47.59"/>
<polygon fill="black" stroke="black" points="31.24,-47.21 27.65,-37.24 24.24,-47.28 31.24,-47.21"/>
<text text-anchor="middle" x="19.5" y="-60.8" font-family="Times New Roman,serif" font-size="14.00">0/0</text>
</g>
<!-- 01 -->
<g id="node2" class="node">
<title>01</title>
<ellipse fill="none" stroke="black" cx="112.49" cy="-55.5" rx="19.5" ry="19.5"/>
<text text-anchor="middle" x="112.49" y="-51.8" font-family="Times New Roman,serif" font-size="14.00">01</text>
</g>
<!-- 00&#45;&gt;01 -->
<g id="edge4" class="edge">
<title>00&#45;&gt;01</title>
<path fill="none" stroke="black" d="M38.04,-26.44C51.26,-31.67 69.62,-38.93 84.67,-44.89"/>
<polygon fill="black" stroke="black" points="83.42,-48.15 94,-48.58 85.99,-41.65 83.42,-48.15"/>
<text text-anchor="middle" x="66" y="-44.3" font-family="Times New Roman,serif" font-size="14.00">1/0</text>
</g>
<!-- 01&#45;&gt;01 -->
<g id="edge2" class="edge">
<title>01&#45;&gt;01</title>
<path fill="none" stroke="black" d="M104.34,-73.24C102.68,-83.47 105.4,-93 112.49,-93 117.04,-93 119.79,-89.09 120.74,-83.59"/>
<polygon fill="black" stroke="black" points="124.24,-83.21 120.65,-73.24 117.24,-83.28 124.24,-83.21"/>
<text text-anchor="middle" x="112.49" y="-96.8" font-family="Times New Roman,serif" font-size="14.00">0/0</text>
</g>
<!-- 10 -->
<g id="node3" class="node">
<title>10</title>
<ellipse fill="none" stroke="black" cx="205.49" cy="-19.5" rx="19.5" ry="19.5"/>
<text text-anchor="middle" x="205.49" y="-15.8" font-family="Times New Roman,serif" font-size="14.00">10</text>
</g>
<!-- 01&#45;&gt;10 -->
<g id="edge5" class="edge">
<title>01&#45;&gt;10</title>
<path fill="none" stroke="black" d="M131.04,-48.56C144.26,-43.33 162.62,-36.07 177.67,-30.11"/>
<polygon fill="black" stroke="black" points="178.99,-33.35 187,-26.42 176.41,-26.84 178.99,-33.35"/>
<text text-anchor="middle" x="158.99" y="-44.3" font-family="Times New Roman,serif" font-size="14.00">1/0</text>
</g>
<!-- 10&#45;&gt;00 -->
<g id="edge6" class="edge">
<title>10&#45;&gt;00</title>
<path fill="none" stroke="black" d="M186.05,-17.22C171.42,-15.54 150.43,-13.39 131.99,-12.5 114.68,-11.66 110.31,-11.66 93,-12.5 78.45,-13.2 62.31,-14.69 48.96,-16.11"/>
<polygon fill="black" stroke="black" points="48.49,-12.64 38.94,-17.22 49.26,-19.6 48.49,-12.64"/>
<text text-anchor="middle" x="112.49" y="-16.3" font-family="Times New Roman,serif" font-size="14.00">1/1</text>
</g>
<!-- 10&#45;&gt;10 -->
<g id="edge3" class="edge">
<title>10&#45;&gt;10</title>
<path fill="none" stroke="black" d="M197.34,-37.24C195.68,-47.47 198.39,-57 205.49,-57 210.04,-57 212.79,-53.09 213.74,-47.59"/>
<polygon fill="black" stroke="black" points="217.24,-47.21 213.64,-37.24 210.24,-47.28 217.24,-47.21"/>
<text text-anchor="middle" x="205.49" y="-60.8" font-family="Times New Roman,serif" font-size="14.00">0/0</text>
</g>
</g>
</svg>
