<?xml version="1.0" encoding="UTF-8" standalone="no"?>
<!DOCTYPE svg PUBLIC "-//W3C//DTD SVG 1.1//EN"
 "http://www.w3.org/Graphics/SVG/1.1/DTD/svg11.dtd">
<!-- Generated by graphviz version 2.48.0 (20210717.1556)
 -->
<!-- Title: finite_state_machine Pages: 1 -->
<svg width="224pt" height="112pt"
 viewBox="0.00 0.00 224.00 112.00" xmlns="http://www.w3.org/2000/svg" xmlns:xlink="http://www.w3.org/1999/xlink">
<g id="graph0" class="graph" transform="scale(1 1) rotate(0) translate(4 108)">
<title>finite_state_machine</title>
<polygon fill="white" stroke="transparent" points="-4,4 -4,-108 220,-108 220,4 -4,4"/>
<!-- 1 -->
<g id="node1" class="node">
<title>1</title>
<ellipse fill="none" stroke="black" cx="18" cy="-18" rx="18" ry="18"/>
<text text-anchor="middle" x="18" y="-14.3" font-family="Times New Roman,serif" font-size="14.00">1</text>
</g>
<!-- 1&#45;&gt;1 -->
<g id="edge1" class="edge">
<title>1&#45;&gt;1</title>
<path fill="none" stroke="black" d="M10.33,-34.29C8.48,-44.39 11.04,-54 18,-54 22.46,-54 25.11,-50.06 25.95,-44.57"/>
<polygon fill="black" stroke="black" points="29.45,-44.19 25.67,-34.29 22.45,-44.38 29.45,-44.19"/>
<text text-anchor="middle" x="18" y="-57.8" font-family="Times New Roman,serif" font-size="14.00">0/0</text>
</g>
<!-- 2 -->
<g id="node2" class="node">
<title>2</title>
<ellipse fill="none" stroke="black" cx="108" cy="-53" rx="18" ry="18"/>
<text text-anchor="middle" x="108" y="-49.3" font-family="Times New Roman,serif" font-size="14.00">2</text>
</g>
<!-- 1&#45;&gt;2 -->
<g id="edge4" class="edge">
<title>1&#45;&gt;2</title>
<path fill="none" stroke="black" d="M35.14,-24.42C48.04,-29.55 66.37,-36.84 81.29,-42.77"/>
<polygon fill="black" stroke="black" points="80.38,-46.18 90.96,-46.62 82.96,-39.67 80.38,-46.18"/>
<text text-anchor="middle" x="63" y="-41.8" font-family="Times New Roman,serif" font-size="14.00">1/0</text>
</g>
<!-- 2&#45;&gt;2 -->
<g id="edge2" class="edge">
<title>2&#45;&gt;2</title>
<path fill="none" stroke="black" d="M100.33,-69.29C98.48,-79.39 101.04,-89 108,-89 112.46,-89 115.11,-85.06 115.95,-79.57"/>
<polygon fill="black" stroke="black" points="119.45,-79.19 115.67,-69.29 112.45,-79.38 119.45,-79.19"/>
<text text-anchor="middle" x="108" y="-92.8" font-family="Times New Roman,serif" font-size="14.00">0/0</text>
</g>
<!-- 3 -->
<g id="node3" class="node">
<title>3</title>
<ellipse fill="none" stroke="black" cx="198" cy="-18" rx="18" ry="18"/>
<text text-anchor="middle" x="198" y="-14.3" font-family="Times New Roman,serif" font-size="14.00">3</text>
</g>
<!-- 2&#45;&gt;3 -->
<g id="edge5" class="edge">
<title>2&#45;&gt;3</title>
<path fill="none" stroke="black" d="M125.14,-46.58C138.04,-41.45 156.37,-34.16 171.29,-28.23"/>
<polygon fill="black" stroke="black" points="172.96,-31.33 180.96,-24.38 170.38,-24.82 172.96,-31.33"/>
<text text-anchor="middle" x="153" y="-41.8" font-family="Times New Roman,serif" font-size="14.00">1/0</text>
</g>
<!-- 3&#45;&gt;1 -->
<g id="edge6" class="edge">
<title>3&#45;&gt;1</title>
<path fill="none" stroke="black" d="M180.11,-15.86C165.74,-14.16 144.56,-11.91 126,-11 110.02,-10.21 105.98,-10.21 90,-11 75.5,-11.71 59.4,-13.24 46.2,-14.69"/>
<polygon fill="black" stroke="black" points="45.43,-11.25 35.89,-15.86 46.23,-18.21 45.43,-11.25"/>
<text text-anchor="middle" x="108" y="-14.8" font-family="Times New Roman,serif" font-size="14.00">1/1</text>
</g>
<!-- 3&#45;&gt;3 -->
<g id="edge3" class="edge">
<title>3&#45;&gt;3</title>
<path fill="none" stroke="black" d="M190.33,-34.29C188.48,-44.39 191.04,-54 198,-54 202.46,-54 205.11,-50.06 205.95,-44.57"/>
<polygon fill="black" stroke="black" points="209.45,-44.19 205.67,-34.29 202.45,-44.38 209.45,-44.19"/>
<text text-anchor="middle" x="198" y="-57.8" font-family="Times New Roman,serif" font-size="14.00">0/0</text>
</g>
</g>
</svg>
