<?xml version="1.0" encoding="UTF-8" standalone="no"?>
<!DOCTYPE svg PUBLIC "-//W3C//DTD SVG 1.1//EN"
 "http://www.w3.org/Graphics/SVG/1.1/DTD/svg11.dtd">
<!-- Generated by graphviz version 2.48.0 (20210717.1556)
 -->
<!-- Title: finite_state_machine Pages: 1 -->
<svg width="159pt" height="109pt"
 viewBox="0.00 0.00 159.00 108.77" xmlns="http://www.w3.org/2000/svg" xmlns:xlink="http://www.w3.org/1999/xlink">
<g id="graph0" class="graph" transform="scale(1 1) rotate(0) translate(4 104.77)">
<title>finite_state_machine</title>
<polygon fill="white" stroke="transparent" points="-4,4 -4,-104.77 155,-104.77 155,4 -4,4"/>
<!-- 0 -->
<g id="node1" class="node">
<title>0</title>
<ellipse fill="none" stroke="black" cx="22.5" cy="-19.77" rx="18" ry="18"/>
<text text-anchor="middle" x="22.5" y="-16.07" font-family="Times New Roman,serif" font-size="14.00">0</text>
</g>
<!-- 0&#45;&gt;0 -->
<g id="edge1" class="edge">
<title>0&#45;&gt;0</title>
<path fill="none" stroke="black" d="M13.52,-35.68C11.18,-45.92 14.17,-55.77 22.5,-55.77 27.97,-55.77 31.13,-51.53 32,-45.72"/>
<polygon fill="black" stroke="black" points="35.5,-45.49 31.48,-35.68 28.51,-45.85 35.5,-45.49"/>
<text text-anchor="middle" x="22.5" y="-89.57" font-family="Times New Roman,serif" font-size="14.00">00/0</text>
<text text-anchor="middle" x="22.5" y="-74.57" font-family="Times New Roman,serif" font-size="14.00">01/1</text>
<text text-anchor="middle" x="22.5" y="-59.57" font-family="Times New Roman,serif" font-size="14.00">10/1</text>
</g>
<!-- 1 -->
<g id="node2" class="node">
<title>1</title>
<ellipse fill="none" stroke="black" cx="128.5" cy="-19.77" rx="18" ry="18"/>
<text text-anchor="middle" x="128.5" y="-16.07" font-family="Times New Roman,serif" font-size="14.00">1</text>
</g>
<!-- 0&#45;&gt;1 -->
<g id="edge3" class="edge">
<title>0&#45;&gt;1</title>
<path fill="none" stroke="black" d="M40.67,-19.77C56.86,-19.77 81.37,-19.77 100.23,-19.77"/>
<polygon fill="black" stroke="black" points="100.3,-23.27 110.3,-19.77 100.3,-16.27 100.3,-23.27"/>
<text text-anchor="middle" x="75.5" y="-23.57" font-family="Times New Roman,serif" font-size="14.00">11/0</text>
</g>
<!-- 1&#45;&gt;0 -->
<g id="edge2" class="edge">
<title>1&#45;&gt;0</title>
<path fill="none" stroke="black" d="M112.65,-11.17C105.45,-7.49 96.54,-3.62 88,-1.77 77.14,0.59 73.86,0.59 63,-1.77 57.79,-2.9 52.45,-4.78 47.44,-6.9"/>
<polygon fill="black" stroke="black" points="45.92,-3.75 38.35,-11.17 48.89,-10.09 45.92,-3.75"/>
<text text-anchor="middle" x="75.5" y="-5.57" font-family="Times New Roman,serif" font-size="14.00">00/1</text>
</g>
<!-- 1&#45;&gt;1 -->
<g id="edge4" class="edge">
<title>1&#45;&gt;1</title>
<path fill="none" stroke="black" d="M119.52,-35.68C117.18,-45.92 120.17,-55.77 128.5,-55.77 133.97,-55.77 137.13,-51.53 138,-45.72"/>
<polygon fill="black" stroke="black" points="141.5,-45.49 137.48,-35.68 134.51,-45.85 141.5,-45.49"/>
<text text-anchor="middle" x="128.5" y="-89.57" font-family="Times New Roman,serif" font-size="14.00">01/0</text>
<text text-anchor="middle" x="128.5" y="-74.57" font-family="Times New Roman,serif" font-size="14.00">10/0</text>
<text text-anchor="middle" x="128.5" y="-59.57" font-family="Times New Roman,serif" font-size="14.00">11/1</text>
</g>
</g>
</svg>
